<svg width="1329" height="1249" viewBox="0 0 1329 1249" fill="none" xmlns="http://www.w3.org/2000/svg">
<path d="M885.538 786.5L887.651 784.371L885.538 782.274L883.425 784.371L885.538 786.5ZM794.542 876.805L791.542 876.797L791.523 884.027L796.655 878.934L794.542 876.805ZM976.535 876.805L974.422 878.934L979.535 884.008V876.805H976.535ZM976.535 696.196H979.535V694.947L978.648 694.067L976.535 696.196ZM885.538 605.892L887.652 603.763L885.538 601.666L883.425 603.763L885.538 605.892ZM794.542 696.196L792.429 694.067L791.282 695.205L791.601 696.789L794.542 696.196ZM1230.37 438.026L1228.25 435.897L1226.11 438.026L1228.25 440.155L1230.37 438.026ZM1321.36 347.722L1323.48 349.851L1328.66 344.703L1321.35 344.722L1321.36 347.722ZM1321.36 528.33V531.33H1328.64L1323.48 526.201L1321.36 528.33ZM1139.37 528.33L1137.26 530.46L1138.13 531.33H1139.37V528.33ZM1048.37 438.026L1046.26 435.897L1044.11 438.026L1046.26 440.155L1048.37 438.026ZM1139.37 347.722L1139.95 344.779L1138.39 344.469L1137.26 345.592L1139.37 347.722ZM1270.04 187.472L1272.15 189.607L1277.35 184.472L1270.04 184.472L1270.04 187.472ZM1141.35 187.472H1138.35V190.472L1141.35 190.472L1141.35 187.472ZM1141.35 315.181V318.181H1142.95L1143.84 316.854L1141.35 315.181ZM1012.66 315.181H1009.66V318.181H1012.66V315.181ZM1012.66 305.689L1010.54 303.567L1009.66 304.446V305.689H1012.66ZM1141.35 177H1144.35V169.757L1139.23 174.879L1141.35 177ZM862.703 455.647L860.582 453.525L859.703 454.404V455.647H862.703ZM894.763 423.586V420.586H893.521L892.642 421.465L894.763 423.586ZM899.23 423.586H902.23V420.586H899.23V423.586ZM899.23 460.128V463.128H902.23V460.128H899.23ZM862.703 460.128H859.703V463.128H862.703V460.128ZM633.414 694.85L636.414 694.85L636.414 691.85H633.414V694.85ZM623.5 694.85L621.379 692.729L616.257 697.85H623.5V694.85ZM633.414 822.559L630.414 822.559L630.414 829.763L635.527 824.689L633.414 822.559ZM762.103 694.85L764.216 696.979L765.103 696.099L765.103 694.85L762.103 694.85ZM762.103 567.14L765.103 567.14L765.103 564.14H762.103V567.14ZM751.209 567.14V564.14H749.967L749.088 565.019L751.209 567.14ZM1141.35 694.85V691.85H1138.35V694.85H1141.35ZM1270.04 694.85V697.85H1277.35L1272.15 692.715L1270.04 694.85ZM1141.35 822.559L1139.24 824.689L1144.35 829.763V822.559H1141.35ZM1012.66 694.85H1009.66V696.099L1010.55 696.979L1012.66 694.85ZM1012.66 567.14V564.14H1009.66V567.14H1012.66ZM1141.35 567.14L1143.84 565.468L1142.95 564.14H1141.35V567.14ZM956.095 423.586H959.095V420.586H956.095V423.586ZM919.569 423.586V420.586H916.569V423.586H919.569ZM956.095 460.128V463.128H959.095V460.128H956.095ZM919.569 460.128H916.569V463.128H919.569V460.128ZM862.703 479.099V476.099H859.703V479.099H862.703ZM899.23 479.099H902.23V476.099H899.23V479.099ZM862.703 515.641H859.703V518.641H862.703V515.641ZM899.23 515.641V518.641H902.23V515.641H899.23ZM1009.23 474.065H1012.23V471.065H1009.23V474.065ZM972.698 474.065V471.065H969.698V474.065H972.698ZM1009.23 510.606V513.606H1012.23V510.606H1009.23ZM972.698 510.606H969.698V513.606H972.698V510.606ZM919.569 567.988H916.569V570.988H919.569V567.988ZM919.569 531.446V528.446H916.569V531.446H919.569ZM956.095 567.988V570.988H959.095V567.988H956.095ZM956.095 531.446H959.095V528.446H956.095V531.446ZM1009.23 366.153H1012.23V363.153H1009.23V366.153ZM972.698 366.153V363.153H969.698V366.153H972.698ZM1009.23 402.694V405.694H1012.23V402.694H1009.23ZM972.698 402.694H969.698V405.694H972.698V402.694ZM804.852 567.988H801.852V570.988H804.852V567.988ZM804.852 531.446V528.446H801.852V531.446H804.852ZM841.379 567.988V570.988H844.379V567.988H841.379ZM841.379 531.446H844.379V528.446H841.379V531.446ZM883.425 784.371L792.428 874.675L796.655 878.934L887.651 788.63L883.425 784.371ZM978.648 874.675L887.651 784.371L883.425 788.63L974.422 878.934L978.648 874.675ZM973.535 696.196V876.805H979.535V696.196H973.535ZM883.425 608.021L974.422 698.326L978.648 694.067L887.652 603.763L883.425 608.021ZM796.655 698.326L887.652 608.021L883.425 603.763L792.429 694.067L796.655 698.326ZM797.542 876.812C797.618 847.086 797.709 802.384 797.735 764.886C797.748 746.138 797.746 729.188 797.717 716.811C797.702 710.623 797.681 705.574 797.652 702.013C797.638 700.233 797.622 698.817 797.603 697.813C797.594 697.313 797.583 696.902 797.572 696.595C797.567 696.443 797.56 696.299 797.552 696.176C797.549 696.125 797.535 695.864 797.483 695.604L791.601 696.789C791.56 696.585 791.557 696.438 791.564 696.557C791.567 696.603 791.571 696.686 791.576 696.814C791.585 697.068 791.595 697.437 791.604 697.925C791.622 698.897 791.638 700.288 791.653 702.061C791.681 705.605 791.702 710.64 791.717 716.825C791.746 729.193 791.748 746.135 791.735 764.882C791.709 802.374 791.618 847.073 791.542 876.797L797.542 876.812ZM1232.48 440.155L1323.48 349.851L1319.25 345.592L1228.25 435.897L1232.48 440.155ZM1323.48 526.201L1232.48 435.897L1228.25 440.155L1319.25 530.46L1323.48 526.201ZM1139.37 531.33H1321.36V525.33H1139.37V531.33ZM1046.26 440.155L1137.26 530.46L1141.48 526.201L1050.49 435.897L1046.26 440.155ZM1137.26 345.592L1046.26 435.897L1050.49 440.155L1141.48 349.851L1137.26 345.592ZM1321.35 344.722C1291.4 344.797 1246.36 344.887 1208.58 344.914C1189.69 344.927 1172.62 344.924 1160.16 344.895C1153.92 344.881 1148.85 344.86 1145.28 344.832C1143.49 344.818 1142.09 344.801 1141.11 344.783C1140.62 344.774 1140.25 344.765 1139.99 344.756C1139.86 344.751 1139.78 344.747 1139.73 344.744C1139.61 344.737 1139.75 344.739 1139.95 344.779L1138.79 350.664C1139.04 350.715 1139.3 350.729 1139.35 350.732C1139.48 350.74 1139.62 350.747 1139.77 350.752C1140.08 350.763 1140.5 350.773 1141 350.782C1142.01 350.801 1143.44 350.817 1145.23 350.832C1148.82 350.86 1153.91 350.881 1160.14 350.895C1172.61 350.924 1189.69 350.927 1208.59 350.914C1246.37 350.887 1291.42 350.797 1321.37 350.722L1321.35 344.722ZM1270.04 184.472L1141.35 184.472L1141.35 190.472L1270.04 190.472L1270.04 184.472ZM1143.84 316.854C1143.72 317.026 1143.62 317.13 1143.7 317.041C1143.73 317.006 1143.79 316.945 1143.88 316.85C1144.05 316.664 1144.31 316.396 1144.65 316.045C1145.33 315.345 1146.31 314.35 1147.56 313.086C1150.07 310.56 1153.64 306.985 1158.04 302.601C1166.83 293.836 1178.9 281.854 1192.27 268.607C1219 242.114 1250.91 210.572 1272.15 189.607L1267.93 185.337C1246.7 206.304 1214.78 237.849 1188.04 264.345C1174.68 277.593 1162.6 289.58 1153.8 298.352C1149.4 302.738 1145.82 306.323 1143.3 308.861C1142.05 310.129 1141.05 311.142 1140.35 311.865C1140 312.225 1139.71 312.523 1139.5 312.748C1139.4 312.859 1139.3 312.965 1139.22 313.058C1139.18 313.096 1139.01 313.289 1138.86 313.508L1143.84 316.854ZM1012.66 318.181H1141.35V312.181H1012.66V318.181ZM1009.66 305.689V315.181H1015.66V305.689H1009.66ZM1014.78 307.81L1143.47 179.121L1139.23 174.879L1010.54 303.567L1014.78 307.81ZM1144.35 187.472V177H1138.35V187.472H1144.35ZM864.824 457.768L896.885 425.708L892.642 421.465L860.582 453.525L864.824 457.768ZM899.23 420.586H894.763V426.586H899.23V420.586ZM902.23 460.128V423.586H896.23V460.128H902.23ZM862.703 463.128H899.23V457.128H862.703V463.128ZM859.703 455.647V460.128H865.703V455.647H859.703ZM633.414 691.85H623.5V697.85H633.414V691.85ZM636.414 822.559L636.414 694.85L630.414 694.85L630.414 822.559L636.414 822.559ZM759.989 692.72L631.301 820.43L635.527 824.689L764.216 696.979L759.989 692.72ZM759.103 567.14L759.103 694.85L765.103 694.85L765.103 567.14L759.103 567.14ZM751.209 570.14H762.103V564.14H751.209V570.14ZM625.621 696.971L753.331 569.262L749.088 565.019L621.379 692.729L625.621 696.971ZM1141.35 697.85H1270.04V691.85H1141.35V697.85ZM1144.35 822.559V694.85H1138.35V822.559H1144.35ZM1010.55 696.979L1139.24 824.689L1143.46 820.43L1014.77 692.72L1010.55 696.979ZM1009.66 567.14V694.85H1015.66V567.14H1009.66ZM1141.35 564.14H1012.66V570.14H1141.35V564.14ZM1272.15 692.715C1250.91 671.75 1219 640.207 1192.27 613.715C1178.9 600.468 1166.83 588.486 1158.04 579.72C1153.64 575.337 1150.07 571.762 1147.56 569.236C1146.31 567.972 1145.33 566.977 1144.65 566.277C1144.31 565.925 1144.05 565.658 1143.88 565.471C1143.79 565.377 1143.73 565.316 1143.7 565.281C1143.62 565.191 1143.72 565.296 1143.84 565.468L1138.86 568.813C1139.01 569.033 1139.18 569.226 1139.22 569.264C1139.3 569.357 1139.4 569.463 1139.5 569.574C1139.71 569.799 1140 570.096 1140.35 570.457C1141.05 571.179 1142.05 572.192 1143.3 573.461C1145.82 575.999 1149.4 579.584 1153.8 583.969C1162.6 592.741 1174.68 604.729 1188.04 617.977C1214.78 644.473 1246.7 676.018 1267.93 696.985L1272.15 692.715ZM956.095 420.586H919.569V426.586H956.095V420.586ZM959.095 460.128V423.586H953.095V460.128H959.095ZM919.569 463.128H956.095V457.128H919.569V463.128ZM916.569 423.586V460.128H922.569V423.586H916.569ZM862.703 482.099H899.23V476.099H862.703V482.099ZM865.703 515.641V479.099H859.703V515.641H865.703ZM899.23 512.641H862.703V518.641H899.23V512.641ZM896.23 479.099V515.641H902.23V479.099H896.23ZM1009.23 471.065H972.698V477.065H1009.23V471.065ZM1012.23 510.606V474.065H1006.23V510.606H1012.23ZM972.698 513.606H1009.23V507.606H972.698V513.606ZM969.698 474.065V510.606H975.698V474.065H969.698ZM922.569 567.988V531.446H916.569V567.988H922.569ZM956.095 564.988H919.569V570.988H956.095V564.988ZM953.095 531.446V567.988H959.095V531.446H953.095ZM919.569 534.446H956.095V528.446H919.569V534.446ZM1009.23 363.153H972.698V369.153H1009.23V363.153ZM1012.23 402.694V366.153H1006.23V402.694H1012.23ZM972.698 405.694H1009.23V399.694H972.698V405.694ZM969.698 366.153V402.694H975.698V366.153H969.698ZM807.852 567.988V531.446H801.852V567.988H807.852ZM841.379 564.988H804.852V570.988H841.379V564.988ZM838.379 531.446V567.988H844.379V531.446H838.379ZM804.852 534.446H841.379V528.446H804.852V534.446Z" fill="black"/>
<path d="M66 1245.5L1308.5 3" stroke="black" stroke-width="8"/>
<path d="M466.057 843.492L468.178 845.613L470.313 843.479L468.165 841.357L466.057 843.492ZM294.836 1014.71L292.725 1016.84L294.847 1018.94L296.958 1016.83L294.836 1014.71ZM6 807.84L3.98552 805.617L0.822696 808.483L4.59059 810.488L6 807.84ZM111.073 712.624L113.088 714.847L114.073 713.954V712.624H111.073ZM111.073 608.752H114.073V608.584L114.054 608.417L111.073 608.752ZM6 504.88L3.4354 503.323L1.92055 505.819L4.37441 507.401L6 504.88ZM312.463 292.808L313.483 295.63L315.463 294.914V292.808H312.463ZM312.463 137L314.807 135.127L309.463 128.44V137H312.463ZM694.471 615.077L696.593 617.199L698.49 615.301L696.815 613.205L694.471 615.077ZM593.887 715.661L591.106 716.786L592.806 720.986L596.009 717.782L593.887 715.661ZM592.659 712.624L595.44 711.499L594.71 709.695L592.764 709.626L592.659 712.624ZM391.268 669.344L392.598 666.655L392.598 666.655L391.268 669.344ZM312.463 569.8H315.463V565.271L311.293 567.038L312.463 569.8ZM286.195 634.72L283.206 634.972L283.206 634.972L286.195 634.72ZM246.793 690.984H249.793V689.275L248.323 688.404L246.793 690.984ZM181.122 652.032L182.652 649.452L181.252 648.621L179.793 649.343L181.122 652.032ZM246.793 738.592L247.896 741.382L249.793 740.632V738.592H246.793ZM203.012 755.904L201.603 758.552L202.826 759.204L204.115 758.694L203.012 755.904ZM146.098 725.608L143.139 726.107L143.385 727.563L144.688 728.256L146.098 725.608ZM137.341 673.672L136.012 670.983L134.012 671.971L134.383 674.171L137.341 673.672ZM10.378 574.128L12.1085 571.677L7.37805 568.337V574.128H10.378ZM71.6707 617.408H74.6707V615.854L73.4012 614.957L71.6707 617.408ZM10.378 652.032H7.37805V653.5L8.53777 654.401L10.378 652.032ZM71.6707 699.64L69.8305 702.009L74.6707 705.769V699.64H71.6707ZM463.936 841.37L292.715 1012.59L296.958 1016.83L468.178 845.613L463.936 841.37ZM4.59059 810.488C131.077 877.803 216.581 941.423 292.725 1016.84L296.948 1012.58C220.337 936.698 134.344 872.745 7.40941 805.192L4.59059 810.488ZM109.059 710.401L3.98552 805.617L8.01448 810.063L113.088 714.847L109.059 710.401ZM108.073 608.752V712.624H114.073V608.752H108.073ZM4.37441 507.401C44.4848 533.261 70.1672 555.817 85.9648 573.426C93.8642 582.232 99.268 589.773 102.769 595.846C106.303 601.976 107.793 606.43 108.092 609.087L114.054 608.417C113.623 604.582 111.684 599.298 107.967 592.85C104.217 586.344 98.5479 578.467 90.4309 569.42C74.1958 551.323 48.0713 528.435 7.62559 502.359L4.37441 507.401ZM311.444 289.986C273.326 303.755 212.281 330.892 152.839 367.619C93.4619 404.305 35.3293 450.775 3.4354 503.323L8.5646 506.437C39.7146 455.113 96.8706 409.252 155.993 372.723C215.05 336.235 275.715 309.272 313.483 295.63L311.444 289.986ZM309.463 137V292.808H315.463V137H309.463ZM696.815 613.205L314.807 135.127L310.12 138.873L692.128 616.95L696.815 613.205ZM692.35 612.956L591.766 713.54L596.009 717.782L696.593 617.199L692.35 612.956ZM589.878 713.749L591.106 716.786L596.668 714.536L595.44 711.499L589.878 713.749ZM389.939 672.033C453.575 703.488 551.591 714.176 592.553 715.622L592.764 709.626C552.003 708.187 455.049 697.523 392.598 666.655L389.939 672.033ZM309.463 569.8C309.463 591.202 325.93 640.395 389.939 672.033L392.598 666.655C330.519 635.97 315.463 588.793 315.463 569.8H309.463ZM289.185 634.468C285.772 593.992 304.804 576.303 313.634 572.562L311.293 567.038C299.692 571.953 279.613 592.351 283.206 634.972L289.185 634.468ZM468.165 841.357C422.907 796.651 378.552 751.109 345.25 713.469C328.594 694.644 314.747 677.846 304.943 664.147C300.039 657.295 296.184 651.272 293.5 646.195C290.778 641.047 289.41 637.146 289.185 634.468L283.206 634.972C283.536 638.89 285.376 643.666 288.196 648.999C291.054 654.405 295.075 660.67 300.063 667.639C310.043 681.582 324.044 698.556 340.756 717.445C374.191 755.233 418.655 800.885 463.949 845.626L468.165 841.357ZM248.323 688.404L182.652 649.452L179.591 654.612L245.262 693.564L248.323 688.404ZM249.793 738.592V690.984H243.793V738.592H249.793ZM204.115 758.694L247.896 741.382L245.69 735.802L201.909 753.114L204.115 758.694ZM144.688 728.256L201.603 758.552L204.422 753.256L147.507 722.96L144.688 728.256ZM134.383 674.171L143.139 726.107L149.056 725.109L140.3 673.173L134.383 674.171ZM179.793 649.343L136.012 670.983L138.671 676.361L182.451 654.721L179.793 649.343ZM8.64761 576.579L69.9403 619.859L73.4012 614.957L12.1085 571.677L8.64761 576.579ZM13.378 652.032V574.128H7.37805V652.032H13.378ZM73.511 697.271L12.2183 649.663L8.53777 654.401L69.8305 702.009L73.511 697.271ZM68.6707 617.408V699.64H74.6707V617.408H68.6707Z" fill="black"/>
</svg>
