<svg width="1320" height="1249" viewBox="0 0 1320 1249" fill="none" xmlns="http://www.w3.org/2000/svg">
<path d="M351.114 951.435L353.942 954.263L355.114 953.092V951.435H351.114ZM281.868 1020.68L279.192 1023.65L282.013 1026.19L284.697 1023.51L281.868 1020.68ZM6 772.404L3.1716 769.576L0.190302 772.557L3.32417 775.377L6 772.404ZM109.534 668.872L112.458 666.143L109.633 663.116L106.706 666.044L109.534 668.872ZM351.114 927.702H355.114V926.125L354.038 924.973L351.114 927.702ZM743.939 558.609L746.768 561.438L747.815 560.391L747.928 558.914L743.939 558.609ZM530.886 771.662H526.886V781.319L533.715 774.491L530.886 771.662ZM530.886 755.149L527.632 752.824L526.886 753.867V755.149H530.886ZM617.165 634.362L620.42 636.687L624.938 630.362H617.165V634.362ZM565.398 634.362L562.569 637.19L563.741 638.362H565.398V634.362ZM655.11 496.319L658.014 499.07L659.005 498.023L659.101 496.584L655.11 496.319ZM565.398 427.298H561.398V430.625L564.669 431.231L565.398 427.298ZM565.398 272V268H561.398V272H565.398ZM737.955 375.532L741.93 375.09L741.823 374.123L741.283 373.313L737.955 375.532ZM316.602 272H320.602V268H316.602V272ZM144.045 375.532L140.717 373.313L140.177 374.123L140.07 375.09L144.045 375.532ZM316.602 427.298L317.331 431.231L320.602 430.625V427.298H316.602ZM226.89 496.319L222.899 496.584L222.995 498.023L223.986 499.07L226.89 496.319ZM316.602 634.362V638.362H318.259L319.431 637.19L316.602 634.362ZM264.835 634.362V630.362H257.062L261.58 636.687L264.835 634.362ZM351.114 755.149H355.114V753.867L354.368 752.824L351.114 755.149ZM351.114 841.426L348.423 844.385L355.114 850.468V841.426H351.114ZM144.045 599.851L140.165 600.821L144.045 599.851ZM468.576 649.926L464.956 651.627L465.569 652.933L466.876 653.547L468.576 649.926ZM441.001 591.226L444.621 589.525L441.001 581.818L437.381 589.525L441.001 591.226ZM527.278 677.501L528.979 681.121L536.686 677.501L528.979 673.88L527.278 677.501ZM468.576 705.076L466.876 701.455L465.569 702.069L464.956 703.375L468.576 705.076ZM441.001 763.776L437.381 765.477L441.001 773.184L444.621 765.477L441.001 763.776ZM413.426 705.076L417.046 703.375L416.433 702.069L415.127 701.455L413.426 705.076ZM354.724 677.501L353.023 673.88L345.316 677.501L353.023 681.121L354.724 677.501ZM413.426 649.926L415.127 653.547L416.433 652.933L417.046 651.627L413.426 649.926ZM348.285 948.607L279.04 1017.85L284.697 1023.51L353.942 954.263L348.285 948.607ZM3.32417 775.377L279.192 1023.65L284.544 1017.71L8.67583 769.431L3.32417 775.377ZM106.706 666.044L3.1716 769.576L8.8284 775.233L112.362 671.701L106.706 666.044ZM354.038 924.973L112.458 666.143L106.61 671.602L348.189 930.431L354.038 924.973ZM355.114 951.435V927.702H347.114V951.435H355.114ZM741.111 555.781L528.058 768.834L533.715 774.491L746.768 561.438L741.111 555.781ZM526.886 755.149V771.662H534.886V755.149H526.886ZM613.91 632.037L527.632 752.824L534.141 757.474L620.42 636.687L613.91 632.037ZM565.398 638.362H617.165V630.362H565.398V638.362ZM565.398 544.085C547.815 544.085 535.961 547.706 529.318 554.784C522.46 562.091 522.184 571.897 524.878 581.517C527.575 591.152 533.449 601.477 540.304 611.073C547.194 620.719 555.253 629.873 562.569 637.19L568.226 631.533C561.163 624.47 553.404 615.65 546.813 606.423C540.187 597.147 534.917 587.7 532.581 579.36C530.242 571.006 531.044 564.635 535.151 560.259C539.473 555.654 548.469 552.085 565.398 552.085V544.085ZM652.206 493.568C624.202 523.132 593.867 544.085 565.398 544.085V552.085C597.432 552.085 629.811 528.843 658.014 499.07L652.206 493.568ZM564.669 431.231C579.881 434.049 602.504 440.822 620.866 451.864C639.387 463.002 652.338 477.672 651.118 496.054L659.101 496.584C660.628 473.554 644.247 456.589 624.988 445.008C605.569 433.33 581.963 426.299 566.126 423.365L564.669 431.231ZM561.398 272V427.298H569.398V272H561.398ZM741.283 373.313C729.532 355.687 706.772 329.448 676.448 307.58C646.124 285.712 607.929 268 565.398 268V276C605.694 276 642.274 292.799 671.769 314.069C701.265 335.339 723.37 360.866 734.626 377.751L741.283 373.313ZM747.928 558.914C752.534 498.704 746.497 416.195 741.93 375.09L733.979 375.974C738.529 416.925 744.5 498.846 739.951 558.304L747.928 558.914ZM316.602 268C274.071 268 235.876 285.712 205.552 307.58C175.228 329.448 152.468 355.687 140.717 373.313L147.374 377.751C158.63 360.866 180.735 335.339 210.231 314.069C239.726 292.799 276.306 276 316.602 276V268ZM320.602 427.298V272H312.602V427.298H320.602ZM230.882 496.054C229.662 477.672 242.613 463.002 261.134 451.864C279.496 440.822 302.119 434.049 317.331 431.231L315.874 423.365C300.037 426.299 276.431 433.33 257.012 445.008C237.753 456.589 221.372 473.554 222.899 496.584L230.882 496.054ZM316.602 544.085C288.133 544.085 257.798 523.132 229.794 493.568L223.986 499.07C252.189 528.843 284.568 552.085 316.602 552.085V544.085ZM319.431 637.19C326.747 629.873 334.806 620.719 341.696 611.073C348.551 601.477 354.425 591.152 357.122 581.517C359.816 571.897 359.54 562.091 352.682 554.784C346.039 547.706 334.185 544.085 316.602 544.085V552.085C333.531 552.085 342.527 555.654 346.849 560.259C350.956 564.635 351.758 571.006 349.419 579.36C347.083 587.7 341.813 597.147 335.187 606.423C328.596 615.65 320.837 624.47 313.774 631.533L319.431 637.19ZM264.835 638.362H316.602V630.362H264.835V638.362ZM354.368 752.824L268.09 632.037L261.58 636.687L347.859 757.474L354.368 752.824ZM355.114 841.426V755.149H347.114V841.426H355.114ZM140.165 600.821C143.819 615.439 154.953 634.384 170.094 655.159C185.329 676.064 204.955 699.262 226.071 722.468C268.309 768.885 316.72 815.565 348.423 844.385L353.804 838.466C322.236 809.768 274.015 763.269 231.988 717.083C210.972 693.987 191.557 671.027 176.559 650.447C161.466 629.738 151.174 611.872 147.926 598.881L140.165 600.821ZM140.07 375.09C137.183 401.071 133.723 443.464 132.713 486.303C131.706 529.014 133.119 572.637 140.165 600.821L147.926 598.881C141.168 571.848 139.704 529.194 140.711 486.492C141.714 443.917 145.156 401.759 148.021 375.974L140.07 375.09ZM472.197 648.226L444.621 589.525L437.381 592.926L464.956 651.627L472.197 648.226ZM528.979 673.88L470.277 646.306L466.876 653.547L525.577 681.121L528.979 673.88ZM470.277 708.696L528.979 681.121L525.577 673.88L466.876 701.455L470.277 708.696ZM444.621 765.477L472.197 706.776L464.956 703.375L437.381 762.075L444.621 765.477ZM409.805 706.776L437.381 765.477L444.621 762.075L417.046 703.375L409.805 706.776ZM353.023 681.121L411.725 708.696L415.127 701.455L356.425 673.88L353.023 681.121ZM411.725 646.306L353.023 673.88L356.425 681.121L415.127 653.547L411.725 646.306ZM437.381 589.525L409.805 648.226L417.046 651.627L444.621 592.926L437.381 589.525Z" fill="black"/>
<path d="M876.038 786.5L878.151 784.371L876.038 782.274L873.925 784.371L876.038 786.5ZM785.042 876.805L782.042 876.797L782.023 884.027L787.155 878.934L785.042 876.805ZM967.035 876.805L964.922 878.934L970.035 884.008V876.805H967.035ZM967.035 696.196H970.035V694.947L969.148 694.067L967.035 696.196ZM876.038 605.892L878.152 603.763L876.038 601.665L873.925 603.763L876.038 605.892ZM785.042 696.196L782.929 694.067L781.782 695.205L782.101 696.789L785.042 696.196ZM1220.87 438.026L1218.75 435.897L1216.61 438.026L1218.75 440.155L1220.87 438.026ZM1311.86 347.722L1313.98 349.851L1319.16 344.703L1311.85 344.722L1311.86 347.722ZM1311.86 528.33V531.33H1319.14L1313.98 526.201L1311.86 528.33ZM1129.87 528.33L1127.76 530.46L1128.63 531.33H1129.87V528.33ZM1038.87 438.026L1036.76 435.897L1034.61 438.026L1036.76 440.155L1038.87 438.026ZM1129.87 347.722L1130.45 344.779L1128.89 344.469L1127.76 345.592L1129.87 347.722ZM1260.54 187.472L1262.65 189.607L1267.85 184.472L1260.54 184.472L1260.54 187.472ZM1131.85 187.472H1128.85V190.472L1131.85 190.472L1131.85 187.472ZM1131.85 315.181V318.181H1133.45L1134.34 316.854L1131.85 315.181ZM1003.16 315.181H1000.16V318.181H1003.16V315.181ZM1003.16 305.689L1001.04 303.567L1000.16 304.446V305.689H1003.16ZM1131.85 177H1134.85V169.757L1129.73 174.879L1131.85 177ZM853.203 455.647L851.082 453.525L850.203 454.404V455.647H853.203ZM885.264 423.586V420.586H884.021L883.142 421.465L885.264 423.586ZM889.73 423.586H892.73V420.586H889.73V423.586ZM889.73 460.128V463.128H892.73V460.128H889.73ZM853.203 460.128H850.203V463.128H853.203V460.128ZM623.914 694.85L626.914 694.85L626.914 691.85H623.914V694.85ZM614 694.85L611.879 692.729L606.757 697.85H614V694.85ZM623.914 822.559L620.914 822.559L620.914 829.763L626.027 824.689L623.914 822.559ZM752.603 694.85L754.716 696.979L755.603 696.099L755.603 694.85L752.603 694.85ZM752.603 567.14L755.603 567.14L755.603 564.14H752.603V567.14ZM741.709 567.14V564.14H740.467L739.588 565.019L741.709 567.14ZM1131.85 694.85V691.85H1128.85V694.85H1131.85ZM1260.54 694.85V697.85H1267.85L1262.65 692.715L1260.54 694.85ZM1131.85 822.559L1129.74 824.689L1134.85 829.763V822.559H1131.85ZM1003.16 694.85H1000.16V696.099L1001.05 696.979L1003.16 694.85ZM1003.16 567.14V564.14H1000.16V567.14H1003.16ZM1131.85 567.14L1134.34 565.468L1133.45 564.14H1131.85V567.14ZM946.595 423.586H949.595V420.586H946.595V423.586ZM910.069 423.586V420.586H907.069V423.586H910.069ZM946.595 460.128V463.128H949.595V460.128H946.595ZM910.069 460.128H907.069V463.128H910.069V460.128ZM853.203 479.099V476.099H850.203V479.099H853.203ZM889.73 479.099H892.73V476.099H889.73V479.099ZM853.203 515.641H850.203V518.641H853.203V515.641ZM889.73 515.641V518.641H892.73V515.641H889.73ZM999.725 474.065H1002.73V471.065H999.725V474.065ZM963.198 474.065V471.065H960.198V474.065H963.198ZM999.725 510.606V513.606H1002.73V510.606H999.725ZM963.198 510.606H960.198V513.606H963.198V510.606ZM910.069 567.988H907.069V570.988H910.069V567.988ZM910.069 531.446V528.446H907.069V531.446H910.069ZM946.595 567.988V570.988H949.595V567.988H946.595ZM946.595 531.446H949.595V528.446H946.595V531.446ZM999.725 366.153H1002.73V363.153H999.725V366.153ZM963.198 366.153V363.153H960.198V366.153H963.198ZM999.725 402.694V405.694H1002.73V402.694H999.725ZM963.198 402.694H960.198V405.694H963.198V402.694ZM795.352 567.988H792.352V570.988H795.352V567.988ZM795.352 531.446V528.446H792.352V531.446H795.352ZM831.879 567.988V570.988H834.879V567.988H831.879ZM831.879 531.446H834.879V528.446H831.879V531.446ZM873.925 784.371L782.928 874.675L787.155 878.934L878.151 788.63L873.925 784.371ZM969.148 874.675L878.151 784.371L873.925 788.63L964.922 878.934L969.148 874.675ZM964.035 696.196V876.805H970.035V696.196H964.035ZM873.925 608.021L964.922 698.326L969.148 694.067L878.152 603.763L873.925 608.021ZM787.155 698.326L878.152 608.021L873.925 603.763L782.929 694.067L787.155 698.326ZM788.042 876.812C788.118 847.086 788.209 802.383 788.235 764.886C788.248 746.138 788.246 729.188 788.217 716.811C788.202 710.623 788.181 705.574 788.152 702.013C788.138 700.233 788.122 698.817 788.103 697.813C788.094 697.313 788.083 696.902 788.072 696.595C788.067 696.443 788.06 696.299 788.052 696.176C788.049 696.125 788.035 695.864 787.983 695.604L782.101 696.789C782.06 696.585 782.057 696.438 782.064 696.557C782.067 696.603 782.071 696.686 782.076 696.814C782.085 697.068 782.095 697.437 782.104 697.925C782.122 698.897 782.138 700.288 782.153 702.061C782.181 705.605 782.202 710.64 782.217 716.825C782.246 729.192 782.248 746.135 782.235 764.882C782.209 802.374 782.118 847.073 782.042 876.797L788.042 876.812ZM1222.98 440.155L1313.98 349.851L1309.75 345.592L1218.75 435.897L1222.98 440.155ZM1313.98 526.201L1222.98 435.897L1218.75 440.155L1309.75 530.46L1313.98 526.201ZM1129.87 531.33H1311.86V525.33H1129.87V531.33ZM1036.76 440.155L1127.76 530.46L1131.98 526.201L1040.99 435.897L1036.76 440.155ZM1127.76 345.592L1036.76 435.897L1040.99 440.155L1131.98 349.851L1127.76 345.592ZM1311.85 344.722C1281.9 344.797 1236.86 344.887 1199.08 344.914C1180.19 344.927 1163.12 344.924 1150.66 344.895C1144.42 344.881 1139.35 344.86 1135.78 344.832C1133.99 344.818 1132.59 344.801 1131.61 344.783C1131.12 344.774 1130.75 344.765 1130.49 344.756C1130.36 344.751 1130.28 344.747 1130.23 344.744C1130.11 344.737 1130.25 344.739 1130.45 344.779L1129.29 350.664C1129.54 350.715 1129.8 350.729 1129.85 350.732C1129.98 350.74 1130.12 350.747 1130.27 350.752C1130.58 350.763 1131 350.773 1131.5 350.782C1132.51 350.801 1133.94 350.817 1135.73 350.832C1139.32 350.86 1144.41 350.881 1150.64 350.895C1163.11 350.924 1180.19 350.927 1199.09 350.914C1236.87 350.887 1281.92 350.797 1311.87 350.722L1311.85 344.722ZM1260.54 184.472L1131.85 184.472L1131.85 190.472L1260.54 190.472L1260.54 184.472ZM1134.34 316.854C1134.22 317.026 1134.12 317.13 1134.2 317.041C1134.23 317.006 1134.29 316.945 1134.38 316.85C1134.55 316.664 1134.81 316.396 1135.15 316.045C1135.83 315.345 1136.81 314.35 1138.06 313.086C1140.57 310.56 1144.14 306.985 1148.54 302.601C1157.33 293.836 1169.4 281.854 1182.77 268.607C1209.5 242.114 1241.41 210.572 1262.65 189.607L1258.43 185.337C1237.2 206.303 1205.28 237.849 1178.54 264.345C1165.18 277.593 1153.1 289.58 1144.3 298.352C1139.9 302.738 1136.32 306.323 1133.8 308.861C1132.55 310.129 1131.55 311.142 1130.85 311.865C1130.5 312.225 1130.21 312.523 1130 312.748C1129.9 312.859 1129.8 312.965 1129.72 313.058C1129.68 313.096 1129.51 313.289 1129.36 313.508L1134.34 316.854ZM1003.16 318.181H1131.85V312.181H1003.16V318.181ZM1000.16 305.689V315.181H1006.16V305.689H1000.16ZM1005.28 307.81L1133.97 179.121L1129.73 174.879L1001.04 303.567L1005.28 307.81ZM1134.85 187.472V177H1128.85V187.472H1134.85ZM855.324 457.768L887.385 425.708L883.142 421.465L851.082 453.525L855.324 457.768ZM889.73 420.586H885.264V426.586H889.73V420.586ZM892.73 460.128V423.586H886.73V460.128H892.73ZM853.203 463.128H889.73V457.128H853.203V463.128ZM850.203 455.647V460.128H856.203V455.647H850.203ZM623.914 691.85H614V697.85H623.914V691.85ZM626.914 822.559L626.914 694.85L620.914 694.85L620.914 822.559L626.914 822.559ZM750.489 692.72L621.801 820.43L626.027 824.689L754.716 696.979L750.489 692.72ZM749.603 567.14L749.603 694.85L755.603 694.85L755.603 567.14L749.603 567.14ZM741.709 570.14H752.603V564.14H741.709V570.14ZM616.121 696.971L743.831 569.262L739.588 565.019L611.879 692.729L616.121 696.971ZM1131.85 697.85H1260.54V691.85H1131.85V697.85ZM1134.85 822.559V694.85H1128.85V822.559H1134.85ZM1001.05 696.979L1129.74 824.689L1133.96 820.43L1005.27 692.72L1001.05 696.979ZM1000.16 567.14V694.85H1006.16V567.14H1000.16ZM1131.85 564.14H1003.16V570.14H1131.85V564.14ZM1262.65 692.715C1241.41 671.75 1209.5 640.207 1182.77 613.715C1169.4 600.468 1157.33 588.486 1148.54 579.72C1144.14 575.337 1140.57 571.762 1138.06 569.236C1136.81 567.972 1135.83 566.977 1135.15 566.277C1134.81 565.925 1134.55 565.658 1134.38 565.471C1134.29 565.377 1134.23 565.316 1134.2 565.281C1134.12 565.191 1134.22 565.296 1134.34 565.468L1129.36 568.813C1129.51 569.033 1129.68 569.226 1129.72 569.264C1129.8 569.357 1129.9 569.463 1130 569.574C1130.21 569.799 1130.5 570.096 1130.85 570.457C1131.55 571.179 1132.55 572.192 1133.8 573.46C1136.32 575.999 1139.9 579.584 1144.3 583.969C1153.1 592.741 1165.18 604.729 1178.54 617.977C1205.28 644.473 1237.2 676.018 1258.43 696.985L1262.65 692.715ZM946.595 420.586H910.069V426.586H946.595V420.586ZM949.595 460.128V423.586H943.595V460.128H949.595ZM910.069 463.128H946.595V457.128H910.069V463.128ZM907.069 423.586V460.128H913.069V423.586H907.069ZM853.203 482.099H889.73V476.099H853.203V482.099ZM856.203 515.641V479.099H850.203V515.641H856.203ZM889.73 512.641H853.203V518.641H889.73V512.641ZM886.73 479.099V515.641H892.73V479.099H886.73ZM999.725 471.065H963.198V477.065H999.725V471.065ZM1002.73 510.606V474.065H996.725V510.606H1002.73ZM963.198 513.606H999.725V507.606H963.198V513.606ZM960.198 474.065V510.606H966.198V474.065H960.198ZM913.069 567.988V531.446H907.069V567.988H913.069ZM946.595 564.988H910.069V570.988H946.595V564.988ZM943.595 531.446V567.988H949.595V531.446H943.595ZM910.069 534.446H946.595V528.446H910.069V534.446ZM999.725 363.153H963.198V369.153H999.725V363.153ZM1002.73 402.694V366.153H996.725V402.694H1002.73ZM963.198 405.694H999.725V399.694H963.198V405.694ZM960.198 366.153V402.694H966.198V366.153H960.198ZM798.352 567.988V531.446H792.352V567.988H798.352ZM831.879 564.988H795.352V570.988H831.879V564.988ZM828.879 531.446V567.988H834.879V531.446H828.879ZM795.352 534.446H831.879V528.446H795.352V534.446Z" fill="black"/>
<path d="M56.5 1245.5L1299 3" stroke="black" stroke-width="8"/>
</svg>
