<svg width="1509" height="1249" viewBox="0 0 1509 1249" fill="none" xmlns="http://www.w3.org/2000/svg">
<path d="M591.438 891.111L593.559 893.232L595.613 891.179L593.627 889.06L591.438 891.111ZM425.252 1057.3L422.27 1056.97L421.327 1065.46L427.373 1059.42L425.252 1057.3ZM443.111 896.402L446.093 896.733L446.701 891.251L441.769 893.719L443.111 896.402ZM373.889 916.194L371.767 918.314L371.767 918.314L373.889 916.194ZM375.924 898.788L373.357 897.235L373.357 897.235L375.924 898.788ZM361.17 861.962L360.521 864.89L360.521 864.89L361.17 861.962ZM344.222 846.923L346.906 848.264L346.906 848.264L344.222 846.923ZM364 827.131L366.122 829.252L371.239 824.131H364V827.131ZM314.556 777.652H317.556V774.652H314.556V777.652ZM265.117 738.068L263.628 735.464L262.84 735.915L262.434 736.728L265.117 738.068ZM304.673 510.464L307.1 508.701L301.71 510.932L304.673 510.464ZM413.451 678.694L410.767 680.034L411.675 681.852L413.7 681.683L413.451 678.694ZM522.228 470.881L522.56 467.899L515.364 467.099L519.885 472.754L522.228 470.881ZM700.228 332.339L698.106 330.219L697.845 330.48L697.655 330.797L700.228 332.339ZM734.135 305.025L735.891 307.457L735.891 307.457L734.135 305.025ZM799.75 232.647L802.743 232.447L802.743 232.447L799.75 232.647ZM746.848 391.714L745.466 389.051L741.072 391.331L745.126 394.171L746.848 391.714ZM789.222 421.402L787.501 423.859L789.363 425.164L791.123 423.723L789.222 421.402ZM898 332.339L901 332.339L901 326.006L896.099 330.018L898 332.339ZM809.006 470.881L808.355 467.953L807.502 468.142L806.884 468.76L809.006 470.881ZM670.562 609.423L668.44 607.302L666.072 609.671L668.687 611.765L670.562 609.423ZM720.006 649.006L721.95 651.291L724.719 648.936L721.881 646.664L720.006 649.006ZM522.228 817.235L520.285 814.95L517.887 816.989L520.039 819.286L522.228 817.235ZM645.522 837.027L647.643 839.148L652.764 834.027H645.522V837.027ZM614.139 868.41L612.252 870.742L614.351 872.44L616.26 870.531L614.139 868.41ZM571.667 827.131L569.69 824.874L567.458 826.829L569.388 829.083L571.667 827.131ZM729.889 688.589V685.589H728.761L727.913 686.332L729.889 688.589ZM793.959 688.589L796.081 690.711L801.202 685.589H793.959V688.589ZM694.097 788.452L695.065 791.291L695.725 791.066L696.218 790.573L694.097 788.452ZM650.778 797.443V794.443H648.923L648.094 796.103L650.778 797.443ZM621.111 837.027L618.989 834.906L613.872 840.027H621.111V837.027ZM886.076 596.472L888.198 598.594L889.936 596.855L888.573 594.809L886.076 596.472ZM877.925 604.624L879.267 607.307L879.702 607.089L880.046 606.745L877.925 604.624ZM809.006 639.11L807.664 641.793L809.006 642.465L810.349 641.793L809.006 639.11ZM729.889 599.527L727.881 597.298L724.613 600.242L728.547 602.21L729.889 599.527ZM828.778 510.464L831.274 508.801L829.35 505.912L826.77 508.235L828.778 510.464ZM797.801 190L800.789 189.728L794.801 190H797.801ZM611.222 342.235L610.432 345.129L616.529 346.793L613.964 341.017L611.222 342.235ZM265.117 371.923L266.826 374.389L266.826 374.389L265.117 371.923ZM364 272.964L362.255 275.405L363.168 276.057L364.285 275.951L364 272.964ZM294.778 223.485L296.522 221.044L292.348 218.061L291.795 223.162L294.778 223.485ZM294.605 312.577L295.104 315.535L294.274 309.595L294.605 312.577ZM146.444 401.61L145.39 404.419L147.086 405.055L148.438 403.852L146.444 401.61ZM67.3333 371.923L68.3874 369.114L62.0256 366.727L64.5476 373.036L67.3333 371.923ZM116.778 451.089L118.9 453.21L121.019 451.089L118.9 448.969L116.778 451.089ZM67.3333 520.36L67.8269 523.319L69.334 523.068L70.017 521.701L67.3333 520.36ZM8 530.256L7.50647 527.297L0.759521 528.422L6.15737 532.623L8 530.256ZM186 668.798L184.157 671.165L188.458 667.078L186 668.798ZM116.778 569.839L116.446 566.858L111.422 567.416L114.32 571.559L116.778 569.839ZM205.778 559.943L206.109 562.925L206.367 557.002L205.778 559.943ZM106.889 540.152L104.08 539.099L102.842 542.401L106.3 543.093L106.889 540.152ZM589.317 888.989L423.131 1055.18L427.373 1059.42L593.559 893.232L589.317 888.989ZM440.129 896.071L422.27 1056.97L428.234 1057.63L446.093 896.733L440.129 896.071ZM371.767 918.314C373.416 919.964 375.68 920.703 377.936 920.997C380.228 921.295 382.863 921.18 385.659 920.806C391.258 920.057 398.022 918.192 405.014 915.818C419.031 911.059 434.49 904.07 444.453 899.085L441.769 893.719C431.954 898.63 416.758 905.495 403.085 910.137C396.233 912.463 389.895 914.186 384.863 914.859C382.344 915.196 380.282 915.252 378.71 915.047C377.104 914.838 376.34 914.402 376.011 914.073L371.767 918.314ZM373.357 897.235C371.383 900.498 369.239 903.978 368.453 907.385C368.038 909.183 367.963 911.078 368.507 913.011C369.05 914.943 370.153 916.699 371.767 918.314L376.011 914.073C374.978 913.04 374.497 912.148 374.282 911.385C374.067 910.622 374.059 909.774 374.299 908.735C374.822 906.467 376.342 903.892 378.491 900.342L373.357 897.235ZM380.778 876.61C380.778 884.87 376.971 891.264 373.357 897.235L378.491 900.342C382.039 894.478 386.778 886.75 386.778 876.61H380.778ZM360.521 864.89C366.074 866.122 371.321 867.304 375.21 869.258C378.975 871.15 380.778 873.385 380.778 876.61H386.778C386.778 870.2 382.721 866.317 377.904 863.897C373.211 861.539 367.153 860.215 361.82 859.033L360.521 864.89ZM341.539 845.582C340.079 848.502 339.506 851.333 340.219 853.98C340.937 856.643 342.792 858.508 344.888 859.832C346.96 861.142 349.512 862.084 352.128 862.847C354.764 863.615 357.675 864.259 360.521 864.89L361.82 859.033C358.928 858.392 356.219 857.789 353.808 857.086C351.377 856.378 349.458 855.623 348.093 854.76C346.752 853.913 346.204 853.129 346.013 852.419C345.817 851.691 345.828 850.421 346.906 848.264L341.539 845.582ZM351.027 831.515C347.921 834.783 344.657 839.341 341.539 845.582L346.906 848.264C349.801 842.47 352.74 838.423 355.377 835.648L351.027 831.515ZM354.297 836.374C359.986 834.144 364.054 831.321 366.122 829.252L361.878 825.011C360.507 826.382 357.189 828.796 352.107 830.788L354.297 836.374ZM364 824.131C360.795 824.131 355.992 826.291 351.027 831.515L355.377 835.648C359.78 831.014 363.117 830.131 364 830.131V824.131ZM334.333 840.027C342.305 840.027 349.037 838.436 354.297 836.374L352.107 830.788C347.49 832.598 341.499 834.027 334.333 834.027V840.027ZM311.556 777.652C311.556 787.683 312.553 802.781 315.594 815.461C317.109 821.778 319.183 827.724 322.048 832.16C324.91 836.592 328.924 840.027 334.333 840.027V834.027C331.831 834.027 329.418 832.514 327.088 828.905C324.761 825.301 322.88 820.114 321.428 814.062C318.536 802.002 317.556 787.413 317.556 777.652H311.556ZM265.117 780.652H314.556V774.652H265.117V780.652ZM262.434 736.728C254.447 752.712 252.418 763.363 253.767 770.307C254.46 773.872 256.06 776.52 258.236 778.262C260.384 779.981 262.884 780.652 265.117 780.652V774.652C264.055 774.652 262.929 774.333 261.986 773.578C261.072 772.846 260.118 771.536 259.657 769.163C258.699 764.232 259.965 755.092 267.801 739.409L262.434 736.728ZM301.71 510.932C306.627 542.098 310.556 590.822 306.383 635.616C304.296 658.015 300.195 679.293 293.261 696.858C286.318 714.445 276.654 728.016 263.628 735.464L266.607 740.673C281.269 732.288 291.631 717.326 298.841 699.061C306.061 680.774 310.241 658.882 312.357 636.172C316.589 590.749 312.608 541.504 307.636 509.997L301.71 510.932ZM416.134 677.353C392.273 629.597 333.452 544.961 307.1 508.701L302.246 512.228C328.634 548.537 387.161 632.79 410.767 680.034L416.134 677.353ZM519.885 472.754C529.239 484.455 534.699 502.31 535.61 522.966C536.518 543.568 532.883 566.656 524.377 588.544C507.371 632.305 471.104 670.875 413.201 675.704L413.7 681.683C474.464 676.616 512.364 636.019 529.969 590.718C538.768 568.075 542.55 544.158 541.604 522.702C540.661 501.301 534.995 482.046 524.572 469.008L519.885 472.754ZM697.655 330.797C682.932 355.352 656.404 391.726 624.769 420.929C592.989 450.266 556.775 471.704 522.56 467.899L521.897 473.863C558.882 477.975 596.835 454.881 628.838 425.338C660.987 395.661 687.858 358.805 702.801 333.882L697.655 330.797ZM732.378 302.593C720.504 311.171 708.439 319.88 698.106 330.219L702.35 334.46C712.284 324.52 723.945 316.087 735.891 307.457L732.378 302.593ZM795.341 209.373C793.273 258.477 763.307 280.249 732.378 302.593L735.891 307.457C766.722 285.184 799.135 261.892 801.335 209.626L795.341 209.373ZM802.743 232.447C802.219 224.605 801.703 216.888 801.334 209.353L795.342 209.646C795.713 217.244 796.233 225.016 796.757 232.848L802.743 232.447ZM748.229 394.377C779.883 377.952 794.579 352.538 800.785 323.668C806.948 294.998 804.77 262.754 802.743 232.447L796.757 232.848C798.797 263.356 800.872 294.713 794.919 322.407C789.009 349.901 775.221 373.612 745.466 389.051L748.229 394.377ZM790.944 418.945L748.569 389.257L745.126 394.171L787.501 423.859L790.944 418.945ZM896.099 330.018L787.322 419.081L791.123 423.723L899.901 334.661L896.099 330.018ZM809.657 473.809C846.43 465.632 869.3 440.062 882.907 411.818C896.49 383.624 901.001 352.483 901 332.339L895 332.339C895.001 351.779 890.615 381.993 877.501 409.214C864.41 436.388 842.783 460.297 808.355 467.953L809.657 473.809ZM672.684 611.543L811.128 473.002L806.884 468.76L668.44 607.302L672.684 611.543ZM721.881 646.664L672.437 607.081L668.687 611.765L718.131 651.348L721.881 646.664ZM524.172 819.52L721.95 651.291L718.062 646.721L520.285 814.95L524.172 819.52ZM593.627 889.06L524.418 815.184L520.039 819.286L589.249 893.162L593.627 889.06ZM643.4 834.906L612.018 866.288L616.26 870.531L647.643 839.148L643.4 834.906ZM569.388 829.083C578.917 840.207 594.776 856.605 612.252 870.742L616.026 866.077C598.883 852.21 583.282 836.08 573.945 825.18L569.388 829.083ZM727.913 686.332L569.69 824.874L573.643 829.388L731.865 690.846L727.913 686.332ZM793.959 685.589H729.889V691.589H793.959V685.589ZM791.838 686.468L691.976 786.33L696.218 790.573L796.081 690.711L791.838 686.468ZM650.778 800.443C663.178 800.443 678.416 796.964 695.065 791.291L693.129 785.612C676.712 791.206 662.205 794.443 650.778 794.443V800.443ZM623.233 839.148C629.909 832.467 645.337 815.045 653.461 798.784L648.094 796.103C640.397 811.508 625.499 828.392 618.989 834.906L623.233 839.148ZM645.522 834.027H621.111V840.027H645.522V834.027ZM883.955 594.351L875.803 602.503L880.046 606.745L888.198 598.594L883.955 594.351ZM876.582 601.941L807.664 636.427L810.349 641.793L879.267 607.307L876.582 601.941ZM810.348 636.427L731.231 596.844L728.547 602.21L807.664 641.793L810.348 636.427ZM731.897 601.756L830.785 512.694L826.77 508.235L727.881 597.298L731.897 601.756ZM826.281 512.128L883.58 598.136L888.573 594.809L831.274 508.801L826.281 512.128ZM794.801 190C794.801 196.387 795.014 202.959 795.342 209.646L801.334 209.353C801.01 202.726 800.801 196.258 800.801 190H794.801ZM801.335 209.626C801.597 203.404 801.431 196.787 800.789 189.728L794.814 190.272C795.433 197.087 795.591 203.437 795.341 209.373L801.335 209.626ZM612.012 339.341C575.511 329.379 514.415 318.944 449.499 319.939C384.638 320.932 315.542 333.341 263.409 369.457L266.826 374.389C317.542 339.254 385.241 326.924 449.591 325.938C513.887 324.953 574.419 335.3 610.432 345.129L612.012 339.341ZM364.285 275.951C398.7 272.671 452.3 272.185 501.149 281.355C525.572 285.941 548.671 292.915 567.558 303.068C586.441 313.219 600.925 326.441 608.48 343.453L613.964 341.017C605.697 322.404 590.02 308.33 570.399 297.783C550.78 287.237 527.031 280.11 502.256 275.459C452.711 266.157 398.523 266.661 363.715 269.978L364.285 275.951ZM293.033 225.926L362.255 275.405L365.745 270.524L296.522 221.044L293.033 225.926ZM294.274 309.595C294.909 309.525 295.349 309.845 295.458 309.957C295.485 309.985 295.322 309.812 295.086 309.18C294.622 307.942 294.214 305.873 293.921 302.962C293.342 297.213 293.291 289.043 293.587 279.771C294.176 261.271 296.129 238.869 297.76 223.808L291.795 223.162C290.155 238.302 288.186 260.87 287.59 279.579C287.292 288.911 287.331 297.405 287.951 303.562C288.257 306.604 288.724 309.299 289.466 311.282C289.832 312.262 290.354 313.314 291.155 314.139C292.038 315.048 293.341 315.735 294.935 315.558L294.274 309.595ZM148.438 403.852C163.16 390.757 188.217 370.596 215.481 352.726C242.844 334.791 272.03 319.434 295.104 315.535L294.105 309.619C269.712 313.74 239.634 329.721 212.191 347.708C184.649 365.761 159.36 386.107 144.451 399.369L148.438 403.852ZM66.2793 374.731L145.39 404.419L147.498 398.801L68.3874 369.114L66.2793 374.731ZM118.9 448.969C95.5944 425.647 76.6585 387.169 70.119 370.809L64.5476 373.036C71.1934 389.662 90.4945 429.032 114.656 453.21L118.9 448.969ZM70.017 521.701C76.526 508.674 95.4737 476.653 118.9 453.21L114.656 448.969C90.6152 473.026 71.3258 505.658 64.6497 519.019L70.017 521.701ZM8.49353 533.215L67.8269 523.319L66.8398 517.401L7.50647 527.297L8.49353 533.215ZM187.843 666.43L9.84263 527.889L6.15737 532.623L184.157 671.165L187.843 666.43ZM114.32 571.559L183.542 670.517L188.458 667.078L119.236 568.12L114.32 571.559ZM205.446 556.962L116.446 566.858L117.109 572.821L206.109 562.925L205.446 556.962ZM106.3 543.093L205.189 562.885L206.367 557.002L107.478 537.21L106.3 543.093ZM263.409 369.457C160.221 440.941 114.244 511.976 104.08 539.099L109.698 541.204C119.312 515.55 164.314 445.404 266.826 374.389L263.409 369.457Z" fill="black"/>
<path d="M1065.54 786.5L1067.65 784.371L1065.54 782.274L1063.43 784.371L1065.54 786.5ZM974.542 876.805L971.542 876.797L971.523 884.027L976.655 878.934L974.542 876.805ZM1156.53 876.805L1154.42 878.934L1159.53 884.008V876.805H1156.53ZM1156.53 696.196H1159.53V694.947L1158.65 694.067L1156.53 696.196ZM1065.54 605.892L1067.65 603.763L1065.54 601.666L1063.43 603.763L1065.54 605.892ZM974.542 696.196L972.429 694.067L971.282 695.205L971.601 696.789L974.542 696.196ZM1410.37 438.026L1408.25 435.897L1406.11 438.026L1408.25 440.155L1410.37 438.026ZM1501.36 347.722L1503.48 349.851L1508.66 344.703L1501.35 344.722L1501.36 347.722ZM1501.36 528.33V531.33H1508.64L1503.48 526.201L1501.36 528.33ZM1319.37 528.33L1317.26 530.46L1318.13 531.33H1319.37V528.33ZM1228.37 438.026L1226.26 435.897L1224.11 438.026L1226.26 440.155L1228.37 438.026ZM1319.37 347.722L1319.95 344.779L1318.39 344.469L1317.26 345.592L1319.37 347.722ZM1450.04 187.472L1452.15 189.607L1457.35 184.472L1450.04 184.472L1450.04 187.472ZM1321.35 187.472H1318.35V190.472L1321.35 190.472L1321.35 187.472ZM1321.35 315.181V318.181H1322.95L1323.84 316.854L1321.35 315.181ZM1192.66 315.181H1189.66V318.181H1192.66V315.181ZM1192.66 305.689L1190.54 303.567L1189.66 304.446V305.689H1192.66ZM1321.35 177H1324.35V169.757L1319.23 174.879L1321.35 177ZM1042.7 455.647L1040.58 453.525L1039.7 454.404V455.647H1042.7ZM1074.76 423.586V420.586H1073.52L1072.64 421.465L1074.76 423.586ZM1079.23 423.586H1082.23V420.586H1079.23V423.586ZM1079.23 460.128V463.128H1082.23V460.128H1079.23ZM1042.7 460.128H1039.7V463.128H1042.7V460.128ZM813.414 694.85L816.414 694.85L816.414 691.85H813.414V694.85ZM803.5 694.85L801.379 692.729L796.257 697.85H803.5V694.85ZM813.414 822.559L810.414 822.559L810.414 829.763L815.527 824.689L813.414 822.559ZM942.103 694.85L944.216 696.979L945.103 696.099L945.103 694.85L942.103 694.85ZM942.103 567.14L945.103 567.14L945.103 564.14H942.103V567.14ZM931.209 567.14V564.14H929.967L929.088 565.019L931.209 567.14ZM1321.35 694.85V691.85H1318.35V694.85H1321.35ZM1450.04 694.85V697.85H1457.35L1452.15 692.715L1450.04 694.85ZM1321.35 822.559L1319.24 824.689L1324.35 829.763V822.559H1321.35ZM1192.66 694.85H1189.66V696.099L1190.55 696.979L1192.66 694.85ZM1192.66 567.14V564.14H1189.66V567.14H1192.66ZM1321.35 567.14L1323.84 565.468L1322.95 564.14H1321.35V567.14ZM1136.1 423.586H1139.1V420.586H1136.1V423.586ZM1099.57 423.586V420.586H1096.57V423.586H1099.57ZM1136.1 460.128V463.128H1139.1V460.128H1136.1ZM1099.57 460.128H1096.57V463.128H1099.57V460.128ZM1042.7 479.099V476.099H1039.7V479.099H1042.7ZM1079.23 479.099H1082.23V476.099H1079.23V479.099ZM1042.7 515.641H1039.7V518.641H1042.7V515.641ZM1079.23 515.641V518.641H1082.23V515.641H1079.23ZM1189.23 474.065H1192.23V471.065H1189.23V474.065ZM1152.7 474.065V471.065H1149.7V474.065H1152.7ZM1189.23 510.606V513.606H1192.23V510.606H1189.23ZM1152.7 510.606H1149.7V513.606H1152.7V510.606ZM1099.57 567.988H1096.57V570.988H1099.57V567.988ZM1099.57 531.446V528.446H1096.57V531.446H1099.57ZM1136.1 567.988V570.988H1139.1V567.988H1136.1ZM1136.1 531.446H1139.1V528.446H1136.1V531.446ZM1189.23 366.153H1192.23V363.153H1189.23V366.153ZM1152.7 366.153V363.153H1149.7V366.153H1152.7ZM1189.23 402.694V405.694H1192.23V402.694H1189.23ZM1152.7 402.694H1149.7V405.694H1152.7V402.694ZM984.852 567.988H981.852V570.988H984.852V567.988ZM984.852 531.446V528.446H981.852V531.446H984.852ZM1021.38 567.988V570.988H1024.38V567.988H1021.38ZM1021.38 531.446H1024.38V528.446H1021.38V531.446ZM1063.43 784.371L972.428 874.675L976.655 878.934L1067.65 788.63L1063.43 784.371ZM1158.65 874.675L1067.65 784.371L1063.43 788.63L1154.42 878.934L1158.65 874.675ZM1153.53 696.196V876.805H1159.53V696.196H1153.53ZM1063.43 608.021L1154.42 698.326L1158.65 694.067L1067.65 603.763L1063.43 608.021ZM976.655 698.326L1067.65 608.021L1063.43 603.763L972.429 694.067L976.655 698.326ZM977.542 876.812C977.618 847.086 977.709 802.384 977.735 764.886C977.748 746.138 977.746 729.188 977.717 716.811C977.702 710.623 977.681 705.574 977.652 702.013C977.638 700.233 977.622 698.817 977.603 697.813C977.594 697.313 977.583 696.902 977.572 696.595C977.567 696.443 977.56 696.299 977.552 696.176C977.549 696.125 977.535 695.864 977.483 695.604L971.601 696.789C971.56 696.585 971.557 696.438 971.564 696.557C971.567 696.603 971.571 696.686 971.576 696.814C971.585 697.068 971.595 697.437 971.604 697.925C971.622 698.897 971.638 700.288 971.653 702.061C971.681 705.605 971.702 710.64 971.717 716.825C971.746 729.193 971.748 746.135 971.735 764.882C971.709 802.374 971.618 847.073 971.542 876.797L977.542 876.812ZM1412.48 440.155L1503.48 349.851L1499.25 345.592L1408.25 435.897L1412.48 440.155ZM1503.48 526.201L1412.48 435.897L1408.25 440.155L1499.25 530.46L1503.48 526.201ZM1319.37 531.33H1501.36V525.33H1319.37V531.33ZM1226.26 440.155L1317.26 530.46L1321.48 526.201L1230.49 435.897L1226.26 440.155ZM1317.26 345.592L1226.26 435.897L1230.49 440.155L1321.48 349.851L1317.26 345.592ZM1501.35 344.722C1471.4 344.797 1426.36 344.887 1388.58 344.914C1369.69 344.927 1352.62 344.924 1340.16 344.895C1333.92 344.881 1328.85 344.86 1325.28 344.832C1323.49 344.818 1322.09 344.801 1321.11 344.783C1320.62 344.774 1320.25 344.765 1319.99 344.756C1319.86 344.751 1319.78 344.747 1319.73 344.744C1319.61 344.737 1319.75 344.739 1319.95 344.779L1318.79 350.664C1319.04 350.715 1319.3 350.729 1319.35 350.732C1319.48 350.74 1319.62 350.747 1319.77 350.752C1320.08 350.763 1320.5 350.773 1321 350.782C1322.01 350.801 1323.44 350.817 1325.23 350.832C1328.82 350.86 1333.91 350.881 1340.14 350.895C1352.61 350.924 1369.69 350.927 1388.59 350.914C1426.37 350.887 1471.42 350.797 1501.37 350.722L1501.35 344.722ZM1450.04 184.472L1321.35 184.472L1321.35 190.472L1450.04 190.472L1450.04 184.472ZM1323.84 316.854C1323.72 317.026 1323.62 317.13 1323.7 317.041C1323.73 317.006 1323.79 316.945 1323.88 316.85C1324.05 316.664 1324.31 316.396 1324.65 316.045C1325.33 315.345 1326.31 314.35 1327.56 313.086C1330.07 310.56 1333.64 306.985 1338.04 302.601C1346.83 293.836 1358.9 281.854 1372.27 268.607C1399 242.114 1430.91 210.572 1452.15 189.607L1447.93 185.337C1426.7 206.304 1394.78 237.849 1368.04 264.345C1354.68 277.593 1342.6 289.58 1333.8 298.352C1329.4 302.738 1325.82 306.323 1323.3 308.861C1322.05 310.129 1321.05 311.142 1320.35 311.865C1320 312.225 1319.71 312.523 1319.5 312.748C1319.4 312.859 1319.3 312.965 1319.22 313.058C1319.18 313.096 1319.01 313.289 1318.86 313.508L1323.84 316.854ZM1192.66 318.181H1321.35V312.181H1192.66V318.181ZM1189.66 305.689V315.181H1195.66V305.689H1189.66ZM1194.78 307.81L1323.47 179.121L1319.23 174.879L1190.54 303.567L1194.78 307.81ZM1324.35 187.472V177H1318.35V187.472H1324.35ZM1044.82 457.768L1076.88 425.708L1072.64 421.465L1040.58 453.525L1044.82 457.768ZM1079.23 420.586H1074.76V426.586H1079.23V420.586ZM1082.23 460.128V423.586H1076.23V460.128H1082.23ZM1042.7 463.128H1079.23V457.128H1042.7V463.128ZM1039.7 455.647V460.128H1045.7V455.647H1039.7ZM813.414 691.85H803.5V697.85H813.414V691.85ZM816.414 822.559L816.414 694.85L810.414 694.85L810.414 822.559L816.414 822.559ZM939.989 692.72L811.301 820.43L815.527 824.689L944.216 696.979L939.989 692.72ZM939.103 567.14L939.103 694.85L945.103 694.85L945.103 567.14L939.103 567.14ZM931.209 570.14H942.103V564.14H931.209V570.14ZM805.621 696.971L933.331 569.262L929.088 565.019L801.379 692.729L805.621 696.971ZM1321.35 697.85H1450.04V691.85H1321.35V697.85ZM1324.35 822.559V694.85H1318.35V822.559H1324.35ZM1190.55 696.979L1319.24 824.689L1323.46 820.43L1194.77 692.72L1190.55 696.979ZM1189.66 567.14V694.85H1195.66V567.14H1189.66ZM1321.35 564.14H1192.66V570.14H1321.35V564.14ZM1452.15 692.715C1430.91 671.75 1399 640.207 1372.27 613.715C1358.9 600.468 1346.83 588.486 1338.04 579.72C1333.64 575.337 1330.07 571.762 1327.56 569.236C1326.31 567.972 1325.33 566.977 1324.65 566.277C1324.31 565.925 1324.05 565.658 1323.88 565.471C1323.79 565.377 1323.73 565.316 1323.7 565.281C1323.62 565.191 1323.72 565.296 1323.84 565.468L1318.86 568.813C1319.01 569.033 1319.18 569.226 1319.22 569.264C1319.3 569.357 1319.4 569.463 1319.5 569.574C1319.71 569.799 1320 570.096 1320.35 570.457C1321.05 571.179 1322.05 572.192 1323.3 573.461C1325.82 575.999 1329.4 579.584 1333.8 583.969C1342.6 592.741 1354.68 604.729 1368.04 617.977C1394.78 644.473 1426.7 676.018 1447.93 696.985L1452.15 692.715ZM1136.1 420.586H1099.57V426.586H1136.1V420.586ZM1139.1 460.128V423.586H1133.1V460.128H1139.1ZM1099.57 463.128H1136.1V457.128H1099.57V463.128ZM1096.57 423.586V460.128H1102.57V423.586H1096.57ZM1042.7 482.099H1079.23V476.099H1042.7V482.099ZM1045.7 515.641V479.099H1039.7V515.641H1045.7ZM1079.23 512.641H1042.7V518.641H1079.23V512.641ZM1076.23 479.099V515.641H1082.23V479.099H1076.23ZM1189.23 471.065H1152.7V477.065H1189.23V471.065ZM1192.23 510.606V474.065H1186.23V510.606H1192.23ZM1152.7 513.606H1189.23V507.606H1152.7V513.606ZM1149.7 474.065V510.606H1155.7V474.065H1149.7ZM1102.57 567.988V531.446H1096.57V567.988H1102.57ZM1136.1 564.988H1099.57V570.988H1136.1V564.988ZM1133.1 531.446V567.988H1139.1V531.446H1133.1ZM1099.57 534.446H1136.1V528.446H1099.57V534.446ZM1189.23 363.153H1152.7V369.153H1189.23V363.153ZM1192.23 402.694V366.153H1186.23V402.694H1192.23ZM1152.7 405.694H1189.23V399.694H1152.7V405.694ZM1149.7 366.153V402.694H1155.7V366.153H1149.7ZM987.852 567.988V531.446H981.852V567.988H987.852ZM1021.38 564.988H984.852V570.988H1021.38V564.988ZM1018.38 531.446V567.988H1024.38V531.446H1018.38ZM984.852 534.446H1021.38V528.446H984.852V534.446Z" fill="black"/>
<path d="M246 1245.5L1488.5 3" stroke="black" stroke-width="8"/>
</svg>
