<svg width="724" height="1080" viewBox="0 0 724 1080" fill="none" xmlns="http://www.w3.org/2000/svg">
<path fill-rule="evenodd" clip-rule="evenodd" d="M7 669.6C229.949 789.03 325.016 896.997 467.195 1080L606.122 842.4C500.48 744.48 288.327 538.272 284.854 496.8C281.38 455.328 300.772 436.32 310.902 432C310.902 452.16 326.532 500.256 389.049 531.36C451.566 562.464 548.236 573.12 588.756 574.56L606.122 617.76L719 514.08L310.902 0V155.52C235.65 182.88 69.5171 263.52 7 367.2C86.8829 419.04 109.748 457.92 111.195 470.88V574.56L7 669.6ZM245.78 552.96L180.659 514.08L137.244 535.68L145.927 587.52L202.366 617.76L245.78 600.48V552.96Z" stroke="white" stroke-width="7"/>
<path d="M11.3415 436.32L72.122 479.52V561.6L11.3415 514.08V436.32Z" stroke="white" stroke-width="7"/>
</svg>
