<svg width="1250" height="1095" viewBox="0 0 1250 1095" fill="none" xmlns="http://www.w3.org/2000/svg">
<path d="M989.463 556.616C989.463 755.439 828.285 916.616 629.463 916.616C430.64 916.616 269.463 755.439 269.463 556.616C269.463 357.793 430.64 196.616 629.463 196.616C828.285 196.616 989.463 357.793 989.463 556.616ZM352.939 556.616C352.939 709.336 476.743 833.139 629.463 833.139C782.182 833.139 905.986 709.336 905.986 556.616C905.986 403.896 782.182 280.093 629.463 280.093C476.743 280.093 352.939 403.896 352.939 556.616Z" stroke="white" stroke-width="7"/>
<path d="M897.154 768.924C897.154 921.865 773.172 1045.85 620.231 1045.85C467.291 1045.85 343.308 921.865 343.308 768.924C343.308 615.984 467.291 492.001 620.231 492.001C773.172 492.001 897.154 615.984 897.154 768.924ZM363.355 768.924C363.355 910.793 478.362 1025.8 620.231 1025.8C762.1 1025.8 877.107 910.793 877.107 768.924C877.107 627.056 762.1 512.048 620.231 512.048C478.362 512.048 363.355 627.056 363.355 768.924Z" stroke="white" stroke-width="7"/>
<path d="M629.46 925.847L417.152 1092L629.46 695.077L850.998 1092L629.46 925.847Z" stroke="white" stroke-width="7"/>
<path d="M897.152 879.693L675.613 639.693L850.998 455.077H1238.69L850.998 732L897.152 879.693Z" stroke="white" stroke-width="7"/>
<path d="M749.46 399.693L629.46 584.308L509.46 399.693L629.46 12L749.46 399.693Z" stroke="white" stroke-width="7"/>
<path d="M352.539 879.693L574.077 639.693L398.693 455.077H11L398.693 732L352.539 879.693Z" stroke="white" stroke-width="7"/>
</svg>
