<svg width="976" height="1080" viewBox="0 0 976 1080" fill="none" xmlns="http://www.w3.org/2000/svg">
<path d="M243.659 555.114L246.318 552.259C268.103 528.872 294.262 504.375 314.891 487.989L317.262 486.105L324.506 490.178C346.102 502.313 379.365 521.003 410.972 540.568C427.94 551.072 444.482 561.858 458.516 572.044C470.463 580.716 480.769 589.079 487.973 596.556C495.177 589.079 505.484 580.716 517.431 572.044C531.465 561.858 548.006 551.072 564.975 540.568C596.582 521.003 629.844 502.313 651.44 490.178L658.316 486.312L660.578 487.659C671.235 494.009 680.963 502.402 691.732 513.006C698.53 519.699 705.863 527.396 714.158 536.104C718.948 541.133 724.06 546.498 729.575 552.203L732.341 555.064M243.659 555.114L246.518 557.794M243.659 555.114L189.255 608.459M246.518 557.794C247.465 558.682 248.496 559.642 249.606 560.672M246.518 557.794L249.606 560.672M410.603 976.873L414.612 972.579M410.603 976.873L372.168 913.826L373.741 911.721C383.584 898.54 398.376 876.751 410.686 854.332C412.451 851.118 414.162 847.896 415.798 844.69M410.603 976.873L487.973 1080L565.343 976.873M414.612 972.579C424.681 961.793 439.335 944.021 450.649 925.649C456.304 916.465 461.199 907.013 464.244 898.128C464.369 897.764 464.491 897.4 464.61 897.036L487.973 977.211L511.337 897.036C511.456 897.4 511.578 897.764 511.703 898.128C514.748 907.013 519.642 916.465 525.298 925.649C536.611 944.021 551.266 961.793 561.335 972.579M414.612 972.579L487.973 1068.58L561.335 972.579M561.335 972.579L565.343 976.873M565.343 976.873L603.778 913.826L602.206 911.721C592.362 898.54 577.57 876.751 565.26 854.332C563.502 851.13 561.797 847.92 560.167 844.726M719.81 566.71C698.827 586.079 661.497 620.539 626.439 659.299C605.765 682.156 585.969 706.414 570.835 729.852C555.704 753.284 545.475 775.532 543.391 794.539C543.433 801.806 545.723 811.031 549.66 821.412C551.446 826.124 553.55 831.017 555.888 836M719.81 566.71C722.248 564.459 724.467 562.411 726.436 560.584M719.81 566.71L726.436 560.584M729.429 557.794L732.341 555.064M729.429 557.794C728.509 558.656 727.51 559.587 726.436 560.584M729.429 557.794L726.436 560.584M732.341 555.064L787.117 603.798M255.527 554.739C257.491 556.563 259.716 558.616 262.169 560.881C283.12 580.219 320.782 614.982 356.123 654.054C376.955 677.085 397.068 701.707 412.53 725.653C427.83 749.348 438.818 772.743 441.153 793.481C446.909 809.694 459.828 847.645 466.625 873.118L487.973 946.376L509.321 873.118C516.118 847.645 529.038 809.694 534.793 793.481C537.129 772.743 548.116 749.348 563.416 725.653C578.879 701.707 598.992 677.085 619.823 654.054C655.165 614.982 692.826 580.219 713.777 560.881C716.206 558.639 718.429 556.587 720.378 554.778M255.527 554.739C275.68 533.37 299.128 511.427 318.141 496.067L320.03 497.128C341.638 509.27 374.749 527.875 406.191 547.338C423.065 557.783 439.409 568.445 453.204 578.458C467.063 588.518 478.111 597.754 484.587 605.342L487.973 609.309L491.359 605.342C497.835 597.754 508.883 588.518 522.742 578.458C536.538 568.445 552.881 557.783 569.756 547.338C601.197 527.875 634.308 509.27 655.917 497.128L658.149 495.873C667.104 501.54 675.665 508.963 685.45 518.598C692.163 525.207 699.333 532.735 707.547 541.358C711.548 545.558 715.814 550.037 720.378 554.778M255.527 554.739L249.606 560.672M720.378 554.778L726.436 560.584M793.9 609.833L922.7 480.395L488 43.5395L53.3 480.395L184.941 612.689M793.9 609.833L787.117 603.798M793.9 609.833L560.167 844.726M787.117 603.798L779.501 611.447M555.888 836C557.241 838.884 558.673 841.798 560.167 844.726M555.888 836L779.501 611.447M184.941 612.689L189.255 608.459M184.941 612.689L415.798 844.69M189.255 608.459L195.596 614.852M418.396 839.479C421.404 833.294 424.086 827.216 426.287 821.412C430.224 811.031 432.514 801.806 432.555 794.539C430.472 775.532 420.242 753.284 405.112 729.852C389.977 706.414 370.181 682.156 349.508 659.299C314.45 620.539 277.118 586.078 256.135 566.709C253.737 564.495 251.549 562.475 249.606 560.672M418.396 839.479C417.554 841.209 416.687 842.947 415.798 844.69M418.396 839.479L195.596 614.852M415.798 844.69L416.01 844.904C412.489 851.834 404.043 867.71 398.424 875.769L5 480.395L488 -5L971 480.395L578.09 875.253C572.881 871.351 563.904 853.343 560.066 844.826L560.167 844.726M779.501 611.447L726.436 560.584M195.596 614.852L249.606 560.672M586.715 379.731L611.369 242.583L580.938 212L550.506 242.583L572.613 365.558M586.715 379.731L641.423 434.711L488 588.895L334.576 434.711L379.309 389.756M586.715 379.731L572.613 365.558M572.613 365.558L488 280.526L399.147 369.82M399.147 369.82L418.169 242.583L387.738 212L357.306 242.583L379.309 389.756M399.147 369.82L379.309 389.756M487.364 344.393L497.703 388.423C500.832 401.741 511.18 412.149 524.435 415.289L568.251 425.679L524.435 436.069C511.18 439.209 500.832 449.616 497.703 462.935L487.364 506.965L477.025 462.935C473.896 449.616 463.548 439.209 450.293 436.069L406.476 425.679L450.293 415.289C463.548 412.149 473.896 401.741 477.025 388.423L487.364 344.393ZM438.465 811.996C437.384 815.925 436.025 819.991 434.456 824.127C430.335 834.994 424.657 846.64 418.396 858.043C406.511 879.687 392.387 900.7 382.412 914.257L412.055 962.881C421.489 952.293 433.579 937.12 443.139 921.596C448.622 912.691 453.2 903.788 455.99 895.648C458.808 887.426 459.643 880.438 458.226 875.127C453.222 856.362 444.805 830.596 438.465 811.996ZM537.481 811.996C531.142 830.596 522.725 856.362 517.72 875.127C516.304 880.438 517.139 887.426 519.957 895.648C522.747 903.788 527.324 912.691 532.808 921.596C542.368 937.12 554.458 952.293 563.892 962.881L593.534 914.257C583.559 900.7 569.436 879.687 557.551 858.043C551.289 846.64 545.612 834.994 541.49 824.127C539.922 819.991 538.562 815.925 537.481 811.996ZM487.973 629.05C510.869 658.807 542.923 718.322 487.973 718.322C433.024 718.322 465.078 658.807 487.973 629.05ZM457.123 242.583L487.555 212L517.987 242.583L487.555 273.165L457.123 242.583Z" stroke="white" stroke-width="7"/>
</svg>
