<svg width="754" height="1080" viewBox="0 0 754 1080" fill="none" xmlns="http://www.w3.org/2000/svg">
<path d="M519.711 453.376C557.56 491.165 578.824 542.419 578.824 595.862H750C750 497.092 710.702 402.367 640.751 332.526C570.8 262.685 475.926 223.448 377 223.448C278.074 223.448 183.2 262.685 113.249 332.526C43.2981 402.367 4.00001 497.092 4 595.862L175.176 595.862C175.176 542.419 196.44 491.165 234.289 453.376C235.315 452.351 236.351 451.339 237.397 450.339M519.711 453.376C502.301 435.994 482.039 422.115 460.022 412.194M519.711 453.376C517.503 458.559 516.814 461.978 516.745 463.04C519.369 503.957 598.742 661.234 638.1 734.758L535.463 811.479C506.454 697.112 478.199 532.848 460.022 412.194M293.978 412.194C319.827 400.547 348.094 394.356 377 394.356C405.906 394.356 434.173 400.547 460.022 412.194M293.978 412.194C273.259 421.53 254.093 434.371 237.397 450.339M293.978 412.194C275.801 532.848 247.547 697.112 218.537 811.478L115.9 734.758C155.259 661.234 234.632 503.957 237.255 463.04C237.532 458.72 237.567 454.48 237.397 450.339M377 0L459.06 34.336V193.655H294.94V34.336L377 0ZM56.22 223.977L108.97 171.31L161.72 223.977L108.97 276.645L56.22 223.977ZM594.4 223.977L647.15 171.31L699.9 223.977L647.15 276.645L594.4 223.977ZM585.622 942.543C627.604 878.609 638.1 807.216 638.1 779.512L543.077 840.249C557.667 892.912 572.241 930.95 585.622 942.543ZM493.785 840.249C476.293 785.905 440.651 640.136 438.028 491.81C401.293 517.383 378.99 525.908 372.43 526.974C365.87 525.908 343.567 517.383 306.833 491.81C304.209 640.136 268.567 785.905 251.075 840.249L372.43 1080L493.785 840.249ZM168.378 942.543C126.396 878.609 115.9 807.216 115.9 779.512L210.923 840.249C196.333 892.912 181.759 930.95 168.378 942.543Z" stroke="white" stroke-width="7"/>
</svg>
