<svg width="1171" height="1080" viewBox="0 0 1171 1080" fill="none" xmlns="http://www.w3.org/2000/svg">
<path d="M300.267 298.723C337.705 338.232 379.478 367.66 419.779 367.66C511.73 367.66 458.092 444.255 419.779 482.553H350.816L465.755 643.404V758.298C381.466 681.702 208.292 510.128 189.902 436.596C171.512 363.064 182.239 206.809 189.902 137.872M300.267 298.723C252.285 248.089 211.423 180.897 189.902 137.872M300.267 298.723C296.607 243.574 378.417 214.468 419.779 206.809V0C309.438 0 220.552 91.9149 189.902 137.872M870.733 298.723C833.295 338.232 791.522 367.66 751.221 367.66C659.27 367.66 712.908 444.255 751.221 482.553H820.184L705.245 643.404V758.298C789.534 681.702 962.708 510.128 981.098 436.596C999.488 363.064 988.761 206.809 981.098 137.872M870.733 298.723C918.715 248.089 959.577 180.897 981.098 137.872M870.733 298.723C874.393 243.574 792.583 214.468 751.221 206.809V0C861.562 0 950.448 91.9149 981.098 137.872M6 666.383L143.926 528.511L465.755 873.191V1080L6 666.383ZM585.501 425.109L622.237 503.28L700.438 540.001L622.237 576.722L585.501 654.893L548.766 576.722L470.565 540.001L548.766 503.28L585.501 425.109ZM1165 666.383L1027.07 528.511L705.245 873.191V1080L1165 666.383Z" stroke="white" stroke-width="7"/>
</svg>
