<svg width="1080" height="1068" viewBox="0 0 1080 1068" fill="none" xmlns="http://www.w3.org/2000/svg">
<path d="M893.293 749.342C886.422 729.283 882.693 707.765 882.693 685.376C882.693 794.346 794.355 882.684 685.385 882.684C707.774 882.684 729.292 886.413 749.352 893.283M893.293 749.342C902.18 775.29 916.325 798.797 934.455 818.594M893.293 749.342C927.196 692.252 947.655 626.242 950.305 555.676M749.352 893.283C775.299 902.171 798.807 916.315 818.604 934.445M749.352 893.283C692.26 927.188 626.247 947.646 555.678 950.296M934.455 818.594C970.528 857.984 1022.38 882.684 1080 882.684C971.031 882.684 882.693 971.021 882.693 1079.99C882.693 1022.37 857.993 970.518 818.604 934.445M934.455 818.594C989.618 740.636 1022.25 645.606 1022.87 542.986M818.604 934.445C740.643 989.61 645.61 1022.24 542.987 1022.87M869.608 497.48C895.534 508.458 922.496 517.469 950.306 524.324M869.608 497.48C850.415 489.352 831.788 480.147 813.806 469.939M869.608 497.48C850.512 347.953 732.043 229.481 582.517 210.383M869.607 582.521C895.533 571.542 922.495 562.532 950.305 555.676M869.607 582.521C850.413 590.648 831.786 599.854 813.803 610.063M869.607 582.521C850.508 732.042 732.042 850.508 582.521 869.608M950.306 524.324C973.922 530.147 998.15 534.415 1022.87 537.014M950.306 524.324C942.267 310.016 769.98 137.727 555.673 129.684M950.305 555.676C973.921 549.854 998.15 545.585 1022.87 542.986M813.806 469.939C728.861 421.718 658.275 351.132 610.057 266.186M813.806 469.939C788.357 370.175 709.82 291.637 610.057 266.186M813.803 610.063C788.352 709.82 709.819 788.352 610.063 813.804M813.803 610.063C728.863 658.281 658.281 728.863 610.063 813.804M1022.87 537.014C1041.65 538.988 1060.71 540 1080 540C1060.71 540 1041.65 541.012 1022.87 542.986M1022.87 537.014C1021.28 272.688 807.309 58.7144 542.985 57.1142M186.705 330.639C193.577 350.702 197.308 372.223 197.308 394.615C197.308 285.645 285.645 197.308 394.615 197.308C372.221 197.308 350.699 193.577 330.635 186.703M186.705 330.639C177.816 304.693 163.671 281.186 145.54 261.39M186.705 330.639C152.799 387.735 132.34 453.751 129.693 524.325M330.635 186.703C304.69 177.814 281.184 163.669 261.389 145.538M330.635 186.703C387.732 152.794 453.751 132.332 524.327 129.683M261.389 145.538C222.004 109.466 197.308 57.617 197.308 0C197.308 108.97 108.97 197.308 0 197.308C57.6178 197.308 109.467 222.005 145.54 261.39M261.389 145.538C339.352 90.3709 434.388 57.7352 537.015 57.1142M145.54 261.39C90.3758 339.353 57.7429 434.389 57.1237 537.014M266.185 610.056C248.202 599.849 229.576 590.643 210.382 582.516M266.185 610.056C351.131 658.275 421.719 728.861 469.939 813.807M266.185 610.056C291.635 709.82 370.174 788.358 469.939 813.807M266.182 469.945C248.2 480.153 229.574 489.358 210.381 497.484M266.182 469.945C351.133 421.724 421.724 351.134 469.945 266.183M266.182 469.945C291.631 370.175 370.174 291.631 469.945 266.183M210.381 497.484C184.458 508.461 157.499 517.47 129.693 524.325M210.381 497.484C229.475 347.951 347.951 229.476 497.484 210.382M210.382 582.516C184.459 571.54 157.5 562.531 129.694 555.675M210.382 582.516C229.48 732.043 347.952 850.514 497.48 869.609M129.693 524.325C106.077 530.147 81.8487 534.415 57.1237 537.014M129.694 555.675C106.077 549.853 81.849 545.585 57.1238 542.986M129.694 555.675C137.743 769.973 310.023 942.251 524.322 950.296M57.1237 537.014C38.3522 538.988 19.2943 540 0 540C19.2943 540 38.3523 541.012 57.1238 542.986M57.1238 542.986C58.7295 807.302 272.695 1021.26 537.013 1022.87M497.484 210.382C489.357 229.575 480.152 248.201 469.945 266.183M497.484 210.382C508.462 184.455 517.472 157.494 524.327 129.683M582.517 210.383C590.644 229.577 599.849 248.203 610.057 266.186M582.517 210.383C571.539 184.456 562.528 157.494 555.673 129.684M524.327 129.683C530.149 106.067 534.416 81.8392 537.015 57.1142M555.673 129.684C549.851 106.067 545.584 81.8393 542.985 57.1142M537.015 57.1142C538.988 38.3458 540 19.291 540 0C540 19.291 541.012 38.3458 542.985 57.1142M610.063 813.804C599.854 831.787 590.648 850.413 582.521 869.608M497.48 869.609C489.353 850.415 480.147 831.789 469.939 813.807M497.48 869.609C508.457 895.532 517.466 922.49 524.322 950.296M582.521 869.608C571.544 895.531 562.534 922.489 555.678 950.296M524.322 950.296C530.145 973.912 534.413 998.14 537.013 1022.87M542.987 1022.87C541.012 1041.64 540 1060.7 540 1080C540 1060.7 538.988 1041.64 537.013 1022.87M542.987 1022.87C545.587 998.14 549.855 973.912 555.678 950.296" stroke="white" stroke-width="7"/>
</svg>
