<svg width="1171" height="1080" viewBox="0 0 1171 1080" fill="none" xmlns="http://www.w3.org/2000/svg">
<path d="M585.5 921.841C553.008 958.838 514.087 991.253 469.217 1017.29C320.116 1103.81 143.165 1097.93 4 1017.33C4.13466 855.906 87.546 698.949 236.647 612.429C281.499 586.403 328.871 568.738 376.977 558.952M585.5 921.841C617.992 958.838 656.913 991.253 701.783 1017.29C850.884 1103.81 1027.83 1097.93 1167 1017.33C1166.87 855.906 1083.45 698.949 934.353 612.429C889.456 586.377 842.033 568.702 793.878 558.923M585.5 921.841C538.407 868.219 504.817 804.974 486.19 737.579M585.5 921.841C632.645 868.161 666.256 804.836 684.871 737.358M376.977 558.952C361.331 512.154 352.852 462.047 352.852 409.951C352.852 236.912 446.392 85.8316 585.423 5C724.453 85.8316 817.993 236.912 817.993 409.951C817.993 462.037 809.518 512.133 793.878 558.923M376.977 558.952C399.655 626.782 437.39 687.662 486.19 737.579M376.977 558.952C446.759 544.757 518.085 547.143 585.5 564.641M793.878 558.923C771.235 626.664 733.573 687.475 684.871 737.358M793.878 558.923C724.142 544.76 652.869 547.155 585.5 564.641M684.871 737.358C696.059 696.803 701.829 654.748 701.864 612.384C665.289 591.202 626.104 575.181 585.5 564.641M684.871 737.358C655.457 767.485 622.015 793.627 585.423 814.902C548.919 793.679 515.552 767.613 486.19 737.579M486.19 737.579C474.962 696.956 469.171 654.825 469.135 612.384C505.711 591.202 544.896 575.181 585.5 564.641" stroke="white" stroke-width="7"/>
</svg>
