<svg width="1092" height="1080" viewBox="0 0 1092 1080" fill="none" xmlns="http://www.w3.org/2000/svg">
<path d="M427.509 780.252C421.522 782.599 413.809 784.429 404.633 784.429C385.451 784.429 380.656 736.44 380.656 712.445H320.719C312.726 712.445 301.536 702.847 320.719 664.456C387.856 626.065 380.663 464.501 368.674 388.518C400.645 432.508 471.779 534.885 500.552 592.472C644.419 580.475 680.385 400.515 632.43 340.529C718.75 350.127 812.263 232.553 848.23 172.566C896.188 124.577 976.12 105.576 966.523 0C966.523 83.9812 997.235 196.561 904.749 244.55L956.122 280.542L1088 172.566C1088 220.556 1066.43 321.333 980.107 340.529L812.263 508.491L872.207 556.48L632.43 760.435L812.263 952.391C765.681 1059.42 594.627 1095.34 512.541 1072.36L536.511 856.413C512.533 868.41 462.18 890.006 452.589 880.408C440.6 868.41 464.578 856.413 464.578 832.418C464.578 808.424 404.633 820.421 416.622 796.426C420.267 789.131 424.028 783.915 427.509 780.252ZM427.509 780.252C433.188 774.276 438.123 772.432 440.6 772.432C438.515 774.518 434.038 777.692 427.509 780.252ZM752.311 784.429H896.178C884.194 808.424 850.634 856.413 812.263 856.413C773.893 856.413 716.344 800.426 692.367 772.432L884.189 604.47H1064.02C1000.08 648.46 855.416 736.44 788.278 736.44C778.687 755.636 760.304 776.431 752.311 784.429ZM740.322 184.564C652.409 160.569 445.409 134.175 320.719 220.556C196.028 306.936 140.878 392.517 128.889 424.51L248.778 448.505L140.878 460.502L224.8 580.475L9 412.513L80.9333 400.515C88.9259 384.519 112.104 345.328 140.878 316.534C112.104 287.741 88.9259 240.551 80.9333 220.556L176.844 256.548C212.811 224.555 299.131 158.17 356.678 148.572C347.087 150.718 352.681 77.4821 356.678 40.596L440.6 100.583C524.522 92.5843 701.958 98.1831 740.322 184.564ZM884.189 496.494L1004.08 388.518L1076.01 496.494L980.107 544.483L884.189 496.494Z" stroke="white" stroke-width="7"/>
</svg>
