<svg width="56" height="56" viewBox="0 0 56 56" fill="none" xmlns="http://www.w3.org/2000/svg">
<path fill-rule="evenodd" clip-rule="evenodd" d="M13.1292 51.7247L18.3411 43.4096C18.1916 43.3159 18.0432 43.2198 17.8961 43.1216C14.9053 41.1232 12.5743 38.2828 11.1978 34.9597C9.82133 31.6365 9.46118 27.9798 10.1629 24.452C10.5963 22.2733 11.4226 20.2042 12.5904 18.3411L4.27532 13.1292C4.64297 12.5427 5.03132 11.9714 5.43933 11.4164C3.02117 14.7061 1.34121 18.4995 0.538012 22.5375C-0.542374 27.9689 0.0121194 33.5988 2.13137 38.7151C4.25063 43.8315 7.83946 48.2045 12.444 51.2812C12.6705 51.4325 12.8989 51.5803 13.1292 51.7247ZM6.3816 10.2054C6.95368 9.51044 7.56065 8.84137 8.20101 8.20101C9.37138 7.03064 10.6376 5.97185 11.9829 5.03365C13.1287 4.23456 14.3365 3.51965 15.5974 2.89668C15.9069 2.74377 16.2196 2.5964 16.5354 2.45468C18.4676 1.58754 20.4815 0.946957 22.5375 0.538013C23.8416 0.27862 25.1626 0.112417 26.4904 0.0407152C27.2183 0.00140953 27.9482 -0.0095005 28.6785 0.00819969C29.6645 0.0320959 30.6511 0.108139 31.6343 0.236854C31.9766 0.281665 32.3185 0.332859 32.6598 0.39046C34.7481 0.74291 36.7785 1.32916 38.7151 2.13137C38.994 2.2469 39.271 2.36689 39.5459 2.49132C42.3537 3.76222 44.9475 5.49479 47.2135 7.63233C48.754 9.08558 50.1166 10.7011 51.2812 12.444C51.6392 12.9799 51.9785 13.5278 52.2986 14.0867C53.6597 16.4638 54.672 19.0405 55.2911 21.7393C55.7646 23.8036 56 25.9038 56 28H46.1865C46.1865 30.1987 45.7878 32.3908 44.9979 34.467C43.7188 37.8289 41.4716 40.7359 38.5404 42.8206C35.6091 44.9053 32.1255 46.074 28.5301 46.1788C28.3532 46.184 28.1765 46.1865 28 46.1865L28 56C27.9264 56 27.8528 55.9997 27.7793 55.9991C28.1245 56.0019 28.4702 55.9982 28.8161 55.9881C34.3517 55.8267 39.715 54.0274 44.2279 50.8178C48.7409 47.6083 52.2007 43.1325 54.17 37.9566C55.3861 34.7601 56 31.3852 56 28M43.1216 17.8961C43.1069 17.8741 43.0921 17.8522 43.0773 17.8302C43.0921 17.8521 43.1069 17.8741 43.1216 17.8961M34.9597 11.1978C34.9353 11.1877 34.9108 11.1776 34.8863 11.1676C34.9108 11.1776 34.9352 11.1877 34.9597 11.1978M31.9137 10.2396C29.4697 9.701 26.9291 9.67019 24.452 10.1629C24.0977 10.2334 23.7463 10.3142 23.3983 10.4053" fill="black"/>
</svg>
