<svg width="128" height="128" viewBox="0 0 128 128" fill="none" xmlns="http://www.w3.org/2000/svg">
<rect width="128" height="128" fill="#F3CA0C"/>
<path fill-rule="evenodd" clip-rule="evenodd" d="M57.966 13.1697C57.8158 13.3195 57.693 13.5778 57.693 13.7435C57.693 13.9094 57.5413 14.276 57.3559 14.5586C56.9012 15.2514 56.3418 17.1422 56.3389 17.9966C56.3373 18.4389 56.1358 18.879 55.7838 19.2091C55.4799 19.4942 55.0774 20.0509 54.8895 20.4466C54.7014 20.8421 54.2634 21.301 53.9158 21.4665C52.0927 22.3347 51.8229 22.504 51.7529 22.8238C51.711 23.015 51.8227 23.4026 52.0014 23.6852C52.2847 24.1336 52.2831 24.2482 51.9873 24.5882C51.801 24.8022 51.583 25.2539 51.5028 25.5916C51.3162 26.3758 50.7665 26.6607 48.9436 26.9185C47.7642 27.0853 47.2797 27.2865 46.4763 27.9438C45.3295 28.882 45.0737 29.5757 45.4706 30.6714C45.6888 31.2737 45.691 31.587 45.4807 32.0936C45.1809 32.8159 44.3644 33.4426 43.7227 33.4426C43.4921 33.4426 42.878 33.806 42.3581 34.2503C41.4654 35.013 41.413 35.1255 41.413 36.2761C41.413 37.4242 41.4553 37.5156 42.1478 37.8639C42.5519 38.0673 43.188 38.5158 43.561 38.8608C43.9341 39.2055 44.472 39.5576 44.7563 39.6432C45.1888 39.7734 45.265 39.9373 45.223 40.6468C45.1881 41.2349 45.3362 41.7236 45.7062 42.2423C46.1959 42.929 46.2127 43.0378 45.9106 43.5776C45.6551 44.034 45.3788 44.1803 44.6726 44.2324C43.9178 44.2882 43.6415 44.183 43.0426 43.6117C42.646 43.2333 42.108 42.9236 41.8469 42.9236C41.586 42.9236 41.1889 42.6974 40.9648 42.4211C40.5924 41.962 40.506 41.9457 39.9674 42.2335C39.6432 42.4067 39.378 42.7297 39.378 42.9511C39.378 43.1895 39.0551 43.5069 38.5866 43.7288C37.8822 44.0625 37.7952 44.2004 37.7952 44.981C37.7952 45.4634 37.9015 45.8582 38.0315 45.8582C38.1771 45.8582 38.2135 46.1483 38.126 46.6138C37.9928 47.3224 38.0554 47.4206 39.1338 48.1939C39.766 48.6474 40.3776 49.0186 40.4927 49.0186C40.9069 49.0186 41.6599 50.2416 41.5934 50.8062C41.4993 51.603 39.8869 51.9457 38.7589 51.4087C38.2069 51.1459 37.8816 51.1089 37.5725 51.2741C37.3382 51.3992 36.7817 51.5017 36.3359 51.5017C35.3765 51.5017 34.1141 52.2414 33.0939 53.4015C32.2794 54.3275 32.2312 54.5722 32.6898 55.4544C33.012 56.0745 32.9876 56.3733 32.5372 57.312C32.323 57.7583 32.4379 57.9709 33.5187 59.1305C34.1919 59.8529 34.9326 60.6816 35.1646 60.9723C35.5854 61.499 35.5849 61.5001 35.0515 61.3188C32.9767 60.6143 30.9869 61.9737 32.8772 62.8044C33.7154 63.1726 35.0649 65.4133 35.0755 66.4548C35.0803 66.9093 35.2908 67.2088 35.8685 67.5835C36.301 67.8639 36.7512 68.3662 36.869 68.6994C37.1797 69.5791 36.422 70.0123 34.5724 70.0123C33.599 70.0123 32.865 70.1534 32.274 70.4543C31.7964 70.6974 30.9487 70.9647 30.3905 71.0484C29.5389 71.1757 29.1423 71.4304 27.9324 72.6265L26.4896 74.0528V75.4334C26.4896 76.1928 26.3783 77.0215 26.2427 77.275C26.0335 77.6648 26.112 77.8558 26.7514 78.5161C27.167 78.9452 28.1431 79.5996 28.9203 79.9707C30.2604 80.6102 30.3335 80.6863 30.3335 81.4439C30.3335 82.1044 30.1424 82.4268 29.231 83.3038L28.1287 84.3647L28.1666 86.9361C28.1933 88.7359 28.2878 89.5351 28.4818 89.5996C28.634 89.6504 28.8875 89.8204 29.0449 89.9775C29.2022 90.1346 29.9672 90.5547 30.745 90.9112C31.7944 91.392 32.196 91.7044 32.3009 92.1225C32.3789 92.4322 32.6215 92.9934 32.8404 93.3695C33.059 93.7458 33.3089 94.5399 33.3955 95.1345C33.5698 96.3302 33.1477 97.1009 32.3185 97.1009C31.469 97.1009 30.4617 96.2077 31.2945 96.193C31.45 96.1903 31.831 95.9932 32.1412 95.7551L32.7056 95.3223L32.0474 94.6368C31.3874 93.9487 29.5869 93.2634 28.4402 93.2634C28.121 93.2634 27.4786 93.0494 27.0123 92.788C26.114 92.2843 25.5562 92.2866 22.5326 92.8067C21.7864 92.9349 20.4553 92.9783 19.5746 92.9029C18.1573 92.7816 17.8451 92.8306 16.8613 93.3288C15.1772 94.1814 14.9852 94.4995 14.6013 97.0729C14.2888 99.1673 14.2917 99.4913 14.6372 100.866C14.9995 102.308 14.9979 102.383 14.5965 102.676C14.2976 102.894 13.8112 102.94 12.8948 102.836C11.693 102.7 11.5874 102.728 11.2336 103.267C10.787 103.948 10.9279 104.29 12.1206 105.428C12.9803 106.249 13.1225 106.909 12.5909 107.611C12.2169 108.105 12.1396 109.091 12.4494 109.415C12.5622 109.533 12.6893 110.287 12.732 111.091L12.8098 112.553L12.0184 112.929C11.5831 113.136 11.227 113.444 11.227 113.612C11.227 113.867 14.7247 113.928 32.2272 113.976C52.6804 114.032 53.2669 114.022 54.7504 113.581C55.5882 113.332 56.8727 112.825 57.6051 112.454C58.3845 112.059 59.2946 111.778 59.7995 111.777C60.6067 111.774 60.6578 111.734 60.5909 111.154C60.5344 110.664 60.3772 110.51 59.8411 110.418C59.3536 110.335 59.1628 110.176 59.1628 109.853C59.1628 109.606 59.3154 109.401 59.5019 109.398C60.3465 109.383 60.744 108.364 60.1405 107.761C59.9365 107.558 59.9639 107.397 60.2576 107.073C60.6017 106.693 60.6348 106.012 60.5803 100.416C60.5111 93.32 60.5796 93.5686 58.631 93.3381C57.8511 93.246 57.3774 93.0665 57.2408 92.8119C57.1271 92.5995 56.241 92.1453 55.2718 91.8026C52.8438 90.9437 49.5654 89.1973 48.507 88.1987C48.3668 88.0666 47.6767 87.4578 46.9735 86.8456C46.2703 86.2336 45.1128 84.9638 44.4017 84.0239C43.6906 83.0841 43.0579 82.2642 42.9958 82.2022C42.9336 82.1401 42.7719 81.8861 42.6362 81.6378C42.5008 81.3895 42.1365 80.7292 41.8272 80.1705C39.8804 76.6551 38.9081 71.5568 39.3422 67.1382C39.8121 62.3554 41.0544 59.0377 43.8297 55.155C45.0238 53.4846 47.7258 50.743 49.0051 49.9041C51.271 48.4183 51.799 48.112 53.2178 47.4592C54.0522 47.0752 54.842 46.7612 54.9734 46.7612C55.1045 46.7612 55.3887 46.6648 55.6047 46.5467C55.8206 46.4289 56.6468 46.1783 57.4407 45.9898C58.2344 45.8016 58.9339 45.5977 58.9948 45.5368C59.2675 45.2647 58.784 44.7295 58.2653 44.7295C57.5501 44.7295 57.5196 44.3327 58.2145 44.069C59.6916 43.5083 60.6033 42.0818 59.9202 41.3999C59.7242 41.2042 59.7317 40.7236 59.9501 39.4486C60.2239 37.8508 60.2135 37.7122 59.7626 36.9494C59.322 36.2038 59.2831 35.7844 59.2523 31.4626C59.2218 27.1752 59.2607 26.6618 59.7179 25.3331C60.1418 24.1013 60.1798 23.7442 59.9704 22.9629C59.8348 22.4568 59.6204 21.0893 59.494 19.924C59.3679 18.7585 59.2118 17.7201 59.1474 17.616C59.083 17.512 58.9948 16.5501 58.9514 15.4783C58.8684 13.4286 58.5213 12.6152 57.966 13.1697ZM67.9339 13.3986C67.7833 13.5882 67.7304 15.9842 67.7831 20.2369C67.9246 31.682 67.7813 36.2332 67.2598 36.8582C67.0771 37.0772 67.0048 38.1192 67.0337 40.1086L67.0767 43.0365L68.1564 43.7568L69.2361 44.4771L68.439 44.8548C68.0006 45.0625 67.642 45.3153 67.642 45.4164C67.642 45.5176 68.2269 45.7657 68.9421 45.9679C76.1243 47.9973 81.454 52.2845 84.6709 58.6201C86.3765 61.9787 87.0876 65.1433 87.0876 69.3743C87.0876 74.1413 86.0782 77.7361 83.6123 81.7507C80.678 86.5275 75.9394 90.3184 70.9206 91.9035C69.854 92.2403 69.57 92.4676 69.5666 92.9864C69.5646 93.2692 69.2901 93.4087 68.5175 93.5196C66.3929 93.8241 66.5168 93.46 66.4707 99.5355C66.423 105.839 66.4427 106.311 66.7805 106.975C66.9894 107.386 66.9632 107.563 66.6412 107.918C66.3925 108.192 66.2986 108.526 66.3895 108.812C66.5419 109.291 67.2603 109.639 67.6286 109.412C67.7478 109.338 67.9567 109.486 68.0926 109.739C68.3694 110.255 68.2326 110.353 67.0787 110.466C66.6401 110.509 66.3751 110.675 66.3251 110.938C66.2071 111.559 66.6867 112.004 67.2503 111.796C67.6029 111.666 68.3031 111.894 69.8907 112.656L72.0512 113.693L90.9315 113.806C113.752 113.942 115.804 113.914 115.804 113.465C115.804 113.284 115.524 113.067 115.182 112.982C114.479 112.808 114.013 112.305 114.002 111.71C113.998 111.489 114.203 110.692 114.457 109.939C114.747 109.08 114.842 108.473 114.712 108.31C114.599 108.166 114.381 107.662 114.228 107.189C113.985 106.435 114.001 106.272 114.354 105.883C114.576 105.638 115.019 105.313 115.337 105.162C115.76 104.961 115.937 104.679 115.99 104.125C116.03 103.706 115.947 103.25 115.805 103.111C115.663 102.971 114.82 102.857 113.923 102.857H112.299V98.8308C112.299 94.8124 112.298 94.8033 111.736 94.3487C110.276 93.1676 109.265 92.8764 106.568 92.8604C105.157 92.8523 103.299 92.727 102.439 92.5821C101.01 92.3414 100.81 92.3575 100.117 92.7658C99.6992 93.0117 98.8099 93.2873 98.1406 93.3783C96.848 93.5539 95.1978 94.2225 94.7616 94.7471C94.3885 95.1961 94.6298 95.6442 95.4363 96.0007C96.2567 96.3632 96.3356 96.7679 95.6233 96.9587C94.7612 97.1894 94.2334 97.1088 93.6449 96.6567C93.1924 96.309 93.1359 96.1659 93.3622 95.9393C93.5176 95.7835 93.6449 95.2544 93.6449 94.7632C93.6449 94.1586 93.8273 93.6315 94.2101 93.1304C94.521 92.7234 94.7754 92.1789 94.7754 91.9204C94.7754 91.592 95.0312 91.341 95.6233 91.0877C96.0898 90.8886 96.6239 90.6339 96.8104 90.522C98.7459 89.3603 99.0584 88.9111 98.6664 87.8531C98.533 87.493 98.5675 86.963 98.7677 86.2986C98.9348 85.7442 99.0715 85.1993 99.0715 85.0873C99.0715 84.9756 98.5628 84.3469 97.941 83.6907C96.921 82.6139 96.8104 82.3954 96.8104 81.4572C96.8104 80.4766 96.8586 80.3949 97.6583 80.0213C98.8972 79.4423 100.501 78.4043 100.697 78.0547C100.791 77.8876 100.769 77.4072 100.648 76.9871C100.527 76.5668 100.428 75.7481 100.428 75.1675C100.428 74.2187 100.316 73.9893 99.3191 72.9004C98.4113 71.9087 97.9905 71.6328 97.0015 71.3805C96.3367 71.2112 95.4323 70.8852 94.9916 70.6565C94.5507 70.4278 93.5332 70.1728 92.7305 70.0899C90.712 69.8811 89.8046 69.4825 89.964 68.8743C90.0318 68.6154 90.4325 68.1305 90.8542 67.7969C91.3575 67.3991 91.7274 66.8357 91.9307 66.1582C92.4514 64.4205 93.3796 62.7886 93.847 62.7886C94.3813 62.7886 94.8356 62.2514 94.7363 61.7371C94.6533 61.3062 93.9492 61.0405 92.7969 61.0053C91.9635 60.9798 91.9257 60.8737 92.406 59.9125C92.7752 59.1734 93.1827 58.7716 93.9517 58.3887C94.3931 58.1689 94.4333 57.9806 94.403 56.2799L94.3698 54.4124L93.2725 53.2816C92.669 52.6597 91.9004 52.0049 91.5646 51.8263C90.9139 51.4805 88.2148 51.4024 87.4345 51.7069C86.8812 51.9229 85.2778 51.5364 85.1299 51.1516C84.9624 50.7157 86.13 49.0186 86.5976 49.0186C86.8224 49.0186 87.4315 48.6551 87.9514 48.2109C88.7131 47.5601 88.8965 47.2558 88.8965 46.644C88.8965 46.2264 88.9983 45.8221 89.1226 45.7453C89.491 45.5182 89.3804 44.3765 88.953 43.992C88.7355 43.7963 88.2774 43.5663 87.9355 43.4812C87.4792 43.3674 87.3137 43.1859 87.3137 42.7997C87.3137 42.5101 87.2188 42.2143 87.1025 42.1428C86.7211 41.9073 84.1341 43.3825 83.9139 43.9609C83.7393 44.4194 83.5566 44.5027 82.7406 44.4966C82.209 44.4927 81.5958 44.3546 81.3783 44.1896C80.8428 43.7837 80.8722 42.5706 81.4348 41.8565C81.6851 41.5389 81.887 40.9407 81.887 40.5172C81.887 39.9156 82.0039 39.7077 82.4338 39.5445C82.8978 39.3684 84.4489 38.3133 85.4483 37.4941C85.6039 37.3666 85.7309 36.7934 85.7309 36.2205C85.7309 35.3036 85.6253 35.0785 84.8518 34.3437C84.3096 33.8288 83.5795 33.4101 82.9459 33.2507C81.8769 32.9821 80.8062 31.9103 81.1999 31.5028C81.3086 31.3902 81.4662 30.8299 81.5501 30.2579C81.6996 29.2389 81.681 29.1971 80.6468 28.2262C79.5018 27.1512 79.0627 26.953 77.7492 26.9187C75.8833 26.8697 74.9619 25.7557 75.0229 23.6229C75.0548 22.5168 75.0345 22.4807 74.0097 21.817C73.1555 21.2637 72.7254 20.7111 71.6598 18.7964C70.9423 17.5077 70.3524 16.3395 70.3488 16.2004C70.3451 16.0616 70.0082 15.3386 69.6003 14.5938C68.849 13.2227 68.3549 12.8683 67.9339 13.3986ZM45.0873 34.7031C44.3106 35.3142 44.1225 36.0774 44.6945 36.2966C44.8827 36.3688 45.1624 36.3237 45.3163 36.1966C45.4701 36.0695 45.8898 35.9313 46.2488 35.8891C46.6077 35.8471 47.0447 35.5961 47.2198 35.3311C47.4976 34.911 47.4915 34.8029 47.1727 34.4846C46.6497 33.9625 45.9332 34.0374 45.0873 34.7031ZM79.3548 34.6925C79.0192 35.428 79.3607 35.7738 80.7565 36.1122C81.5628 36.3077 81.8373 36.2961 82.0788 36.0557C82.327 35.8088 82.3307 35.6539 82.0982 35.2185C81.6842 34.4424 81.1935 34.1351 80.356 34.127C79.7797 34.1214 79.5585 34.2464 79.3548 34.6925ZM74.6514 37.7316C74.6514 38.0276 74.7611 38.1269 74.9906 38.0391C75.1772 37.9675 75.3298 37.8291 75.3298 37.7316C75.3298 37.6341 75.1772 37.4957 74.9906 37.4242C74.7611 37.3363 74.6514 37.4357 74.6514 37.7316ZM47.9702 39.8628C47.9702 40.2272 48.2904 40.4969 48.4885 40.2994C48.6648 40.1233 48.4218 39.5375 48.1721 39.5375C48.0611 39.5375 47.9702 39.6838 47.9702 39.8628ZM78.1903 39.8689C78.0348 40.2732 78.3325 40.4886 78.7999 40.3096C79.1972 40.1574 79.0437 39.5375 78.6084 39.5375C78.4485 39.5375 78.2602 39.6867 78.1903 39.8689ZM59.615 46.551C59.1175 46.6589 58.1509 46.8691 57.4669 47.0183C56.0372 47.33 52.8196 48.652 51.2382 49.5773C50.0095 50.296 47.2679 52.6281 45.8644 54.1482C44.5225 55.6015 43.5258 57.1458 42.4101 59.5007C39.0361 66.6208 39.5062 74.4918 43.725 81.5184C44.6728 83.097 46.7277 85.4264 48.2945 86.6984C52.788 90.347 56.5157 91.7922 62.1022 92.052C66.6692 92.2645 70.3542 91.4644 74.1006 89.447C76.5813 88.1111 79.5635 85.6496 80.9441 83.7984C81.2747 83.355 81.6066 82.9415 81.6819 82.8794C81.757 82.8173 82.2309 82.1062 82.7352 81.2992C84.3691 78.6842 85.3006 76.2467 85.8243 73.2164C86.8321 67.3869 85.6283 61.5313 82.4238 56.6736C78.9856 51.4615 73.3386 47.7391 67.1897 46.6309C65.3096 46.2923 61.0182 46.2469 59.615 46.551ZM61.5935 47.8262C61.267 47.9431 61.212 48.7052 61.5166 48.893C61.8207 49.0806 62.4414 48.7885 62.4414 48.4576C62.4414 48.0718 61.9433 47.7007 61.5935 47.8262ZM59.0615 48.2142C58.7105 48.6364 58.9039 49.2443 59.3889 49.2443C59.8929 49.2443 60.0765 48.5924 59.6831 48.1996C59.3898 47.9068 59.3156 47.9086 59.0615 48.2142ZM63.7981 48.3036C63.7981 48.8906 64.0183 49.0375 64.506 48.777C65.1262 48.4456 65.0367 47.8899 64.3633 47.8899C63.9658 47.8899 63.7981 48.0127 63.7981 48.3036ZM66.4079 48.1937C66.149 48.3826 66.0409 48.6452 66.1284 48.873C66.3081 49.3407 66.8196 49.3508 67.1992 48.8944C67.438 48.607 67.431 48.4854 67.1601 48.2149C66.8795 47.935 66.7667 47.9316 66.4079 48.1937ZM56.7391 48.8161C56.5268 48.9346 56.4123 49.1791 56.4831 49.363C56.6466 49.7886 57.3801 49.7958 57.5425 49.3736C57.7211 48.9088 57.2089 48.5535 56.7391 48.8161ZM68.6287 48.9041C68.5505 49.1079 68.5948 49.3829 68.7273 49.5152C69.0719 49.8592 69.7245 49.5448 69.6345 49.0784C69.5343 48.5587 68.8098 48.4332 68.6287 48.9041ZM54.2041 49.8488C54.1241 50.057 54.1942 50.3628 54.3599 50.5281C54.7769 50.9446 55.5219 50.4184 55.3069 49.8592C55.1156 49.3612 54.3943 49.3545 54.2041 49.8488ZM70.8075 49.8974C70.8075 50.3414 71.3742 50.6942 71.7323 50.4732C71.8456 50.4035 71.9381 50.1493 71.9381 49.9082C71.9381 49.5913 71.7816 49.47 71.3728 49.47C70.969 49.47 70.8075 49.5919 70.8075 49.8974ZM60.7456 50.3703C52.4579 51.5712 45.9852 57.7871 44.3447 66.1207C44.0063 67.8402 44.1878 72.8135 44.6432 74.3013C46.427 80.1272 49.8327 84.1124 55.2058 86.6605C57.7765 87.8797 59.2322 88.1576 63.1197 88.1711C66.35 88.1824 66.7737 88.1346 68.5295 87.5621C74.4927 85.6171 79.5386 80.7461 81.2141 75.3171C81.3672 74.8205 81.5743 74.1966 81.6738 73.9306C82.0842 72.8358 82.3944 69.6132 82.2664 67.7761C81.6996 59.6414 76.2464 53.0943 68.0748 50.7376C66.5478 50.2971 62.6112 50.0998 60.7456 50.3703ZM73.2195 50.5236C73.1365 50.6062 73.0687 50.8601 73.0687 51.0879C73.0687 51.6091 73.9295 51.652 74.1262 51.1403C74.3116 50.6581 73.5817 50.1617 73.2195 50.5236ZM52.0787 51.0886C52.1284 51.4392 52.3041 51.6146 52.6055 51.6146C53.2789 51.6146 53.2117 50.7333 52.5309 50.6371C52.0925 50.575 52.0165 50.6509 52.0787 51.0886ZM60.6325 51.0581C58.1166 51.4583 57.6863 51.5556 57.5646 51.7523C57.4961 51.8629 57.2924 51.9532 57.1117 51.9532C56.6441 51.9532 53.4779 53.5026 53.1572 53.8882C53.0098 54.0656 52.7742 54.2105 52.6333 54.2105C52.2553 54.2105 49.2459 57.1921 48.2452 58.5583C47.7685 59.2089 47.0215 60.503 46.5851 61.4342C45.8387 63.0265 45.6528 63.562 45.0486 65.8623C44.7389 67.0422 44.7244 72.6451 45.0308 72.834C45.1551 72.9107 45.2569 73.2469 45.2571 73.581C45.2573 74.7819 46.5086 77.6339 47.9268 79.6655C49.9329 82.5392 52.762 84.8514 55.8767 86.1627C58.174 87.13 59.5157 87.4158 62.3987 87.5517C67.5063 87.7928 72.7184 85.6654 76.4183 81.8299C77.5097 80.6985 79.852 77.2255 79.852 76.7386C79.852 76.565 79.9377 76.3269 80.0426 76.2088C80.1475 76.091 80.4101 75.3848 80.626 74.6399C80.8419 73.895 81.1216 73.0135 81.2474 72.6812C81.3817 72.3261 81.4368 70.65 81.381 68.6179C81.3046 65.8311 81.1899 64.8738 80.7904 63.6916C80.5177 62.8846 80.195 62.048 80.0732 61.8324C79.9515 61.6168 79.852 61.3297 79.852 61.1947C79.852 60.7628 77.8432 57.8312 76.7376 56.6492C74.341 54.0875 71.2935 52.2615 67.9303 51.3714C66.44 50.9771 62.2682 50.7981 60.6325 51.0581ZM59.9542 51.9326C57.7419 52.3809 55.4319 53.3153 53.5665 54.516C52.1843 55.4061 52.0739 55.576 52.5974 56.0097C52.9745 56.3223 52.9293 57.928 52.532 58.3246C52.3982 58.4583 51.8272 58.6377 51.2635 58.7231C50.3871 58.8558 50.2196 58.8183 50.1068 58.4632C50.0342 58.235 49.8886 58.0481 49.7832 58.0481C49.4309 58.0481 47.9648 60.2531 47.2051 61.9254C45.8785 64.8453 45.6114 66.1557 45.6261 69.6737C45.6383 72.5888 45.6926 72.9868 46.3244 74.8054C47.0536 76.9045 48.7291 79.9032 49.2934 80.1193C49.4915 80.1953 49.7594 80.0599 49.9358 79.7949C50.1947 79.4057 50.3858 79.3626 51.2633 79.4955C52.5327 79.6879 52.6363 79.7994 52.7756 81.1238C52.8703 82.0247 52.8221 82.2105 52.464 82.3241C51.418 82.6554 52.3563 83.6058 55.0928 84.9857C58.73 86.8199 62.2004 87.3366 66.0592 86.6181C68.7639 86.1144 70.2963 85.5187 72.5086 84.1108C74.23 83.0153 74.5576 82.6148 73.9595 82.3369C73.3497 82.0536 73.3631 80.6507 73.9819 79.9874C74.5445 79.3845 75.8944 79.3206 76.5004 79.8682C76.7287 80.0743 76.9442 80.2012 76.9797 80.1504C77.015 80.0994 77.3331 79.6658 77.6865 79.187C79.6822 76.4831 80.7495 72.9717 80.7495 69.1093C80.7495 65.2442 79.8959 62.313 77.8731 59.2332C77.0322 57.9531 76.7208 57.8057 76.2951 58.4865C76.0753 58.8377 75.8512 58.9 75.1665 58.8007C74.6967 58.7325 74.1341 58.4734 73.9166 58.2246C73.3787 57.6097 73.4153 56.4964 73.9937 55.8817L74.4665 55.3794L73.1677 54.5501C70.7058 52.9778 68.3902 52.1123 65.72 51.7665C63.9263 51.5342 63.4248 51.617 63.811 52.0816C64.1517 52.4913 63.8759 53.2525 63.3235 53.4275C62.6702 53.6345 62.1768 53.1254 62.2587 52.3288C62.2971 51.9568 62.2266 51.6279 62.1022 51.5978C61.9779 51.5678 61.0112 51.7184 59.9542 51.9326ZM75.1367 52.0263C74.9311 52.2735 74.9479 52.4076 75.2111 52.6256C75.6536 52.9922 76.289 52.7417 76.1917 52.2387C76.0949 51.7362 75.4806 51.6127 75.1367 52.0263ZM50.1637 52.0958C50.0767 52.183 50.0052 52.4475 50.0052 52.6836C50.0052 53.0001 50.1393 53.0943 50.514 53.0412C50.8466 52.994 51.0227 52.8137 51.0227 52.5207C51.0227 52.0728 50.4638 51.7965 50.1637 52.0958ZM59.1707 52.8432C59.0895 52.9744 58.7714 53.0819 58.4641 53.0819C57.5924 53.0819 57.596 53.6171 58.4731 54.4927C59.3409 55.3591 59.5207 56.2731 58.971 57.0237C58.5765 57.5623 58.1453 57.2889 58.1453 56.4998C58.1453 56.1594 58.0232 55.7591 57.8739 55.6101C57.4536 55.1905 56.6048 55.29 56.3364 55.7907C56.2032 56.039 55.9707 56.2456 55.8197 56.2496C55.2635 56.265 54.5275 57.1086 54.5275 57.7309C54.5275 58.512 55.3379 60.2211 55.7903 60.3944C55.9762 60.4658 56.3307 60.3985 56.5783 60.2454C57.1219 59.9091 57.4579 60.2901 57.4635 61.2495C57.4658 61.6577 57.6808 62.0071 58.1236 62.3218C59.0081 62.9505 59.4228 62.9094 59.677 62.1678L59.8895 61.5471L60.261 62.4211C60.7248 63.5123 60.7186 63.6832 60.1929 64.3124C59.5714 65.0564 59.0138 64.9329 58.3825 63.9112C58.0686 63.4033 57.6519 63.0144 57.4215 63.0144C56.7271 63.0144 56.9731 63.6577 57.9022 64.2715C58.6549 64.7688 59.2182 65.4537 58.9986 65.6047C57.6135 66.5573 56.8596 66.6508 56.2233 65.949C55.8265 65.511 55.8283 65.4975 56.288 65.4975C56.9749 65.4975 57.0699 65.1799 56.6199 64.388C56.3346 63.8862 55.9377 63.6062 55.2058 63.3909C54.5261 63.1909 54.2163 62.985 54.2724 62.7708C54.3185 62.5943 54.4038 62.2841 54.4614 62.0814C54.6046 61.5784 53.2802 60.6247 52.2146 60.4633C51.4173 60.3423 51.3153 60.4008 50.3491 61.5299C49.7868 62.1868 49.3269 62.8755 49.3269 63.0602C49.3269 63.5604 50.0285 64.0954 50.7966 64.1805C51.6488 64.2753 51.6649 64.6103 50.8364 65.0067C49.9704 65.4212 49.1799 65.1787 48.3512 64.2442C47.9716 63.8162 47.5858 63.4658 47.494 63.4658C47.402 63.4658 47.2042 63.8469 47.0538 64.3124C46.9037 64.7781 46.6952 65.2675 46.5905 65.4C46.2552 65.8253 47.0319 66.6449 47.7045 66.5756C48.2013 66.5244 48.3214 66.614 48.377 67.0777C48.5104 68.1915 48.6481 68.3637 49.0112 67.8711C49.3371 67.4289 49.3432 67.4298 49.4752 67.9339C49.5734 68.3086 49.7219 68.4091 50.0333 68.3104C50.2666 68.2364 50.4679 68.259 50.4803 68.3605C50.6322 69.582 50.6196 70.2509 50.4428 70.3599C50.3247 70.4328 50.1674 70.3342 50.093 70.1407C49.9177 69.6847 49.553 69.9118 49.553 70.4771C49.553 70.9954 49.2048 71.0601 49.0189 70.5766C48.7994 70.005 48.4224 70.2008 48.4224 70.8863C48.4224 71.4692 48.3302 71.5495 47.5094 71.6805C46.9975 71.7622 46.5369 71.9807 46.4612 72.1776C46.3316 72.5146 46.7603 74.2264 47.0651 74.5887C47.1458 74.6846 47.5809 74.4054 48.032 73.9679C48.838 73.1864 49.3714 73.0394 50.4009 73.3148C51.2036 73.5297 50.9949 74.0042 50.0299 74.1584C49.5356 74.2372 49.0897 74.4557 49.0124 74.6571C48.798 75.2146 48.85 75.8815 49.1078 75.8815C49.2362 75.8815 49.4083 76.0594 49.4904 76.2765C49.7488 76.9596 50.8534 77.9131 51.3861 77.9131C52.0491 77.9131 53.8401 77.0472 53.8797 76.7079C53.8964 76.5637 53.9217 76.1424 53.9362 75.7718C53.9593 75.174 54.0653 75.0756 54.8712 74.904C55.5228 74.7654 55.859 74.544 56.0583 74.1223C56.4467 73.3008 56.4069 73.018 55.8841 72.8814C55.2083 72.7051 55.3363 72.3949 56.2159 72.0773C57.0656 71.7705 57.5185 71.9051 58.2115 72.6697C58.5973 73.0952 58.5903 73.1311 58.0166 73.6498C56.6975 74.8431 56.5625 74.9873 56.5625 75.2043C56.5625 75.7128 57.471 75.3801 57.9495 74.6963C58.8044 73.474 59.045 73.3954 59.7192 74.1182C60.3164 74.758 60.3207 75.9104 59.7281 76.4458C59.3823 76.7582 59.2749 76.7797 59.2724 76.5372C59.2643 75.7946 58.9355 75.6345 58.1855 76.0081C57.6259 76.2869 57.4084 76.5912 57.2119 77.3698C56.9473 78.419 56.6914 78.7553 56.4517 78.3682C56.2073 77.9734 55.5316 78.1167 55.0062 78.6752C54.5051 79.2075 53.7811 81.3818 54.0239 81.6243C54.0936 81.6938 54.3215 81.7507 54.5304 81.7507C54.7393 81.7507 55.277 82.1062 55.7252 82.5408C56.1733 82.9753 56.6905 83.3308 56.8741 83.3308C57.3928 83.3308 58.1444 82.2182 58.1527 81.438L58.1604 80.7349L58.605 81.2678C59.3432 82.1525 59.1913 83.181 58.2018 83.9979C57.2634 84.7729 57.3068 84.8627 58.8679 85.3772C59.9415 85.7309 60.5332 85.4681 60.493 84.6557C60.4625 84.0363 60.7512 83.7907 61.5155 83.7857C62.045 83.7823 62.0484 83.7704 61.65 83.3308C61.276 82.9184 61.2738 82.8794 61.622 82.8794C62.1395 82.8794 62.3344 82.2789 61.9623 81.8313C61.6909 81.5046 61.7316 81.4823 62.35 81.6177C62.7301 81.701 63.3027 81.6701 63.6224 81.5486C64.3263 81.2816 64.5752 81.4586 64.1264 81.9064C63.6728 82.3595 63.7158 82.6744 64.2503 82.8139C64.7774 82.9516 64.8603 83.3308 64.3633 83.3308C63.9557 83.3308 63.9032 83.7722 64.3068 83.8063C64.4624 83.8196 64.793 83.8449 65.0417 83.8627C65.3772 83.8868 65.5231 84.0988 65.607 84.6853C65.7388 85.6067 66.4074 85.8447 67.2366 85.265C67.5149 85.0702 67.9744 84.911 68.2577 84.911C68.9665 84.911 68.9023 84.5826 68.0786 83.997C67.2277 83.392 66.908 82.6148 67.0968 81.61C67.284 80.6139 67.9703 80.5452 68.0049 81.5193C68.018 81.8882 68.1577 82.345 68.3153 82.5347C68.662 82.9516 69.5852 82.9884 69.8353 82.5952C69.9347 82.4387 70.396 82.0579 70.8605 81.7486C71.3249 81.4394 71.7509 81.068 71.807 80.9236C71.863 80.7791 71.7393 80.131 71.5318 79.4836C71.1047 78.1499 70.3422 77.4558 69.7989 77.9059C69.3362 78.289 69.0932 78.0635 68.7621 76.9447C68.3705 75.6203 66.932 74.8887 66.672 75.8815C66.4954 76.5555 66.1847 76.4287 65.8674 75.5528C65.6298 74.8968 65.6416 74.6636 65.9409 74.0855C66.4318 73.1381 66.9478 73.2236 67.9481 74.4185C68.4178 74.9794 68.8971 75.3797 69.0133 75.3081C69.2777 75.1449 69.2935 74.3013 69.0321 74.3013C68.7156 74.3013 67.4159 72.967 67.4159 72.6419C67.4159 72.4762 67.7745 72.148 68.2129 71.9121C68.9356 71.5236 69.0658 71.515 69.608 71.8202C70.375 72.2518 70.5385 72.7211 69.9219 72.7211C69.3697 72.7211 69.334 72.9694 69.7667 73.8049C69.987 74.2297 70.3983 74.5078 71.1234 74.7216C72.275 75.0609 72.2639 75.0478 71.92 75.6894C71.6191 76.2508 72.1359 76.9172 73.231 77.3799C74.5027 77.9174 75.1512 77.7815 75.782 76.8458C76.0929 76.3846 76.5327 75.8192 76.7595 75.5891C77.1262 75.2173 77.136 75.1169 76.8468 74.6799C76.6679 74.4097 76.2279 74.0984 75.8691 73.9884C75.5102 73.8783 75.0641 73.7392 74.8776 73.6792C74.4303 73.5351 75.6778 72.971 76.4741 72.957C77.0509 72.9469 77.8274 73.5051 78.2263 74.2166C78.5227 74.7456 78.8187 74.4774 79.2858 73.2568C79.7656 72.0021 79.5685 71.5015 78.5894 71.4884C78.0128 71.4807 77.9387 71.4051 77.999 70.8877C78.0764 70.2231 77.4374 69.7863 77.2189 70.3547C77.0342 70.8351 76.6865 70.7676 76.6865 70.2513C76.6865 69.624 76.2272 69.426 76.0796 69.9895C75.8489 70.8705 75.6183 70.4714 75.6364 69.2222C75.6463 68.5393 75.7341 67.9806 75.8313 67.9806C75.9285 67.9806 76.0081 68.0822 76.0081 68.2064C76.0081 68.3305 76.1607 68.4321 76.3473 68.4321C76.5356 68.4321 76.6865 68.2314 76.6865 67.9806C76.6865 67.5045 77.0154 67.3731 77.2517 67.7549C77.5581 68.2499 78.0431 67.9734 78.0431 67.3034C78.0431 66.7862 78.1458 66.6262 78.4768 66.6262C79.6539 66.6262 79.8342 66.2271 79.3213 64.7566C78.8587 63.4302 78.6423 63.3437 77.9737 64.2189C77.2327 65.1887 76.4911 65.3882 75.3881 64.9142C74.6304 64.5887 74.5872 64.5288 74.9906 64.3622C75.2393 64.2593 75.7198 64.116 76.0581 64.0437C76.3966 63.9713 76.7832 63.7069 76.9178 63.4561C77.1226 63.0737 77.0329 62.8498 76.359 62.0638C75.9172 61.5486 75.5559 61.0475 75.5559 60.95C75.5559 60.8527 75.3519 60.664 75.1028 60.5308C74.5006 60.2091 73.054 60.5969 72.2357 61.2999C71.6374 61.8137 71.6315 61.8423 72.0068 62.4141L72.3921 63.0013L71.1811 63.3527C70.2796 63.6144 69.8909 63.8613 69.6611 64.3187C69.4913 64.6566 69.3193 64.9973 69.2788 65.0756C69.2381 65.1539 69.4638 65.2828 69.7801 65.362C70.4657 65.5338 70.519 65.8456 69.918 66.1668C68.9276 66.6959 67.4159 66.1474 67.4159 65.2589C67.4159 64.9758 67.261 64.8203 66.979 64.8203C66.7389 64.8203 66.3326 64.5261 66.0762 64.1668C65.6393 63.5543 65.6316 63.462 65.9545 62.6904C66.2792 61.9148 66.7375 61.771 66.7375 62.4446C66.7375 62.9516 67.2388 62.9597 68.0178 62.4654C68.527 62.1423 68.7563 61.8207 68.763 61.4209C68.7682 61.1033 68.9073 60.6595 69.0717 60.4346C69.3344 60.0761 69.4326 60.064 69.8732 60.3351C70.3266 60.6141 70.4189 60.5895 70.8238 60.0798C71.3622 59.4021 71.9381 58.1339 71.9381 57.6255C71.9381 57.2582 70.5699 56.0165 70.1654 56.0165C70.0478 56.0165 69.8929 55.8641 69.8212 55.6778C69.6654 55.2724 68.7465 55.2298 68.3655 55.6101C68.2163 55.7591 68.0942 56.1594 68.0942 56.4998C68.0942 56.8402 67.9836 57.1867 67.8484 57.2702C67.4319 57.5271 67.128 56.9932 67.128 56.0043C67.128 55.2072 67.256 54.9435 67.9504 54.3083C68.4026 53.8947 68.7725 53.5121 68.7725 53.4579C68.7725 53.3247 66.6229 52.6304 66.2105 52.6304C65.8555 52.6304 65.607 53.0954 65.607 53.7595C65.607 54.0338 65.3851 54.2234 64.953 54.318C64.4452 54.4295 64.3249 54.5593 64.4142 54.9004C64.4773 55.1417 64.4264 55.3392 64.3009 55.3392C63.891 55.3392 63.7556 56.1043 64.1185 56.3693C64.3866 56.565 64.1594 56.6239 63.0964 56.6339C61.8013 56.646 61.7558 56.6284 62.2279 56.2982L62.7263 55.9499L62.1882 55.5438C61.7574 55.2189 61.7063 55.0814 61.9326 54.8548C62.3969 54.3898 62.2594 54.2105 61.4381 54.2105C60.7268 54.2105 60.6551 54.1485 60.5902 53.4769C60.5319 52.8728 60.4134 52.7311 59.9189 52.6739C59.5888 52.6358 59.2521 52.7119 59.1707 52.8432ZM77.0634 53.4582C76.525 53.9956 77.3431 54.6968 77.9357 54.2058C78.1935 53.9923 78.2134 53.8509 78.0183 53.6162C77.7431 53.2855 77.3085 53.2135 77.0634 53.4582ZM36.5663 53.7354C36.4973 53.8467 36.5676 53.9839 36.7225 54.0408C37.1189 54.1862 37.5971 53.9868 37.444 53.7399C37.2803 53.4753 36.7291 53.4726 36.5663 53.7354ZM48.2199 53.7397C47.7948 54.0085 48.0749 54.662 48.6151 54.662C49.1462 54.662 49.416 53.8415 48.9443 53.6609C48.5396 53.5058 48.6006 53.499 48.2199 53.7397ZM78.603 55.348C78.3746 55.7171 79.0631 56.3329 79.5119 56.1609C79.7175 56.0821 79.8513 55.8397 79.81 55.6221C79.7225 55.1638 78.8409 54.9636 78.603 55.348ZM46.4634 55.693C46.3886 55.8876 46.4358 56.1551 46.5683 56.2873C46.9199 56.6384 47.518 56.3302 47.518 55.7977C47.518 55.241 46.6694 55.1568 46.4634 55.693ZM80.2158 57.2756C80.0307 57.7569 80.4596 58.2867 80.898 58.1188C81.3351 57.9515 81.2035 57.0573 80.7284 56.967C80.5265 56.9287 80.2957 57.0675 80.2158 57.2756ZM45.3134 57.3102C44.9869 57.4237 44.932 58.1863 45.2365 58.3741C45.5861 58.5899 46.1613 58.2468 46.1613 57.8224C46.1613 57.388 45.7692 57.1512 45.3134 57.3102ZM62.521 57.6007C62.254 57.7052 61.9681 57.8993 61.8858 58.0323C61.6855 58.356 62.2827 58.342 62.6096 58.0156C62.8041 57.8215 63.0424 57.8291 63.5665 58.0459C64.3055 58.3515 64.5537 58.3041 64.2946 57.907C64.0631 57.5524 63.0786 57.3824 62.521 57.6007ZM61.9892 59.1768C61.9892 59.301 62.1988 59.4025 62.4547 59.4025C62.7107 59.4025 62.8574 59.301 62.7806 59.1768C62.7037 59.0526 62.4943 58.9511 62.315 58.9511C62.1357 58.9511 61.9892 59.0526 61.9892 59.1768ZM63.3458 59.1768C63.3458 59.301 63.5555 59.4025 63.8114 59.4025C64.0674 59.4025 64.2141 59.301 64.1372 59.1768C64.0604 59.0526 63.851 58.9511 63.6717 58.9511C63.4924 58.9511 63.3458 59.0526 63.3458 59.1768ZM81.3636 59.4879C81.2299 59.8357 81.6078 60.3055 82.0211 60.3055C82.3386 60.3055 82.6228 59.6782 82.4396 59.3822C82.2438 59.0657 81.4977 59.1391 81.3636 59.4879ZM43.7998 59.608C43.5784 59.9655 43.9319 60.5312 44.3766 60.5312C44.6826 60.5312 44.8047 60.3701 44.8047 59.9669C44.8047 59.5588 44.6832 59.4025 44.3658 59.4025C44.1243 59.4025 43.8697 59.4949 43.7998 59.608ZM62.2605 60.3506C62.1113 60.4996 61.9876 60.7283 61.9858 60.8586C61.9837 60.989 61.8899 61.2414 61.7769 61.4197C61.6066 61.6884 61.5105 61.6931 61.215 61.4484C60.9115 61.1969 60.8586 61.2179 60.8586 61.589C60.8586 62.3712 61.376 62.8376 62.0545 62.6676C62.5572 62.5417 62.6682 62.3864 62.6709 61.8049C62.6729 61.4148 62.7632 60.9556 62.8719 60.7845C63.1855 60.2899 63.572 60.7136 63.572 61.5525C63.572 62.0949 63.7076 62.3938 64.0328 62.5674C64.7165 62.9329 65.3809 62.6374 65.3809 61.9681C65.3809 61.5064 65.2985 61.4299 64.9286 61.5471C64.5795 61.6577 64.4764 61.5877 64.4764 61.2398C64.4764 60.2786 62.9472 59.6651 62.2605 60.3506ZM82.4835 61.5471C82.3038 62.0148 82.5477 62.5629 82.9357 62.5629C83.3889 62.5629 83.5743 61.9448 83.2412 61.5441C82.8864 61.1173 82.6483 61.1182 82.4835 61.5471ZM90.3097 61.545C89.3946 61.9421 89.3096 62.4525 90.1953 62.2306C90.882 62.0586 91.3837 61.7107 91.3837 61.4066C91.3837 61.141 91.1807 61.1671 90.3097 61.545ZM36.3255 61.9951C37.0131 62.2976 37.343 62.2579 37.343 61.8723C37.343 61.7554 36.9615 61.6683 36.495 61.6782L35.6471 61.6965L36.3255 61.9951ZM42.852 61.997C42.7737 62.2008 42.818 62.4757 42.9505 62.608C43.2951 62.9521 43.9477 62.6376 43.8577 62.1712C43.7575 61.6516 43.0331 61.5261 42.852 61.997ZM68.1349 63.5805C67.6693 64.1151 67.4941 64.5945 67.7641 64.5945C68.0666 64.5945 69.2248 63.5765 69.2248 63.3105C69.2248 62.8317 68.6667 62.9699 68.1349 63.5805ZM83.1433 63.897C82.9251 64.2494 83.2826 64.8458 83.6679 64.7726C83.8698 64.7343 84.0677 64.4753 84.1075 64.1972C84.1617 63.8173 84.0665 63.6916 83.7251 63.6916C83.475 63.6916 83.2132 63.7839 83.1433 63.897ZM42.1668 64.272C42.0721 64.5187 42.1707 64.7715 42.4382 64.9666C42.9277 65.3241 43.3024 65.0657 43.1839 64.4519C43.0783 63.9042 42.3572 63.7767 42.1668 64.272ZM61.8341 64.3575C60.7887 64.9939 60.5149 65.6058 61.0402 66.1302C61.6179 66.707 61.7744 67.2018 61.4741 67.5016C61.0913 67.8838 60.7006 67.8088 60.1832 67.2546C59.7391 66.7786 59.6867 66.7722 59.1004 67.1215C57.6989 67.9562 57.5214 69.5856 58.6927 70.8617L59.4664 71.7044L60.0274 71.1784C61.0956 70.1764 62.3541 71.0024 61.3246 72.0301C60.7144 72.6394 60.7367 72.9893 61.43 73.6814C62.0532 74.3038 63.1787 74.5742 63.9459 74.2862C65.0763 73.8616 65.808 72.4191 65.0417 72.1256C64.8484 72.0516 64.7025 71.7148 64.7025 71.3425C64.7025 70.7942 64.7943 70.6895 65.2748 70.6895C65.5898 70.6895 65.9027 70.834 65.9708 71.0107C66.2932 71.8496 67.5547 71.4428 68.0594 70.3371C68.534 69.2971 68.3834 68.2348 67.6594 67.5118C66.8759 66.7296 66.742 66.7122 66.0592 67.3034C65.4677 67.8156 65.1315 67.8671 64.7654 67.5016C64.4694 67.2061 64.6232 66.6284 65.1007 66.2426C65.9174 65.5828 64.4988 63.9189 63.1197 63.9189C62.8088 63.9189 62.2302 64.1164 61.8341 64.3575ZM83.5955 66.3801C83.3773 66.7325 83.7348 67.3289 84.1201 67.2558C84.322 67.2174 84.5199 66.9585 84.5597 66.6804C84.6139 66.3004 84.5187 66.1747 84.1773 66.1747C83.9272 66.1747 83.6654 66.267 83.5955 66.3801ZM41.7121 66.7619C41.5934 67.0704 41.9532 67.5221 42.3174 67.5221C42.3796 67.5221 42.5725 67.4325 42.7461 67.3228C43.1841 67.0458 42.8841 66.4004 42.3174 66.4004C42.0608 66.4004 41.7885 66.563 41.7121 66.7619ZM69.9596 66.8589C69.393 67.0865 69.3541 67.2456 69.6659 68.0646C69.8348 68.5082 70.0652 68.6445 70.7399 68.7C71.9777 68.8019 71.9162 69.4249 70.6594 69.5163C69.8735 69.5734 69.6969 69.6766 69.5786 70.1475C69.4097 70.8186 69.5241 71.0484 70.1018 71.1992C70.4019 71.2775 70.6088 71.148 70.7788 70.775C70.9136 70.4795 71.1808 70.238 71.3728 70.238C71.8375 70.238 72.2556 69.2773 72.0853 68.6003C72.0102 68.3021 71.6921 67.9411 71.3782 67.7984C71.042 67.6454 70.8075 67.3513 70.8075 67.0824C70.8075 66.5815 70.713 66.5567 69.9596 66.8589ZM55.5452 67.3029C55.4663 67.5508 55.1644 67.8133 54.8746 67.886C54.5209 67.9745 54.319 68.2163 54.2616 68.6201C54.1275 69.5644 54.2627 69.8705 55.0014 70.2929C55.5276 70.5938 55.6555 70.7931 55.5454 71.1394C55.3725 71.6834 55.3985 71.6872 56.2866 71.2448C56.9292 70.9247 56.9665 70.8448 56.756 70.2414C56.567 69.7007 56.3818 69.5739 55.6969 69.517C54.7943 69.4418 54.5087 68.831 55.3189 68.7086C56.7178 68.4973 56.7886 68.4456 56.7886 67.6377C56.7886 66.9558 56.7158 66.8519 56.2385 66.8519C55.8873 66.8519 55.6368 67.0149 55.5452 67.3029ZM74.178 67.5291C74.0437 68.1574 74.0771 70.4637 74.2202 70.4637C74.3231 70.4637 74.521 70.0829 74.6598 69.6172C74.8656 68.9283 74.8464 68.6447 74.5574 68.0935C74.3618 67.721 74.1911 67.4671 74.178 67.5291ZM51.7205 68.5208C51.5604 69.3725 51.747 70.4637 52.0525 70.4637C52.2555 70.4637 52.2003 68.0653 51.9928 67.8578C51.9242 67.7896 51.8019 68.0881 51.7205 68.5208ZM73.1388 68.9964C73.1399 69.7414 73.1822 70.0188 73.2326 69.6132C73.2828 69.2075 73.2819 68.598 73.2303 68.2587C73.1785 67.9194 73.1374 68.2515 73.1388 68.9964ZM53.1875 68.2991C53.0369 68.4802 52.9553 68.9651 53.0062 69.3768L53.0984 70.1251L53.1346 69.2973C53.1545 68.8423 53.2981 68.4244 53.4534 68.3689C53.609 68.3136 53.6744 68.2009 53.5988 68.119C53.5231 68.0368 53.3381 68.1179 53.1875 68.2991ZM62.3014 68.5542C61.6172 69.5969 62.5592 70.7913 63.6681 70.2868C64.393 69.9572 64.5252 69.2323 63.986 68.5477C63.415 67.823 62.7797 67.8255 62.3014 68.5542ZM78.8723 68.1312C78.7893 68.2138 78.7215 68.5626 78.7215 68.9059C78.7215 69.9161 80.1177 70.0712 80.3748 69.0897C80.5677 68.354 79.3971 67.6072 78.8723 68.1312ZM45.9902 68.6933C45.5669 69.1159 45.6496 69.5116 46.2425 69.8994C47.0151 70.4048 47.5582 70.1181 47.4737 69.2497C47.419 68.6881 47.2899 68.5316 46.8381 68.4788C46.5263 68.4425 46.1448 68.5389 45.9902 68.6933ZM83.8467 68.5827C83.5155 68.9134 83.7061 69.5608 84.1348 69.5608C84.6675 69.5608 84.8751 69.273 84.6899 68.791C84.5484 68.4224 84.1145 68.3152 83.8467 68.5827ZM41.8996 68.8623C41.5003 69.1086 41.6549 69.8746 42.1221 69.9644C42.3226 70.0028 42.5542 69.859 42.6365 69.6448C42.8262 69.1511 42.3134 68.6068 41.8996 68.8623ZM83.5955 71.1206C83.3742 71.4782 83.7276 72.0439 84.1723 72.0439C84.4783 72.0439 84.6004 71.8827 84.6004 71.4796C84.6004 71.0714 84.479 70.9152 84.1615 70.9152C83.92 70.9152 83.6654 71.0075 83.5955 71.1206ZM41.8448 71.5039C41.5887 71.8123 41.6072 71.9139 41.9683 72.1773C42.5501 72.6022 43.0882 72.1868 42.757 71.5687C42.4766 71.0457 42.2399 71.029 41.8448 71.5039ZM83.4133 73.4191C82.9007 73.7137 82.9118 74.0031 83.4461 74.2887C84.0351 74.6033 84.4891 74.0868 84.0878 73.5586C83.8798 73.285 83.7084 73.2496 83.4133 73.4191ZM42.217 73.8295C42.0009 74.1785 42.3446 74.7528 42.7696 74.7528C43.2047 74.7528 43.4419 74.3613 43.2827 73.9063C43.169 73.5803 42.4052 73.5254 42.217 73.8295ZM61.0727 75.6783C60.7291 76.319 60.8125 76.7542 61.2566 76.6381C61.5399 76.5643 61.7298 76.733 61.9155 77.2237C62.1445 77.8296 62.2824 77.9131 63.0548 77.9131C64.0215 77.9131 64.4764 77.6012 64.4764 76.9386C64.4764 76.6131 64.5915 76.5361 64.942 76.6275C65.3368 76.7307 65.3969 76.6576 65.3377 76.146C65.1975 74.9363 63.572 75.3295 63.572 76.5729C63.572 76.923 63.4589 77.279 63.3205 77.3643C63.0322 77.5422 62.6571 77.0598 62.6944 76.5587C62.7602 75.6733 62.6411 75.4774 61.9772 75.3801C61.477 75.3067 61.2276 75.3889 61.0727 75.6783ZM82.5097 75.9379C82.3415 76.395 82.5726 76.7844 83.0122 76.7844C83.452 76.7844 83.6905 76.395 83.5306 75.9379C83.4766 75.7828 83.248 75.6557 83.023 75.6557C82.7978 75.6557 82.5669 75.7828 82.5097 75.9379ZM43.0817 76.2092C42.9064 76.6655 43.1672 77.0102 43.6874 77.0102C44.2256 77.0102 44.2905 76.2185 43.7686 76.0185C43.2689 75.8271 43.2237 75.8395 43.0817 76.2092ZM81.8061 77.9747C81.5519 78.1601 81.4653 78.407 81.5639 78.6637C81.7579 79.1685 82.4207 79.061 82.5274 78.5073C82.6436 77.9057 82.2741 77.633 81.8061 77.9747ZM43.9386 78.6287C44.035 79.3084 44.9177 79.3755 44.9177 78.7032C44.9177 78.4023 44.742 78.2269 44.3909 78.1772C43.9524 78.1152 43.8765 78.191 43.9386 78.6287ZM62.2153 78.8161C61.9254 79.003 61.9335 79.0355 62.2718 79.0384C62.4896 79.0402 62.6675 78.9402 62.6675 78.8161C62.6675 78.5407 62.642 78.5407 62.2153 78.8161ZM63.7558 78.9703C63.9188 79.0355 64.1139 79.0274 64.189 78.9524C64.2641 78.8775 64.1307 78.8242 63.8924 78.8339C63.6289 78.8447 63.5753 78.8982 63.7558 78.9703ZM62.0211 80.3218C62.3455 80.7121 64.2507 80.7274 64.2489 80.3398C64.248 80.1509 63.8388 80.0518 63.0096 80.0396C62.0039 80.0249 61.8182 80.0777 62.0211 80.3218ZM80.4627 80.0874C80.3757 80.1746 80.3042 80.4319 80.3042 80.6597C80.3042 80.9536 80.4727 81.0735 80.8854 81.0735C81.3577 81.0735 81.4527 80.9791 81.3941 80.5678C81.3224 80.0673 80.7689 79.7818 80.4627 80.0874ZM45.2727 80.5924C45.0134 81.0762 45.1587 81.2992 45.7335 81.2992C46.2771 81.2992 46.4865 80.9001 46.1532 80.4992C45.7876 80.0594 45.5447 80.0852 45.2727 80.5924ZM78.8919 82.2586C78.7237 82.7157 78.9548 83.1051 79.3944 83.1051C79.8342 83.1051 80.0727 82.7157 79.9128 82.2586C79.8588 82.1035 79.6302 81.9764 79.4052 81.9764C79.18 81.9764 78.9492 82.1035 78.8919 82.2586ZM46.6959 82.5392C46.6176 82.743 46.6619 83.018 46.7944 83.1503C47.139 83.4943 47.7916 83.1798 47.7016 82.7135C47.6014 82.1938 46.877 82.0683 46.6959 82.5392ZM48.4367 84.2072C48.1565 84.7298 48.6183 85.2207 49.1851 85.0036C49.6869 84.8115 49.6482 84.3006 49.1103 84.013C48.7557 83.8236 48.6217 83.8625 48.4367 84.2072ZM77.221 84.1194C77.1427 84.3232 77.1871 84.5981 77.3196 84.7304C77.6642 85.0745 78.3167 84.76 78.2267 84.2936C78.1266 83.774 77.4021 83.6485 77.221 84.1194ZM62.4979 84.609C62.0884 84.774 62.1511 85.7555 62.5866 85.9991C63.4295 86.47 64.2365 85.7289 63.7892 84.8948C63.5645 84.4753 63.0903 84.3704 62.4979 84.609ZM75.5471 85.486C75.19 85.9153 75.4535 86.5438 75.9509 86.4492C76.4479 86.3546 76.6008 85.4645 76.1497 85.2918C75.9656 85.2212 75.6945 85.3085 75.5471 85.486ZM50.514 85.5246C50.3586 85.5803 50.2313 85.8097 50.2313 86.0343C50.2313 86.4734 50.6214 86.7115 51.0793 86.5519C51.2348 86.498 51.3619 86.3221 51.3619 86.1614C51.3619 85.7711 50.8658 85.3984 50.514 85.5246ZM52.3487 87.054C52.2704 87.2578 52.3147 87.5328 52.4472 87.665C52.7918 88.0091 53.4444 87.6946 53.3544 87.2282C53.2542 86.7086 52.5298 86.5831 52.3487 87.054ZM73.2948 87.1551C73.2948 87.6869 73.5831 87.8942 74.0658 87.7093C74.6693 87.4781 74.5115 86.7169 73.8601 86.7169C73.4512 86.7169 73.2948 86.8382 73.2948 87.1551ZM71.2724 88.0477C70.9577 88.6348 71.544 89.1687 72.0464 88.7524C72.2947 88.5468 72.3218 88.3653 72.1515 88.0477C72.0254 87.8124 71.8275 87.6199 71.712 87.6199C71.5964 87.6199 71.3986 87.8124 71.2724 88.0477ZM54.5474 88.1603C54.345 88.4039 54.3717 88.5608 54.665 88.8535C55.0046 89.1926 55.0803 89.1962 55.3883 88.889C55.6711 88.6064 55.6806 88.4833 55.4414 88.1955C55.0821 87.7635 54.8838 87.7556 54.5474 88.1603ZM69.0552 88.6734C68.8998 88.7355 68.7725 88.9809 68.7725 89.2188C68.7725 89.533 68.9317 89.6515 69.3536 89.6515C69.8212 89.6515 69.9205 89.556 69.8624 89.1612C69.7862 88.6445 69.5241 88.486 69.0552 88.6734ZM56.8646 89.1023C56.7897 89.2969 56.8268 89.5542 56.9469 89.6741C57.2716 89.9983 57.9192 89.6664 57.9192 89.1759C57.9192 88.6468 57.0626 88.5872 56.8646 89.1023ZM59.1906 89.5479C58.9995 90.0445 59.2057 90.3288 59.7572 90.3288C60.0986 90.3288 60.1938 90.203 60.1396 89.8231C60.053 89.2177 59.3911 89.0258 59.1906 89.5479ZM66.5937 89.5371C66.5155 89.7409 66.5598 90.0159 66.6923 90.1482C67.0369 90.4922 67.6895 90.1777 67.5995 89.7114C67.4993 89.1917 66.7748 89.0662 66.5937 89.5371ZM61.7674 89.7592C61.4343 90.1599 61.6511 90.5545 62.2044 90.5545C62.7907 90.5545 62.9662 89.9319 62.4568 89.6597C62.1504 89.496 61.9636 89.5231 61.7674 89.7592ZM64.3068 89.5764C64.1515 89.6384 64.0242 89.8908 64.0242 90.1376C64.0242 90.4735 64.1519 90.5678 64.5329 90.5139C64.8585 90.4676 65.0417 90.2859 65.0417 90.0089C65.0417 89.5497 64.7715 89.3908 64.3068 89.5764ZM36.4385 95.295C36.4385 95.4192 36.7438 95.5207 37.1168 95.5207C37.4899 95.5207 37.7952 95.4192 37.7952 95.295C37.7952 95.1708 37.4899 95.0693 37.1168 95.0693C36.7438 95.0693 36.4385 95.1708 36.4385 95.295Z" fill="black"/>
</svg>
