<svg width="328" height="316" viewBox="0 0 328 316" fill="none" xmlns="http://www.w3.org/2000/svg">
<mask id="path-1-inside-1_939_6" fill="white">
<path fill-rule="evenodd" clip-rule="evenodd" d="M146.663 0.530675C146.194 0.999519 145.811 1.80729 145.811 2.32556C145.811 2.84453 145.337 3.99122 144.758 4.87525C143.338 7.04224 141.591 12.9565 141.582 15.629C141.577 17.0122 140.948 18.3891 139.848 19.4214C138.899 20.3132 137.642 22.0544 137.056 23.2922C136.468 24.5293 135.101 25.9648 134.015 26.4823C128.322 29.1979 127.48 29.7275 127.261 30.728C127.13 31.3261 127.479 32.5385 128.037 33.4225C128.922 34.8248 128.917 35.1835 127.993 36.2469C127.411 36.9162 126.731 38.3291 126.48 39.3854C125.897 41.8384 124.181 42.7295 118.488 43.5358C114.805 44.0576 113.292 44.6867 110.783 46.7429C107.202 49.6774 106.404 51.8472 107.643 55.2746C108.324 57.1584 108.331 58.1385 107.675 59.7229C106.738 61.9824 104.189 63.9425 102.185 63.9425C101.464 63.9425 99.5467 65.0793 97.9234 66.4689C95.1358 68.8548 94.972 69.2064 94.972 72.8054C94.972 76.3966 95.104 76.6825 97.2668 77.772C98.5286 78.4082 100.515 79.8112 101.68 80.8901C102.845 81.9683 104.525 83.0698 105.412 83.3374C106.763 83.7449 107.001 84.2575 106.87 86.4767C106.761 88.3161 107.223 89.8448 108.379 91.4674C109.908 93.6153 109.96 93.9556 109.017 95.6439C108.219 97.0716 107.356 97.5292 105.151 97.6923C102.794 97.8667 101.931 97.5376 100.061 95.7505C98.8223 94.5671 97.1425 93.5983 96.327 93.5983C95.5122 93.5983 94.2723 92.8908 93.5725 92.0266C92.4096 90.5904 92.1399 90.5396 90.458 91.4398C89.4454 91.9814 88.6172 92.9918 88.6172 93.6845C88.6172 94.4301 87.6089 95.4229 86.1459 96.117C83.9464 97.1606 83.6745 97.592 83.6745 100.034C83.6745 101.543 84.0064 102.778 84.4124 102.778C84.8671 102.778 84.9808 103.685 84.7075 105.141C84.2917 107.357 84.4872 107.664 87.8546 110.083C89.8288 111.502 91.7388 112.663 92.0982 112.663C93.3918 112.663 95.743 116.488 95.5355 118.254C95.2417 120.747 90.2066 121.819 86.6839 120.139C84.9603 119.317 83.9443 119.201 82.979 119.718C82.2475 120.109 80.5098 120.43 79.1174 120.43C76.1215 120.43 72.1794 122.744 68.9935 126.372C66.4502 129.269 66.2998 130.034 67.7317 132.793C68.7379 134.733 68.6616 135.668 67.2551 138.604C66.5864 140 66.9451 140.665 70.3202 144.292C72.4223 146.552 74.7354 149.144 75.4599 150.053C76.7739 151.7 76.7725 151.704 75.1068 151.137C68.6277 148.933 62.4142 153.185 68.3171 155.784C70.9345 156.935 75.1485 163.944 75.1817 167.202C75.1965 168.623 75.8539 169.56 77.6579 170.732C79.0087 171.609 80.4145 173.18 80.7824 174.223C81.7526 176.974 79.3865 178.329 73.6106 178.329C70.5709 178.329 68.2789 178.771 66.4332 179.712C64.942 180.472 62.2948 181.308 60.5515 181.57C57.8923 181.968 56.6539 182.765 52.8756 186.506L48.37 190.968V195.286C48.37 197.661 48.0226 200.253 47.599 201.046C46.9458 202.266 47.1908 202.863 49.1877 204.928C50.4855 206.271 53.5337 208.318 55.9605 209.478C60.1455 211.479 60.3736 211.717 60.3736 214.086C60.3736 216.152 59.7769 217.161 56.9307 219.904L53.4885 223.222L53.6071 231.266C53.6904 236.895 53.9855 239.395 54.5914 239.597C55.0666 239.756 55.8581 240.287 56.3495 240.779C56.841 241.27 59.2297 242.584 61.6586 243.699C64.9356 245.203 66.1896 246.18 66.5172 247.488C66.7608 248.457 67.5185 250.212 68.202 251.388C68.8848 252.565 69.665 255.049 69.9354 256.909C70.4798 260.649 69.1616 263.06 66.5723 263.06C63.9195 263.06 60.7739 260.266 63.3744 260.22C63.8602 260.212 65.05 259.595 66.0187 258.85L67.7811 257.497L65.7257 255.352C63.6646 253.2 58.042 251.057 54.4615 251.057C53.4645 251.057 51.4584 250.387 50.0025 249.57C47.1972 247.994 45.4553 248.001 36.0134 249.628C33.6833 250.029 29.5266 250.165 26.7763 249.929C22.3506 249.55 21.3755 249.703 18.3033 251.261C13.0443 253.928 12.4448 254.923 11.2459 262.973C10.2701 269.524 10.2792 270.537 11.3582 274.838C12.4893 279.348 12.4844 279.581 11.2311 280.497C10.2976 281.18 8.77881 281.323 5.91702 280.999C2.16415 280.575 1.83441 280.66 0.729375 282.347C-0.665154 284.476 -0.22526 285.548 3.49937 289.108C6.18392 291.674 6.62805 293.74 4.96804 295.935C3.80016 297.478 3.55868 300.563 4.52602 301.577C4.87836 301.946 5.27519 304.306 5.40864 306.821L5.65153 311.393L3.18021 312.57C1.82099 313.218 0.708898 314.179 0.708898 314.706C0.708898 315.504 11.6314 315.694 66.2871 315.844C130.157 316.02 131.989 315.987 136.621 314.607C139.238 313.829 143.249 312.242 145.536 311.083C147.97 309.848 150.812 308.97 152.388 308.965C154.909 308.957 155.069 308.83 154.86 307.018C154.683 305.486 154.193 305.003 152.518 304.716C150.996 304.455 150.4 303.957 150.4 302.947C150.4 302.175 150.877 301.534 151.459 301.524C154.096 301.477 155.338 298.289 153.453 296.404C152.816 295.768 152.902 295.265 153.819 294.251C154.894 293.064 154.997 290.934 154.827 273.429C154.611 251.234 154.824 252.011 148.739 251.29C146.304 251.002 144.825 250.441 144.398 249.644C144.043 248.98 141.276 247.559 138.25 246.487C130.668 243.801 120.43 238.338 117.125 235.215C116.687 234.802 114.532 232.897 112.336 230.982C110.14 229.068 106.526 225.096 104.305 222.156C102.084 219.217 100.109 216.652 99.9146 216.458C99.7205 216.264 99.2156 215.47 98.7919 214.693C98.369 213.916 97.2315 211.851 96.2656 210.103C90.1861 199.107 87.1499 183.16 88.5056 169.339C89.9729 154.379 93.8521 144.002 102.519 131.857C106.248 126.632 114.685 118.057 118.68 115.433C125.756 110.785 127.405 109.827 131.836 107.785C134.441 106.584 136.907 105.602 137.318 105.602C137.727 105.602 138.615 105.3 139.289 104.931C139.963 104.563 142.543 103.779 145.023 103.189C147.501 102.6 149.686 101.963 149.875 101.772C150.727 100.921 149.217 99.2471 147.598 99.2471C145.364 99.2471 145.269 98.0058 147.439 97.1811C152.052 95.4271 154.899 90.9653 152.766 88.8322C152.153 88.2201 152.177 86.7168 152.859 82.7288C153.714 77.7311 153.681 77.2975 152.273 74.9117C150.897 72.5794 150.776 71.2675 150.68 57.7494C150.584 44.3386 150.706 42.733 152.134 38.5769C153.457 34.7238 153.576 33.6068 152.922 31.163C152.499 29.5799 151.829 25.3024 151.435 21.6576C151.041 18.0121 150.553 14.764 150.352 14.4385C150.151 14.113 149.875 11.1044 149.74 7.75186C149.481 1.34056 148.397 -1.20348 146.663 0.530675ZM177.79 1.24665C177.32 1.83977 177.155 9.33421 177.319 22.6362C177.761 58.4357 177.313 72.6712 175.685 74.6264C175.115 75.3113 174.889 78.5706 174.979 84.7934L175.113 93.9514L178.485 96.2045L181.856 98.4577L179.367 99.6389C177.998 100.289 176.878 101.079 176.878 101.396C176.878 101.712 178.705 102.488 180.939 103.121C203.367 109.468 220.01 122.879 230.056 142.696C235.382 153.201 237.602 163.1 237.602 176.334C237.602 191.244 234.45 202.489 226.75 215.046C217.587 229.987 202.789 241.845 187.117 246.803C183.786 247.857 182.899 248.568 182.889 250.19C182.882 251.075 182.025 251.511 179.612 251.858C172.978 252.81 173.365 251.672 173.221 270.675C173.072 290.391 173.133 291.867 174.188 293.944C174.841 295.23 174.759 295.783 173.753 296.895C172.977 297.753 172.684 298.795 172.967 299.69C173.443 301.19 175.687 302.278 176.837 301.568C177.209 301.338 177.861 301.798 178.286 302.592C179.15 304.206 178.723 304.513 175.12 304.866C173.75 305 172.922 305.519 172.766 306.342C172.398 308.285 173.895 309.675 175.656 309.024C176.756 308.617 178.943 309.33 183.901 311.714L190.647 314.958L249.606 315.311C320.868 315.737 327.276 315.65 327.276 314.245C327.276 313.68 326.402 313.002 325.334 312.736C323.138 312.189 321.683 310.617 321.65 308.757C321.637 308.066 322.276 305.572 323.07 303.218C323.976 300.528 324.272 298.632 323.867 298.12C323.513 297.672 322.833 296.094 322.356 294.613C321.597 292.257 321.645 291.748 322.748 290.528C323.442 289.763 324.824 288.748 325.819 288.273C327.137 287.645 327.691 286.765 327.857 285.031C327.982 283.722 327.723 282.294 327.28 281.858C326.835 281.42 324.205 281.065 321.403 281.065H316.331V268.471C316.331 255.902 316.328 255.873 314.573 254.451C310.013 250.757 306.856 249.846 298.436 249.796C294.03 249.771 288.227 249.379 285.542 248.926C281.08 248.173 280.454 248.223 278.289 249.5C276.985 250.269 274.208 251.131 272.118 251.416C268.081 251.965 262.928 254.057 261.566 255.698C260.401 257.102 261.155 258.504 263.673 259.619C266.235 260.753 266.481 262.019 264.257 262.615C261.565 263.337 259.917 263.085 258.079 261.67C256.666 260.583 256.489 260.135 257.196 259.427C257.681 258.939 258.079 257.284 258.079 255.748C258.079 253.857 258.649 252.208 259.844 250.641C260.815 249.368 261.609 247.664 261.609 246.856C261.609 245.829 262.408 245.043 264.257 244.251C265.714 243.628 267.382 242.832 267.964 242.482C274.008 238.848 274.984 237.443 273.76 234.134C273.343 233.007 273.451 231.35 274.076 229.272C274.598 227.537 275.025 225.833 275.025 225.483C275.025 225.133 273.436 223.167 271.495 221.114C268.309 217.746 267.964 217.063 267.964 214.128C267.964 211.061 268.115 210.805 270.612 209.637C274.481 207.825 279.489 204.579 280.101 203.485C280.393 202.963 280.324 201.46 279.947 200.146C279.57 198.831 279.262 196.27 279.262 194.454C279.262 191.486 278.911 190.769 275.798 187.363C272.963 184.261 271.649 183.398 268.561 182.609C266.485 182.079 263.661 181.06 262.284 180.344C260.907 179.629 257.73 178.831 255.223 178.572C248.92 177.919 246.087 176.672 246.584 174.77C246.796 173.96 248.047 172.443 249.364 171.4C250.936 170.156 252.091 168.393 252.726 166.274C254.352 160.839 257.251 155.734 258.71 155.734C260.379 155.734 261.797 154.054 261.487 152.445C261.228 151.097 259.029 150.266 255.431 150.156C252.828 150.076 252.71 149.745 254.21 146.738C255.363 144.426 256.636 143.169 259.037 141.972C260.415 141.284 260.541 140.695 260.446 135.376L260.343 129.534L256.916 125.997C255.031 124.052 252.631 122.004 251.583 121.445C249.551 120.363 241.122 120.119 238.685 121.072C236.958 121.747 231.951 120.539 231.489 119.335C230.966 117.971 234.612 112.663 236.072 112.663C236.774 112.663 238.676 111.526 240.3 110.136C242.678 108.101 243.251 107.149 243.251 105.235C243.251 103.929 243.569 102.665 243.957 102.424C245.107 101.714 244.762 98.1427 243.428 96.9403C242.748 96.3281 241.318 95.6086 240.25 95.3424C238.825 94.9865 238.308 94.4188 238.308 93.2107C238.308 92.3048 238.012 91.3798 237.649 91.156C236.458 90.4195 228.379 95.0338 227.692 96.8428C227.146 98.2769 226.576 98.5374 224.028 98.5184C222.368 98.5064 220.453 98.0743 219.773 97.5581C218.101 96.2885 218.193 92.494 219.95 90.2607C220.732 89.2672 221.362 87.396 221.362 86.0714C221.362 84.1897 221.727 83.5394 223.07 83.0289C224.518 82.4781 229.362 79.1779 232.483 76.6155C232.969 76.2165 233.366 74.4237 233.366 72.6317C233.366 69.7636 233.036 69.0596 230.62 66.7613C228.927 65.1507 226.647 63.8409 224.669 63.3424C221.33 62.5021 217.987 59.1496 219.216 57.8751C219.556 57.5228 220.048 55.7702 220.31 53.981C220.777 50.7937 220.719 50.6631 217.489 47.6262C213.914 44.2638 212.542 43.6439 208.441 43.5365C202.614 43.3833 199.737 39.8988 199.927 33.2276C200.027 29.7678 199.963 29.6548 196.763 27.5789C194.096 25.8483 192.753 24.1197 189.425 18.1307C187.185 14.0996 185.342 10.4456 185.331 10.0106C185.32 9.5764 184.268 7.31479 182.994 4.9854C180.648 0.696605 179.105 -0.411956 177.79 1.24665ZM106.446 67.8854C104.021 69.7967 103.433 72.184 105.219 72.8696C105.807 73.0956 106.68 72.9544 107.161 72.5568C107.641 72.1593 108.952 71.7272 110.073 71.5951C111.194 71.4638 112.559 70.6786 113.105 69.8497C113.973 68.5357 113.954 68.1974 112.958 67.2019C111.325 65.5687 109.087 65.8031 106.446 67.8854ZM213.455 67.8522C212.407 70.1526 213.473 71.2343 217.832 72.2928C220.35 72.9042 221.207 72.8682 221.961 72.1162C222.736 71.3438 222.748 70.8594 222.022 69.4974C220.729 67.0698 219.197 66.1088 216.581 66.0834C214.781 66.0658 214.091 66.4569 213.455 67.8522ZM198.767 77.3583C198.767 78.2839 199.11 78.5946 199.826 78.32C200.409 78.0961 200.886 77.6633 200.886 77.3583C200.886 77.0532 200.409 76.6204 199.826 76.3966C199.11 76.1219 198.767 76.4326 198.767 77.3583ZM115.449 84.0245C115.449 85.1641 116.448 86.0079 117.067 85.39C117.618 84.8393 116.859 83.007 116.079 83.007C115.732 83.007 115.449 83.4645 115.449 84.0245ZM209.818 84.0435C209.333 85.3081 210.262 85.9817 211.722 85.4218C212.963 84.9459 212.483 83.007 211.124 83.007C210.625 83.007 210.037 83.4737 209.818 84.0435ZM151.812 104.945C150.259 105.282 147.24 105.939 145.104 106.406C140.64 107.381 130.592 111.516 125.654 114.41C121.817 116.659 113.256 123.953 108.873 128.708C104.682 133.254 101.57 138.084 98.0859 145.45C87.5496 167.721 89.0175 192.341 102.192 214.319C105.152 219.257 111.569 226.543 116.461 230.522C130.493 241.935 142.134 246.455 159.579 247.268C173.841 247.932 185.348 245.43 197.047 239.119C204.794 234.941 214.106 227.242 218.418 221.451C219.45 220.064 220.487 218.771 220.722 218.576C220.956 218.382 222.436 216.158 224.011 213.634C229.113 205.454 232.022 197.83 233.657 188.351C236.804 170.117 233.045 151.801 223.038 136.607C212.302 120.304 194.668 108.661 175.466 105.194C169.595 104.135 156.194 103.993 151.812 104.945ZM157.991 108.933C156.971 109.299 156.799 111.683 157.751 112.27C158.7 112.857 160.638 111.943 160.638 110.908C160.638 109.701 159.083 108.541 157.991 108.933ZM150.084 110.147C148.988 111.467 149.592 113.369 151.106 113.369C152.68 113.369 153.253 111.33 152.025 110.101C151.109 109.185 150.877 109.191 150.084 110.147ZM164.875 110.427C164.875 112.262 165.563 112.722 167.086 111.907C169.023 110.871 168.743 109.132 166.64 109.132C165.399 109.132 164.875 109.516 164.875 110.427ZM173.025 110.083C172.216 110.674 171.879 111.495 172.152 112.207C172.713 113.67 174.31 113.702 175.496 112.274C176.242 111.376 176.22 110.995 175.374 110.149C174.498 109.274 174.145 109.263 173.025 110.083ZM142.832 112.029C142.169 112.4 141.811 113.165 142.032 113.74C142.543 115.071 144.833 115.094 145.34 113.773C145.898 112.32 144.299 111.208 142.832 112.029ZM179.96 112.305C179.716 112.942 179.854 113.802 180.268 114.216C181.344 115.292 183.382 114.309 183.101 112.85C182.788 111.224 180.525 110.832 179.96 112.305ZM134.916 115.26C134.666 115.911 134.884 116.868 135.402 117.384C136.704 118.687 139.031 117.041 138.359 115.292C137.762 113.735 135.509 113.713 134.916 115.26ZM186.764 115.412C186.764 116.8 188.533 117.904 189.652 117.213C190.005 116.995 190.294 116.2 190.294 115.445C190.294 114.454 189.806 114.075 188.529 114.075C187.268 114.075 186.764 114.456 186.764 115.412ZM155.343 116.891C129.462 120.647 109.25 140.09 104.127 166.157C103.07 171.535 103.637 187.091 105.059 191.745C110.63 209.968 121.265 222.433 138.044 230.403C146.071 234.217 150.617 235.086 162.757 235.129C172.844 235.164 174.167 235.014 179.65 233.223C198.272 227.14 214.029 211.904 219.261 194.922C219.739 193.369 220.386 191.417 220.696 190.586C221.978 187.161 222.947 177.081 222.547 171.335C220.777 145.89 203.748 125.411 178.23 118.04C173.462 116.662 161.169 116.045 155.343 116.891ZM194.296 117.37C194.036 117.629 193.825 118.423 193.825 119.136C193.825 120.766 196.513 120.9 197.127 119.299C197.706 117.791 195.427 116.238 194.296 117.37ZM128.278 119.138C128.434 120.234 128.982 120.783 129.923 120.783C132.026 120.783 131.817 118.026 129.69 117.725C128.321 117.531 128.084 117.769 128.278 119.138ZM154.99 119.042C147.133 120.294 145.789 120.599 145.409 121.214C145.196 121.56 144.559 121.842 143.995 121.842C142.535 121.842 132.648 126.689 131.646 127.895C131.186 128.45 130.45 128.903 130.01 128.903C128.83 128.903 119.432 138.229 116.307 142.502C114.819 144.537 112.486 148.585 111.123 151.498C108.792 156.479 108.212 158.153 106.325 165.348C105.358 169.039 105.313 186.564 106.269 187.155C106.658 187.395 106.976 188.447 106.976 189.492C106.977 193.248 110.884 202.169 115.313 208.524C121.577 217.512 130.412 224.745 140.138 228.846C147.312 231.872 151.502 232.766 160.505 233.191C176.455 233.945 192.731 227.291 204.285 215.294C207.693 211.755 215.007 200.892 215.007 199.369C215.007 198.826 215.275 198.081 215.603 197.711C215.93 197.343 216.75 195.134 217.424 192.804C218.099 190.474 218.972 187.717 219.365 186.677C219.784 185.567 219.956 180.324 219.782 173.968C219.543 165.251 219.185 162.256 217.938 158.559C217.086 156.034 216.079 153.418 215.698 152.743C215.318 152.069 215.007 151.171 215.007 150.749C215.007 149.398 208.734 140.228 205.282 136.531C197.798 128.518 188.281 122.806 177.779 120.022C173.125 118.789 160.098 118.229 154.99 119.042ZM152.871 121.778C145.963 123.18 138.75 126.103 132.924 129.858C128.608 132.642 128.263 133.174 129.898 134.53C131.076 135.508 130.935 140.531 129.694 141.771C129.276 142.189 127.493 142.751 125.733 143.018C122.996 143.433 122.473 143.316 122.12 142.205C121.894 141.491 121.439 140.906 121.11 140.906C120.01 140.906 115.432 147.803 113.059 153.034C108.917 162.167 108.083 166.266 108.129 177.27C108.167 186.389 108.336 187.633 110.309 193.322C112.586 199.888 117.818 209.267 119.581 209.943C120.199 210.181 121.036 209.757 121.587 208.928C122.395 207.711 122.992 207.576 125.732 207.992C129.696 208.594 130.02 208.942 130.454 213.085C130.75 215.903 130.6 216.484 129.481 216.839C126.215 217.876 129.145 220.849 137.69 225.165C149.049 230.902 159.886 232.518 171.936 230.271C180.382 228.695 185.167 226.832 192.076 222.428C197.451 219.001 198.474 217.749 196.607 216.88C194.702 215.993 194.744 211.605 196.677 209.531C198.433 207.645 202.649 207.445 204.541 209.158C205.254 209.802 205.927 210.199 206.038 210.04C206.148 209.881 207.142 208.524 208.245 207.027C214.477 198.569 217.81 187.586 217.81 175.505C217.81 163.415 215.144 154.247 208.828 144.613C206.202 140.609 205.229 140.148 203.9 142.278C203.214 143.376 202.514 143.571 200.376 143.261C198.909 143.047 197.152 142.237 196.473 141.459C194.793 139.535 194.907 136.053 196.713 134.13L198.19 132.559L194.134 129.965C186.446 125.047 179.215 122.34 170.877 121.258C165.275 120.531 163.709 120.791 164.915 122.244C165.979 123.525 165.118 125.906 163.393 126.453C161.353 127.101 159.812 125.509 160.068 123.017C160.188 121.853 159.968 120.824 159.579 120.731C159.191 120.637 156.172 121.108 152.871 121.778ZM200.283 122.071C199.641 122.844 199.693 123.263 200.515 123.945C201.897 125.092 203.881 124.308 203.577 122.735C203.275 121.163 201.357 120.777 200.283 122.071ZM122.298 122.288C122.027 122.561 121.803 123.388 121.803 124.127C121.803 125.117 122.222 125.411 123.392 125.245C124.431 125.098 124.981 124.534 124.981 123.617C124.981 122.216 123.235 121.352 122.298 122.288ZM150.425 124.626C150.171 125.036 149.178 125.372 148.218 125.372C145.496 125.372 145.508 127.047 148.247 129.785C150.957 132.495 151.518 135.354 149.801 137.702C148.569 139.387 147.223 138.532 147.223 136.063C147.223 134.999 146.841 133.747 146.375 133.281C145.063 131.968 142.412 132.279 141.574 133.846C141.158 134.622 140.432 135.268 139.961 135.281C138.224 135.329 135.925 137.968 135.925 139.914C135.925 142.357 138.456 147.703 139.869 148.246C140.449 148.469 141.556 148.258 142.329 147.779C144.027 146.727 145.076 147.919 145.094 150.92C145.101 152.197 145.772 153.29 147.155 154.274C149.917 156.241 151.212 156.112 152.006 153.793L152.669 151.851L153.83 154.585C155.278 157.998 155.259 158.533 153.617 160.5C151.676 162.828 149.935 162.441 147.963 159.246C146.983 157.657 145.682 156.44 144.962 156.44C142.794 156.44 143.562 158.453 146.464 160.373C148.814 161.928 150.573 164.07 149.887 164.543C145.562 167.522 143.208 167.815 141.221 165.62C139.982 164.25 139.987 164.207 141.423 164.207C143.568 164.207 143.865 163.214 142.459 160.737C141.568 159.167 140.329 158.292 138.044 157.618C135.921 156.993 134.954 156.349 135.129 155.679C135.273 155.126 135.539 154.156 135.719 153.522C136.166 151.949 132.03 148.966 128.703 148.461C126.213 148.082 125.895 148.265 122.877 151.797C121.121 153.852 119.685 156.006 119.685 156.584C119.685 158.148 121.876 159.822 124.275 160.088C126.936 160.385 126.986 161.432 124.399 162.672C121.695 163.969 119.226 163.21 116.638 160.287C115.453 158.948 114.248 157.853 113.962 157.853C113.674 157.853 113.056 159.044 112.587 160.5C112.118 161.957 111.467 163.488 111.14 163.902C110.093 165.233 112.518 167.796 114.619 167.58C116.17 167.419 116.545 167.7 116.719 169.15C117.135 172.634 117.565 173.173 118.699 171.632C119.717 170.249 119.736 170.252 120.148 171.828C120.455 173 120.919 173.315 121.891 173.006C122.62 172.774 123.248 172.845 123.287 173.163C123.761 176.983 123.722 179.076 123.17 179.417C122.801 179.645 122.31 179.336 122.077 178.731C121.53 177.305 120.391 178.015 120.391 179.783C120.391 181.404 119.304 181.607 118.723 180.094C118.038 178.307 116.861 178.919 116.861 181.063C116.861 182.886 116.573 183.138 114.01 183.547C112.411 183.803 110.973 184.486 110.736 185.102C110.332 186.156 111.67 191.511 112.622 192.644C112.874 192.944 114.233 192.07 115.641 190.702C118.159 188.258 119.824 187.798 123.039 188.659C125.546 189.332 124.894 190.816 121.88 191.298C120.337 191.544 118.944 192.228 118.703 192.858C118.034 194.602 118.196 196.688 119.001 196.688C119.402 196.688 119.939 197.244 120.196 197.923C121.003 200.06 124.452 203.042 126.116 203.042C128.186 203.042 133.779 200.334 133.902 199.273C133.955 198.821 134.034 197.504 134.079 196.344C134.151 194.475 134.482 194.167 136.999 193.63C139.033 193.197 140.083 192.504 140.705 191.185C141.919 188.616 141.794 187.731 140.162 187.304C138.051 186.752 138.451 185.782 141.198 184.789C143.851 183.829 145.265 184.25 147.43 186.641C148.634 187.972 148.612 188.085 146.821 189.707C142.702 193.44 142.28 193.891 142.28 194.569C142.28 196.16 145.117 195.119 146.611 192.981C149.281 189.157 150.032 188.911 152.138 191.172C154.003 193.173 154.016 196.778 152.165 198.453C151.086 199.43 150.75 199.497 150.743 198.739C150.717 196.416 149.69 195.915 147.348 197.084C145.601 197.956 144.922 198.907 144.308 201.343C143.482 204.625 142.683 205.677 141.934 204.466C141.171 203.231 139.061 203.679 137.42 205.426C135.855 207.091 133.594 213.892 134.353 214.651C134.57 214.868 135.282 215.046 135.934 215.046C136.587 215.046 138.266 216.158 139.665 217.517C141.065 218.876 142.68 219.989 143.253 219.989C144.873 219.989 147.22 216.508 147.246 214.068L147.27 211.869L148.658 213.536C150.964 216.303 150.489 219.52 147.399 222.075C144.469 224.499 144.605 224.78 149.479 226.389C152.832 227.496 154.68 226.674 154.554 224.133C154.459 222.195 155.36 221.427 157.747 221.411C159.401 221.401 159.411 221.363 158.167 219.989C156.999 218.699 156.992 218.576 158.08 218.576C159.696 218.576 160.304 216.698 159.142 215.298C158.295 214.276 158.422 214.206 160.353 214.63C161.54 214.891 163.328 214.794 164.326 214.414C166.524 213.579 167.302 214.132 165.9 215.533C164.484 216.95 164.618 217.935 166.287 218.372C167.933 218.802 168.192 219.989 166.64 219.989C165.367 219.989 165.203 221.369 166.464 221.476C166.949 221.517 167.982 221.596 168.758 221.652C169.806 221.728 170.262 222.391 170.524 224.225C170.935 227.107 173.023 227.852 175.612 226.038C176.482 225.429 177.916 224.931 178.801 224.931C181.015 224.931 180.814 223.904 178.242 222.072C175.585 220.18 174.587 217.749 175.176 214.606C175.761 211.49 177.904 211.275 178.012 214.322C178.053 215.476 178.489 216.905 178.981 217.498C180.064 218.802 182.947 218.917 183.728 217.687C184.038 217.198 185.479 216.007 186.929 215.04C188.379 214.072 189.71 212.911 189.885 212.459C190.06 212.007 189.674 209.98 189.025 207.955C187.692 203.783 185.311 201.612 183.614 203.02C182.169 204.218 181.41 203.513 180.376 200.013C179.154 195.871 174.661 193.582 173.849 196.688C173.298 198.796 172.328 198.399 171.337 195.659C170.595 193.608 170.632 192.878 171.567 191.07C173.099 188.106 174.711 188.374 177.835 192.111C179.301 193.866 180.798 195.118 181.161 194.894C181.986 194.384 182.036 191.745 181.22 191.745C180.231 191.745 176.172 187.571 176.172 186.554C176.172 186.036 177.292 185.01 178.661 184.272C180.918 183.056 181.325 183.03 183.018 183.984C185.413 185.334 185.924 186.802 183.998 186.802C182.274 186.802 182.162 187.579 183.514 190.192C184.201 191.521 185.486 192.391 187.75 193.06C191.346 194.121 191.312 194.08 190.238 196.087C189.298 197.843 190.912 199.927 194.332 201.375C198.303 203.056 200.328 202.631 202.298 199.704C203.269 198.261 204.642 196.493 205.35 195.773C206.495 194.61 206.526 194.296 205.623 192.929C205.064 192.084 203.69 191.11 202.57 190.766C201.449 190.422 200.056 189.987 199.473 189.799C198.077 189.348 201.972 187.584 204.459 187.54C206.26 187.508 208.685 189.255 209.931 191.48C210.856 193.135 211.781 192.296 213.239 188.478C214.738 184.553 214.122 182.987 211.065 182.946C209.264 182.922 209.032 182.686 209.221 181.067C209.462 178.989 207.467 177.622 206.785 179.4C206.208 180.903 205.122 180.692 205.122 179.077C205.122 177.115 203.688 176.495 203.227 178.258C202.507 181.014 201.787 179.765 201.843 175.858C201.874 173.722 202.148 171.974 202.452 171.974C202.755 171.974 203.004 172.292 203.004 172.68C203.004 173.069 203.48 173.387 204.063 173.387C204.651 173.387 205.122 172.759 205.122 171.974C205.122 170.485 206.149 170.074 206.887 171.268C207.844 172.817 209.359 171.952 209.359 169.856C209.359 168.238 209.679 167.738 210.713 167.738C214.389 167.738 214.952 166.489 213.35 161.89C211.906 157.741 211.23 157.471 209.142 160.208C206.828 163.241 204.512 163.866 201.068 162.383C198.702 161.365 198.567 161.178 199.826 160.656C200.603 160.334 202.104 159.886 203.16 159.66C204.217 159.434 205.424 158.607 205.844 157.822C206.484 156.626 206.204 155.926 204.1 153.467C202.72 151.856 201.592 150.288 201.592 149.983C201.592 149.679 200.955 149.089 200.177 148.672C198.296 147.666 193.779 148.879 191.223 151.078C189.355 152.685 189.337 152.774 190.509 154.563L191.712 156.399L187.93 157.499C185.115 158.317 183.901 159.09 183.184 160.52C182.654 161.577 182.116 162.643 181.99 162.888C181.863 163.133 182.567 163.536 183.555 163.784C185.696 164.321 185.863 165.296 183.986 166.301C180.893 167.956 176.172 166.24 176.172 163.461C176.172 162.576 175.689 162.089 174.808 162.089C174.058 162.089 172.79 161.169 171.989 160.045C170.625 158.129 170.601 157.841 171.609 155.427C172.623 153.001 174.054 152.551 174.054 154.658C174.054 156.244 175.62 156.27 178.052 154.723C179.642 153.713 180.358 152.707 180.379 151.456C180.396 150.463 180.83 149.074 181.343 148.371C182.164 147.25 182.47 147.212 183.846 148.06C185.262 148.933 185.55 148.856 186.815 147.261C188.496 145.142 190.294 141.175 190.294 139.585C190.294 138.436 186.022 134.552 184.758 134.552C184.391 134.552 183.908 134.075 183.684 133.492C183.197 132.224 180.328 132.091 179.138 133.281C178.672 133.747 178.291 134.999 178.291 136.063C178.291 137.128 177.945 138.212 177.523 138.473C176.223 139.277 175.274 137.607 175.274 134.513C175.274 132.02 175.673 131.196 177.842 129.209C179.254 127.915 180.409 126.718 180.409 126.549C180.409 126.132 173.696 123.96 172.408 123.96C171.3 123.96 170.524 125.415 170.524 127.492C170.524 128.35 169.831 128.943 168.482 129.239C166.896 129.588 166.52 129.994 166.799 131.061C166.996 131.815 166.837 132.433 166.445 132.433C165.165 132.433 164.742 134.826 165.875 135.655C166.713 136.267 166.003 136.452 162.684 136.483C158.639 136.521 158.498 136.466 159.972 135.433L161.528 134.343L159.848 133.073C158.502 132.057 158.343 131.627 159.05 130.918C160.499 129.464 160.07 128.903 157.505 128.903C155.284 128.903 155.06 128.709 154.858 126.608C154.675 124.719 154.305 124.275 152.761 124.097C151.73 123.977 150.679 124.215 150.425 124.626ZM206.299 126.549C204.618 128.231 207.173 130.424 209.023 128.888C209.828 128.22 209.89 127.778 209.281 127.044C208.422 126.009 207.065 125.784 206.299 126.549ZM79.8369 127.417C79.6216 127.765 79.8412 128.194 80.3248 128.372C81.5626 128.827 83.056 128.203 82.578 127.431C82.0668 126.603 80.3453 126.595 79.8369 127.417ZM116.228 127.43C114.901 128.271 115.776 130.315 117.462 130.315C119.121 130.315 119.963 127.748 118.49 127.184C117.227 126.698 117.417 126.677 116.228 127.43ZM211.107 132.461C210.394 133.615 212.544 135.542 213.945 135.003C214.587 134.757 215.005 133.999 214.876 133.318C214.603 131.885 211.85 131.258 211.107 132.461ZM110.743 133.54C110.51 134.148 110.657 134.985 111.071 135.399C112.169 136.497 114.036 135.533 114.036 133.867C114.036 132.126 111.386 131.863 110.743 133.54ZM216.143 138.49C215.565 139.996 216.905 141.653 218.274 141.127C219.639 140.604 219.228 137.807 217.744 137.525C217.114 137.405 216.393 137.839 216.143 138.49ZM107.152 138.598C106.132 138.953 105.961 141.339 106.912 141.926C108.004 142.601 109.8 141.528 109.8 140.2C109.8 138.842 108.576 138.101 107.152 138.598ZM160.887 139.507C160.053 139.834 159.161 140.441 158.904 140.857C158.278 141.87 160.143 141.826 161.164 140.805C161.771 140.197 162.515 140.222 164.152 140.899C166.459 141.855 167.235 141.707 166.426 140.465C165.702 139.356 162.628 138.824 160.887 139.507ZM159.226 144.437C159.226 144.825 159.881 145.143 160.68 145.143C161.479 145.143 161.938 144.825 161.698 144.437C161.457 144.049 160.804 143.731 160.244 143.731C159.684 143.731 159.226 144.049 159.226 144.437ZM163.463 144.437C163.463 144.825 164.117 145.143 164.917 145.143C165.716 145.143 166.174 144.825 165.934 144.437C165.694 144.049 165.04 143.731 164.48 143.731C163.92 143.731 163.463 144.049 163.463 144.437ZM219.728 145.41C219.31 146.498 220.49 147.967 221.781 147.967C222.772 147.967 223.66 146.005 223.088 145.079C222.476 144.089 220.146 144.319 219.728 145.41ZM102.425 145.785C101.734 146.904 102.838 148.673 104.227 148.673C105.182 148.673 105.563 148.169 105.563 146.908C105.563 145.632 105.184 145.143 104.193 145.143C103.439 145.143 102.644 145.432 102.425 145.785ZM160.074 148.109C159.608 148.575 159.221 149.29 159.216 149.697C159.209 150.105 158.916 150.895 158.563 151.453C158.032 152.293 157.731 152.308 156.809 151.542C155.861 150.756 155.696 150.821 155.696 151.982C155.696 154.429 157.311 155.888 159.43 155.356C161 154.962 161.347 154.476 161.355 152.657C161.361 151.437 161.643 150.001 161.983 149.466C162.962 147.919 164.169 149.244 164.169 151.868C164.169 153.564 164.593 154.499 165.608 155.042C167.743 156.185 169.818 155.261 169.818 153.168C169.818 151.724 169.561 151.484 168.405 151.851C167.315 152.197 166.993 151.978 166.993 150.89C166.993 147.883 162.218 145.964 160.074 148.109ZM223.225 151.851C222.664 153.314 223.425 155.028 224.637 155.028C226.052 155.028 226.631 153.095 225.591 151.842C224.483 150.506 223.74 150.509 223.225 151.851ZM247.664 151.844C244.807 153.086 244.541 154.683 247.307 153.989C249.451 153.451 251.018 152.363 251.018 151.412C251.018 150.581 250.384 150.662 247.664 151.844ZM79.085 153.252C81.2322 154.199 82.2624 154.074 82.2624 152.868C82.2624 152.503 81.0712 152.23 79.6145 152.261L76.9667 152.318L79.085 153.252ZM99.4656 153.258C99.2212 153.896 99.3596 154.756 99.7734 155.169C100.849 156.246 102.887 155.262 102.606 153.803C102.293 152.178 100.031 151.785 99.4656 153.258ZM178.418 158.211C176.964 159.883 176.417 161.383 177.26 161.383C178.205 161.383 181.821 158.199 181.821 157.367C181.821 155.869 180.078 156.301 178.418 158.211ZM225.285 159.201C224.604 160.303 225.72 162.169 226.923 161.94C227.554 161.82 228.172 161.01 228.296 160.14C228.465 158.952 228.168 158.559 227.102 158.559C226.321 158.559 225.503 158.847 225.285 159.201ZM97.3261 160.374C97.0302 161.146 97.3381 161.937 98.1734 162.547C99.7021 163.665 100.872 162.857 100.502 160.937C100.172 159.224 97.9206 158.825 97.3261 160.374ZM158.742 160.642C155.478 162.632 154.623 164.546 156.263 166.187C158.067 167.991 158.555 169.538 157.618 170.476C156.422 171.671 155.202 171.437 153.587 169.704C152.2 168.214 152.036 168.195 150.205 169.287C145.829 171.898 145.275 176.995 148.932 180.986L151.348 183.622L153.1 181.977C156.436 178.843 160.366 181.426 157.151 184.641C155.245 186.547 155.315 187.641 157.48 189.806C159.426 191.753 162.941 192.599 165.337 191.698C168.866 190.369 171.151 185.858 168.758 184.94C168.155 184.708 167.699 183.655 167.699 182.49C167.699 180.775 167.986 180.447 169.486 180.447C170.47 180.447 171.447 180.899 171.66 181.452C172.667 184.076 176.606 182.804 178.182 179.345C179.664 176.092 179.194 172.769 176.933 170.508C174.486 168.061 174.068 168.007 171.936 169.856C170.089 171.458 169.039 171.619 167.896 170.476C166.971 169.552 167.451 167.745 168.943 166.538C171.493 164.474 167.063 159.27 162.757 159.27C161.786 159.27 159.979 159.888 158.742 160.642ZM226.697 166.968C226.016 168.07 227.132 169.936 228.336 169.707C228.966 169.587 229.584 168.777 229.708 167.907C229.878 166.719 229.58 166.326 228.514 166.326C227.733 166.326 226.916 166.614 226.697 166.968ZM95.9062 168.162C95.5355 169.127 96.6588 170.54 97.7964 170.54C97.9905 170.54 98.5928 170.26 99.1351 169.917C100.503 169.05 99.5658 167.032 97.7964 167.032C96.9949 167.032 96.1448 167.54 95.9062 168.162ZM184.116 168.466C182.346 169.178 182.225 169.675 183.199 172.237C183.726 173.625 184.446 174.051 186.553 174.225C190.418 174.543 190.226 176.492 186.301 176.778C183.847 176.957 183.295 177.279 182.926 178.752C182.399 180.851 182.756 181.57 184.56 182.042C185.497 182.287 186.143 181.882 186.674 180.715C187.095 179.791 187.93 179.035 188.529 179.035C189.98 179.035 191.286 176.03 190.754 173.913C190.519 172.98 189.526 171.851 188.546 171.405C187.496 170.926 186.764 170.006 186.764 169.165C186.764 167.598 186.469 167.52 184.116 168.466ZM139.103 169.855C138.857 170.63 137.914 171.451 137.009 171.679C135.905 171.955 135.274 172.712 135.095 173.975C134.676 176.928 135.098 177.886 137.405 179.207C139.048 180.148 139.448 180.772 139.104 181.855C138.564 183.556 138.645 183.568 141.419 182.184C143.425 181.183 143.542 180.933 142.884 179.046C142.294 177.355 141.716 176.958 139.577 176.78C136.758 176.545 135.867 174.634 138.397 174.252C142.765 173.591 142.986 173.429 142.986 170.902C142.986 168.769 142.759 168.444 141.268 168.444C140.172 168.444 139.389 168.954 139.103 169.855ZM197.289 170.562C196.869 172.527 196.974 179.741 197.421 179.741C197.742 179.741 198.36 178.55 198.793 177.094C199.436 174.939 199.376 174.052 198.474 172.327C197.863 171.162 197.33 170.368 197.289 170.562ZM127.16 173.664C126.66 176.328 127.242 179.741 128.196 179.741C128.83 179.741 128.658 172.239 128.01 171.59C127.796 171.377 127.414 172.31 127.16 173.664ZM194.044 175.152C194.047 177.482 194.179 178.35 194.337 177.081C194.493 175.812 194.491 173.906 194.33 172.844C194.168 171.783 194.039 172.822 194.044 175.152ZM131.741 172.971C131.271 173.537 131.016 175.054 131.175 176.342L131.463 178.682L131.576 176.093C131.638 174.67 132.086 173.363 132.571 173.189C133.057 173.016 133.261 172.664 133.025 172.407C132.789 172.15 132.211 172.404 131.741 172.971ZM160.201 173.769C158.065 177.03 161.006 180.766 164.469 179.188C166.733 178.157 167.146 175.89 165.462 173.748C163.679 171.482 161.695 171.489 160.201 173.769ZM211.948 172.445C211.689 172.704 211.477 173.795 211.477 174.869C211.477 178.028 215.837 178.513 216.64 175.443C217.242 173.142 213.587 170.807 211.948 172.445ZM109.265 174.204C107.944 175.525 108.202 176.763 110.053 177.976C112.466 179.557 114.162 178.66 113.898 175.944C113.727 174.187 113.324 173.698 111.913 173.533C110.94 173.419 109.748 173.721 109.265 174.204ZM227.482 173.858C226.447 174.892 227.043 176.917 228.381 176.917C230.045 176.917 230.693 176.017 230.115 174.509C229.673 173.356 228.318 173.021 227.482 173.858ZM96.4915 174.732C95.2445 175.503 95.7275 177.898 97.1863 178.18C97.8126 178.3 98.5356 177.85 98.7926 177.18C99.3851 175.635 97.7836 173.933 96.4915 174.732ZM226.697 181.796C226.006 182.915 227.11 184.684 228.499 184.684C229.454 184.684 229.835 184.18 229.835 182.919C229.835 181.642 229.456 181.154 228.465 181.154C227.711 181.154 226.916 181.442 226.697 181.796ZM96.3206 182.995C95.5206 183.96 95.5785 184.277 96.7061 185.101C98.5229 186.43 100.203 185.131 99.169 183.198C98.2934 181.562 97.5542 181.509 96.3206 182.995ZM226.128 188.986C224.528 189.907 224.562 190.812 226.231 191.705C228.07 192.69 229.488 191.074 228.235 189.422C227.585 188.566 227.05 188.455 226.128 188.986ZM97.4829 190.269C96.8078 191.361 97.8811 193.157 99.2085 193.157C100.567 193.157 101.308 191.933 100.811 190.509C100.455 189.49 98.0703 189.318 97.4829 190.269ZM156.364 196.052C155.291 198.056 155.552 199.417 156.938 199.054C157.823 198.823 158.416 199.351 158.996 200.886C159.711 202.781 160.142 203.042 162.554 203.042C165.573 203.042 166.993 202.067 166.993 199.994C166.993 198.976 167.353 198.735 168.447 199.021C169.68 199.344 169.868 199.115 169.683 197.515C169.245 193.731 164.169 194.961 164.169 198.85C164.169 199.945 163.816 201.059 163.384 201.326C162.483 201.882 161.312 200.373 161.429 198.806C161.634 196.037 161.262 195.424 159.189 195.119C157.627 194.89 156.848 195.147 156.364 196.052ZM223.307 196.864C222.781 198.294 223.503 199.512 224.876 199.512C226.249 199.512 226.994 198.294 226.495 196.864C226.326 196.379 225.612 195.981 224.91 195.981C224.206 195.981 223.485 196.379 223.307 196.864ZM100.183 197.713C99.6357 199.14 100.45 200.218 102.075 200.218C103.755 200.218 103.958 197.742 102.328 197.116C100.768 196.517 100.626 196.556 100.183 197.713ZM221.109 203.235C220.316 203.815 220.045 204.587 220.353 205.39C220.959 206.969 223.029 206.633 223.362 204.901C223.725 203.019 222.571 202.166 221.109 203.235ZM102.859 205.281C103.16 207.407 105.916 207.616 105.916 205.514C105.916 204.572 105.368 204.024 104.271 203.869C102.902 203.674 102.665 203.912 102.859 205.281ZM159.932 205.867C159.027 206.451 159.053 206.553 160.109 206.562C160.789 206.568 161.345 206.255 161.345 205.867C161.345 205.005 161.265 205.005 159.932 205.867ZM164.743 206.349C165.252 206.553 165.861 206.528 166.096 206.293C166.33 206.059 165.914 205.892 165.169 205.923C164.347 205.956 164.179 206.124 164.743 206.349ZM159.326 210.576C160.339 211.797 166.289 211.845 166.283 210.633C166.28 210.042 165.002 209.732 162.413 209.694C159.272 209.648 158.692 209.813 159.326 210.576ZM216.915 209.843C216.643 210.116 216.42 210.921 216.42 211.633C216.42 212.553 216.946 212.928 218.234 212.928C219.709 212.928 220.006 212.633 219.823 211.346C219.599 209.781 217.871 208.887 216.915 209.843ZM107.025 211.423C106.215 212.936 106.669 213.634 108.464 213.634C110.161 213.634 110.815 212.385 109.774 211.131C108.633 209.756 107.874 209.836 107.025 211.423ZM212.009 216.635C211.484 218.064 212.206 219.282 213.578 219.282C214.952 219.282 215.697 218.064 215.197 216.635C215.029 216.15 214.315 215.752 213.612 215.752C212.909 215.752 212.188 216.15 212.009 216.635ZM111.469 217.512C111.225 218.15 111.363 219.01 111.777 219.424C112.853 220.5 114.891 219.516 114.61 218.057C114.297 216.432 112.035 216.039 111.469 217.512ZM116.905 222.73C116.03 224.364 117.472 225.9 119.242 225.221C120.809 224.62 120.689 223.022 119.009 222.122C117.902 221.53 117.483 221.651 116.905 222.73ZM206.791 222.455C206.547 223.093 206.685 223.953 207.099 224.366C208.175 225.442 210.213 224.459 209.932 223C209.619 221.375 207.357 220.982 206.791 222.455ZM160.815 223.986C159.536 224.503 159.732 227.573 161.092 228.335C163.724 229.807 166.244 227.489 164.847 224.88C164.146 223.568 162.665 223.24 160.815 223.986ZM201.564 226.73C200.449 228.073 201.272 230.038 202.825 229.742C204.377 229.447 204.855 226.663 203.446 226.122C202.871 225.901 202.024 226.175 201.564 226.73ZM123.392 226.85C122.907 227.025 122.51 227.742 122.51 228.445C122.51 229.818 123.728 230.563 125.157 230.064C125.643 229.895 126.04 229.345 126.04 228.842C126.04 227.621 124.491 226.456 123.392 226.85ZM129.121 231.634C128.877 232.272 129.015 233.132 129.429 233.545C130.505 234.622 132.543 233.638 132.262 232.179C131.949 230.554 129.687 230.161 129.121 231.634ZM194.531 231.95C194.531 233.614 195.431 234.262 196.939 233.684C198.823 232.961 198.33 230.58 196.296 230.58C195.019 230.58 194.531 230.959 194.531 231.95ZM188.215 234.742C187.233 236.579 189.063 238.249 190.632 236.947C191.408 236.303 191.492 235.736 190.961 234.742C190.567 234.007 189.949 233.404 189.588 233.404C189.227 233.404 188.609 234.007 188.215 234.742ZM135.987 235.095C135.355 235.857 135.439 236.347 136.355 237.263C137.415 238.324 137.652 238.335 138.613 237.374C139.497 236.49 139.526 236.105 138.779 235.205C137.657 233.853 137.038 233.829 135.987 235.095ZM181.292 236.7C180.806 236.894 180.409 237.661 180.409 238.406C180.409 239.388 180.906 239.759 182.224 239.759C183.684 239.759 183.994 239.46 183.812 238.225C183.574 236.609 182.756 236.114 181.292 236.7ZM143.223 238.041C142.99 238.65 143.105 239.455 143.48 239.83C144.494 240.844 146.517 239.806 146.517 238.271C146.517 236.616 143.842 236.43 143.223 238.041ZM150.487 239.435C149.89 240.988 150.534 241.877 152.256 241.877C153.323 241.877 153.62 241.484 153.45 240.296C153.18 238.402 151.113 237.802 150.487 239.435ZM173.605 239.401C173.361 240.039 173.499 240.899 173.913 241.312C174.989 242.389 177.027 241.405 176.746 239.946C176.433 238.321 174.171 237.928 173.605 239.401ZM158.534 240.096C157.493 241.349 158.171 242.583 159.898 242.583C161.729 242.583 162.277 240.636 160.686 239.785C159.73 239.273 159.146 239.357 158.534 240.096ZM166.464 239.524C165.979 239.718 165.581 240.508 165.581 241.279C165.581 242.33 165.98 242.625 167.17 242.456C168.187 242.312 168.758 241.743 168.758 240.877C168.758 239.441 167.915 238.944 166.464 239.524ZM79.438 257.411C79.438 257.8 80.3912 258.117 81.5563 258.117C82.7213 258.117 83.6745 257.8 83.6745 257.411C83.6745 257.023 82.7213 256.705 81.5563 256.705C80.3912 256.705 79.438 257.023 79.438 257.411Z"/>
</mask>
<path fill-rule="evenodd" clip-rule="evenodd" d="M146.663 0.530675C146.194 0.999519 145.811 1.80729 145.811 2.32556C145.811 2.84453 145.337 3.99122 144.758 4.87525C143.338 7.04224 141.591 12.9565 141.582 15.629C141.577 17.0122 140.948 18.3891 139.848 19.4214C138.899 20.3132 137.642 22.0544 137.056 23.2922C136.468 24.5293 135.101 25.9648 134.015 26.4823C128.322 29.1979 127.48 29.7275 127.261 30.728C127.13 31.3261 127.479 32.5385 128.037 33.4225C128.922 34.8248 128.917 35.1835 127.993 36.2469C127.411 36.9162 126.731 38.3291 126.48 39.3854C125.897 41.8384 124.181 42.7295 118.488 43.5358C114.805 44.0576 113.292 44.6867 110.783 46.7429C107.202 49.6774 106.404 51.8472 107.643 55.2746C108.324 57.1584 108.331 58.1385 107.675 59.7229C106.738 61.9824 104.189 63.9425 102.185 63.9425C101.464 63.9425 99.5467 65.0793 97.9234 66.4689C95.1358 68.8548 94.972 69.2064 94.972 72.8054C94.972 76.3966 95.104 76.6825 97.2668 77.772C98.5286 78.4082 100.515 79.8112 101.68 80.8901C102.845 81.9683 104.525 83.0698 105.412 83.3374C106.763 83.7449 107.001 84.2575 106.87 86.4767C106.761 88.3161 107.223 89.8448 108.379 91.4674C109.908 93.6153 109.96 93.9556 109.017 95.6439C108.219 97.0716 107.356 97.5292 105.151 97.6923C102.794 97.8667 101.931 97.5376 100.061 95.7505C98.8223 94.5671 97.1425 93.5983 96.327 93.5983C95.5122 93.5983 94.2723 92.8908 93.5725 92.0266C92.4096 90.5904 92.1399 90.5396 90.458 91.4398C89.4454 91.9814 88.6172 92.9918 88.6172 93.6845C88.6172 94.4301 87.6089 95.4229 86.1459 96.117C83.9464 97.1606 83.6745 97.592 83.6745 100.034C83.6745 101.543 84.0064 102.778 84.4124 102.778C84.8671 102.778 84.9808 103.685 84.7075 105.141C84.2917 107.357 84.4872 107.664 87.8546 110.083C89.8288 111.502 91.7388 112.663 92.0982 112.663C93.3918 112.663 95.743 116.488 95.5355 118.254C95.2417 120.747 90.2066 121.819 86.6839 120.139C84.9603 119.317 83.9443 119.201 82.979 119.718C82.2475 120.109 80.5098 120.43 79.1174 120.43C76.1215 120.43 72.1794 122.744 68.9935 126.372C66.4502 129.269 66.2998 130.034 67.7317 132.793C68.7379 134.733 68.6616 135.668 67.2551 138.604C66.5864 140 66.9451 140.665 70.3202 144.292C72.4223 146.552 74.7354 149.144 75.4599 150.053C76.7739 151.7 76.7725 151.704 75.1068 151.137C68.6277 148.933 62.4142 153.185 68.3171 155.784C70.9345 156.935 75.1485 163.944 75.1817 167.202C75.1965 168.623 75.8539 169.56 77.6579 170.732C79.0087 171.609 80.4145 173.18 80.7824 174.223C81.7526 176.974 79.3865 178.329 73.6106 178.329C70.5709 178.329 68.2789 178.771 66.4332 179.712C64.942 180.472 62.2948 181.308 60.5515 181.57C57.8923 181.968 56.6539 182.765 52.8756 186.506L48.37 190.968V195.286C48.37 197.661 48.0226 200.253 47.599 201.046C46.9458 202.266 47.1908 202.863 49.1877 204.928C50.4855 206.271 53.5337 208.318 55.9605 209.478C60.1455 211.479 60.3736 211.717 60.3736 214.086C60.3736 216.152 59.7769 217.161 56.9307 219.904L53.4885 223.222L53.6071 231.266C53.6904 236.895 53.9855 239.395 54.5914 239.597C55.0666 239.756 55.8581 240.287 56.3495 240.779C56.841 241.27 59.2297 242.584 61.6586 243.699C64.9356 245.203 66.1896 246.18 66.5172 247.488C66.7608 248.457 67.5185 250.212 68.202 251.388C68.8848 252.565 69.665 255.049 69.9354 256.909C70.4798 260.649 69.1616 263.06 66.5723 263.06C63.9195 263.06 60.7739 260.266 63.3744 260.22C63.8602 260.212 65.05 259.595 66.0187 258.85L67.7811 257.497L65.7257 255.352C63.6646 253.2 58.042 251.057 54.4615 251.057C53.4645 251.057 51.4584 250.387 50.0025 249.57C47.1972 247.994 45.4553 248.001 36.0134 249.628C33.6833 250.029 29.5266 250.165 26.7763 249.929C22.3506 249.55 21.3755 249.703 18.3033 251.261C13.0443 253.928 12.4448 254.923 11.2459 262.973C10.2701 269.524 10.2792 270.537 11.3582 274.838C12.4893 279.348 12.4844 279.581 11.2311 280.497C10.2976 281.18 8.77881 281.323 5.91702 280.999C2.16415 280.575 1.83441 280.66 0.729375 282.347C-0.665154 284.476 -0.22526 285.548 3.49937 289.108C6.18392 291.674 6.62805 293.74 4.96804 295.935C3.80016 297.478 3.55868 300.563 4.52602 301.577C4.87836 301.946 5.27519 304.306 5.40864 306.821L5.65153 311.393L3.18021 312.57C1.82099 313.218 0.708898 314.179 0.708898 314.706C0.708898 315.504 11.6314 315.694 66.2871 315.844C130.157 316.02 131.989 315.987 136.621 314.607C139.238 313.829 143.249 312.242 145.536 311.083C147.97 309.848 150.812 308.97 152.388 308.965C154.909 308.957 155.069 308.83 154.86 307.018C154.683 305.486 154.193 305.003 152.518 304.716C150.996 304.455 150.4 303.957 150.4 302.947C150.4 302.175 150.877 301.534 151.459 301.524C154.096 301.477 155.338 298.289 153.453 296.404C152.816 295.768 152.902 295.265 153.819 294.251C154.894 293.064 154.997 290.934 154.827 273.429C154.611 251.234 154.824 252.011 148.739 251.29C146.304 251.002 144.825 250.441 144.398 249.644C144.043 248.98 141.276 247.559 138.25 246.487C130.668 243.801 120.43 238.338 117.125 235.215C116.687 234.802 114.532 232.897 112.336 230.982C110.14 229.068 106.526 225.096 104.305 222.156C102.084 219.217 100.109 216.652 99.9146 216.458C99.7205 216.264 99.2156 215.47 98.7919 214.693C98.369 213.916 97.2315 211.851 96.2656 210.103C90.1861 199.107 87.1499 183.16 88.5056 169.339C89.9729 154.379 93.8521 144.002 102.519 131.857C106.248 126.632 114.685 118.057 118.68 115.433C125.756 110.785 127.405 109.827 131.836 107.785C134.441 106.584 136.907 105.602 137.318 105.602C137.727 105.602 138.615 105.3 139.289 104.931C139.963 104.563 142.543 103.779 145.023 103.189C147.501 102.6 149.686 101.963 149.875 101.772C150.727 100.921 149.217 99.2471 147.598 99.2471C145.364 99.2471 145.269 98.0058 147.439 97.1811C152.052 95.4271 154.899 90.9653 152.766 88.8322C152.153 88.2201 152.177 86.7168 152.859 82.7288C153.714 77.7311 153.681 77.2975 152.273 74.9117C150.897 72.5794 150.776 71.2675 150.68 57.7494C150.584 44.3386 150.706 42.733 152.134 38.5769C153.457 34.7238 153.576 33.6068 152.922 31.163C152.499 29.5799 151.829 25.3024 151.435 21.6576C151.041 18.0121 150.553 14.764 150.352 14.4385C150.151 14.113 149.875 11.1044 149.74 7.75186C149.481 1.34056 148.397 -1.20348 146.663 0.530675ZM177.79 1.24665C177.32 1.83977 177.155 9.33421 177.319 22.6362C177.761 58.4357 177.313 72.6712 175.685 74.6264C175.115 75.3113 174.889 78.5706 174.979 84.7934L175.113 93.9514L178.485 96.2045L181.856 98.4577L179.367 99.6389C177.998 100.289 176.878 101.079 176.878 101.396C176.878 101.712 178.705 102.488 180.939 103.121C203.367 109.468 220.01 122.879 230.056 142.696C235.382 153.201 237.602 163.1 237.602 176.334C237.602 191.244 234.45 202.489 226.75 215.046C217.587 229.987 202.789 241.845 187.117 246.803C183.786 247.857 182.899 248.568 182.889 250.19C182.882 251.075 182.025 251.511 179.612 251.858C172.978 252.81 173.365 251.672 173.221 270.675C173.072 290.391 173.133 291.867 174.188 293.944C174.841 295.23 174.759 295.783 173.753 296.895C172.977 297.753 172.684 298.795 172.967 299.69C173.443 301.19 175.687 302.278 176.837 301.568C177.209 301.338 177.861 301.798 178.286 302.592C179.15 304.206 178.723 304.513 175.12 304.866C173.75 305 172.922 305.519 172.766 306.342C172.398 308.285 173.895 309.675 175.656 309.024C176.756 308.617 178.943 309.33 183.901 311.714L190.647 314.958L249.606 315.311C320.868 315.737 327.276 315.65 327.276 314.245C327.276 313.68 326.402 313.002 325.334 312.736C323.138 312.189 321.683 310.617 321.65 308.757C321.637 308.066 322.276 305.572 323.07 303.218C323.976 300.528 324.272 298.632 323.867 298.12C323.513 297.672 322.833 296.094 322.356 294.613C321.597 292.257 321.645 291.748 322.748 290.528C323.442 289.763 324.824 288.748 325.819 288.273C327.137 287.645 327.691 286.765 327.857 285.031C327.982 283.722 327.723 282.294 327.28 281.858C326.835 281.42 324.205 281.065 321.403 281.065H316.331V268.471C316.331 255.902 316.328 255.873 314.573 254.451C310.013 250.757 306.856 249.846 298.436 249.796C294.03 249.771 288.227 249.379 285.542 248.926C281.08 248.173 280.454 248.223 278.289 249.5C276.985 250.269 274.208 251.131 272.118 251.416C268.081 251.965 262.928 254.057 261.566 255.698C260.401 257.102 261.155 258.504 263.673 259.619C266.235 260.753 266.481 262.019 264.257 262.615C261.565 263.337 259.917 263.085 258.079 261.67C256.666 260.583 256.489 260.135 257.196 259.427C257.681 258.939 258.079 257.284 258.079 255.748C258.079 253.857 258.649 252.208 259.844 250.641C260.815 249.368 261.609 247.664 261.609 246.856C261.609 245.829 262.408 245.043 264.257 244.251C265.714 243.628 267.382 242.832 267.964 242.482C274.008 238.848 274.984 237.443 273.76 234.134C273.343 233.007 273.451 231.35 274.076 229.272C274.598 227.537 275.025 225.833 275.025 225.483C275.025 225.133 273.436 223.167 271.495 221.114C268.309 217.746 267.964 217.063 267.964 214.128C267.964 211.061 268.115 210.805 270.612 209.637C274.481 207.825 279.489 204.579 280.101 203.485C280.393 202.963 280.324 201.46 279.947 200.146C279.57 198.831 279.262 196.27 279.262 194.454C279.262 191.486 278.911 190.769 275.798 187.363C272.963 184.261 271.649 183.398 268.561 182.609C266.485 182.079 263.661 181.06 262.284 180.344C260.907 179.629 257.73 178.831 255.223 178.572C248.92 177.919 246.087 176.672 246.584 174.77C246.796 173.96 248.047 172.443 249.364 171.4C250.936 170.156 252.091 168.393 252.726 166.274C254.352 160.839 257.251 155.734 258.71 155.734C260.379 155.734 261.797 154.054 261.487 152.445C261.228 151.097 259.029 150.266 255.431 150.156C252.828 150.076 252.71 149.745 254.21 146.738C255.363 144.426 256.636 143.169 259.037 141.972C260.415 141.284 260.541 140.695 260.446 135.376L260.343 129.534L256.916 125.997C255.031 124.052 252.631 122.004 251.583 121.445C249.551 120.363 241.122 120.119 238.685 121.072C236.958 121.747 231.951 120.539 231.489 119.335C230.966 117.971 234.612 112.663 236.072 112.663C236.774 112.663 238.676 111.526 240.3 110.136C242.678 108.101 243.251 107.149 243.251 105.235C243.251 103.929 243.569 102.665 243.957 102.424C245.107 101.714 244.762 98.1427 243.428 96.9403C242.748 96.3281 241.318 95.6086 240.25 95.3424C238.825 94.9865 238.308 94.4188 238.308 93.2107C238.308 92.3048 238.012 91.3798 237.649 91.156C236.458 90.4195 228.379 95.0338 227.692 96.8428C227.146 98.2769 226.576 98.5374 224.028 98.5184C222.368 98.5064 220.453 98.0743 219.773 97.5581C218.101 96.2885 218.193 92.494 219.95 90.2607C220.732 89.2672 221.362 87.396 221.362 86.0714C221.362 84.1897 221.727 83.5394 223.07 83.0289C224.518 82.4781 229.362 79.1779 232.483 76.6155C232.969 76.2165 233.366 74.4237 233.366 72.6317C233.366 69.7636 233.036 69.0596 230.62 66.7613C228.927 65.1507 226.647 63.8409 224.669 63.3424C221.33 62.5021 217.987 59.1496 219.216 57.8751C219.556 57.5228 220.048 55.7702 220.31 53.981C220.777 50.7937 220.719 50.6631 217.489 47.6262C213.914 44.2638 212.542 43.6439 208.441 43.5365C202.614 43.3833 199.737 39.8988 199.927 33.2276C200.027 29.7678 199.963 29.6548 196.763 27.5789C194.096 25.8483 192.753 24.1197 189.425 18.1307C187.185 14.0996 185.342 10.4456 185.331 10.0106C185.32 9.5764 184.268 7.31479 182.994 4.9854C180.648 0.696605 179.105 -0.411956 177.79 1.24665ZM106.446 67.8854C104.021 69.7967 103.433 72.184 105.219 72.8696C105.807 73.0956 106.68 72.9544 107.161 72.5568C107.641 72.1593 108.952 71.7272 110.073 71.5951C111.194 71.4638 112.559 70.6786 113.105 69.8497C113.973 68.5357 113.954 68.1974 112.958 67.2019C111.325 65.5687 109.087 65.8031 106.446 67.8854ZM213.455 67.8522C212.407 70.1526 213.473 71.2343 217.832 72.2928C220.35 72.9042 221.207 72.8682 221.961 72.1162C222.736 71.3438 222.748 70.8594 222.022 69.4974C220.729 67.0698 219.197 66.1088 216.581 66.0834C214.781 66.0658 214.091 66.4569 213.455 67.8522ZM198.767 77.3583C198.767 78.2839 199.11 78.5946 199.826 78.32C200.409 78.0961 200.886 77.6633 200.886 77.3583C200.886 77.0532 200.409 76.6204 199.826 76.3966C199.11 76.1219 198.767 76.4326 198.767 77.3583ZM115.449 84.0245C115.449 85.1641 116.448 86.0079 117.067 85.39C117.618 84.8393 116.859 83.007 116.079 83.007C115.732 83.007 115.449 83.4645 115.449 84.0245ZM209.818 84.0435C209.333 85.3081 210.262 85.9817 211.722 85.4218C212.963 84.9459 212.483 83.007 211.124 83.007C210.625 83.007 210.037 83.4737 209.818 84.0435ZM151.812 104.945C150.259 105.282 147.24 105.939 145.104 106.406C140.64 107.381 130.592 111.516 125.654 114.41C121.817 116.659 113.256 123.953 108.873 128.708C104.682 133.254 101.57 138.084 98.0859 145.45C87.5496 167.721 89.0175 192.341 102.192 214.319C105.152 219.257 111.569 226.543 116.461 230.522C130.493 241.935 142.134 246.455 159.579 247.268C173.841 247.932 185.348 245.43 197.047 239.119C204.794 234.941 214.106 227.242 218.418 221.451C219.45 220.064 220.487 218.771 220.722 218.576C220.956 218.382 222.436 216.158 224.011 213.634C229.113 205.454 232.022 197.83 233.657 188.351C236.804 170.117 233.045 151.801 223.038 136.607C212.302 120.304 194.668 108.661 175.466 105.194C169.595 104.135 156.194 103.993 151.812 104.945ZM157.991 108.933C156.971 109.299 156.799 111.683 157.751 112.27C158.7 112.857 160.638 111.943 160.638 110.908C160.638 109.701 159.083 108.541 157.991 108.933ZM150.084 110.147C148.988 111.467 149.592 113.369 151.106 113.369C152.68 113.369 153.253 111.33 152.025 110.101C151.109 109.185 150.877 109.191 150.084 110.147ZM164.875 110.427C164.875 112.262 165.563 112.722 167.086 111.907C169.023 110.871 168.743 109.132 166.64 109.132C165.399 109.132 164.875 109.516 164.875 110.427ZM173.025 110.083C172.216 110.674 171.879 111.495 172.152 112.207C172.713 113.67 174.31 113.702 175.496 112.274C176.242 111.376 176.22 110.995 175.374 110.149C174.498 109.274 174.145 109.263 173.025 110.083ZM142.832 112.029C142.169 112.4 141.811 113.165 142.032 113.74C142.543 115.071 144.833 115.094 145.34 113.773C145.898 112.32 144.299 111.208 142.832 112.029ZM179.96 112.305C179.716 112.942 179.854 113.802 180.268 114.216C181.344 115.292 183.382 114.309 183.101 112.85C182.788 111.224 180.525 110.832 179.96 112.305ZM134.916 115.26C134.666 115.911 134.884 116.868 135.402 117.384C136.704 118.687 139.031 117.041 138.359 115.292C137.762 113.735 135.509 113.713 134.916 115.26ZM186.764 115.412C186.764 116.8 188.533 117.904 189.652 117.213C190.005 116.995 190.294 116.2 190.294 115.445C190.294 114.454 189.806 114.075 188.529 114.075C187.268 114.075 186.764 114.456 186.764 115.412ZM155.343 116.891C129.462 120.647 109.25 140.09 104.127 166.157C103.07 171.535 103.637 187.091 105.059 191.745C110.63 209.968 121.265 222.433 138.044 230.403C146.071 234.217 150.617 235.086 162.757 235.129C172.844 235.164 174.167 235.014 179.65 233.223C198.272 227.14 214.029 211.904 219.261 194.922C219.739 193.369 220.386 191.417 220.696 190.586C221.978 187.161 222.947 177.081 222.547 171.335C220.777 145.89 203.748 125.411 178.23 118.04C173.462 116.662 161.169 116.045 155.343 116.891ZM194.296 117.37C194.036 117.629 193.825 118.423 193.825 119.136C193.825 120.766 196.513 120.9 197.127 119.299C197.706 117.791 195.427 116.238 194.296 117.37ZM128.278 119.138C128.434 120.234 128.982 120.783 129.923 120.783C132.026 120.783 131.817 118.026 129.69 117.725C128.321 117.531 128.084 117.769 128.278 119.138ZM154.99 119.042C147.133 120.294 145.789 120.599 145.409 121.214C145.196 121.56 144.559 121.842 143.995 121.842C142.535 121.842 132.648 126.689 131.646 127.895C131.186 128.45 130.45 128.903 130.01 128.903C128.83 128.903 119.432 138.229 116.307 142.502C114.819 144.537 112.486 148.585 111.123 151.498C108.792 156.479 108.212 158.153 106.325 165.348C105.358 169.039 105.313 186.564 106.269 187.155C106.658 187.395 106.976 188.447 106.976 189.492C106.977 193.248 110.884 202.169 115.313 208.524C121.577 217.512 130.412 224.745 140.138 228.846C147.312 231.872 151.502 232.766 160.505 233.191C176.455 233.945 192.731 227.291 204.285 215.294C207.693 211.755 215.007 200.892 215.007 199.369C215.007 198.826 215.275 198.081 215.603 197.711C215.93 197.343 216.75 195.134 217.424 192.804C218.099 190.474 218.972 187.717 219.365 186.677C219.784 185.567 219.956 180.324 219.782 173.968C219.543 165.251 219.185 162.256 217.938 158.559C217.086 156.034 216.079 153.418 215.698 152.743C215.318 152.069 215.007 151.171 215.007 150.749C215.007 149.398 208.734 140.228 205.282 136.531C197.798 128.518 188.281 122.806 177.779 120.022C173.125 118.789 160.098 118.229 154.99 119.042ZM152.871 121.778C145.963 123.18 138.75 126.103 132.924 129.858C128.608 132.642 128.263 133.174 129.898 134.53C131.076 135.508 130.935 140.531 129.694 141.771C129.276 142.189 127.493 142.751 125.733 143.018C122.996 143.433 122.473 143.316 122.12 142.205C121.894 141.491 121.439 140.906 121.11 140.906C120.01 140.906 115.432 147.803 113.059 153.034C108.917 162.167 108.083 166.266 108.129 177.27C108.167 186.389 108.336 187.633 110.309 193.322C112.586 199.888 117.818 209.267 119.581 209.943C120.199 210.181 121.036 209.757 121.587 208.928C122.395 207.711 122.992 207.576 125.732 207.992C129.696 208.594 130.02 208.942 130.454 213.085C130.75 215.903 130.6 216.484 129.481 216.839C126.215 217.876 129.145 220.849 137.69 225.165C149.049 230.902 159.886 232.518 171.936 230.271C180.382 228.695 185.167 226.832 192.076 222.428C197.451 219.001 198.474 217.749 196.607 216.88C194.702 215.993 194.744 211.605 196.677 209.531C198.433 207.645 202.649 207.445 204.541 209.158C205.254 209.802 205.927 210.199 206.038 210.04C206.148 209.881 207.142 208.524 208.245 207.027C214.477 198.569 217.81 187.586 217.81 175.505C217.81 163.415 215.144 154.247 208.828 144.613C206.202 140.609 205.229 140.148 203.9 142.278C203.214 143.376 202.514 143.571 200.376 143.261C198.909 143.047 197.152 142.237 196.473 141.459C194.793 139.535 194.907 136.053 196.713 134.13L198.19 132.559L194.134 129.965C186.446 125.047 179.215 122.34 170.877 121.258C165.275 120.531 163.709 120.791 164.915 122.244C165.979 123.525 165.118 125.906 163.393 126.453C161.353 127.101 159.812 125.509 160.068 123.017C160.188 121.853 159.968 120.824 159.579 120.731C159.191 120.637 156.172 121.108 152.871 121.778ZM200.283 122.071C199.641 122.844 199.693 123.263 200.515 123.945C201.897 125.092 203.881 124.308 203.577 122.735C203.275 121.163 201.357 120.777 200.283 122.071ZM122.298 122.288C122.027 122.561 121.803 123.388 121.803 124.127C121.803 125.117 122.222 125.411 123.392 125.245C124.431 125.098 124.981 124.534 124.981 123.617C124.981 122.216 123.235 121.352 122.298 122.288ZM150.425 124.626C150.171 125.036 149.178 125.372 148.218 125.372C145.496 125.372 145.508 127.047 148.247 129.785C150.957 132.495 151.518 135.354 149.801 137.702C148.569 139.387 147.223 138.532 147.223 136.063C147.223 134.999 146.841 133.747 146.375 133.281C145.063 131.968 142.412 132.279 141.574 133.846C141.158 134.622 140.432 135.268 139.961 135.281C138.224 135.329 135.925 137.968 135.925 139.914C135.925 142.357 138.456 147.703 139.869 148.246C140.449 148.469 141.556 148.258 142.329 147.779C144.027 146.727 145.076 147.919 145.094 150.92C145.101 152.197 145.772 153.29 147.155 154.274C149.917 156.241 151.212 156.112 152.006 153.793L152.669 151.851L153.83 154.585C155.278 157.998 155.259 158.533 153.617 160.5C151.676 162.828 149.935 162.441 147.963 159.246C146.983 157.657 145.682 156.44 144.962 156.44C142.794 156.44 143.562 158.453 146.464 160.373C148.814 161.928 150.573 164.07 149.887 164.543C145.562 167.522 143.208 167.815 141.221 165.62C139.982 164.25 139.987 164.207 141.423 164.207C143.568 164.207 143.865 163.214 142.459 160.737C141.568 159.167 140.329 158.292 138.044 157.618C135.921 156.993 134.954 156.349 135.129 155.679C135.273 155.126 135.539 154.156 135.719 153.522C136.166 151.949 132.03 148.966 128.703 148.461C126.213 148.082 125.895 148.265 122.877 151.797C121.121 153.852 119.685 156.006 119.685 156.584C119.685 158.148 121.876 159.822 124.275 160.088C126.936 160.385 126.986 161.432 124.399 162.672C121.695 163.969 119.226 163.21 116.638 160.287C115.453 158.948 114.248 157.853 113.962 157.853C113.674 157.853 113.056 159.044 112.587 160.5C112.118 161.957 111.467 163.488 111.14 163.902C110.093 165.233 112.518 167.796 114.619 167.58C116.17 167.419 116.545 167.7 116.719 169.15C117.135 172.634 117.565 173.173 118.699 171.632C119.717 170.249 119.736 170.252 120.148 171.828C120.455 173 120.919 173.315 121.891 173.006C122.62 172.774 123.248 172.845 123.287 173.163C123.761 176.983 123.722 179.076 123.17 179.417C122.801 179.645 122.31 179.336 122.077 178.731C121.53 177.305 120.391 178.015 120.391 179.783C120.391 181.404 119.304 181.607 118.723 180.094C118.038 178.307 116.861 178.919 116.861 181.063C116.861 182.886 116.573 183.138 114.01 183.547C112.411 183.803 110.973 184.486 110.736 185.102C110.332 186.156 111.67 191.511 112.622 192.644C112.874 192.944 114.233 192.07 115.641 190.702C118.159 188.258 119.824 187.798 123.039 188.659C125.546 189.332 124.894 190.816 121.88 191.298C120.337 191.544 118.944 192.228 118.703 192.858C118.034 194.602 118.196 196.688 119.001 196.688C119.402 196.688 119.939 197.244 120.196 197.923C121.003 200.06 124.452 203.042 126.116 203.042C128.186 203.042 133.779 200.334 133.902 199.273C133.955 198.821 134.034 197.504 134.079 196.344C134.151 194.475 134.482 194.167 136.999 193.63C139.033 193.197 140.083 192.504 140.705 191.185C141.919 188.616 141.794 187.731 140.162 187.304C138.051 186.752 138.451 185.782 141.198 184.789C143.851 183.829 145.265 184.25 147.43 186.641C148.634 187.972 148.612 188.085 146.821 189.707C142.702 193.44 142.28 193.891 142.28 194.569C142.28 196.16 145.117 195.119 146.611 192.981C149.281 189.157 150.032 188.911 152.138 191.172C154.003 193.173 154.016 196.778 152.165 198.453C151.086 199.43 150.75 199.497 150.743 198.739C150.717 196.416 149.69 195.915 147.348 197.084C145.601 197.956 144.922 198.907 144.308 201.343C143.482 204.625 142.683 205.677 141.934 204.466C141.171 203.231 139.061 203.679 137.42 205.426C135.855 207.091 133.594 213.892 134.353 214.651C134.57 214.868 135.282 215.046 135.934 215.046C136.587 215.046 138.266 216.158 139.665 217.517C141.065 218.876 142.68 219.989 143.253 219.989C144.873 219.989 147.22 216.508 147.246 214.068L147.27 211.869L148.658 213.536C150.964 216.303 150.489 219.52 147.399 222.075C144.469 224.499 144.605 224.78 149.479 226.389C152.832 227.496 154.68 226.674 154.554 224.133C154.459 222.195 155.36 221.427 157.747 221.411C159.401 221.401 159.411 221.363 158.167 219.989C156.999 218.699 156.992 218.576 158.08 218.576C159.696 218.576 160.304 216.698 159.142 215.298C158.295 214.276 158.422 214.206 160.353 214.63C161.54 214.891 163.328 214.794 164.326 214.414C166.524 213.579 167.302 214.132 165.9 215.533C164.484 216.95 164.618 217.935 166.287 218.372C167.933 218.802 168.192 219.989 166.64 219.989C165.367 219.989 165.203 221.369 166.464 221.476C166.949 221.517 167.982 221.596 168.758 221.652C169.806 221.728 170.262 222.391 170.524 224.225C170.935 227.107 173.023 227.852 175.612 226.038C176.482 225.429 177.916 224.931 178.801 224.931C181.015 224.931 180.814 223.904 178.242 222.072C175.585 220.18 174.587 217.749 175.176 214.606C175.761 211.49 177.904 211.275 178.012 214.322C178.053 215.476 178.489 216.905 178.981 217.498C180.064 218.802 182.947 218.917 183.728 217.687C184.038 217.198 185.479 216.007 186.929 215.04C188.379 214.072 189.71 212.911 189.885 212.459C190.06 212.007 189.674 209.98 189.025 207.955C187.692 203.783 185.311 201.612 183.614 203.02C182.169 204.218 181.41 203.513 180.376 200.013C179.154 195.871 174.661 193.582 173.849 196.688C173.298 198.796 172.328 198.399 171.337 195.659C170.595 193.608 170.632 192.878 171.567 191.07C173.099 188.106 174.711 188.374 177.835 192.111C179.301 193.866 180.798 195.118 181.161 194.894C181.986 194.384 182.036 191.745 181.22 191.745C180.231 191.745 176.172 187.571 176.172 186.554C176.172 186.036 177.292 185.01 178.661 184.272C180.918 183.056 181.325 183.03 183.018 183.984C185.413 185.334 185.924 186.802 183.998 186.802C182.274 186.802 182.162 187.579 183.514 190.192C184.201 191.521 185.486 192.391 187.75 193.06C191.346 194.121 191.312 194.08 190.238 196.087C189.298 197.843 190.912 199.927 194.332 201.375C198.303 203.056 200.328 202.631 202.298 199.704C203.269 198.261 204.642 196.493 205.35 195.773C206.495 194.61 206.526 194.296 205.623 192.929C205.064 192.084 203.69 191.11 202.57 190.766C201.449 190.422 200.056 189.987 199.473 189.799C198.077 189.348 201.972 187.584 204.459 187.54C206.26 187.508 208.685 189.255 209.931 191.48C210.856 193.135 211.781 192.296 213.239 188.478C214.738 184.553 214.122 182.987 211.065 182.946C209.264 182.922 209.032 182.686 209.221 181.067C209.462 178.989 207.467 177.622 206.785 179.4C206.208 180.903 205.122 180.692 205.122 179.077C205.122 177.115 203.688 176.495 203.227 178.258C202.507 181.014 201.787 179.765 201.843 175.858C201.874 173.722 202.148 171.974 202.452 171.974C202.755 171.974 203.004 172.292 203.004 172.68C203.004 173.069 203.48 173.387 204.063 173.387C204.651 173.387 205.122 172.759 205.122 171.974C205.122 170.485 206.149 170.074 206.887 171.268C207.844 172.817 209.359 171.952 209.359 169.856C209.359 168.238 209.679 167.738 210.713 167.738C214.389 167.738 214.952 166.489 213.35 161.89C211.906 157.741 211.23 157.471 209.142 160.208C206.828 163.241 204.512 163.866 201.068 162.383C198.702 161.365 198.567 161.178 199.826 160.656C200.603 160.334 202.104 159.886 203.16 159.66C204.217 159.434 205.424 158.607 205.844 157.822C206.484 156.626 206.204 155.926 204.1 153.467C202.72 151.856 201.592 150.288 201.592 149.983C201.592 149.679 200.955 149.089 200.177 148.672C198.296 147.666 193.779 148.879 191.223 151.078C189.355 152.685 189.337 152.774 190.509 154.563L191.712 156.399L187.93 157.499C185.115 158.317 183.901 159.09 183.184 160.52C182.654 161.577 182.116 162.643 181.99 162.888C181.863 163.133 182.567 163.536 183.555 163.784C185.696 164.321 185.863 165.296 183.986 166.301C180.893 167.956 176.172 166.24 176.172 163.461C176.172 162.576 175.689 162.089 174.808 162.089C174.058 162.089 172.79 161.169 171.989 160.045C170.625 158.129 170.601 157.841 171.609 155.427C172.623 153.001 174.054 152.551 174.054 154.658C174.054 156.244 175.62 156.27 178.052 154.723C179.642 153.713 180.358 152.707 180.379 151.456C180.396 150.463 180.83 149.074 181.343 148.371C182.164 147.25 182.47 147.212 183.846 148.06C185.262 148.933 185.55 148.856 186.815 147.261C188.496 145.142 190.294 141.175 190.294 139.585C190.294 138.436 186.022 134.552 184.758 134.552C184.391 134.552 183.908 134.075 183.684 133.492C183.197 132.224 180.328 132.091 179.138 133.281C178.672 133.747 178.291 134.999 178.291 136.063C178.291 137.128 177.945 138.212 177.523 138.473C176.223 139.277 175.274 137.607 175.274 134.513C175.274 132.02 175.673 131.196 177.842 129.209C179.254 127.915 180.409 126.718 180.409 126.549C180.409 126.132 173.696 123.96 172.408 123.96C171.3 123.96 170.524 125.415 170.524 127.492C170.524 128.35 169.831 128.943 168.482 129.239C166.896 129.588 166.52 129.994 166.799 131.061C166.996 131.815 166.837 132.433 166.445 132.433C165.165 132.433 164.742 134.826 165.875 135.655C166.713 136.267 166.003 136.452 162.684 136.483C158.639 136.521 158.498 136.466 159.972 135.433L161.528 134.343L159.848 133.073C158.502 132.057 158.343 131.627 159.05 130.918C160.499 129.464 160.07 128.903 157.505 128.903C155.284 128.903 155.06 128.709 154.858 126.608C154.675 124.719 154.305 124.275 152.761 124.097C151.73 123.977 150.679 124.215 150.425 124.626ZM206.299 126.549C204.618 128.231 207.173 130.424 209.023 128.888C209.828 128.22 209.89 127.778 209.281 127.044C208.422 126.009 207.065 125.784 206.299 126.549ZM79.8369 127.417C79.6216 127.765 79.8412 128.194 80.3248 128.372C81.5626 128.827 83.056 128.203 82.578 127.431C82.0668 126.603 80.3453 126.595 79.8369 127.417ZM116.228 127.43C114.901 128.271 115.776 130.315 117.462 130.315C119.121 130.315 119.963 127.748 118.49 127.184C117.227 126.698 117.417 126.677 116.228 127.43ZM211.107 132.461C210.394 133.615 212.544 135.542 213.945 135.003C214.587 134.757 215.005 133.999 214.876 133.318C214.603 131.885 211.85 131.258 211.107 132.461ZM110.743 133.54C110.51 134.148 110.657 134.985 111.071 135.399C112.169 136.497 114.036 135.533 114.036 133.867C114.036 132.126 111.386 131.863 110.743 133.54ZM216.143 138.49C215.565 139.996 216.905 141.653 218.274 141.127C219.639 140.604 219.228 137.807 217.744 137.525C217.114 137.405 216.393 137.839 216.143 138.49ZM107.152 138.598C106.132 138.953 105.961 141.339 106.912 141.926C108.004 142.601 109.8 141.528 109.8 140.2C109.8 138.842 108.576 138.101 107.152 138.598ZM160.887 139.507C160.053 139.834 159.161 140.441 158.904 140.857C158.278 141.87 160.143 141.826 161.164 140.805C161.771 140.197 162.515 140.222 164.152 140.899C166.459 141.855 167.235 141.707 166.426 140.465C165.702 139.356 162.628 138.824 160.887 139.507ZM159.226 144.437C159.226 144.825 159.881 145.143 160.68 145.143C161.479 145.143 161.938 144.825 161.698 144.437C161.457 144.049 160.804 143.731 160.244 143.731C159.684 143.731 159.226 144.049 159.226 144.437ZM163.463 144.437C163.463 144.825 164.117 145.143 164.917 145.143C165.716 145.143 166.174 144.825 165.934 144.437C165.694 144.049 165.04 143.731 164.48 143.731C163.92 143.731 163.463 144.049 163.463 144.437ZM219.728 145.41C219.31 146.498 220.49 147.967 221.781 147.967C222.772 147.967 223.66 146.005 223.088 145.079C222.476 144.089 220.146 144.319 219.728 145.41ZM102.425 145.785C101.734 146.904 102.838 148.673 104.227 148.673C105.182 148.673 105.563 148.169 105.563 146.908C105.563 145.632 105.184 145.143 104.193 145.143C103.439 145.143 102.644 145.432 102.425 145.785ZM160.074 148.109C159.608 148.575 159.221 149.29 159.216 149.697C159.209 150.105 158.916 150.895 158.563 151.453C158.032 152.293 157.731 152.308 156.809 151.542C155.861 150.756 155.696 150.821 155.696 151.982C155.696 154.429 157.311 155.888 159.43 155.356C161 154.962 161.347 154.476 161.355 152.657C161.361 151.437 161.643 150.001 161.983 149.466C162.962 147.919 164.169 149.244 164.169 151.868C164.169 153.564 164.593 154.499 165.608 155.042C167.743 156.185 169.818 155.261 169.818 153.168C169.818 151.724 169.561 151.484 168.405 151.851C167.315 152.197 166.993 151.978 166.993 150.89C166.993 147.883 162.218 145.964 160.074 148.109ZM223.225 151.851C222.664 153.314 223.425 155.028 224.637 155.028C226.052 155.028 226.631 153.095 225.591 151.842C224.483 150.506 223.74 150.509 223.225 151.851ZM247.664 151.844C244.807 153.086 244.541 154.683 247.307 153.989C249.451 153.451 251.018 152.363 251.018 151.412C251.018 150.581 250.384 150.662 247.664 151.844ZM79.085 153.252C81.2322 154.199 82.2624 154.074 82.2624 152.868C82.2624 152.503 81.0712 152.23 79.6145 152.261L76.9667 152.318L79.085 153.252ZM99.4656 153.258C99.2212 153.896 99.3596 154.756 99.7734 155.169C100.849 156.246 102.887 155.262 102.606 153.803C102.293 152.178 100.031 151.785 99.4656 153.258ZM178.418 158.211C176.964 159.883 176.417 161.383 177.26 161.383C178.205 161.383 181.821 158.199 181.821 157.367C181.821 155.869 180.078 156.301 178.418 158.211ZM225.285 159.201C224.604 160.303 225.72 162.169 226.923 161.94C227.554 161.82 228.172 161.01 228.296 160.14C228.465 158.952 228.168 158.559 227.102 158.559C226.321 158.559 225.503 158.847 225.285 159.201ZM97.3261 160.374C97.0302 161.146 97.3381 161.937 98.1734 162.547C99.7021 163.665 100.872 162.857 100.502 160.937C100.172 159.224 97.9206 158.825 97.3261 160.374ZM158.742 160.642C155.478 162.632 154.623 164.546 156.263 166.187C158.067 167.991 158.555 169.538 157.618 170.476C156.422 171.671 155.202 171.437 153.587 169.704C152.2 168.214 152.036 168.195 150.205 169.287C145.829 171.898 145.275 176.995 148.932 180.986L151.348 183.622L153.1 181.977C156.436 178.843 160.366 181.426 157.151 184.641C155.245 186.547 155.315 187.641 157.48 189.806C159.426 191.753 162.941 192.599 165.337 191.698C168.866 190.369 171.151 185.858 168.758 184.94C168.155 184.708 167.699 183.655 167.699 182.49C167.699 180.775 167.986 180.447 169.486 180.447C170.47 180.447 171.447 180.899 171.66 181.452C172.667 184.076 176.606 182.804 178.182 179.345C179.664 176.092 179.194 172.769 176.933 170.508C174.486 168.061 174.068 168.007 171.936 169.856C170.089 171.458 169.039 171.619 167.896 170.476C166.971 169.552 167.451 167.745 168.943 166.538C171.493 164.474 167.063 159.27 162.757 159.27C161.786 159.27 159.979 159.888 158.742 160.642ZM226.697 166.968C226.016 168.07 227.132 169.936 228.336 169.707C228.966 169.587 229.584 168.777 229.708 167.907C229.878 166.719 229.58 166.326 228.514 166.326C227.733 166.326 226.916 166.614 226.697 166.968ZM95.9062 168.162C95.5355 169.127 96.6588 170.54 97.7964 170.54C97.9905 170.54 98.5928 170.26 99.1351 169.917C100.503 169.05 99.5658 167.032 97.7964 167.032C96.9949 167.032 96.1448 167.54 95.9062 168.162ZM184.116 168.466C182.346 169.178 182.225 169.675 183.199 172.237C183.726 173.625 184.446 174.051 186.553 174.225C190.418 174.543 190.226 176.492 186.301 176.778C183.847 176.957 183.295 177.279 182.926 178.752C182.399 180.851 182.756 181.57 184.56 182.042C185.497 182.287 186.143 181.882 186.674 180.715C187.095 179.791 187.93 179.035 188.529 179.035C189.98 179.035 191.286 176.03 190.754 173.913C190.519 172.98 189.526 171.851 188.546 171.405C187.496 170.926 186.764 170.006 186.764 169.165C186.764 167.598 186.469 167.52 184.116 168.466ZM139.103 169.855C138.857 170.63 137.914 171.451 137.009 171.679C135.905 171.955 135.274 172.712 135.095 173.975C134.676 176.928 135.098 177.886 137.405 179.207C139.048 180.148 139.448 180.772 139.104 181.855C138.564 183.556 138.645 183.568 141.419 182.184C143.425 181.183 143.542 180.933 142.884 179.046C142.294 177.355 141.716 176.958 139.577 176.78C136.758 176.545 135.867 174.634 138.397 174.252C142.765 173.591 142.986 173.429 142.986 170.902C142.986 168.769 142.759 168.444 141.268 168.444C140.172 168.444 139.389 168.954 139.103 169.855ZM197.289 170.562C196.869 172.527 196.974 179.741 197.421 179.741C197.742 179.741 198.36 178.55 198.793 177.094C199.436 174.939 199.376 174.052 198.474 172.327C197.863 171.162 197.33 170.368 197.289 170.562ZM127.16 173.664C126.66 176.328 127.242 179.741 128.196 179.741C128.83 179.741 128.658 172.239 128.01 171.59C127.796 171.377 127.414 172.31 127.16 173.664ZM194.044 175.152C194.047 177.482 194.179 178.35 194.337 177.081C194.493 175.812 194.491 173.906 194.33 172.844C194.168 171.783 194.039 172.822 194.044 175.152ZM131.741 172.971C131.271 173.537 131.016 175.054 131.175 176.342L131.463 178.682L131.576 176.093C131.638 174.67 132.086 173.363 132.571 173.189C133.057 173.016 133.261 172.664 133.025 172.407C132.789 172.15 132.211 172.404 131.741 172.971ZM160.201 173.769C158.065 177.03 161.006 180.766 164.469 179.188C166.733 178.157 167.146 175.89 165.462 173.748C163.679 171.482 161.695 171.489 160.201 173.769ZM211.948 172.445C211.689 172.704 211.477 173.795 211.477 174.869C211.477 178.028 215.837 178.513 216.64 175.443C217.242 173.142 213.587 170.807 211.948 172.445ZM109.265 174.204C107.944 175.525 108.202 176.763 110.053 177.976C112.466 179.557 114.162 178.66 113.898 175.944C113.727 174.187 113.324 173.698 111.913 173.533C110.94 173.419 109.748 173.721 109.265 174.204ZM227.482 173.858C226.447 174.892 227.043 176.917 228.381 176.917C230.045 176.917 230.693 176.017 230.115 174.509C229.673 173.356 228.318 173.021 227.482 173.858ZM96.4915 174.732C95.2445 175.503 95.7275 177.898 97.1863 178.18C97.8126 178.3 98.5356 177.85 98.7926 177.18C99.3851 175.635 97.7836 173.933 96.4915 174.732ZM226.697 181.796C226.006 182.915 227.11 184.684 228.499 184.684C229.454 184.684 229.835 184.18 229.835 182.919C229.835 181.642 229.456 181.154 228.465 181.154C227.711 181.154 226.916 181.442 226.697 181.796ZM96.3206 182.995C95.5206 183.96 95.5785 184.277 96.7061 185.101C98.5229 186.43 100.203 185.131 99.169 183.198C98.2934 181.562 97.5542 181.509 96.3206 182.995ZM226.128 188.986C224.528 189.907 224.562 190.812 226.231 191.705C228.07 192.69 229.488 191.074 228.235 189.422C227.585 188.566 227.05 188.455 226.128 188.986ZM97.4829 190.269C96.8078 191.361 97.8811 193.157 99.2085 193.157C100.567 193.157 101.308 191.933 100.811 190.509C100.455 189.49 98.0703 189.318 97.4829 190.269ZM156.364 196.052C155.291 198.056 155.552 199.417 156.938 199.054C157.823 198.823 158.416 199.351 158.996 200.886C159.711 202.781 160.142 203.042 162.554 203.042C165.573 203.042 166.993 202.067 166.993 199.994C166.993 198.976 167.353 198.735 168.447 199.021C169.68 199.344 169.868 199.115 169.683 197.515C169.245 193.731 164.169 194.961 164.169 198.85C164.169 199.945 163.816 201.059 163.384 201.326C162.483 201.882 161.312 200.373 161.429 198.806C161.634 196.037 161.262 195.424 159.189 195.119C157.627 194.89 156.848 195.147 156.364 196.052ZM223.307 196.864C222.781 198.294 223.503 199.512 224.876 199.512C226.249 199.512 226.994 198.294 226.495 196.864C226.326 196.379 225.612 195.981 224.91 195.981C224.206 195.981 223.485 196.379 223.307 196.864ZM100.183 197.713C99.6357 199.14 100.45 200.218 102.075 200.218C103.755 200.218 103.958 197.742 102.328 197.116C100.768 196.517 100.626 196.556 100.183 197.713ZM221.109 203.235C220.316 203.815 220.045 204.587 220.353 205.39C220.959 206.969 223.029 206.633 223.362 204.901C223.725 203.019 222.571 202.166 221.109 203.235ZM102.859 205.281C103.16 207.407 105.916 207.616 105.916 205.514C105.916 204.572 105.368 204.024 104.271 203.869C102.902 203.674 102.665 203.912 102.859 205.281ZM159.932 205.867C159.027 206.451 159.053 206.553 160.109 206.562C160.789 206.568 161.345 206.255 161.345 205.867C161.345 205.005 161.265 205.005 159.932 205.867ZM164.743 206.349C165.252 206.553 165.861 206.528 166.096 206.293C166.33 206.059 165.914 205.892 165.169 205.923C164.347 205.956 164.179 206.124 164.743 206.349ZM159.326 210.576C160.339 211.797 166.289 211.845 166.283 210.633C166.28 210.042 165.002 209.732 162.413 209.694C159.272 209.648 158.692 209.813 159.326 210.576ZM216.915 209.843C216.643 210.116 216.42 210.921 216.42 211.633C216.42 212.553 216.946 212.928 218.234 212.928C219.709 212.928 220.006 212.633 219.823 211.346C219.599 209.781 217.871 208.887 216.915 209.843ZM107.025 211.423C106.215 212.936 106.669 213.634 108.464 213.634C110.161 213.634 110.815 212.385 109.774 211.131C108.633 209.756 107.874 209.836 107.025 211.423ZM212.009 216.635C211.484 218.064 212.206 219.282 213.578 219.282C214.952 219.282 215.697 218.064 215.197 216.635C215.029 216.15 214.315 215.752 213.612 215.752C212.909 215.752 212.188 216.15 212.009 216.635ZM111.469 217.512C111.225 218.15 111.363 219.01 111.777 219.424C112.853 220.5 114.891 219.516 114.61 218.057C114.297 216.432 112.035 216.039 111.469 217.512ZM116.905 222.73C116.03 224.364 117.472 225.9 119.242 225.221C120.809 224.62 120.689 223.022 119.009 222.122C117.902 221.53 117.483 221.651 116.905 222.73ZM206.791 222.455C206.547 223.093 206.685 223.953 207.099 224.366C208.175 225.442 210.213 224.459 209.932 223C209.619 221.375 207.357 220.982 206.791 222.455ZM160.815 223.986C159.536 224.503 159.732 227.573 161.092 228.335C163.724 229.807 166.244 227.489 164.847 224.88C164.146 223.568 162.665 223.24 160.815 223.986ZM201.564 226.73C200.449 228.073 201.272 230.038 202.825 229.742C204.377 229.447 204.855 226.663 203.446 226.122C202.871 225.901 202.024 226.175 201.564 226.73ZM123.392 226.85C122.907 227.025 122.51 227.742 122.51 228.445C122.51 229.818 123.728 230.563 125.157 230.064C125.643 229.895 126.04 229.345 126.04 228.842C126.04 227.621 124.491 226.456 123.392 226.85ZM129.121 231.634C128.877 232.272 129.015 233.132 129.429 233.545C130.505 234.622 132.543 233.638 132.262 232.179C131.949 230.554 129.687 230.161 129.121 231.634ZM194.531 231.95C194.531 233.614 195.431 234.262 196.939 233.684C198.823 232.961 198.33 230.58 196.296 230.58C195.019 230.58 194.531 230.959 194.531 231.95ZM188.215 234.742C187.233 236.579 189.063 238.249 190.632 236.947C191.408 236.303 191.492 235.736 190.961 234.742C190.567 234.007 189.949 233.404 189.588 233.404C189.227 233.404 188.609 234.007 188.215 234.742ZM135.987 235.095C135.355 235.857 135.439 236.347 136.355 237.263C137.415 238.324 137.652 238.335 138.613 237.374C139.497 236.49 139.526 236.105 138.779 235.205C137.657 233.853 137.038 233.829 135.987 235.095ZM181.292 236.7C180.806 236.894 180.409 237.661 180.409 238.406C180.409 239.388 180.906 239.759 182.224 239.759C183.684 239.759 183.994 239.46 183.812 238.225C183.574 236.609 182.756 236.114 181.292 236.7ZM143.223 238.041C142.99 238.65 143.105 239.455 143.48 239.83C144.494 240.844 146.517 239.806 146.517 238.271C146.517 236.616 143.842 236.43 143.223 238.041ZM150.487 239.435C149.89 240.988 150.534 241.877 152.256 241.877C153.323 241.877 153.62 241.484 153.45 240.296C153.18 238.402 151.113 237.802 150.487 239.435ZM173.605 239.401C173.361 240.039 173.499 240.899 173.913 241.312C174.989 242.389 177.027 241.405 176.746 239.946C176.433 238.321 174.171 237.928 173.605 239.401ZM158.534 240.096C157.493 241.349 158.171 242.583 159.898 242.583C161.729 242.583 162.277 240.636 160.686 239.785C159.73 239.273 159.146 239.357 158.534 240.096ZM166.464 239.524C165.979 239.718 165.581 240.508 165.581 241.279C165.581 242.33 165.98 242.625 167.17 242.456C168.187 242.312 168.758 241.743 168.758 240.877C168.758 239.441 167.915 238.944 166.464 239.524ZM79.438 257.411C79.438 257.8 80.3912 258.117 81.5563 258.117C82.7213 258.117 83.6745 257.8 83.6745 257.411C83.6745 257.023 82.7213 256.705 81.5563 256.705C80.3912 256.705 79.438 257.023 79.438 257.411Z" fill="black" stroke="black" stroke-width="6" mask="url(#path-1-inside-1_939_6)"/>
</svg>
