<svg width="281" height="281" viewBox="0 0 281 281" fill="none" xmlns="http://www.w3.org/2000/svg">
<path d="M169.492 4.91008e-06L140.144 29.1248L110.795 0L110.795 58.2496L140.144 87.3744L169.492 58.2496C169.374 57.6671 169.443 19.1738 169.492 4.91008e-06Z" fill="url(#paint0_linear_1301_2)"/>
<path d="M169.378 280.591L140.03 251.467L110.682 280.591L110.682 222.342L140.03 193.217L169.378 222.342C169.261 222.924 169.329 261.418 169.378 280.591Z" fill="url(#paint1_linear_1301_2)"/>
<path d="M2.3933e-06 109.952L29.3481 139.077L0 168.202H58.6962L88.0444 139.077L58.6962 109.952C58.1093 110.069 19.3208 110.001 2.3933e-06 109.952Z" fill="url(#paint2_linear_1301_2)"/>
<path d="M280.591 109.952L251.243 139.077L280.591 168.202H221.895L192.547 139.077L221.895 109.952C222.482 110.069 261.271 110.001 280.591 109.952Z" fill="url(#paint3_linear_1301_2)"/>
<path d="M264.038 58.2687L222.534 58.2687V17.08L181.029 58.2687L181.029 99.4574L222.534 99.4574C222.866 98.9632 250.342 71.7924 264.038 58.2687Z" fill="url(#paint4_linear_1301_2)"/>
<path d="M17.2101 221.908H58.7147L58.7146 263.096L100.219 221.908L100.219 180.719H58.7147C58.3826 181.213 30.9066 208.384 17.2101 221.908Z" fill="url(#paint5_linear_1301_2)"/>
<path d="M16.135 58.2687H57.6395L57.6395 17.08L99.144 58.2687L99.144 99.4574H57.6395C57.3075 98.9632 29.8315 71.7924 16.135 58.2687Z" fill="url(#paint6_linear_1301_2)"/>
<path d="M264.038 221.908H222.534V263.096L181.029 221.908V180.719H222.534C222.866 181.213 250.342 208.384 264.038 221.908Z" fill="url(#paint7_linear_1301_2)"/>
<path d="M151.749 110.313V98.528H163.529V110.313H151.749Z" fill="url(#paint8_linear_1301_2)"/>
<path d="M114.006 110.313V98.528H125.787V110.313H114.006Z" fill="url(#paint9_linear_1301_2)"/>
<path d="M114.592 134.42H126.372V146.205H114.592V134.42Z" fill="url(#paint10_linear_1301_2)"/>
<path d="M97.4566 115.896H109.237V127.682H97.4566V115.896Z" fill="url(#paint11_linear_1301_2)"/>
<path d="M97.4566 150.7H109.237V162.485H97.4566V150.7Z" fill="url(#paint12_linear_1301_2)"/>
<path d="M151.005 134.42H162.785V146.205H151.005V134.42Z" fill="url(#paint13_linear_1301_2)"/>
<path d="M132.664 115.896H144.445V127.682H132.664V115.896Z" fill="url(#paint14_linear_1301_2)"/>
<path d="M132.664 134.42H144.445V146.205H132.664V134.42Z" fill="url(#paint15_linear_1301_2)"/>
<path d="M132.664 152.324H144.445V164.109H132.664V152.324Z" fill="url(#paint16_linear_1301_2)"/>
<path d="M168.14 150.7H179.92V162.485H168.14V150.7Z" fill="url(#paint17_linear_1301_2)"/>
<path d="M151.005 180.992V169.207H162.785V180.992H151.005Z" fill="url(#paint18_linear_1301_2)"/>
<path d="M168.14 115.896H179.92V127.682H168.14V115.896Z" fill="url(#paint19_linear_1301_2)"/>
<path d="M114.006 180.992V169.207H125.787V180.992H114.006Z" fill="url(#paint20_linear_1301_2)"/>
<defs>
<linearGradient id="paint0_linear_1301_2" x1="280.591" y1="140.296" x2="0" y2="140.296" gradientUnits="userSpaceOnUse">
<stop stop-color="#012559"/>
<stop offset="1" stop-color="#056BFF"/>
</linearGradient>
<linearGradient id="paint1_linear_1301_2" x1="280.591" y1="140.296" x2="0" y2="140.296" gradientUnits="userSpaceOnUse">
<stop stop-color="#012559"/>
<stop offset="1" stop-color="#056BFF"/>
</linearGradient>
<linearGradient id="paint2_linear_1301_2" x1="280.591" y1="140.296" x2="0" y2="140.296" gradientUnits="userSpaceOnUse">
<stop stop-color="#012559"/>
<stop offset="1" stop-color="#056BFF"/>
</linearGradient>
<linearGradient id="paint3_linear_1301_2" x1="280.591" y1="140.296" x2="0" y2="140.296" gradientUnits="userSpaceOnUse">
<stop stop-color="#012559"/>
<stop offset="1" stop-color="#056BFF"/>
</linearGradient>
<linearGradient id="paint4_linear_1301_2" x1="280.591" y1="140.296" x2="0" y2="140.296" gradientUnits="userSpaceOnUse">
<stop stop-color="#012559"/>
<stop offset="1" stop-color="#056BFF"/>
</linearGradient>
<linearGradient id="paint5_linear_1301_2" x1="280.591" y1="140.296" x2="0" y2="140.296" gradientUnits="userSpaceOnUse">
<stop stop-color="#012559"/>
<stop offset="1" stop-color="#056BFF"/>
</linearGradient>
<linearGradient id="paint6_linear_1301_2" x1="280.591" y1="140.296" x2="0" y2="140.296" gradientUnits="userSpaceOnUse">
<stop stop-color="#012559"/>
<stop offset="1" stop-color="#056BFF"/>
</linearGradient>
<linearGradient id="paint7_linear_1301_2" x1="280.591" y1="140.296" x2="0" y2="140.296" gradientUnits="userSpaceOnUse">
<stop stop-color="#012559"/>
<stop offset="1" stop-color="#056BFF"/>
</linearGradient>
<linearGradient id="paint8_linear_1301_2" x1="280.591" y1="140.296" x2="0" y2="140.296" gradientUnits="userSpaceOnUse">
<stop stop-color="#012559"/>
<stop offset="1" stop-color="#056BFF"/>
</linearGradient>
<linearGradient id="paint9_linear_1301_2" x1="280.591" y1="140.296" x2="0" y2="140.296" gradientUnits="userSpaceOnUse">
<stop stop-color="#012559"/>
<stop offset="1" stop-color="#056BFF"/>
</linearGradient>
<linearGradient id="paint10_linear_1301_2" x1="280.591" y1="140.296" x2="0" y2="140.296" gradientUnits="userSpaceOnUse">
<stop stop-color="#012559"/>
<stop offset="1" stop-color="#056BFF"/>
</linearGradient>
<linearGradient id="paint11_linear_1301_2" x1="280.591" y1="140.296" x2="0" y2="140.296" gradientUnits="userSpaceOnUse">
<stop stop-color="#012559"/>
<stop offset="1" stop-color="#056BFF"/>
</linearGradient>
<linearGradient id="paint12_linear_1301_2" x1="280.591" y1="140.296" x2="0" y2="140.296" gradientUnits="userSpaceOnUse">
<stop stop-color="#012559"/>
<stop offset="1" stop-color="#056BFF"/>
</linearGradient>
<linearGradient id="paint13_linear_1301_2" x1="280.591" y1="140.296" x2="0" y2="140.296" gradientUnits="userSpaceOnUse">
<stop stop-color="#012559"/>
<stop offset="1" stop-color="#056BFF"/>
</linearGradient>
<linearGradient id="paint14_linear_1301_2" x1="280.591" y1="140.296" x2="0" y2="140.296" gradientUnits="userSpaceOnUse">
<stop stop-color="#012559"/>
<stop offset="1" stop-color="#056BFF"/>
</linearGradient>
<linearGradient id="paint15_linear_1301_2" x1="280.591" y1="140.296" x2="0" y2="140.296" gradientUnits="userSpaceOnUse">
<stop stop-color="#012559"/>
<stop offset="1" stop-color="#056BFF"/>
</linearGradient>
<linearGradient id="paint16_linear_1301_2" x1="280.591" y1="140.296" x2="0" y2="140.296" gradientUnits="userSpaceOnUse">
<stop stop-color="#012559"/>
<stop offset="1" stop-color="#056BFF"/>
</linearGradient>
<linearGradient id="paint17_linear_1301_2" x1="280.591" y1="140.296" x2="0" y2="140.296" gradientUnits="userSpaceOnUse">
<stop stop-color="#012559"/>
<stop offset="1" stop-color="#056BFF"/>
</linearGradient>
<linearGradient id="paint18_linear_1301_2" x1="280.591" y1="140.296" x2="0" y2="140.296" gradientUnits="userSpaceOnUse">
<stop stop-color="#012559"/>
<stop offset="1" stop-color="#056BFF"/>
</linearGradient>
<linearGradient id="paint19_linear_1301_2" x1="280.591" y1="140.296" x2="0" y2="140.296" gradientUnits="userSpaceOnUse">
<stop stop-color="#012559"/>
<stop offset="1" stop-color="#056BFF"/>
</linearGradient>
<linearGradient id="paint20_linear_1301_2" x1="280.591" y1="140.296" x2="0" y2="140.296" gradientUnits="userSpaceOnUse">
<stop stop-color="#012559"/>
<stop offset="1" stop-color="#056BFF"/>
</linearGradient>
</defs>
</svg>
