<svg width="322" height="376" viewBox="0 0 322 376" fill="none" xmlns="http://www.w3.org/2000/svg">
<path d="M184.911 20.1708C184.761 8.04337 184.911 1.2107 185.34 0.669961C186.537 -0.842187 187.941 0.168486 190.078 4.07857C191.237 6.20227 192.195 8.26417 192.205 8.66007C192.216 9.05662 193.893 12.388 195.933 16.0631C198.963 21.5233 200.186 23.0992 202.614 24.677C205.528 26.5696 205.586 26.6726 205.495 29.8269C205.321 35.909 207.941 39.0859 213.246 39.2255C216.981 39.3234 218.229 39.8886 221.485 42.9541C224.425 45.7228 224.478 45.8419 224.053 48.7478C223.814 50.379 223.366 51.9768 223.057 52.298C221.938 53.4599 224.982 56.5164 228.021 57.2825C229.823 57.737 231.899 58.9311 233.44 60.3995C235.64 62.4949 235.94 63.1367 235.94 65.7515C235.94 67.3854 235.578 69.0198 235.136 69.3835C232.295 71.7197 227.884 74.7285 226.565 75.2306C225.343 75.6961 225.011 76.2889 225.011 78.0045C225.011 79.2122 224.437 80.9181 223.725 81.8238C222.126 83.86 222.042 87.3194 223.564 88.4769C224.183 88.9475 225.926 89.3414 227.438 89.3524C229.758 89.3698 230.277 89.1322 230.774 87.8248C231.4 86.1755 238.755 81.9687 239.839 82.6401C240.17 82.8442 240.44 83.6875 240.44 84.5134C240.44 85.6148 240.91 86.1324 242.208 86.4568C243.18 86.6995 244.482 87.3555 245.101 87.9136C246.316 89.0099 246.63 92.2659 245.583 92.9135C245.229 93.1324 244.94 94.2854 244.94 95.4763C244.94 97.2208 244.419 98.0886 242.253 99.9445C240.775 101.211 239.043 102.248 238.404 102.248C237.074 102.248 233.755 107.087 234.231 108.331C234.651 109.428 239.21 110.53 240.783 109.914C243.002 109.046 250.676 109.268 252.526 110.255C253.481 110.764 255.666 112.631 257.382 114.405L260.501 117.629L260.596 122.955C260.682 127.805 260.568 128.342 259.313 128.969C257.126 130.061 255.968 131.206 254.918 133.314C253.553 136.055 253.66 136.358 256.03 136.43C259.306 136.531 261.308 137.289 261.544 138.517C261.826 139.984 260.534 141.516 259.015 141.516C257.686 141.516 255.047 146.17 253.567 151.125C252.989 153.057 251.937 154.664 250.506 155.798C249.307 156.749 248.168 158.132 247.975 158.871C247.522 160.605 250.102 161.742 255.841 162.337C258.123 162.573 261.016 163.301 262.269 163.953C263.522 164.605 266.094 165.535 267.984 166.017C270.796 166.737 271.992 167.524 274.573 170.352C277.408 173.457 277.727 174.111 277.727 176.817C277.727 178.473 278.008 180.807 278.351 182.006C278.694 183.204 278.757 184.574 278.491 185.05C277.934 186.047 273.374 189.007 269.851 190.659C267.578 191.724 267.441 191.957 267.441 194.753C267.441 197.429 267.755 198.052 270.655 201.123C272.423 202.994 273.869 204.787 273.869 205.105C273.869 205.425 273.48 206.979 273.005 208.56C272.436 210.454 272.338 211.966 272.717 212.993C273.832 216.01 272.944 217.291 267.441 220.603C266.91 220.923 265.392 221.649 264.066 222.217C262.382 222.939 261.655 223.655 261.655 224.591C261.655 225.329 260.932 226.881 260.048 228.042C258.959 229.471 258.44 230.974 258.44 232.698C258.44 234.099 258.078 235.608 257.637 236.052C256.993 236.698 257.154 237.106 258.44 238.098C260.114 239.387 261.614 239.617 264.066 238.959C266.091 238.415 265.866 237.261 263.534 236.227C261.241 235.211 260.555 233.933 261.616 232.652C262.856 231.156 267.547 229.25 271.223 228.749C273.126 228.489 275.654 227.703 276.841 227.002C278.812 225.838 279.382 225.792 283.444 226.478C285.889 226.892 291.172 227.249 295.184 227.272C302.85 227.318 305.725 228.148 309.877 231.516C311.475 232.813 311.478 232.838 311.478 244.298V255.78H316.096C318.646 255.78 321.041 256.103 321.446 256.503C321.849 256.9 322.085 258.202 321.971 259.395C321.82 260.976 321.316 261.778 320.116 262.351C319.21 262.784 317.951 263.71 317.32 264.407C316.316 265.519 316.272 265.983 316.963 268.132C317.397 269.481 318.016 270.92 318.339 271.329C318.708 271.796 318.438 273.524 317.613 275.976C316.89 278.123 316.308 280.396 316.32 281.026C316.35 282.723 317.675 284.156 319.674 284.654C320.646 284.896 321.442 285.515 321.442 286.029C321.442 287.311 315.608 287.39 250.726 287.001L197.046 286.68L190.903 283.722C186.389 281.549 184.398 280.899 183.396 281.27C181.793 281.864 180.43 280.596 180.765 278.825C180.908 278.074 181.661 277.601 182.908 277.479C186.189 277.157 186.578 276.877 185.791 275.406C185.405 274.682 184.81 274.263 184.472 274.472C183.424 275.12 181.382 274.128 180.949 272.76C180.69 271.944 180.957 270.994 181.664 270.212C182.58 269.198 182.654 268.694 182.06 267.522C181.1 265.628 181.044 264.282 181.18 246.307C181.235 239.035 181.204 234.999 181.598 232.698L184.51 91.9756C184.51 91.6872 185.529 90.9662 186.776 90.374L189.042 89.297L182.902 85.1887L182.78 76.8393C182.698 71.166 182.904 68.1945 183.423 67.5701C184.906 65.7876 185.313 52.8091 184.911 20.1708Z" fill="url(#paint0_linear_939_34)"/>
<path d="M137.089 20.1708C137.239 8.04337 137.089 1.2107 136.66 0.669961C135.463 -0.842187 134.059 0.168486 131.922 4.07857C130.763 6.20227 129.805 8.26417 129.795 8.66007C129.784 9.05662 128.107 12.388 126.067 16.0631C123.037 21.5233 121.815 23.0992 119.386 24.677C116.472 26.5696 116.414 26.6726 116.505 29.8269C116.679 35.909 114.059 39.0859 108.754 39.2255C105.019 39.3234 103.771 39.8886 100.515 42.9541C97.5748 45.7228 97.5221 45.8419 97.9471 48.7478C98.1856 50.379 98.6337 51.9768 98.9429 52.298C100.062 53.4599 97.0181 56.5164 93.9786 57.2825C92.1772 57.737 90.1014 58.9311 88.5598 60.3995C86.3605 62.4949 86.0603 63.1367 86.0603 65.7515C86.0603 67.3854 86.4216 69.0198 86.8639 69.3835C89.7054 71.7197 94.1155 74.7285 95.4347 75.2306C96.6568 75.6961 96.9892 76.2889 96.9892 78.0045C96.9892 79.2122 97.5633 80.9181 98.2749 81.8238C99.8744 83.86 99.958 87.3194 98.4356 88.4769C97.8172 88.9475 96.0737 89.3414 94.5623 89.3524C92.2422 89.3698 91.7227 89.1322 91.2264 87.8248C90.6003 86.1755 83.2451 81.9687 82.1606 82.6401C81.8301 82.8442 81.5601 83.6875 81.5601 84.5134C81.5601 85.6148 81.0896 86.1324 79.7922 86.4568C78.8202 86.6995 77.5177 87.3555 76.8993 87.9136C75.6842 89.0099 75.3699 92.2659 76.4171 92.9135C76.7707 93.1324 77.06 94.2854 77.06 95.4763C77.06 97.2208 77.5814 98.0886 79.7472 99.9445C81.2252 101.211 82.9571 102.248 83.5961 102.248C84.9256 102.248 88.2454 107.087 87.769 108.331C87.3486 109.428 82.79 110.53 81.2168 109.914C78.9983 109.046 71.3243 109.268 69.4741 110.255C68.5194 110.764 66.3343 112.631 64.6184 114.405L61.4985 117.629L61.404 122.955C61.3179 127.805 61.4323 128.342 62.6872 128.969C64.8736 130.061 66.0321 131.206 67.0819 133.314C68.4474 136.055 68.34 136.358 65.9704 136.43C62.6943 136.531 60.6924 137.289 60.4564 138.517C60.1742 139.984 61.4657 141.516 62.9849 141.516C64.3137 141.516 66.9527 146.17 68.4332 151.125C69.0112 153.057 70.0629 154.664 71.494 155.798C72.6929 156.749 73.8321 158.132 74.025 158.871C74.4782 160.605 71.8984 161.742 66.1594 162.337C63.8772 162.573 60.9842 163.301 59.7306 163.953C58.4777 164.605 55.9062 165.535 54.0161 166.017C51.2042 166.737 50.0078 167.524 47.4266 170.352C44.5922 173.457 44.2733 174.111 44.2733 176.817C44.2733 178.473 43.9924 180.807 43.6491 182.006C43.3058 183.204 43.2428 184.574 43.5089 185.05C44.0663 186.047 48.6262 189.007 52.1485 190.659C54.4224 191.724 54.5593 191.957 54.5593 194.753C54.5593 197.429 54.245 198.052 51.3449 201.123C49.577 202.994 48.1306 204.787 48.1306 205.105C48.1306 205.425 48.5195 206.979 48.9946 208.56C49.5635 210.454 49.6619 211.966 49.2826 212.993C48.1678 216.01 49.0563 217.291 54.5593 220.603C55.0897 220.923 56.6082 221.649 57.9344 222.217C59.6181 222.939 60.3452 223.655 60.3452 224.591C60.3452 225.329 61.0685 226.881 61.9524 228.042C63.0408 229.471 63.5596 230.974 63.5596 232.698C63.5596 234.099 63.9215 235.608 64.3632 236.052C65.0067 236.698 64.846 237.106 63.5596 238.098C61.8862 239.387 60.3857 239.617 57.9344 238.959C55.9094 238.415 56.1337 237.261 58.4661 236.227C60.7592 235.211 61.4452 233.933 60.3844 232.652C59.1443 231.156 54.4526 229.25 50.7773 228.749C48.8744 228.489 46.3459 227.703 45.1592 227.002C43.1881 225.838 42.6179 225.792 38.5555 226.478C36.1107 226.892 30.8275 227.249 26.816 227.272C19.1497 227.318 16.2747 228.148 12.123 231.516C10.5255 232.813 10.5223 232.838 10.5223 244.298V255.78H5.90449C3.35356 255.78 0.958851 256.103 0.553836 256.503C0.150742 256.9 -0.0851811 258.202 0.028611 259.395C0.179688 260.976 0.683688 261.778 1.88394 262.351C2.7904 262.784 4.04851 263.71 4.67981 264.407C5.68399 265.519 5.72834 265.983 5.03725 268.132C4.60267 269.481 3.98358 270.92 3.66086 271.329C3.29249 271.796 3.5625 273.524 4.38731 275.976C5.10991 278.123 5.6917 280.396 5.68013 281.026C5.64991 282.723 4.32495 284.156 2.32561 284.654C1.35358 284.896 0.557696 285.515 0.557696 286.029C0.557696 287.311 6.39181 287.39 71.2741 287.001L124.954 286.68L131.097 283.722C135.611 281.549 137.602 280.899 138.604 281.27C140.207 281.864 141.57 280.596 141.235 278.825C141.092 278.074 140.339 277.601 139.092 277.479C135.811 277.157 135.422 276.877 136.209 275.406C136.595 274.682 137.19 274.263 137.528 274.472C138.576 275.12 140.618 274.128 141.051 272.76C141.31 271.944 141.043 270.994 140.336 270.212C139.42 269.198 139.346 268.694 139.94 267.522C140.9 265.628 140.956 264.282 140.82 246.307C140.765 239.035 140.796 234.999 140.402 232.698L137.49 91.9756C137.49 91.6872 136.471 90.9662 135.224 90.374L132.958 89.297L139.098 85.1887L139.22 76.8393C139.302 71.166 139.096 68.1945 138.577 67.5701C137.094 65.7876 136.687 52.8091 137.089 20.1708Z" fill="url(#paint1_linear_939_34)"/>
<path d="M0 306.939C0 303.306 2.94213 300.362 6.57143 300.362H212.476C216.105 300.362 219.048 303.306 219.048 306.939C219.048 310.571 216.105 313.516 212.476 313.516H6.57142C2.94212 313.516 0 310.571 0 306.939Z" fill="url(#paint2_linear_939_34)"/>
<path d="M55.8571 348.595C55.8571 344.962 58.7993 342.017 62.4286 342.017H202.619C206.248 342.017 209.19 344.962 209.19 348.595C209.19 352.227 206.248 355.172 202.619 355.172H62.4286C58.7993 355.172 55.8571 352.227 55.8571 348.595Z" fill="url(#paint3_linear_939_34)"/>
<path d="M102.952 327.767C102.952 324.134 105.895 321.189 109.524 321.189H315.429C319.058 321.189 322 324.134 322 327.767C322 331.399 319.058 334.344 315.429 334.344H109.524C105.895 334.344 102.952 331.399 102.952 327.767Z" fill="url(#paint4_linear_939_34)"/>
<path d="M128.143 369.423C128.143 365.79 131.085 362.845 134.714 362.845H274.905C278.534 362.845 281.476 365.79 281.476 369.423C281.476 373.055 278.534 376 274.905 376H134.714C131.085 376 128.143 373.055 128.143 369.423Z" fill="url(#paint5_linear_939_34)"/>
<path d="M161.548 185.259L60.2381 287.207H262.857L161.548 185.259Z" fill="url(#paint6_linear_939_34)"/>
<defs>
<linearGradient id="paint0_linear_939_34" x1="45.5281" y1="-7.51656e-06" x2="337.631" y2="325.314" gradientUnits="userSpaceOnUse">
<stop stop-color="#00CD34"/>
<stop offset="0.55" stop-color="#162E3B"/>
<stop offset="1" stop-color="#0FA0EF"/>
</linearGradient>
<linearGradient id="paint1_linear_939_34" x1="45.5281" y1="-7.51656e-06" x2="337.631" y2="325.314" gradientUnits="userSpaceOnUse">
<stop stop-color="#00CD34"/>
<stop offset="0.55" stop-color="#162E3B"/>
<stop offset="1" stop-color="#0FA0EF"/>
</linearGradient>
<linearGradient id="paint2_linear_939_34" x1="45.5281" y1="-7.51656e-06" x2="337.631" y2="325.314" gradientUnits="userSpaceOnUse">
<stop stop-color="#00CD34"/>
<stop offset="0.55" stop-color="#162E3B"/>
<stop offset="1" stop-color="#0FA0EF"/>
</linearGradient>
<linearGradient id="paint3_linear_939_34" x1="45.5281" y1="-7.51656e-06" x2="337.631" y2="325.314" gradientUnits="userSpaceOnUse">
<stop stop-color="#00CD34"/>
<stop offset="0.55" stop-color="#162E3B"/>
<stop offset="1" stop-color="#0FA0EF"/>
</linearGradient>
<linearGradient id="paint4_linear_939_34" x1="45.5281" y1="-7.51656e-06" x2="337.631" y2="325.314" gradientUnits="userSpaceOnUse">
<stop stop-color="#00CD34"/>
<stop offset="0.55" stop-color="#162E3B"/>
<stop offset="1" stop-color="#0FA0EF"/>
</linearGradient>
<linearGradient id="paint5_linear_939_34" x1="45.5281" y1="-7.51656e-06" x2="337.631" y2="325.314" gradientUnits="userSpaceOnUse">
<stop stop-color="#00CD34"/>
<stop offset="0.55" stop-color="#162E3B"/>
<stop offset="1" stop-color="#0FA0EF"/>
</linearGradient>
<linearGradient id="paint6_linear_939_34" x1="45.5281" y1="-7.51656e-06" x2="337.631" y2="325.314" gradientUnits="userSpaceOnUse">
<stop stop-color="#00CD34"/>
<stop offset="0.55" stop-color="#162E3B"/>
<stop offset="1" stop-color="#0FA0EF"/>
</linearGradient>
</defs>
</svg>
