<svg width="297" height="297" viewBox="0 0 297 297" fill="none" xmlns="http://www.w3.org/2000/svg">
<path d="M0 148.5C0 66.4857 66.4857 0 148.5 0C230.514 0 297 66.4857 297 148.5C297 230.514 230.514 297 148.5 297C66.4857 297 0 230.514 0 148.5Z" fill="url(#paint0_linear_63_659)"/>
<rect x="174.709" y="60.0045" width="25.2508" height="25.2405" fill="white"/>
<rect x="94.4211" y="60" width="25.2405" height="174.389" fill="white"/>
<rect x="94.4211" y="136.9" width="25.2405" height="25.2508" fill="white"/>
<rect x="60" y="97.212" width="25.2405" height="25.2508" fill="white"/>
<rect x="60" y="172.435" width="25.2405" height="25.2508" fill="white"/>
<rect x="174.732" y="60" width="25.2405" height="176.684" fill="white"/>
<rect x="135.724" y="60" width="25.2405" height="61.954" fill="white"/>
<rect x="135.724" y="136.9" width="25.2405" height="25.2508" fill="white"/>
<rect x="135.724" y="172.435" width="25.2405" height="64.2486" fill="white"/>
<rect x="211.443" y="172.435" width="25.2405" height="25.2508" fill="white"/>
<rect x="174.725" y="211.438" width="25.2508" height="25.2405" fill="white"/>
<rect x="211.443" y="97.212" width="25.2405" height="25.2508" fill="white"/>
<rect x="94.4211" y="211.438" width="25.2508" height="25.2405" fill="white"/>
<defs>
<linearGradient id="paint0_linear_63_659" x1="198.378" y1="-14.1698" x2="36.2748" y2="285.664" gradientUnits="userSpaceOnUse">
<stop stop-color="#012559"/>
<stop offset="1" stop-color="#056BFF"/>
</linearGradient>
</defs>
</svg>
