<svg width="297" height="297" viewBox="0 0 297 297" fill="none" xmlns="http://www.w3.org/2000/svg">
<path d="M0 148.5C0 66.4857 66.4857 0 148.5 0C230.514 0 297 66.4857 297 148.5C297 230.514 230.514 297 148.5 297C66.4857 297 0 230.514 0 148.5Z" fill="url(#paint0_linear_63_661)"/>
<rect x="177.821" y="58" width="26.0106" height="26" fill="white"/>
<rect x="83.9995" y="58" width="130" height="26" fill="white"/>
<rect x="95.8179" y="138.363" width="26" height="63.8182" fill="white"/>
<rect x="58" y="83.9999" width="26" height="37.8182" fill="white"/>
<rect x="58" y="173.818" width="26" height="40.1818" fill="white"/>
<rect x="176.182" y="138.363" width="26" height="63.8182" fill="white"/>
<rect x="135.705" y="96.3269" width="26" height="26.0106" fill="white"/>
<rect x="130.315" y="150.21" width="26" height="26.0106" transform="rotate(-45 130.315 150.21)" fill="white"/>
<rect x="135.705" y="176.724" width="26" height="26.0106" fill="white"/>
<rect x="214" y="173.818" width="26" height="40.1818" fill="white"/>
<rect x="83.9995" y="214" width="130" height="26" fill="white"/>
<rect x="214" y="83.9999" width="26" height="37.8182" fill="white"/>
<defs>
<linearGradient id="paint0_linear_63_661" x1="198.378" y1="-14.1698" x2="36.2748" y2="285.664" gradientUnits="userSpaceOnUse">
<stop stop-color="#012559"/>
<stop offset="1" stop-color="#056BFF"/>
</linearGradient>
</defs>
</svg>
