<svg width="200" height="200" viewBox="0 0 200 200" fill="none" xmlns="http://www.w3.org/2000/svg">
<circle cx="100" cy="100" r="100" fill="#0601FA"/>
<path fill-rule="evenodd" clip-rule="evenodd" d="M47 119.44C80.1919 137.354 94.345 153.55 115.512 181L136.195 145.36C120.467 130.672 88.8829 99.7408 88.3659 93.52C87.8488 87.2992 90.7358 84.448 92.2439 83.8C92.2439 86.824 94.5707 94.0384 103.878 98.704C113.185 103.37 127.577 104.968 133.61 105.184L136.195 111.664L153 96.112L92.2439 19V42.328C81.0406 46.432 56.3073 58.528 47 74.08C58.8927 81.856 62.2967 87.688 62.5122 89.632V105.184L47 119.44ZM82.5488 101.944L72.8537 96.112L66.3902 99.352L67.6829 107.128L76.0854 111.664L82.5488 109.072V101.944Z" fill="white"/>
<path d="M47.6463 84.448L56.6951 90.928V103.24L47.6463 96.112V84.448Z" fill="white"/>
</svg>
