<svg width="297" height="297" viewBox="0 0 297 297" fill="none" xmlns="http://www.w3.org/2000/svg">
<path d="M0 148.5C0 66.4857 66.4857 0 148.5 0C230.514 0 297 66.4857 297 148.5C297 230.514 230.514 297 148.5 297C66.4857 297 0 230.514 0 148.5Z" fill="url(#paint0_linear_119_116)"/>
<path fill-rule="evenodd" clip-rule="evenodd" d="M82 172.86C123.96 195.308 141.851 215.602 168.61 250L194.756 205.34C174.874 186.935 134.946 148.175 134.293 140.38C133.639 132.585 137.289 129.012 139.195 128.2C139.195 131.989 142.137 141.03 153.902 146.876C165.668 152.722 183.862 154.725 191.488 154.996L194.756 163.116L216 143.628L139.195 47V76.232C125.033 81.3747 93.7659 96.532 82 116.02C97.0341 125.764 101.337 133.072 101.61 135.508V154.996L82 172.86ZM126.939 150.936L114.683 143.628L106.512 147.688L108.146 157.432L118.768 163.116L126.939 159.868V150.936Z" fill="white"/>
<path d="M82.8171 129.012L94.2561 137.132V152.56L82.8171 143.628V129.012Z" fill="white"/>
<defs>
<linearGradient id="paint0_linear_119_116" x1="198.378" y1="-14.1698" x2="36.2748" y2="285.664" gradientUnits="userSpaceOnUse">
<stop stop-color="#012559"/>
<stop offset="1" stop-color="#056BFF"/>
</linearGradient>
</defs>
</svg>
