<svg width="297" height="297" viewBox="0 0 297 297" fill="none" xmlns="http://www.w3.org/2000/svg">
<path d="M0 148.5C0 66.4857 66.4857 0 148.5 0C230.514 0 297 66.4857 297 148.5C297 230.514 230.514 297 148.5 297C66.4857 297 0 230.514 0 148.5Z" fill="url(#paint0_linear_65_843)"/>
<path d="M175.888 84.6442V60.0001L238 60.0001V84.6442L175.888 84.6442Z" fill="white"/>
<path d="M84.305 84.6444L84.305 60.0002L121.911 60V84.6441L84.305 84.6444Z" fill="white"/>
<path d="M59 136.173H84.305V160.827H59V136.173Z" fill="white"/>
<path d="M59 84.6444H84.305V122.731H59V84.6444Z" fill="white"/>
<path d="M59 174.259H84.305V236.99H59V174.259Z" fill="white"/>
<path d="M212.695 136.173H238V160.827H212.695V136.173Z" fill="white"/>
<path d="M137.312 60.0002H162.617V84.6543H137.312V60.0002Z" fill="white"/>
<path d="M137.312 212.346H162.617V237H137.312V212.346Z" fill="white"/>
<path d="M212.695 174.259H238V212.346H212.695V174.259Z" fill="white"/>
<path d="M175.888 236.99V212.346L212.695 212.346L212.695 236.99H175.888Z" fill="white"/>
<path d="M212.695 60.0002L238 60.0001L238 122.731H212.695V60.0002Z" fill="white"/>
<path d="M60.8646 236.99L60.8646 212.346H122.977V236.99H60.8646Z" fill="white"/>
<path d="M155.183 156.336C155.183 162.809 156.492 169.218 159.036 175.198C161.579 181.178 165.307 186.612 170.006 191.188C174.706 195.765 180.285 199.396 186.426 201.873C192.566 204.35 199.147 205.625 205.793 205.625V176.707C203.046 176.707 200.327 176.18 197.789 175.156C195.251 174.132 192.945 172.632 191.003 170.74C189.061 168.849 187.52 166.603 186.469 164.132C185.418 161.66 184.877 159.011 184.877 156.336H155.183Z" fill="white"/>
<path d="M205.793 205.625C205.793 199.152 204.484 192.743 201.941 186.763C199.397 180.783 195.669 175.35 190.97 170.773C186.27 166.196 180.691 162.565 174.551 160.088C168.41 157.611 161.829 156.336 155.183 156.336L155.183 185.255C157.93 185.255 160.65 185.782 163.188 186.805C165.725 187.829 168.031 189.329 169.973 191.221C171.916 193.112 173.456 195.358 174.508 197.83C175.559 200.301 176.1 202.95 176.1 205.625L205.793 205.625Z" fill="white"/>
<path d="M155.183 140.654C155.183 134.181 156.492 127.772 159.036 121.792C161.579 115.812 165.307 110.378 170.006 105.802C174.706 101.225 180.285 97.5942 186.426 95.1173C192.566 92.6403 199.147 91.3654 205.793 91.3654V120.283C203.046 120.283 200.327 120.81 197.789 121.834C195.251 122.858 192.945 124.358 191.003 126.25C189.061 128.141 187.52 130.387 186.469 132.858C185.418 135.33 184.877 137.979 184.877 140.654H155.183Z" fill="white"/>
<path d="M205.793 91.3654C205.793 97.838 204.484 104.247 201.941 110.227C199.397 116.207 195.669 121.64 190.97 126.217C186.27 130.794 180.691 134.425 174.551 136.902C168.41 139.379 161.829 140.654 155.183 140.654L155.183 111.735C157.93 111.735 160.65 111.209 163.188 110.185C165.725 109.161 168.031 107.661 169.973 105.769C171.916 103.878 173.456 101.632 174.508 99.1606C175.559 96.6891 176.1 94.0403 176.1 91.3652L205.793 91.3654Z" fill="white"/>
<path d="M141.381 156.336C141.381 162.809 140.072 169.218 137.528 175.198C134.985 181.178 131.257 186.612 126.557 191.188C121.858 195.765 116.279 199.396 110.138 201.873C103.998 204.35 97.4168 205.625 90.7706 205.625V176.707C93.5174 176.707 96.2373 176.18 98.775 175.156C101.313 174.132 103.619 172.632 105.561 170.74C107.503 168.849 109.044 166.603 110.095 164.132C111.146 161.66 111.687 159.011 111.687 156.336H141.381Z" fill="white"/>
<path d="M90.7706 205.625C90.7706 199.152 92.0794 192.743 94.6228 186.763C97.1662 180.783 100.894 175.35 105.594 170.773C110.293 166.196 115.872 162.565 122.013 160.088C128.153 157.611 134.735 156.336 141.381 156.336L141.38 185.255C138.634 185.255 135.914 185.782 133.376 186.805C130.838 187.829 128.532 189.329 126.59 191.221C124.648 193.112 123.107 195.358 122.056 197.83C121.005 200.301 120.464 202.95 120.464 205.625L90.7706 205.625Z" fill="white"/>
<path d="M141.381 140.654C141.381 134.181 140.072 127.772 137.528 121.792C134.985 115.812 131.257 110.378 126.557 105.802C121.858 101.225 116.279 97.5942 110.138 95.1173C103.998 92.6403 97.4168 91.3654 90.7706 91.3654V120.283C93.5174 120.283 96.2373 120.81 98.775 121.834C101.313 122.858 103.619 124.358 105.561 126.25C107.503 128.141 109.044 130.387 110.095 132.858C111.146 135.33 111.687 137.979 111.687 140.654H141.381Z" fill="white"/>
<path d="M90.7706 91.3654C90.7706 97.838 92.0794 104.247 94.6228 110.227C97.1662 116.207 100.894 121.64 105.594 126.217C110.293 130.794 115.872 134.425 122.013 136.902C128.153 139.379 134.735 140.654 141.381 140.654L141.38 111.735C138.634 111.735 135.914 111.209 133.376 110.185C130.838 109.161 128.532 107.661 126.59 105.769C124.648 103.878 123.107 101.632 122.056 99.1606C121.005 96.6891 120.464 94.0403 120.464 91.3652L90.7706 91.3654Z" fill="white"/>
<defs>
<linearGradient id="paint0_linear_65_843" x1="198.378" y1="-14.1698" x2="36.2748" y2="285.664" gradientUnits="userSpaceOnUse">
<stop stop-color="#012559"/>
<stop offset="1" stop-color="#056BFF"/>
</linearGradient>
</defs>
</svg>
