<svg width="297" height="297" viewBox="0 0 297 297" fill="none" xmlns="http://www.w3.org/2000/svg">
<path d="M0 148.5C0 66.4857 66.4857 0 148.5 0C230.514 0 297 66.4857 297 148.5C297 230.514 230.514 297 148.5 297C66.4857 297 0 230.514 0 148.5Z" fill="url(#paint0_linear_63_662)"/>
<rect x="87.2363" y="134.69" width="122.518" height="30.1981" fill="white"/>
<rect x="126.739" y="58.2756" width="30.0883" height="30.0761" transform="rotate(-45 126.739 58.2756)" fill="white"/>
<rect x="86.9814" y="134.861" width="30.0761" height="30.0884" fill="white"/>
<rect x="58.2759" y="129.327" width="30.0761" height="30.0884" transform="rotate(45 58.2759 129.327)" fill="white"/>
<rect x="179.944" y="134.861" width="30.0761" height="30.0884" fill="white"/>
<rect x="133.121" y="87.5698" width="30.0761" height="30.0884" fill="white"/>
<rect x="133.121" y="134.861" width="30.0761" height="30.0884" fill="white"/>
<rect x="133.121" y="180.571" width="30.0761" height="30.0884" fill="white"/>
<rect x="217.457" y="149.731" width="30.0761" height="30.0884" transform="rotate(-45 217.457 149.731)" fill="white"/>
<rect x="126.926" y="238.723" width="30.0883" height="30.0761" transform="rotate(-45 126.926 238.723)" fill="white"/>
<path d="M76.0199 220.971C76.0199 214.286 77.3589 207.667 79.9605 201.49C82.5621 195.314 86.3753 189.703 91.1824 184.976C95.9895 180.249 101.696 176.499 107.977 173.941C114.258 171.382 120.99 170.066 127.788 170.066L127.788 199.933C124.978 199.933 122.196 200.477 119.601 201.534C117.005 202.591 114.646 204.141 112.659 206.095C110.673 208.048 109.097 210.367 108.022 212.92C106.946 215.473 106.393 218.208 106.393 220.971H76.0199Z" fill="white"/>
<path d="M127.789 170.066C127.789 176.751 126.45 183.37 123.848 189.546C121.247 195.723 117.433 201.334 112.626 206.061C107.819 210.788 102.112 214.538 95.8314 217.096C89.5505 219.654 82.8188 220.971 76.0205 220.971L76.0205 191.104C78.8302 191.104 81.6123 190.56 84.2081 189.503C86.8039 188.446 89.1625 186.896 91.1492 184.942C93.1359 182.989 94.7119 180.669 95.7871 178.117C96.8623 175.564 97.4157 172.829 97.4157 170.066H127.789Z" fill="white"/>
<path d="M76.0189 76.8822C76.0189 83.5672 77.3579 90.1867 79.9595 96.3628C82.5611 102.539 86.3743 108.151 91.1814 112.878C95.9886 117.605 101.695 121.354 107.976 123.913C114.257 126.471 120.989 127.788 127.787 127.788L127.787 97.9208C124.977 97.9208 122.195 97.3766 119.6 96.3193C117.004 95.262 114.645 93.7123 112.658 91.7587C110.672 89.8051 109.096 87.4858 108.021 84.9333C106.945 82.3808 106.392 79.645 106.392 76.8822H76.0189Z" fill="white"/>
<path d="M127.789 127.789C127.789 121.104 126.45 114.484 123.848 108.308C121.247 102.132 117.433 96.52 112.626 91.793C107.819 87.066 102.112 83.3164 95.8314 80.7581C89.5505 78.1999 82.8188 76.8832 76.0205 76.8832L76.0205 106.75C78.8302 106.75 81.6123 107.294 84.2081 108.351C86.8039 109.409 89.1625 110.958 91.1492 112.912C93.1359 114.866 94.7119 117.185 95.7871 119.737C96.8623 122.29 97.4157 125.026 97.4157 127.789H127.789Z" fill="white"/>
<path d="M220.109 220.971C220.109 214.286 218.77 207.666 216.168 201.49C213.567 195.314 209.754 189.702 204.946 184.975C200.139 180.248 194.432 176.498 188.152 173.94C181.871 171.382 175.139 170.065 168.341 170.065L168.341 199.932C171.15 199.932 173.933 200.476 176.528 201.533C179.124 202.591 181.483 204.14 183.469 206.094C185.456 208.048 187.032 210.367 188.107 212.919C189.183 215.472 189.736 218.208 189.736 220.971H220.109Z" fill="white"/>
<path d="M168.34 170.066C168.34 176.751 169.679 183.37 172.28 189.546C174.882 195.722 178.695 201.334 183.502 206.061C188.309 210.788 194.016 214.538 200.297 217.096C206.578 219.654 213.31 220.971 220.108 220.971L220.108 191.104C217.298 191.104 214.516 190.56 211.92 189.503C209.325 188.445 206.966 186.896 204.979 184.942C202.993 182.988 201.417 180.669 200.341 178.117C199.266 175.564 198.713 172.828 198.713 170.066H168.34Z" fill="white"/>
<path d="M220.109 76.8823C220.109 83.5673 218.77 90.1868 216.168 96.363C213.567 102.539 209.754 108.151 204.946 112.878C200.139 117.605 194.432 121.355 188.152 123.913C181.871 126.471 175.139 127.788 168.341 127.788L168.341 97.9209C171.15 97.9209 173.933 97.3767 176.528 96.3194C179.124 95.2621 181.483 93.7124 183.469 91.7588C185.456 89.8052 187.032 87.4859 188.107 84.9334C189.183 82.3809 189.736 79.6451 189.736 76.8823H220.109Z" fill="white"/>
<path d="M168.34 127.789C168.34 121.104 169.679 114.484 172.28 108.308C174.882 102.132 178.695 96.52 183.502 91.793C188.309 87.066 194.016 83.3164 200.297 80.7581C206.578 78.1999 213.31 76.8832 220.108 76.8832L220.108 106.75C217.298 106.75 214.516 107.294 211.92 108.351C209.325 109.409 206.966 110.958 204.979 112.912C202.993 114.866 201.417 117.185 200.341 119.737C199.266 122.29 198.713 125.026 198.713 127.789H168.34Z" fill="white"/>
<defs>
<linearGradient id="paint0_linear_63_662" x1="198.378" y1="-14.1698" x2="36.2748" y2="285.664" gradientUnits="userSpaceOnUse">
<stop stop-color="#012559"/>
<stop offset="1" stop-color="#056BFF"/>
</linearGradient>
</defs>
</svg>
