<svg width="297" height="297" viewBox="0 0 297 297" fill="none" xmlns="http://www.w3.org/2000/svg">
<path d="M0 148.5C0 66.4857 66.4857 0 148.5 0C230.514 0 297 66.4857 297 148.5C297 230.514 230.514 297 148.5 297C66.4857 297 0 230.514 0 148.5Z" fill="url(#paint0_linear_119_113)"/>
<path fill-rule="evenodd" clip-rule="evenodd" d="M148.5 93.0526L115.624 126.021L148.5 158.989L181.376 126.021L148.5 93.0526ZM150.579 116.124L148.364 106.709L146.148 116.124C145.478 118.971 143.26 121.197 140.42 121.868L131.031 124.09L140.42 126.311C143.26 126.983 145.478 129.208 146.148 132.056L148.364 141.471L150.579 132.056C151.25 129.208 153.467 126.983 156.307 126.311L165.697 124.09L156.307 121.868C153.467 121.197 151.25 118.971 150.579 116.124Z" fill="white"/>
<path fill-rule="evenodd" clip-rule="evenodd" d="M138.461 202.735C139.695 206.202 142.463 214.317 143.92 219.763L148.494 235.428L153.069 219.763C154.525 214.317 157.294 206.202 158.527 202.735C159.028 198.301 161.382 193.298 164.661 188.232C167.974 183.112 172.284 177.847 176.748 172.922C184.321 164.568 192.391 157.134 196.881 152.999C197.401 152.52 197.878 152.081 198.295 151.694C197.317 150.681 196.403 149.723 195.546 148.825C193.786 146.981 192.249 145.371 190.811 143.958C188.714 141.898 186.879 140.311 184.961 139.099L184.482 139.367C179.852 141.964 172.757 145.942 166.019 150.104C162.403 152.337 158.901 154.617 155.945 156.758C152.975 158.909 150.608 160.884 149.22 162.506L148.494 163.355L147.769 162.506C146.381 160.884 144.014 158.909 141.044 156.758C138.088 154.617 134.585 152.337 130.969 150.104C124.232 145.942 117.137 141.964 112.506 139.367L112.102 139.14C108.028 142.425 103.003 147.117 98.6843 151.686C99.1053 152.076 99.5819 152.515 100.108 152.999C104.597 157.134 112.668 164.567 120.241 172.922C124.705 177.847 129.015 183.112 132.328 188.232C135.606 193.298 137.961 198.301 138.461 202.735ZM148.494 167.576C153.4 173.938 160.269 186.664 148.494 186.664C136.719 186.664 143.588 173.938 148.494 167.576Z" fill="white"/>
<path d="M159.103 206.694C157.745 210.671 155.941 216.181 154.869 220.193C154.565 221.329 154.744 222.823 155.348 224.581C155.946 226.321 156.927 228.225 158.102 230.129C160.15 233.449 162.741 236.693 164.762 238.957L171.115 228.56C168.977 225.661 165.95 221.168 163.404 216.54C162.062 214.102 160.845 211.612 159.962 209.288C159.626 208.404 159.335 207.534 159.103 206.694Z" fill="white"/>
<path d="M137.885 206.694C137.654 207.534 137.362 208.404 137.026 209.288C136.143 211.612 134.927 214.102 133.585 216.54C131.038 221.168 128.012 225.661 125.874 228.56L132.226 238.957C134.248 236.693 136.838 233.449 138.887 230.129C140.062 228.225 141.043 226.321 141.641 224.581C142.245 222.823 142.423 221.329 142.12 220.193C141.048 216.181 139.244 210.671 137.885 206.694Z" fill="white"/>
<path fill-rule="evenodd" clip-rule="evenodd" d="M111.405 137.413L111.913 137.011L113.466 137.881C118.093 140.476 125.221 144.473 131.994 148.656C135.63 150.902 139.175 153.208 142.182 155.386C144.742 157.241 146.951 159.029 148.494 160.628C150.038 159.029 152.246 157.241 154.807 155.386C157.814 153.208 161.358 150.902 164.995 148.656C171.768 144.473 178.895 140.476 183.523 137.881L184.996 137.055L185.481 137.343C187.765 138.7 189.849 140.495 192.157 142.762C193.614 144.194 195.185 145.84 196.962 147.702C197.989 148.777 199.084 149.924 200.266 151.144L200.859 151.756L200.235 152.339C200.038 152.524 199.823 152.723 199.593 152.936C199.171 153.327 198.696 153.765 198.174 154.246C193.677 158.387 185.678 165.756 178.165 174.044C173.735 178.931 169.493 184.118 166.25 189.13C163.008 194.14 160.816 198.897 160.37 202.961C160.378 204.515 160.869 206.488 161.713 208.707C162.096 209.715 162.546 210.761 163.047 211.827C163.337 212.443 163.644 213.067 163.964 213.692C164.314 214.376 164.679 215.062 165.056 215.747C167.694 220.54 170.863 225.199 172.973 228.018L173.31 228.468L165.074 241.949L164.215 241.031C162.057 238.724 158.917 234.924 156.492 230.996C155.28 229.032 154.232 227.011 153.579 225.111C153.552 225.033 153.526 224.955 153.501 224.878L148.494 242.021L143.488 224.878C143.462 224.955 143.436 225.033 143.409 225.111C142.757 227.011 141.708 229.032 140.496 230.996C138.072 234.924 134.932 238.724 132.774 241.031L131.915 241.949L123.679 228.468L124.016 228.018C126.125 225.199 129.295 220.54 131.933 215.747C132.311 215.059 132.678 214.37 133.028 213.685C133.219 213.312 133.405 212.941 133.585 212.571C134.229 211.248 134.804 209.948 135.276 208.707C136.119 206.488 136.61 204.515 136.619 202.961C136.172 198.897 133.98 194.14 130.738 189.13C127.495 184.118 123.253 178.931 118.823 174.044C111.311 165.756 103.311 158.387 98.8147 154.246C98.3008 153.772 97.8318 153.34 97.4155 152.955C97.1777 152.734 96.9568 152.529 96.7538 152.339L96.1412 151.766L96.711 151.156C101.379 146.155 106.985 140.917 111.405 137.413ZM137.026 209.288C137.362 208.404 137.654 207.534 137.885 206.694C139.244 210.671 141.048 216.181 142.12 220.193C142.423 221.329 142.245 222.823 141.641 224.581C141.043 226.321 140.062 228.225 138.887 230.129C136.838 233.449 134.248 236.693 132.226 238.957L125.874 228.56C128.012 225.661 131.038 221.168 133.585 216.54C134.927 214.102 136.143 211.612 137.026 209.288ZM143.92 219.763C142.463 214.317 139.695 206.202 138.461 202.735C137.961 198.301 135.606 193.298 132.328 188.232C129.015 183.112 124.705 177.847 120.241 172.922C112.668 164.567 104.597 157.134 100.108 152.999C99.5819 152.515 99.1053 152.076 98.6843 151.686C103.003 147.117 108.028 142.425 112.102 139.14L112.506 139.367C117.137 141.964 124.232 145.942 130.969 150.104C134.585 152.337 138.088 154.617 141.044 156.758C144.014 158.909 146.381 160.884 147.769 162.506L148.494 163.355L149.22 162.506C150.608 160.884 152.975 158.909 155.945 156.758C158.901 154.617 162.403 152.337 166.019 150.104C172.757 145.942 179.852 141.964 184.482 139.367L184.961 139.099C186.879 140.311 188.714 141.898 190.811 143.958C192.249 145.371 193.786 146.981 195.546 148.825C196.403 149.723 197.317 150.681 198.295 151.694C197.878 152.081 197.401 152.52 196.881 152.999C192.391 157.134 184.321 164.568 176.748 172.922C172.284 177.847 167.974 183.112 164.661 188.232C161.382 193.298 159.028 198.301 158.527 202.735C157.294 206.202 154.525 214.317 153.069 219.763L148.494 235.428L143.92 219.763ZM154.869 220.193C155.941 216.181 157.745 210.671 159.103 206.694C159.335 207.534 159.626 208.404 159.962 209.288C160.845 211.612 162.062 214.102 163.404 216.54C165.95 221.168 168.977 225.661 171.115 228.56L164.762 238.957C162.741 236.693 160.15 233.449 158.102 230.129C156.927 228.225 155.946 226.321 155.348 224.581C154.744 222.823 154.565 221.329 154.869 220.193Z" fill="white" fill-opacity="0.6"/>
<path d="M140.496 230.996C138.072 234.924 134.932 238.724 132.774 241.031L148.494 261.558L164.215 241.031C162.057 238.724 158.917 234.924 156.492 230.996C155.28 229.032 154.232 227.011 153.579 225.111C153.552 225.033 153.526 224.955 153.501 224.878L148.494 242.021L143.488 224.878C143.462 224.955 143.436 225.033 143.409 225.111C142.757 227.011 141.708 229.032 140.496 230.996Z" fill="white"/>
<path d="M132.774 241.031L131.915 241.949L148.494 264L165.074 241.949L164.215 241.031L148.494 261.558L132.774 241.031Z" fill="white" fill-opacity="0.6"/>
<path d="M141.194 84.9393L147.715 78.4L154.236 84.9393L147.715 91.4786L141.194 84.9393Z" fill="white"/>
<path d="M161.894 84.9393L168.415 78.4L174.936 84.9393L168.415 121.137L161.894 84.9393Z" fill="white"/>
<path d="M120.494 84.9393L127.015 78.4L133.536 84.9393L127.015 128.463L120.494 84.9393Z" fill="white"/>
<path fill-rule="evenodd" clip-rule="evenodd" d="M148.5 32L45 135.789L129.305 220.33C130.509 218.607 132.319 215.212 133.074 213.731L133.028 213.685L83.5588 164.077L55.35 135.789L148.5 42.3789L241.65 135.789L214.05 163.467L163.964 213.692L163.943 213.714C164.765 215.535 166.689 219.386 167.805 220.22L252 135.789L148.5 32Z" fill="white"/>
<path d="M83.5588 164.077L133.028 213.685C133.219 213.312 133.405 212.941 133.585 212.571L85.8419 164.54L84.4831 163.173L83.5588 164.077Z" fill="white" fill-opacity="0.6"/>
<path d="M163.964 213.692L214.05 163.467L212.597 162.176L210.964 163.812L163.047 211.827C163.337 212.443 163.644 213.067 163.964 213.692Z" fill="white" fill-opacity="0.6"/>
<path fill-rule="evenodd" clip-rule="evenodd" d="M161.713 208.707C160.869 206.488 160.378 204.515 160.37 202.961C160.816 198.897 163.008 194.14 166.25 189.13C169.493 184.118 173.735 178.931 178.165 174.044C185.678 165.756 193.677 158.387 198.174 154.246L199.593 152.936L210.964 163.812L163.047 211.827C162.546 210.761 162.096 209.715 161.713 208.707Z" fill="white"/>
<path d="M200.859 151.756L200.235 152.339L199.593 152.936L210.964 163.812L212.597 162.176L200.859 151.756Z" fill="white" fill-opacity="0.6"/>
<path fill-rule="evenodd" clip-rule="evenodd" d="M97.4155 152.955L85.8419 164.54L133.585 212.571C134.229 211.248 134.804 209.948 135.276 208.707C136.119 206.488 136.61 204.515 136.619 202.961C136.172 198.897 133.98 194.14 130.738 189.13C127.495 184.118 123.253 178.931 118.823 174.044C111.311 165.756 103.311 158.387 98.8147 154.246C98.3008 153.772 97.8318 153.34 97.4155 152.955Z" fill="white"/>
<path d="M96.7538 152.339L96.1412 151.766L84.4831 163.173L85.8419 164.54L97.4155 152.955L96.7538 152.339Z" fill="white" fill-opacity="0.6"/>
<defs>
<linearGradient id="paint0_linear_119_113" x1="198.378" y1="-14.1698" x2="36.2748" y2="285.664" gradientUnits="userSpaceOnUse">
<stop stop-color="#012559"/>
<stop offset="1" stop-color="#056BFF"/>
</linearGradient>
</defs>
</svg>
