<svg width="200" height="200" viewBox="0 0 200 200" fill="none" xmlns="http://www.w3.org/2000/svg">
<circle cx="100" cy="100" r="100" fill="#0601FA"/>
<path fill-rule="evenodd" clip-rule="evenodd" d="M100.5 60.8947L77.4706 84.0579L100.5 107.221L123.529 84.0579L100.5 60.8947ZM101.956 77.104L100.404 70.4894L98.8526 77.104C98.3829 79.1049 96.8296 80.6684 94.84 81.1401L88.263 82.701L94.84 84.2619C96.8296 84.7337 98.3829 86.2972 98.8526 88.298L100.404 94.9127L101.956 88.298C102.426 86.2972 103.979 84.7337 105.969 84.2619L112.546 82.701L105.969 81.1401C103.979 80.6684 102.426 79.1049 101.956 77.104Z" fill="white"/>
<path fill-rule="evenodd" clip-rule="evenodd" d="M93.4681 137.956C94.332 140.392 96.2713 146.093 97.2916 149.92L100.496 160.926L103.7 149.92C104.721 146.093 106.66 140.392 107.524 137.956C107.874 134.841 109.524 131.326 111.82 127.766C114.141 124.169 117.16 120.47 120.287 117.01C125.592 111.14 131.245 105.918 134.39 103.013C134.754 102.676 135.088 102.367 135.381 102.096C134.696 101.383 134.055 100.711 133.455 100.08C132.222 98.7841 131.146 97.6532 130.138 96.6603C128.669 95.2129 127.384 94.0977 126.04 93.2464L125.705 93.4349C122.461 95.259 117.491 98.0541 112.772 100.978C110.239 102.547 107.786 104.149 105.715 105.653C103.635 107.164 101.976 108.552 101.004 109.692L100.496 110.288L99.9877 109.692C99.0157 108.552 97.3574 107.164 95.277 105.653C93.2063 104.149 90.753 102.547 88.2201 100.978C83.5006 98.0541 78.5305 95.2589 75.2871 93.4348L75.0036 93.2754C72.1497 95.583 68.6301 98.8796 65.6049 102.09C65.8998 102.364 66.2337 102.672 66.602 103.012C69.7468 105.918 75.4 111.14 80.7048 117.01C83.8317 120.47 86.8507 124.169 89.1717 127.766C91.4683 131.326 93.1176 134.841 93.4681 137.956ZM100.496 113.254C103.933 117.724 108.744 126.665 100.496 126.665C92.2479 126.665 97.0593 117.724 100.496 113.254Z" fill="white"/>
<path d="M107.927 140.738C106.976 143.532 105.712 147.403 104.961 150.222C104.748 151.02 104.874 152.07 105.297 153.305C105.716 154.528 106.403 155.865 107.226 157.203C108.661 159.535 110.476 161.814 111.892 163.405L116.341 156.1C114.844 154.064 112.724 150.907 110.94 147.655C110 145.942 109.148 144.193 108.529 142.56C108.294 141.939 108.09 141.328 107.927 140.738Z" fill="white"/>
<path d="M93.0646 140.738C92.9024 141.328 92.6983 141.939 92.4629 142.56C91.8443 144.193 90.992 145.942 90.0522 147.655C88.2682 150.907 86.1482 154.064 84.6509 156.1L89.1004 163.405C90.5165 161.814 92.3312 159.535 93.7662 157.203C94.5893 155.865 95.2764 154.528 95.6952 153.305C96.1182 152.07 96.2435 151.02 96.0309 150.222C95.2797 147.403 94.0162 143.532 93.0646 140.738Z" fill="white"/>
<path fill-rule="evenodd" clip-rule="evenodd" d="M74.5158 92.0619L74.8717 91.7789L75.959 92.3907C79.2006 94.2138 84.1934 97.0217 88.9378 99.9609C91.4848 101.539 93.9677 103.159 96.0743 104.69C97.8676 105.992 99.4146 107.249 100.496 108.372C101.577 107.249 103.124 105.992 104.918 104.69C107.024 103.159 109.507 101.539 112.054 99.9609C116.799 97.0217 121.791 94.2138 125.033 92.3908L126.065 91.81L126.405 92.0124C128.004 92.9663 129.464 94.2272 131.081 95.8202C132.101 96.8258 133.202 97.9821 134.447 99.2903C135.166 100.046 135.933 100.852 136.761 101.709L137.176 102.139L136.739 102.549C136.601 102.678 136.451 102.818 136.29 102.968C135.995 103.242 135.661 103.55 135.296 103.888C132.146 106.798 126.543 111.975 121.28 117.798C118.177 121.232 115.206 124.876 112.934 128.397C110.663 131.917 109.127 135.26 108.814 138.115C108.821 139.207 109.164 140.593 109.755 142.152C110.024 142.86 110.339 143.595 110.69 144.344C110.893 144.777 111.108 145.215 111.332 145.655C111.577 146.135 111.833 146.617 112.097 147.098C113.945 150.466 116.165 153.739 117.643 155.719L117.879 156.036L112.109 165.507L111.508 164.862C109.996 163.242 107.797 160.572 106.099 157.812C105.25 156.432 104.515 155.012 104.058 153.677C104.039 153.623 104.021 153.568 104.003 153.513L100.496 165.558L96.9891 153.513C96.9712 153.568 96.9529 153.623 96.9341 153.677C96.477 155.012 95.7424 156.432 94.8935 157.812C93.1953 160.572 90.9956 163.242 89.4842 164.862L88.8825 165.507L83.1133 156.036L83.3493 155.719C84.8268 153.739 87.0471 150.466 88.8949 147.098C89.1599 146.615 89.4167 146.131 89.6622 145.649C89.7957 145.387 89.9259 145.126 90.0522 144.866C90.5037 143.937 90.9063 143.024 91.2367 142.152C91.8276 140.593 92.1713 139.207 92.1775 138.115C91.8648 135.26 90.3293 131.917 88.0582 128.397C85.7864 124.876 82.815 121.232 79.7118 117.798C74.4495 111.975 68.8458 106.798 65.6963 103.888C65.3363 103.555 65.0078 103.252 64.7162 102.981C64.5496 102.826 64.3948 102.682 64.2527 102.549L63.8235 102.146L64.2227 101.717C67.4927 98.2038 71.4193 94.5237 74.5158 92.0619ZM92.4629 142.56C92.6983 141.939 92.9024 141.328 93.0646 140.738C94.0162 143.532 95.2797 147.403 96.0309 150.222C96.2435 151.02 96.1182 152.07 95.6952 153.305C95.2764 154.528 94.5893 155.865 93.7662 157.203C92.3312 159.535 90.5165 161.814 89.1004 163.405L84.6509 156.1C86.1482 154.064 88.2682 150.907 90.0522 147.655C90.992 145.942 91.8443 144.193 92.4629 142.56ZM97.2916 149.92C96.2713 146.093 94.332 140.392 93.4681 137.956C93.1176 134.841 91.4683 131.326 89.1717 127.766C86.8507 124.169 83.8317 120.47 80.7048 117.01C75.4 111.14 69.7468 105.918 66.602 103.012C66.2337 102.672 65.8998 102.364 65.6049 102.09C68.6301 98.8796 72.1497 95.583 75.0036 93.2754L75.2871 93.4348C78.5305 95.2589 83.5006 98.0541 88.2201 100.978C90.753 102.547 93.2063 104.149 95.277 105.653C97.3574 107.164 99.0157 108.552 99.9877 109.692L100.496 110.288L101.004 109.692C101.976 108.552 103.635 107.164 105.715 105.653C107.786 104.149 110.239 102.547 112.772 100.978C117.491 98.0541 122.461 95.259 125.705 93.4349L126.04 93.2464C127.384 94.0977 128.669 95.2129 130.138 96.6603C131.146 97.6532 132.222 98.7841 133.455 100.08C134.055 100.711 134.696 101.383 135.381 102.096C135.088 102.367 134.754 102.676 134.39 103.013C131.245 105.918 125.592 111.14 120.287 117.01C117.16 120.47 114.141 124.169 111.82 127.766C109.524 131.326 107.874 134.841 107.524 137.956C106.66 140.392 104.721 146.093 103.7 149.92L100.496 160.926L97.2916 149.92ZM104.961 150.222C105.712 147.403 106.976 143.532 107.927 140.738C108.09 141.328 108.294 141.939 108.529 142.56C109.148 144.193 110 145.942 110.94 147.655C112.724 150.907 114.844 154.064 116.341 156.1L111.892 163.405C110.476 161.814 108.661 159.535 107.226 157.203C106.403 155.865 105.716 154.528 105.297 153.305C104.874 152.07 104.748 151.02 104.961 150.222Z" fill="white" fill-opacity="0.6"/>
<path d="M94.8935 157.812C93.1953 160.572 90.9956 163.242 89.4842 164.862L100.496 179.284L111.508 164.862C109.996 163.242 107.797 160.572 106.099 157.812C105.25 156.432 104.515 155.012 104.058 153.677C104.039 153.623 104.021 153.568 104.003 153.513L100.496 165.558L96.9891 153.513C96.9712 153.568 96.9529 153.623 96.9341 153.677C96.477 155.012 95.7424 156.432 94.8935 157.812Z" fill="white"/>
<path d="M89.4842 164.862L88.8825 165.507L100.496 181L112.109 165.507L111.508 164.862L100.496 179.284L89.4842 164.862Z" fill="white" fill-opacity="0.6"/>
<path d="M95.3824 55.1944L99.9503 50.6L104.518 55.1944L99.9503 59.7889L95.3824 55.1944Z" fill="white"/>
<path d="M109.882 55.1944L114.45 50.6L119.018 55.1944L114.45 80.6263L109.882 55.1944Z" fill="white"/>
<path d="M80.8824 55.1944L85.4503 50.6L90.0182 55.1944L85.4503 85.7737L80.8824 55.1944Z" fill="white"/>
<path fill-rule="evenodd" clip-rule="evenodd" d="M100.5 18L28 90.9211L87.0543 150.318C87.8977 149.108 89.1656 146.723 89.6941 145.681L89.6622 145.649L55.0098 110.796L35.25 90.9211L100.5 25.2921L165.75 90.9211L146.417 110.367L111.332 145.655L111.317 145.67C111.893 146.949 113.241 149.655 114.023 150.241L173 90.9211L100.5 18Z" fill="white"/>
<path d="M55.0098 110.796L89.6622 145.649C89.7957 145.387 89.9259 145.126 90.0522 144.866L56.6091 111.121L55.6573 110.16L55.0098 110.796Z" fill="white" fill-opacity="0.6"/>
<path d="M111.332 145.655L146.417 110.367L145.399 109.46L144.255 110.609L110.69 144.344C110.893 144.777 111.108 145.215 111.332 145.655Z" fill="white" fill-opacity="0.6"/>
<path fill-rule="evenodd" clip-rule="evenodd" d="M109.755 142.152C109.164 140.593 108.821 139.207 108.814 138.115C109.127 135.26 110.663 131.917 112.934 128.397C115.206 124.876 118.177 121.232 121.28 117.798C126.543 111.975 132.146 106.798 135.296 103.888L136.29 102.968L144.255 110.609L110.69 144.344C110.339 143.595 110.024 142.86 109.755 142.152Z" fill="white"/>
<path d="M137.176 102.139L136.739 102.549L136.29 102.968L144.255 110.609L145.399 109.46L137.176 102.139Z" fill="white" fill-opacity="0.6"/>
<path fill-rule="evenodd" clip-rule="evenodd" d="M64.7162 102.981L56.6091 111.121L90.0522 144.866C90.5037 143.937 90.9063 143.024 91.2367 142.152C91.8276 140.593 92.1713 139.207 92.1775 138.115C91.8648 135.26 90.3293 131.917 88.0582 128.397C85.7864 124.876 82.815 121.232 79.7118 117.798C74.4495 111.975 68.8458 106.798 65.6963 103.888C65.3363 103.555 65.0078 103.252 64.7162 102.981Z" fill="white"/>
<path d="M64.2527 102.549L63.8235 102.146L55.6573 110.16L56.6091 111.121L64.7162 102.981L64.2527 102.549Z" fill="white" fill-opacity="0.6"/>
</svg>
