<svg width="200" height="200" viewBox="0 0 200 200" fill="none" xmlns="http://www.w3.org/2000/svg">
<circle cx="100" cy="100" r="100" fill="#0601FA"/>
<path d="M100 28L111 32.6099V54H89V32.6099L100 28Z" fill="white"/>
<path d="M57 58.071L64.0711 51L71.1421 58.071L64.0711 65.1421L57 58.071Z" fill="white"/>
<path d="M129.142 58.071L136.213 51L143.284 58.071L136.213 65.1421L129.142 58.071Z" fill="white"/>
<path d="M127.965 154.545C133.593 145.961 135 136.376 135 132.657L122.262 140.811C124.218 147.882 126.172 152.989 127.965 154.545Z" fill="white"/>
<path d="M72.0346 154.545C66.4069 145.961 65 136.376 65 132.657L77.7376 140.811C75.7819 147.882 73.8283 152.989 72.0346 154.545Z" fill="white"/>
<path d="M115.655 140.811C113.31 133.515 108.532 113.944 108.181 94.03C103.256 97.4635 100.267 98.608 99.3874 98.7511C98.5081 98.608 95.5184 97.4635 90.5942 94.03C90.2424 113.944 85.4648 133.515 83.1199 140.811L99.3874 173L115.655 140.811Z" fill="white"/>
<path fill-rule="evenodd" clip-rule="evenodd" d="M81.2864 88.4622C83.5246 86.3184 86.0937 84.5943 88.871 83.3409C86.4344 99.5397 82.647 121.594 78.7583 136.948L65 126.648C70.2759 116.777 80.9158 95.6609 81.2675 90.1674C81.3046 89.5873 81.3093 89.0182 81.2864 88.4622Z" fill="white"/>
<path d="M150 108C150 94.7392 144.732 82.0215 135.355 72.6447C125.979 63.2678 113.261 58 100 58C86.7392 58 74.0215 63.2678 64.6447 72.6447C55.2678 82.0215 50 94.7392 50 108L72.9459 108C72.9459 100.825 75.7962 93.9435 80.8699 88.8699C81.0074 88.7323 81.1463 88.5964 81.2864 88.4622C83.5246 86.3184 86.0937 84.5943 88.871 83.3409C92.336 81.7772 96.1252 80.9459 100 80.9459C103.875 80.9459 107.664 81.7772 111.129 83.3409C114.08 84.6728 116.796 86.5362 119.13 88.8699C124.204 93.9435 127.054 100.825 127.054 108H150Z" fill="white"/>
<path d="M135 126.648C129.724 116.777 119.084 95.6609 118.733 90.1674C118.742 90.0248 118.834 89.5658 119.13 88.8699C116.796 86.5362 114.08 84.6728 111.129 83.3409C113.566 99.5397 117.353 121.594 121.242 136.949L135 126.648Z" fill="white"/>
</svg>
