<svg width="200" height="200" viewBox="0 0 200 200" fill="none" xmlns="http://www.w3.org/2000/svg">
<circle cx="100" cy="100" r="100" fill="#0601FA"/>
<path d="M85.5596 148C85.5596 148 77.5596 148 77.5596 140C77.5596 132 85.5596 108 117.56 108C149.56 108 157.56 132 157.56 140C157.56 148 149.56 148 149.56 148H85.5596Z" fill="white"/>
<path d="M117.56 100C123.925 100 130.029 97.4714 134.53 92.9706C139.031 88.4697 141.56 82.3652 141.56 76C141.56 69.6348 139.031 63.5303 134.53 59.0294C130.029 54.5286 123.925 52 117.56 52C111.194 52 105.09 54.5286 100.589 59.0294C96.0881 63.5303 93.5596 69.6348 93.5596 76C93.5596 82.3652 96.0881 88.4697 100.589 92.9706C105.09 97.4714 111.194 100 117.56 100Z" fill="white"/>
<path d="M50.424 148C50.424 148 43 148 43 140.64C43 133.28 50.424 111.2 80.12 111.2C109.816 111.2 117.24 133.28 117.24 140.64C117.24 148 109.816 148 109.816 148H50.424Z" fill="white" fill-opacity="0.5"/>
<path d="M80.12 103.84C86.0269 103.84 91.6919 101.514 95.8687 97.3731C100.045 93.2323 102.392 87.6162 102.392 81.7602C102.392 75.9042 100.045 70.2881 95.8687 66.1473C91.6919 62.0065 86.0269 59.6802 80.12 59.6802C74.2131 59.6802 68.5481 62.0065 64.3713 66.1473C60.1945 70.2881 57.848 75.9042 57.848 81.7602C57.848 87.6162 60.1945 93.2323 64.3713 97.3731C68.5481 101.514 74.2131 103.84 80.12 103.84Z" fill="white" fill-opacity="0.5"/>
</svg>
