<svg width="297" height="297" viewBox="0 0 297 297" fill="none" xmlns="http://www.w3.org/2000/svg">
<path d="M0 148.5C0 66.4857 66.4857 0 148.5 0C230.514 0 297 66.4857 297 148.5C297 230.514 230.514 297 148.5 297C66.4857 297 0 230.514 0 148.5Z" fill="url(#paint0_linear_119_114)"/>
<path d="M148.5 32L166.21 39.3759V73.6H130.79V39.3759L148.5 32Z" fill="white"/>
<path d="M79.27 80.1137L90.6544 68.8L102.039 80.1137L90.6544 91.4274L79.27 80.1137Z" fill="white"/>
<path d="M195.419 80.1137L206.803 68.8L218.188 80.1137L206.803 91.4274L195.419 80.1137Z" fill="white"/>
<path d="M193.524 234.472C202.585 220.738 204.85 205.402 204.85 199.451L184.342 212.498C187.491 223.811 190.636 231.982 193.524 234.472Z" fill="white"/>
<path d="M103.476 234.472C94.4151 220.738 92.15 205.402 92.15 199.451L112.658 212.498C109.509 223.811 106.364 231.982 103.476 234.472Z" fill="white"/>
<path d="M173.704 212.498C169.929 200.824 162.237 169.511 161.671 137.648C153.743 143.142 148.929 144.973 147.514 145.202C146.098 144.973 141.285 143.142 133.357 137.648C132.79 169.511 125.098 200.824 121.323 212.498L147.514 264L173.704 212.498Z" fill="white"/>
<path fill-rule="evenodd" clip-rule="evenodd" d="M118.371 128.739C121.975 125.309 126.111 122.551 130.582 120.545C126.659 146.464 120.562 181.75 114.301 206.318L92.15 189.837C100.644 174.043 117.774 140.258 118.341 131.468C118.4 130.54 118.408 129.629 118.371 128.739Z" fill="white"/>
<path d="M229 160C229 138.783 220.519 118.434 205.422 103.431C190.325 88.4285 169.85 80 148.5 80C127.15 80 106.675 88.4285 91.5779 103.431C76.4812 118.434 68 138.783 68 160L104.943 160C104.943 148.52 109.532 137.51 117.7 129.392C117.922 129.172 118.146 128.954 118.371 128.739C121.975 125.309 126.111 122.551 130.582 120.545C136.161 118.043 142.262 116.713 148.5 116.713C154.738 116.713 160.839 118.043 166.418 120.545C171.169 122.677 175.542 125.658 179.3 129.392C187.468 137.51 192.057 148.52 192.057 160H229Z" fill="white"/>
<path d="M204.85 189.837C196.356 174.043 179.226 140.258 178.659 131.468C178.674 131.24 178.823 130.505 179.3 129.392C175.542 125.658 171.169 122.677 166.418 120.545C170.341 146.464 176.438 181.75 182.699 206.318L204.85 189.837Z" fill="white"/>
<defs>
<linearGradient id="paint0_linear_119_114" x1="198.378" y1="-14.1698" x2="36.2748" y2="285.664" gradientUnits="userSpaceOnUse">
<stop stop-color="#012559"/>
<stop offset="1" stop-color="#056BFF"/>
</linearGradient>
</defs>
</svg>
