<svg width="200" height="200" viewBox="0 0 200 200" fill="none" xmlns="http://www.w3.org/2000/svg">
<circle cx="100" cy="100" r="100" fill="#0601FA"/>
<path fill-rule="evenodd" clip-rule="evenodd" d="M97.941 38.3221C96.2987 38.932 54.1765 64.7244 44.8217 70.8484C38.8141 74.7812 38.0017 75.5553 38 77.3476C37.9988 78.4192 38.7373 79.4753 41.1396 81.8384L42.8724 83.5428V94.8698V106.197L42.1738 106.786C41.1431 107.656 40.3536 109.664 40.5066 111.027C40.6177 112.015 40.5422 112.239 39.7839 113.167C38.1075 115.219 37.6559 117.452 38.365 120.182C39.1959 123.382 42.8914 129.48 44.4494 130.221C46.2276 131.068 47.2986 130.253 49.8673 126.098C53.3978 120.389 53.8244 116.303 51.2097 113.238C50.3773 112.263 50.3108 112.074 50.3863 110.904C50.4813 109.426 49.8826 107.846 48.8753 106.917L48.233 106.324V97.4455C48.233 92.5622 48.2986 88.5666 48.3785 88.5666C48.4584 88.5666 49.214 89.199 50.0576 89.9721C50.9014 90.7449 54.1183 93.5223 57.2065 96.1437C61.0241 99.3843 62.8262 101.069 62.8372 101.407C62.8494 101.789 62.6013 101.978 61.7587 102.227C59.3184 102.95 57.2969 104.931 56.2443 107.632C55.5793 109.338 55.3266 113.658 55.7903 115.393C56.3176 117.366 57.7353 119.81 59.1644 121.21C60.3143 122.336 62.7127 123.78 64.3238 124.317C64.5297 124.385 65.1225 125.526 65.6413 126.852C66.1598 128.178 67.3601 130.968 68.3087 133.052C72.7695 142.852 77.001 149.484 81.9631 154.452C86.4841 158.978 90.5097 161.396 95.4286 162.541C98.0935 163.161 103.019 163.151 105.495 162.522C116.972 159.604 126.068 148.81 134.74 127.821L136.143 124.424L137.449 123.891C141.107 122.398 143.712 119.54 144.852 115.77C145.317 114.233 145.31 110.556 144.839 108.74C144.02 105.587 142.007 103.201 139.345 102.227C136.98 101.362 137.011 101.316 143.933 95.499C155.695 85.6135 162.513 79.3446 162.513 78.414C162.513 78.2175 162.622 78.0565 162.756 78.0565C162.89 78.0565 163 77.6099 163 77.0643C163 76.4653 162.904 76.1321 162.756 76.2233C162.622 76.3064 162.513 76.2157 162.513 76.0216C162.513 75.1048 158.272 72.1954 143.629 63.0665C129.275 54.1187 103.756 38.6712 102.723 38.3055C101.553 37.8912 99.0784 37.8998 97.941 38.3221ZM84.1738 52.5769C58.2355 68.3661 44.2515 77.1866 44.4023 77.6627C44.5668 78.1821 62.2894 93.9439 62.7088 93.9439C62.7748 93.9439 62.8615 91.2511 62.9018 87.9597L62.9749 81.9758L63.7059 81.2537C64.5636 80.4066 67.932 78.8709 71.8519 77.5395C90.0279 71.3666 110.727 71.3666 128.903 77.5395C132.823 78.8706 136.192 80.4066 137.049 81.2537L137.781 81.9755L137.902 87.8136L138.024 93.6514L142.429 89.9481C148.4 84.9289 156.421 77.8423 156.421 77.5872C156.421 76.8529 101.963 43.334 100.5 43.1673C99.8967 43.0986 97.0363 44.7473 84.1738 52.5769ZM38.0653 77.3232C38.0653 77.9281 38.1128 78.1757 38.1711 77.8731C38.229 77.5705 38.229 77.0758 38.1711 76.7732C38.1128 76.4706 38.0653 76.7182 38.0653 77.3232ZM95.1388 78.2923C86.8152 78.7834 77.9574 80.6554 71.0317 83.3878L68.0919 84.5476L68.0258 89.4903C67.9895 92.2085 68.01 94.4328 68.0714 94.4328C68.1325 94.4328 69.5329 94.1119 71.183 93.7198C80.303 91.5523 89.6719 90.5281 100.378 90.5281C111.083 90.5281 120.452 91.5523 129.572 93.7198C131.222 94.1119 132.623 94.4328 132.684 94.4328C132.745 94.4328 132.766 92.2085 132.73 89.4903L132.663 84.5476L129.724 83.3878C119.908 79.5152 106.899 77.5987 95.1388 78.2923ZM94.286 95.8011C86.0369 96.2674 78.5685 97.3025 72.1311 98.872C67.4841 100.005 67.97 99.4821 67.97 103.348V106.654H66.52C62.19 106.654 60.5501 108.239 60.576 112.398C60.5993 116.151 62.9785 118.95 66.6096 119.496C67.2117 119.586 67.8669 119.786 68.0658 119.94C68.2646 120.094 69.0906 121.895 69.9016 123.943C77.983 144.356 86.6804 155.296 96.6769 157.624C97.5229 157.822 99.2225 157.981 100.454 157.979C101.619 157.977 102.769 157.859 103.905 157.624C113.785 155.583 122.56 144.71 130.58 124.619C131.546 122.199 132.498 120.094 132.694 119.94C132.89 119.786 133.544 119.586 134.146 119.496C136.603 119.126 138.668 117.576 139.622 115.386C140.683 112.951 140.218 108.895 138.73 107.595C137.986 106.946 136.566 106.682 134.61 106.83L132.785 106.969V103.506C132.785 99.4564 133.279 100.007 128.624 98.872C123.633 97.6552 117.811 96.7247 111.586 96.1486C109.805 95.9838 104.774 95.8326 100.5 95.7753C97.7757 95.7388 95.3591 95.7405 94.286 95.8011ZM43.8658 116.33C42.7361 117.284 42.8239 118.484 44.2286 121.299C44.8405 122.525 45.4462 123.463 45.5746 123.383C45.9555 123.147 47.4594 119.995 47.7571 118.809C47.9857 117.898 47.9662 117.584 47.6429 116.957C46.9063 115.528 45.1597 115.238 43.8658 116.33Z" fill="white"/>
<path d="M130.58 124.619C131.546 122.199 132.498 120.094 132.694 119.94C132.89 119.786 133.544 119.586 134.146 119.496C136.603 119.126 138.668 117.576 139.622 115.386C140.683 112.951 140.218 108.895 138.73 107.595C137.986 106.946 136.566 106.682 134.61 106.83L132.785 106.969V103.506C132.785 99.4564 133.279 100.007 128.624 98.872C123.633 97.6552 117.811 96.7247 111.586 96.1486C109.805 95.9838 104.774 95.8326 100.5 95.7753C96.3978 100.442 89.4127 112.497 94.286 123.383C100.378 136.991 113.523 145.26 103.905 157.624C113.785 155.583 122.56 144.71 130.58 124.619Z" fill="white" fill-opacity="0.3"/>
<path d="M94.286 95.8011C86.0369 96.2674 78.5685 97.3025 72.1311 98.872C67.4841 100.005 67.97 99.4821 67.97 103.348V106.654H66.52C62.19 106.654 60.5501 108.239 60.576 112.398C60.5993 116.151 62.9785 118.95 66.6096 119.496C67.2117 119.586 67.8669 119.786 68.0658 119.94C68.2646 120.094 69.0906 121.895 69.9016 123.943C77.983 144.356 86.6804 155.296 96.6769 157.624C97.5229 157.822 99.2225 157.981 100.454 157.979C101.619 157.977 102.769 157.859 103.905 157.624C113.523 145.26 100.378 136.991 94.286 123.383C89.4127 112.497 96.3978 100.442 100.5 95.7753C97.7757 95.7388 95.3591 95.7405 94.286 95.8011Z" fill="white" fill-opacity="0.6"/>
</svg>
