<svg width="297" height="297" viewBox="0 0 297 297" fill="none" xmlns="http://www.w3.org/2000/svg">
<path d="M0 148.5C0 66.4857 66.4857 0 148.5 0C230.514 0 297 66.4857 297 148.5C297 230.514 230.514 297 148.5 297C66.4857 297 0 230.514 0 148.5Z" fill="url(#paint0_linear_65_841)"/>
<path d="M190.875 70.0586C185.102 75.8324 178.247 80.4123 170.703 83.5371C163.16 86.6618 155.074 88.2701 146.909 88.2701C138.744 88.2701 130.658 86.6618 123.114 83.5371C115.571 80.4124 108.716 75.8324 102.942 70.0586L128.738 44.2629C131.124 46.6491 133.957 48.542 137.075 49.8334C140.193 51.1248 143.534 51.7895 146.909 51.7895C150.284 51.7895 153.625 51.1248 156.743 49.8334C159.861 48.542 162.693 46.6491 165.08 44.2629L190.875 70.0586Z" fill="white"/>
<path d="M69.9663 190.967C75.7401 185.193 80.3201 178.338 83.4448 170.795C86.5695 163.251 88.1778 155.165 88.1778 147C88.1778 138.835 86.5695 130.749 83.4448 123.206C80.3201 115.662 75.7401 108.807 69.9663 103.034L44.1706 128.829C46.5569 131.215 48.4497 134.048 49.7411 137.166C51.0325 140.284 51.6972 143.625 51.6972 147C51.6972 150.375 51.0325 153.716 49.7411 156.834C48.4497 159.952 46.5569 162.785 44.1706 165.171L69.9663 190.967Z" fill="white"/>
<path d="M106.083 227.082C111.856 221.308 118.711 216.728 126.255 213.603C133.798 210.479 141.884 208.87 150.049 208.87C158.214 208.87 166.3 210.479 173.844 213.603C181.387 216.728 188.242 221.308 194.016 227.082L168.22 252.877C165.834 250.491 163.001 248.598 159.883 247.307C156.765 246.016 153.424 245.351 150.049 245.351C146.674 245.351 143.333 246.016 140.215 247.307C137.097 248.598 134.265 250.491 131.878 252.877L106.083 227.082Z" fill="white"/>
<path d="M226.99 106.174C221.216 111.948 216.636 118.802 213.512 126.346C210.387 133.89 208.779 141.975 208.779 150.14C208.779 158.306 210.387 166.391 213.512 173.935C216.636 181.479 221.216 188.333 226.99 194.107L252.786 168.311C250.4 165.925 248.507 163.092 247.215 159.974C245.924 156.857 245.259 153.515 245.259 150.14C245.259 146.766 245.924 143.424 247.215 140.306C248.507 137.189 250.4 134.356 252.786 131.97L226.99 106.174Z" fill="white"/>
<rect x="85.6694" y="181.545" width="42.1922" height="42.1922" rx="21.0961" transform="rotate(-45 85.6694 181.545)" fill="white"/>
<rect x="151.62" y="115.595" width="42.1922" height="42.1922" rx="21.0961" transform="rotate(-45 151.62 115.595)" fill="white"/>
<rect x="85.6694" y="115.595" width="42.1922" height="42.1922" rx="21.0961" transform="rotate(-45 85.6694 115.595)" fill="white"/>
<rect x="136.264" y="160.787" width="24.4271" height="24.437" transform="rotate(-90 136.264 160.787)" fill="white"/>
<rect x="151.62" y="181.545" width="42.1922" height="42.1922" rx="21.0961" transform="rotate(-45 151.62 181.545)" fill="white"/>
<path d="M128.065 117.165L148.836 137.936L170.146 116.626C167.347 119.424 164.039 121.658 160.41 123.2C156.781 124.741 152.901 125.561 148.994 125.611C145.086 125.661 141.227 124.941 137.636 123.492C134.045 122.043 130.793 119.893 128.065 117.165Z" fill="white"/>
<path d="M117.7 169.61L138.471 148.839L117.161 127.529C119.959 130.328 122.193 133.636 123.735 137.265C125.276 140.895 126.096 144.774 126.146 148.681C126.196 152.589 125.476 156.448 124.027 160.039C122.578 163.63 120.428 166.883 117.7 169.61Z" fill="white"/>
<path d="M170.147 179.436L149.376 158.665L128.066 179.975C130.864 177.177 134.173 174.943 137.802 173.401C141.431 171.86 145.311 171.04 149.218 170.99C153.126 170.94 156.985 171.66 160.576 173.109C164.167 174.558 167.419 176.708 170.147 179.436Z" fill="white"/>
<path d="M180.241 169.341L159.47 148.571L180.78 127.26C177.982 130.059 175.748 133.367 174.206 136.996C172.665 140.626 171.845 144.505 171.795 148.413C171.745 152.32 172.465 156.18 173.914 159.771C175.363 163.361 177.513 166.614 180.241 169.341Z" fill="white"/>
<defs>
<linearGradient id="paint0_linear_65_841" x1="198.378" y1="-14.1698" x2="36.2748" y2="285.664" gradientUnits="userSpaceOnUse">
<stop stop-color="#012559"/>
<stop offset="1" stop-color="#056BFF"/>
</linearGradient>
</defs>
</svg>
