<svg width="297" height="297" viewBox="0 0 297 297" fill="none" xmlns="http://www.w3.org/2000/svg">
<path d="M0 148.5C0 66.4857 66.4857 0 148.5 0C230.514 0 297 66.4857 297 148.5C297 230.514 230.514 297 148.5 297C66.4857 297 0 230.514 0 148.5Z" fill="url(#paint0_linear_60_473)"/>
<path d="M132.797 128.103V64L166.203 64V128.103H132.797Z" fill="white"/>
<path d="M65 131.989H129.849V165.011H65V131.989Z" fill="white"/>
<path d="M169.151 131.989H234V165.011H169.151V131.989Z" fill="white"/>
<path d="M132.797 233V168.897H166.203V233H132.797Z" fill="white"/>
<path d="M65 64C73.5161 64 81.9488 65.6581 89.8166 68.8796C97.6844 72.1011 104.833 76.8229 110.855 82.7755C116.877 88.728 121.654 95.7947 124.913 103.572C128.171 111.35 129.849 119.685 129.849 128.103H91.8012C91.8012 124.624 91.108 121.179 89.7611 117.965C88.4142 114.751 86.4401 111.83 83.9513 109.37C81.4626 106.91 78.5081 104.958 75.2564 103.627C72.0047 102.296 68.5196 101.61 65 101.61L65 64Z" fill="white"/>
<path d="M234 128.103C225.484 128.103 217.051 126.445 209.183 123.224C201.316 120.002 194.167 115.281 188.145 109.328C182.123 103.375 177.346 96.3087 174.087 88.5313C170.829 80.7539 169.151 72.4182 169.151 64L207.199 64C207.199 67.4791 207.892 70.9242 209.239 74.1385C210.586 77.3528 212.56 80.2734 215.049 82.7335C217.537 85.1936 220.492 87.1451 223.744 88.4765C226.995 89.8079 230.48 90.4932 234 90.4932V128.103Z" fill="white"/>
<path d="M129.849 233C121.333 233 112.9 231.342 105.032 228.12C97.1644 224.899 90.0156 220.177 83.9938 214.225C77.972 208.272 73.1953 201.205 69.9363 193.428C66.6774 185.65 65 177.315 65 168.897H103.048C103.048 172.376 103.741 175.821 105.088 179.035C106.435 182.249 108.409 185.17 110.897 187.63C113.386 190.09 116.341 192.042 119.592 193.373C122.844 194.704 126.329 195.39 129.849 195.39V233Z" fill="white"/>
<path d="M169.151 168.897C177.667 168.897 186.1 170.555 193.968 173.776C201.836 176.998 208.984 181.719 215.006 187.672C221.028 193.625 225.805 200.691 229.064 208.469C232.323 216.246 234 224.582 234 233H195.952C195.952 229.521 195.259 226.076 193.912 222.861C192.565 219.647 190.591 216.727 188.103 214.266C185.614 211.806 182.659 209.855 179.408 208.523C176.156 207.192 172.671 206.507 169.151 206.507V168.897Z" fill="white"/>
<defs>
<linearGradient id="paint0_linear_60_473" x1="198.378" y1="-14.1698" x2="36.2748" y2="285.664" gradientUnits="userSpaceOnUse">
<stop stop-color="#012559"/>
<stop offset="1" stop-color="#056BFF"/>
</linearGradient>
</defs>
</svg>
