<svg width="297" height="297" viewBox="0 0 297 297" fill="none" xmlns="http://www.w3.org/2000/svg">
<path d="M0 148.5C0 66.4857 66.4857 0 148.5 0C230.514 0 297 66.4857 297 148.5C297 230.514 230.514 297 148.5 297C66.4857 297 0 230.514 0 148.5Z" fill="url(#paint0_linear_62_527)"/>
<rect width="24.361" height="24.3511" transform="matrix(-0.725951 -0.687747 0.725951 -0.687747 149.14 94.5016)" fill="white"/>
<rect x="61" y="65.9037" width="25.0001" height="36.6032" fill="white"/>
<rect x="61" y="199.397" width="25.0001" height="36.6032" fill="white"/>
<rect x="86.0002" y="102.506" width="125" height="23.6844" fill="white"/>
<rect width="24.3511" height="24.361" transform="matrix(0.725951 -0.687747 0.725951 0.687747 61 150.954)" fill="white"/>
<rect width="24.3511" height="24.361" transform="matrix(0.725951 -0.687747 0.725951 0.687747 199.638 150.954)" fill="white"/>
<rect x="86.0002" y="175.713" width="125" height="23.6844" fill="white"/>
<rect x="211.001" y="199.397" width="25.0001" height="36.6032" fill="white"/>
<rect x="211.001" y="65.9037" width="25.0001" height="36.6032" fill="white"/>
<rect width="24.361" height="24.3511" transform="matrix(-0.725951 -0.687747 0.725951 -0.687747 149.14 235.053)" fill="white"/>
<path d="M211.001 126.192L211.001 102.508H236.001C232.718 102.508 229.467 103.12 226.434 104.311C223.401 105.501 220.645 107.246 218.324 109.445C216.002 111.644 214.161 114.255 212.904 117.129C211.648 120.002 211.001 123.082 211.001 126.192Z" fill="white"/>
<path d="M86.0002 126.192L86.0002 102.508H61.0002C64.2832 102.508 67.5341 103.12 70.5673 104.311C73.6004 105.501 76.3564 107.246 78.6779 109.445C80.9994 111.644 82.8409 114.255 84.0972 117.129C85.3536 120.002 86.0002 123.082 86.0002 126.192Z" fill="white"/>
<path d="M86.0002 175.714L86.0002 199.399H61.0002C64.2832 199.399 67.5341 198.786 70.5673 197.596C73.6004 196.406 76.3564 194.661 78.6779 192.462C80.9994 190.263 82.8409 187.652 84.0972 184.778C85.3536 181.905 86.0002 178.825 86.0002 175.714Z" fill="white"/>
<path d="M211.001 175.714L211.001 199.399H236.001C232.718 199.399 229.467 198.786 226.434 197.596C223.401 196.406 220.645 194.661 218.324 192.462C216.002 190.263 214.161 187.652 212.904 184.778C211.648 181.905 211.001 178.825 211.001 175.714Z" fill="white"/>
<defs>
<linearGradient id="paint0_linear_62_527" x1="198.378" y1="-14.1698" x2="36.2748" y2="285.664" gradientUnits="userSpaceOnUse">
<stop stop-color="#012559"/>
<stop offset="1" stop-color="#056BFF"/>
</linearGradient>
</defs>
</svg>
