<svg width="297" height="297" viewBox="0 0 297 297" fill="none" xmlns="http://www.w3.org/2000/svg">
<path d="M0 148.5C0 66.4857 66.4857 0 148.5 0C230.514 0 297 66.4857 297 148.5C297 230.514 230.514 297 148.5 297C66.4857 297 0 230.514 0 148.5Z" fill="url(#paint0_linear_65_846)"/>
<path d="M81.0906 136.143C81.0906 142.655 82.3732 149.102 84.865 155.118C87.3568 161.134 91.0092 166.6 95.6135 171.204C100.218 175.809 105.684 179.461 111.7 181.953C117.716 184.445 124.163 185.727 130.675 185.727L130.675 156.636C127.984 156.636 125.319 156.106 122.833 155.076C120.346 154.046 118.087 152.537 116.184 150.634C114.281 148.731 112.772 146.472 111.742 143.985C110.712 141.499 110.182 138.834 110.182 136.143H81.0906Z" fill="white"/>
<path d="M229.843 183.571C229.843 174.191 227.062 165.021 221.85 157.222C216.639 149.422 209.231 143.343 200.565 139.753C191.899 136.164 182.362 135.224 173.162 137.054C163.962 138.884 155.511 143.402 148.878 150.035C142.245 156.667 137.728 165.118 135.898 174.319C134.068 183.519 135.007 193.055 138.597 201.721C142.187 210.388 148.266 217.795 156.065 223.007C163.865 228.218 173.034 231 182.415 231V203.173C178.538 203.173 174.748 202.023 171.525 199.87C168.301 197.716 165.789 194.654 164.305 191.073C162.822 187.491 162.434 183.55 163.19 179.747C163.946 175.945 165.813 172.452 168.555 169.711C171.296 166.97 174.789 165.103 178.591 164.347C182.393 163.59 186.334 163.978 189.916 165.462C193.498 166.946 196.559 169.458 198.713 172.681C200.867 175.905 202.016 179.695 202.016 183.571H229.843Z" fill="white"/>
<rect x="173.792" y="88.123" width="23.1232" height="23.7142" transform="rotate(-90 173.792 88.123)" fill="white"/>
<rect x="100.493" y="88.1147" width="23.1138" height="97.0125" transform="rotate(-90 100.493 88.1147)" fill="white"/>
<rect x="66" y="100.722" width="23.7142" height="23.1232" fill="white"/>
<rect x="66" y="172.165" width="23.7142" height="58.8351" fill="white"/>
<rect x="126.363" y="102.824" width="34.4933" height="33.6201" rx="16.81" fill="white"/>
<rect x="137.143" y="172.165" width="23.7142" height="23.1232" fill="white"/>
<rect x="208.285" y="100.722" width="23.7142" height="23.1232" fill="white"/>
<rect x="66" y="231" width="23.1138" height="58.2075" transform="rotate(-90 66 231)" fill="white"/>
<defs>
<linearGradient id="paint0_linear_65_846" x1="198.378" y1="-14.1698" x2="36.2748" y2="285.664" gradientUnits="userSpaceOnUse">
<stop stop-color="#012559"/>
<stop offset="1" stop-color="#056BFF"/>
</linearGradient>
</defs>
</svg>
