<svg width="200" height="200" viewBox="0 0 200 200" fill="none" xmlns="http://www.w3.org/2000/svg">
<circle cx="100" cy="100" r="100" fill="#0601FA"/>
<path d="M168.247 67.2933L100.297 108.902L100.297 87.6082L168.247 45.9999L168.247 67.2933Z" fill="white" fill-opacity="0.6"/>
<path d="M31.4827 67.2933L99.432 108.902L99.432 87.6082L31.4827 45.9999L31.4827 67.2933Z" fill="white" fill-opacity="0.6"/>
<path d="M155.365 94.764L100.398 128.423L100.398 111.198L155.365 77.5388L155.365 94.764Z" fill="white" fill-opacity="0.4"/>
<path d="M44.9631 94.764L99.9303 128.423L99.9303 111.198L44.9631 77.5388L44.9631 94.764Z" fill="white" fill-opacity="0.4"/>
<path d="M138.913 118.388L100.058 142.181L100.058 130.005L138.913 106.212L138.913 118.388Z" fill="white" fill-opacity="0.3"/>
<path d="M60.8728 118.388L99.7278 142.181L99.7278 130.005L60.8728 106.212L60.8728 118.388Z" fill="white" fill-opacity="0.3"/>
<path d="M67.3915 61.4115C67.3915 60.6194 67.7062 59.8597 68.2663 59.2996C68.8264 58.7395 69.5861 58.4248 70.3782 58.4248H130.113C130.905 58.4248 131.664 58.7395 132.225 59.2996C132.785 59.8597 133.099 60.6194 133.099 61.4115C133.099 64.6252 133.032 67.6836 132.896 70.5867C135.257 70.9776 137.515 71.8371 139.537 73.1146C141.56 74.392 143.307 76.0616 144.674 78.0249C146.041 79.9881 147.002 82.2053 147.498 84.5456C147.995 86.8859 148.018 89.302 147.566 91.6514C147.114 94.0007 146.197 96.2358 144.867 98.2249C143.538 100.214 141.823 101.917 139.825 103.232C137.827 104.548 135.586 105.451 133.233 105.887C130.881 106.323 128.465 106.283 126.128 105.77C121.409 116.911 114.91 122.359 109.206 123.756V136.737L117.718 138.863C118.877 139.15 119.97 139.67 120.925 140.386L131.905 148.624C132.406 149 132.777 149.524 132.963 150.123C133.15 150.721 133.144 151.363 132.946 151.958C132.748 152.552 132.368 153.07 131.859 153.436C131.35 153.803 130.739 154 130.113 154H70.3782C69.7514 154 69.1404 153.803 68.6319 153.436C68.1233 153.07 67.743 152.552 67.5448 151.958C67.3465 151.363 67.3405 150.721 67.5274 150.123C67.7143 149.524 68.0847 149 68.5862 148.624L79.5654 140.386C80.5211 139.67 81.6143 139.15 82.7731 138.863L91.2853 136.737V123.756C85.5806 122.359 79.0815 116.911 74.3625 105.764C72.0244 106.28 69.6068 106.321 67.2523 105.887C64.8978 105.453 62.6543 104.551 60.6541 103.235C58.654 101.919 56.9379 100.215 55.6071 98.2248C54.2764 96.2345 53.3579 93.9977 52.9061 91.6465C52.4542 89.2953 52.478 86.8773 52.9762 84.5355C53.4744 82.1937 54.4368 79.9754 55.8066 78.0117C57.1763 76.0481 58.9257 74.3788 60.9514 73.1025C62.9771 71.8261 65.238 70.9687 67.6006 70.5808C67.4598 67.5264 67.3901 64.4691 67.3915 61.4115ZM67.9829 76.5841C64.8659 77.1544 62.1031 78.9396 60.3023 81.5469C58.5015 84.1543 57.8102 87.3702 58.3806 90.4872C58.9509 93.6043 60.7361 96.367 63.3435 98.1678C65.9508 99.9686 69.1667 100.66 72.2838 100.09C70.2946 93.8174 68.7714 86.0758 67.9829 76.5841ZM128.213 100.09C131.33 100.66 134.546 99.9686 137.153 98.1678C139.761 96.367 141.546 93.6043 142.116 90.4872C142.687 87.3702 141.995 84.1543 140.195 81.5469C138.394 78.9396 135.631 77.1544 132.514 76.5841C131.719 86.0818 130.196 93.8174 128.213 100.09ZM73.3888 64.3982C73.4287 67.4845 73.5402 70.4095 73.7234 73.1732C74.4999 85.2874 76.4532 94.355 78.9202 101.051C84.0813 115.053 91.1897 118.159 94.272 118.159C95.0641 118.159 95.8238 118.474 96.3839 119.034C96.944 119.594 97.2587 120.354 97.2587 121.146V136.737C97.2587 138.068 96.8137 139.362 95.9944 140.411C95.1751 141.461 94.0285 142.207 92.7368 142.531L84.2187 144.657C83.832 144.754 83.4684 144.926 83.1494 145.165L79.3384 148.026H121.152L117.341 145.165C117.021 144.925 116.655 144.753 116.266 144.657L107.754 142.531C106.462 142.207 105.316 141.461 104.496 140.411C103.677 139.362 103.232 138.068 103.232 136.737V121.146C103.232 120.354 103.547 119.594 104.107 119.034C104.667 118.474 105.427 118.159 106.219 118.159C109.301 118.159 116.41 115.053 121.571 101.051C124.038 94.361 125.991 85.2814 126.767 73.1732C126.947 70.4095 127.058 67.4845 127.102 64.3982H73.3888Z" fill="white"/>
<path d="M73.3888 64.3982C73.4287 67.4845 73.5402 70.4095 73.7234 73.1732C74.4999 85.2874 76.4532 94.355 78.9202 101.051C84.0813 115.053 91.1897 118.159 94.272 118.159C95.0641 118.159 95.8238 118.474 96.3839 119.034C96.944 119.594 97.2587 120.354 97.2587 121.146V136.737C97.2587 138.068 96.8137 139.362 95.9944 140.411C95.1751 141.461 94.0285 142.207 92.7368 142.531L84.2187 144.657C83.832 144.754 83.4684 144.926 83.1494 145.165L79.3384 148.026H121.152L117.341 145.165C117.021 144.925 116.655 144.753 116.266 144.657L107.754 142.531C106.462 142.207 105.316 141.461 104.496 140.411C103.677 139.362 103.232 138.068 103.232 136.737V121.146C103.232 120.354 103.547 119.594 104.107 119.034C104.667 118.474 105.427 118.159 106.219 118.159C109.301 118.159 116.41 115.053 121.571 101.051C124.038 94.361 125.991 85.2814 126.767 73.1732C126.947 70.4095 127.058 67.4845 127.102 64.3982H73.3888Z" fill="white"/>
</svg>
