<svg width="297" height="297" viewBox="0 0 297 297" fill="none" xmlns="http://www.w3.org/2000/svg">
<path d="M0 148.5C0 66.4857 66.4857 0 148.5 0C230.514 0 297 66.4857 297 148.5C297 230.514 230.514 297 148.5 297C66.4857 297 0 230.514 0 148.5Z" fill="url(#paint0_linear_119_110)"/>
<path d="M236.581 148.5C236.581 197.146 197.146 236.582 148.5 236.582C99.8535 236.582 60.418 197.146 60.418 148.5C60.418 99.8537 99.8535 60.4181 148.5 60.4181C197.146 60.4181 236.581 99.8537 236.581 148.5ZM73.6032 148.5C73.6032 189.864 107.136 223.396 148.5 223.396C189.864 223.396 223.396 189.864 223.396 148.5C223.396 107.136 189.864 73.6034 148.5 73.6034C107.136 73.6034 73.6032 107.136 73.6032 148.5Z" fill="white" fill-opacity="0.6"/>
<path d="M209.115 148.5C209.115 181.977 181.976 209.115 148.499 209.115C115.022 209.115 87.8838 181.977 87.8838 148.5C87.8838 115.023 115.022 87.8845 148.499 87.8845C181.976 87.8845 209.115 115.023 209.115 148.5ZM96.9575 148.5C96.9575 176.966 120.034 200.041 148.499 200.041C176.965 200.041 200.041 176.966 200.041 148.5C200.041 120.034 176.965 96.9582 148.499 96.9582C120.034 96.9582 96.9575 120.034 96.9575 148.5Z" fill="white" fill-opacity="0.6"/>
<path d="M148.5 50C148.5 104.4 104.4 148.5 50 148.5C104.4 148.5 148.5 192.6 148.5 247C148.5 192.6 192.6 148.5 247 148.5C192.6 148.5 148.5 104.4 148.5 50Z" fill="white"/>
<path d="M85.9904 50C85.9904 69.8769 69.8769 85.9904 50 85.9904C69.8769 85.9904 85.9904 102.104 85.9904 121.981C85.9904 102.104 102.104 85.9904 121.981 85.9904C102.104 85.9904 85.9904 69.8769 85.9904 50Z" fill="white"/>
<path d="M211.01 175.019C211.01 194.896 194.896 211.01 175.02 211.01C194.896 211.01 211.01 227.123 211.01 247C211.01 227.123 227.123 211.01 247 211.01C227.123 211.01 211.01 194.896 211.01 175.019Z" fill="white"/>
<defs>
<linearGradient id="paint0_linear_119_110" x1="198.378" y1="-14.1698" x2="36.2748" y2="285.664" gradientUnits="userSpaceOnUse">
<stop stop-color="#012559"/>
<stop offset="1" stop-color="#056BFF"/>
</linearGradient>
</defs>
</svg>
