<svg width="200" height="200" viewBox="0 0 200 200" fill="none" xmlns="http://www.w3.org/2000/svg">
<circle cx="100" cy="100" r="100" fill="#0601FA"/>
<path d="M161.649 100.5C161.649 134.824 133.824 162.649 99.5001 162.649C65.1761 162.649 37.3511 134.824 37.3511 100.5C37.3511 66.1761 65.1761 38.3511 99.5001 38.3511C133.824 38.3511 161.649 66.1761 161.649 100.5ZM46.6544 100.5C46.6544 129.686 70.3142 153.346 99.5001 153.346C128.686 153.346 152.346 129.686 152.346 100.5C152.346 71.3142 128.686 47.6544 99.5001 47.6544C70.3142 47.6544 46.6544 71.3142 46.6544 100.5Z" fill="white" fill-opacity="0.6"/>
<path d="M142.269 100.5C142.269 124.121 123.121 143.269 99.4999 143.269C75.8791 143.269 56.7307 124.121 56.7307 100.5C56.7307 76.8791 75.8791 57.7307 99.4999 57.7307C123.121 57.7307 142.269 76.8791 142.269 100.5ZM63.133 100.5C63.133 120.585 79.415 136.867 99.4999 136.867C119.585 136.867 135.867 120.585 135.867 100.5C135.867 80.415 119.585 64.133 99.4999 64.133C79.415 64.133 63.133 80.415 63.133 100.5Z" fill="white" fill-opacity="0.6"/>
<path d="M99.5 31C99.5 69.3838 68.3838 100.5 30 100.5C68.3838 100.5 99.5 131.616 99.5 170C99.5 131.616 130.616 100.5 169 100.5C130.616 100.5 99.5 69.3838 99.5 31Z" fill="white"/>
<path d="M55.3942 31C55.3942 45.0248 44.0248 56.3942 30 56.3942C44.0248 56.3942 55.3942 67.7636 55.3942 81.7885C55.3942 67.7636 66.7636 56.3942 80.7885 56.3942C66.7636 56.3942 55.3942 45.0248 55.3942 31Z" fill="white"/>
<path d="M143.606 119.211C143.606 133.236 132.236 144.606 118.211 144.606C132.236 144.606 143.606 155.975 143.606 170C143.606 155.975 154.975 144.606 169 144.606C154.975 144.606 143.606 133.236 143.606 119.211Z" fill="white"/>
</svg>
