<svg width="297" height="297" viewBox="0 0 297 297" fill="none" xmlns="http://www.w3.org/2000/svg">
<path d="M0 148.5C0 66.4857 66.4857 0 148.5 0C230.514 0 297 66.4857 297 148.5C297 230.514 230.514 297 148.5 297C66.4857 297 0 230.514 0 148.5Z" fill="url(#paint0_linear_65_837)"/>
<rect x="177.534" y="119.472" width="69.4666" height="27.2905" transform="rotate(-90 177.534 119.472)" fill="white"/>
<rect x="93.1816" y="119.472" width="69.4666" height="27.2905" transform="rotate(-90 93.1816 119.472)" fill="white"/>
<rect x="53.4863" y="92.1814" width="66.9857" height="27.2905" fill="white"/>
<rect x="53.4863" y="176.534" width="66.9857" height="27.2905" fill="white"/>
<rect x="129.702" y="148.004" width="27.2905" height="27.3015" transform="rotate(-45 129.702 148.004)" fill="white"/>
<rect x="177.534" y="176.533" width="66.9857" height="27.2905" fill="white"/>
<rect x="177.534" y="246" width="69.4666" height="27.2905" transform="rotate(-90 177.534 246)" fill="white"/>
<rect x="177.534" y="92.1812" width="66.9857" height="27.2905" fill="white"/>
<rect x="93.1816" y="246" width="69.4666" height="27.2905" transform="rotate(-90 93.1816 246)" fill="white"/>
<path d="M246.221 148.465C241.749 152.937 236.425 156.469 230.553 158.861C224.68 161.252 218.375 162.455 211.997 162.402C205.619 162.348 199.293 161.039 193.38 158.548C187.466 156.058 182.082 152.436 177.534 147.888L197.515 127.907C199.394 129.787 201.619 131.284 204.063 132.313C206.507 133.342 209.122 133.884 211.758 133.906C214.394 133.928 217 133.431 219.426 132.442C221.853 131.454 224.054 129.994 225.902 128.146L246.221 148.465Z" fill="white"/>
<path d="M177.535 147.889C182.008 143.416 187.332 139.884 193.204 137.493C199.076 135.101 205.381 133.898 211.759 133.952C218.137 134.005 224.464 135.315 230.377 137.805C236.29 140.295 241.674 143.918 246.222 148.466L226.242 168.446C224.362 166.566 222.137 165.069 219.693 164.04C217.249 163.011 214.635 162.47 211.999 162.448C209.363 162.425 206.757 162.923 204.33 163.911C201.903 164.899 199.703 166.359 197.854 168.208L177.535 147.889Z" fill="white"/>
<path d="M147.663 50.0007C152.135 54.4728 155.667 59.797 158.059 65.6691C160.45 71.5413 161.653 77.8464 161.6 84.2246C161.546 90.6027 160.237 96.929 157.746 102.842C155.256 108.755 151.633 114.14 147.085 118.688L127.105 98.7071C128.985 96.8275 130.482 94.6023 131.511 92.1584C132.54 89.7146 133.081 87.1 133.104 84.464C133.126 81.828 132.628 79.2222 131.64 76.7953C130.652 74.3684 129.192 72.168 127.344 70.3197L147.663 50.0007Z" fill="white"/>
<path d="M147.086 118.687C142.614 114.215 139.082 108.891 136.69 103.019C134.299 97.1467 133.096 90.8416 133.149 84.4634C133.203 78.0853 134.512 71.759 137.003 65.8458C139.493 59.9327 143.116 54.5484 147.664 50.0005L167.644 69.9809C165.764 71.8605 164.267 74.0857 163.238 76.5295C162.209 78.9734 161.668 81.588 161.645 84.224C161.623 86.86 162.121 89.4658 163.109 91.8927C164.097 94.3196 165.557 96.52 167.405 98.3683L147.086 118.687Z" fill="white"/>
<path d="M147.663 176.529C152.135 181.001 155.667 186.325 158.059 192.197C160.45 198.07 161.653 204.375 161.6 210.753C161.546 217.131 160.237 223.457 157.746 229.37C155.256 235.284 151.633 240.668 147.085 245.216L127.105 225.235C128.985 223.356 130.482 221.131 131.511 218.687C132.54 216.243 133.081 213.628 133.104 210.992C133.126 208.356 132.628 205.75 131.64 203.324C130.652 200.897 129.192 198.696 127.344 196.848L147.663 176.529Z" fill="white"/>
<path d="M147.086 245.216C142.614 240.744 139.082 235.42 136.69 229.548C134.299 223.675 133.096 217.37 133.149 210.992C133.203 204.614 134.512 198.288 137.003 192.375C139.493 186.461 143.116 181.077 147.664 176.529L167.644 196.51C165.764 198.389 164.267 200.614 163.238 203.058C162.209 205.502 161.668 208.117 161.645 210.753C161.623 213.389 162.121 215.995 163.109 218.421C164.097 220.848 165.557 223.049 167.405 224.897L147.086 245.216Z" fill="white"/>
<path d="M51.0012 148.561C55.4733 144.088 60.7975 140.556 66.6696 138.165C72.5417 135.773 78.8469 134.57 85.225 134.624C91.6032 134.677 97.9295 135.987 103.843 138.477C109.756 140.967 115.14 144.59 119.688 149.138L99.7076 169.118C97.828 167.239 95.6028 165.741 93.1589 164.712C90.7151 163.683 88.1005 163.142 85.4645 163.12C82.8285 163.098 80.2227 163.595 77.7958 164.583C75.3689 165.571 73.1685 167.031 71.3202 168.88L51.0012 148.561Z" fill="white"/>
<path d="M119.686 149.137C115.214 153.609 109.89 157.141 104.018 159.533C98.1458 161.924 91.8406 163.127 85.4625 163.074C79.0843 163.02 72.758 161.711 66.8449 159.22C60.9317 156.73 55.5474 153.108 50.9995 148.56L70.9799 128.579C72.8595 130.459 75.0847 131.956 77.5286 132.985C79.9724 134.014 82.587 134.556 85.223 134.578C87.859 134.6 90.4648 134.103 92.8917 133.114C95.3186 132.126 97.519 130.666 99.3673 128.818L119.686 149.137Z" fill="white"/>
<defs>
<linearGradient id="paint0_linear_65_837" x1="198.378" y1="-14.1698" x2="36.2748" y2="285.664" gradientUnits="userSpaceOnUse">
<stop stop-color="#012559"/>
<stop offset="1" stop-color="#056BFF"/>
</linearGradient>
</defs>
</svg>
