<svg width="200" height="200" viewBox="0 0 200 200" fill="none" xmlns="http://www.w3.org/2000/svg">
<circle cx="100" cy="100" r="100" fill="#0601FA"/>
<path d="M35 114.326L50.3779 98.9485L86.2596 137.393V160.46L35 114.326Z" fill="white"/>
<path fill-rule="evenodd" clip-rule="evenodd" d="M55.5038 88.6966C57.5542 96.8981 76.862 116.035 86.2596 124.578V111.763L73.4447 93.8225H81.1336C85.4052 89.5509 91.3855 81.0077 81.1336 81.0077C76.6403 81.0077 71.9829 77.7254 67.8087 73.3187C62.4591 67.6711 57.9032 60.1767 55.5038 55.3779C54.6495 63.0668 53.4534 80.4951 55.5038 88.6966Z" fill="white"/>
<path d="M81.1336 40C68.8313 40 58.9211 50.2519 55.5038 55.3779C57.9032 60.1767 62.4591 67.6711 67.8087 73.3187C67.4008 67.1676 76.522 63.9211 81.1336 63.0668V40Z" fill="white" fill-opacity="0.5"/>
<path d="M99.6106 87.4155L103.706 96.1345L112.425 100.23L103.706 104.326L99.6106 113.045L95.5149 104.326L86.7959 100.23L95.5149 96.1345L99.6106 87.4155Z" fill="white"/>
<path d="M164.221 114.326L148.843 98.9485L112.961 137.393V160.46L164.221 114.326Z" fill="white"/>
<path fill-rule="evenodd" clip-rule="evenodd" d="M143.717 88.6966C141.666 96.8981 122.359 116.035 112.961 124.578V111.763L125.776 93.8225H118.087C113.815 89.5509 107.835 81.0077 118.087 81.0077C122.58 81.0077 127.238 77.7254 131.412 73.3187C136.762 67.6711 141.317 60.1767 143.717 55.3779C144.571 63.0668 145.767 80.4951 143.717 88.6966Z" fill="white"/>
<path d="M118.087 40C130.389 40 140.3 50.2519 143.717 55.3779C141.317 60.1767 136.762 67.6711 131.412 73.3187C131.82 67.1676 122.699 63.9211 118.087 63.0668V40Z" fill="white" fill-opacity="0.5"/>
</svg>
