<svg width="200" height="200" viewBox="0 0 200 200" fill="none" xmlns="http://www.w3.org/2000/svg">
<circle cx="100" cy="100" r="100" fill="#0601FA"/>
<path d="M147.744 101.103C147.744 127.06 126.702 148.103 100.744 148.103C74.7868 148.103 53.7441 127.06 53.7441 101.103C53.7441 75.1456 74.7868 54.103 100.744 54.103C126.702 54.103 147.744 75.1456 147.744 101.103ZM64.6425 101.103C64.6425 121.041 80.8057 137.205 100.744 137.205C120.683 137.205 136.846 121.041 136.846 101.103C136.846 81.1646 120.683 65.0014 100.744 65.0014C80.8057 65.0014 64.6425 81.1646 64.6425 101.103Z" fill="white" fill-opacity="0.4"/>
<path d="M135.693 128.821C135.693 148.788 119.506 164.975 99.5391 164.975C79.5719 164.975 63.3853 148.788 63.3853 128.821C63.3853 108.853 79.5719 92.6669 99.5391 92.6669C119.506 92.6669 135.693 108.853 135.693 128.821ZM66.0025 128.821C66.0025 147.342 81.0174 162.357 99.5391 162.357C118.061 162.357 133.076 147.342 133.076 128.821C133.076 110.299 118.061 95.2841 99.5391 95.2841C81.0174 95.2841 66.0025 110.299 66.0025 128.821Z" fill="white" fill-opacity="0.4"/>
<path d="M106.769 111.949L135.692 143.282L129.666 124L180.282 87.8462H129.666L106.769 111.949Z" fill="white"/>
<path d="M93.5128 111.949L64.5897 143.282L70.6154 124L20 87.8462H70.6154L93.5128 111.949Z" fill="white"/>
<path d="M100.743 104.718L116.41 80.6154L100.743 30L85.0766 80.6154L100.743 104.718Z" fill="white"/>
<path d="M73.0253 171L100.743 149.308L129.666 171L100.743 119.179L73.0253 171Z" fill="white"/>
</svg>
