<svg width="297" height="297" viewBox="0 0 297 297" fill="none" xmlns="http://www.w3.org/2000/svg">
<path d="M0 148.5C0 66.4857 66.4857 0 148.5 0C230.514 0 297 66.4857 297 148.5C297 230.514 230.514 297 148.5 297C66.4857 297 0 230.514 0 148.5Z" fill="url(#paint0_linear_119_99)"/>
<path d="M217.727 149.377C217.727 187.116 187.133 217.71 149.393 217.71C111.654 217.71 81.0601 187.116 81.0601 149.377C81.0601 111.637 111.654 81.0435 149.393 81.0435C187.133 81.0435 217.727 111.637 217.727 149.377ZM96.9052 149.377C96.9052 178.365 120.405 201.865 149.393 201.865C178.382 201.865 201.882 178.365 201.882 149.377C201.882 120.388 178.382 96.8887 149.393 96.8887C120.405 96.8887 96.9052 120.388 96.9052 149.377Z" fill="white" fill-opacity="0.4"/>
<path d="M200.205 189.675C200.205 218.706 176.672 242.24 147.641 242.24C118.611 242.24 95.0771 218.706 95.0771 189.675C95.0771 160.645 118.611 137.111 147.641 137.111C176.672 137.111 200.205 160.645 200.205 189.675ZM98.8824 189.675C98.8824 216.604 120.712 238.434 147.641 238.434C174.57 238.434 196.4 216.604 196.4 189.675C196.4 162.747 174.57 140.917 147.641 140.917C120.712 140.917 98.8824 162.747 98.8824 189.675Z" fill="white" fill-opacity="0.4"/>
<path d="M158.153 165.145L200.205 210.701L191.444 182.667L265.034 130.103H191.444L158.153 165.145Z" fill="white"/>
<path d="M138.88 165.145L96.8291 210.701L105.59 182.667L32 130.103H105.59L138.88 165.145Z" fill="white"/>
<path d="M149.393 154.632L172.171 119.59L149.393 46L126.615 119.59L149.393 154.632Z" fill="white"/>
<path d="M109.094 251L149.393 219.462L191.444 251L149.393 175.658L109.094 251Z" fill="white"/>
<defs>
<linearGradient id="paint0_linear_119_99" x1="198.378" y1="-14.1698" x2="36.2748" y2="285.664" gradientUnits="userSpaceOnUse">
<stop stop-color="#012559"/>
<stop offset="1" stop-color="#056BFF"/>
</linearGradient>
</defs>
</svg>
