<svg width="200" height="200" viewBox="0 0 200 200" fill="none" xmlns="http://www.w3.org/2000/svg">
<circle cx="100" cy="100" r="100" fill="#0601FA"/>
<path d="M100.5 167.964H84.2314C70.2807 128.563 38.4039 64.82 30 52.0845C56.0298 64.7259 76.9983 95.9783 81.5174 110.024L78.8085 117.925C73.3856 116.169 65.2513 114.764 76.097 123.192C86.9428 131.62 96.8848 146.017 100.5 152.162V167.964Z" fill="white" fill-opacity="0.5"/>
<path fill-rule="evenodd" clip-rule="evenodd" d="M99.3349 164.488L94.0231 167.554L86.1261 153.876C86.186 146.75 87.601 129.317 92.782 116.599C97.963 103.881 91.6204 109.164 87.8015 113.395L81.5072 107.911C78.4014 93.4933 80.9422 55.9572 97.1671 32C96.7192 39.4658 97.5127 60.3691 99.3349 84.58C101.157 60.3691 101.95 39.4658 101.503 32C117.728 55.9572 120.268 93.4933 117.162 107.911L110.868 113.395C107.049 109.164 100.707 103.881 105.888 116.599C111.069 129.317 112.484 146.75 112.544 153.876L104.647 167.554L99.3349 164.488Z" fill="white" fill-opacity="0.7"/>
<path d="M100.5 167.964H116.769C130.719 128.563 162.596 64.82 171 52.0845C144.97 64.7259 124.002 95.9783 119.483 110.024L122.192 117.925C127.614 116.169 135.749 114.764 124.903 123.192C114.057 131.62 104.115 146.017 100.5 152.162V167.964Z" fill="white" fill-opacity="0.5"/>
</svg>
