<svg width="297" height="297" viewBox="0 0 297 297" fill="none" xmlns="http://www.w3.org/2000/svg">
<path d="M0 148.5C0 66.4857 66.4857 0 148.5 0C230.514 0 297 66.4857 297 148.5C297 230.514 230.514 297 148.5 297C66.4857 297 0 230.514 0 148.5Z" fill="url(#paint0_linear_119_117)"/>
<path d="M55 168.362L77.2539 146.149L129.18 201.681V235L55 168.362Z" fill="white"/>
<path fill-rule="evenodd" clip-rule="evenodd" d="M84.6718 131.34C87.639 143.187 115.58 170.83 129.18 183.17V164.66L110.635 138.745H121.762C127.943 132.574 136.598 120.234 121.762 120.234C115.259 120.234 108.519 115.493 102.479 109.128C94.7371 100.97 88.1441 90.1445 84.6718 83.2128C83.4355 94.3191 81.7046 119.494 84.6718 131.34Z" fill="white"/>
<path d="M121.762 61C103.959 61 89.6171 75.8085 84.6718 83.2128C88.1441 90.1445 94.7371 100.97 102.479 109.128C101.888 100.243 115.088 95.5532 121.762 94.3191V61Z" fill="white" fill-opacity="0.5"/>
<path d="M148.5 129.49L154.427 142.084L167.045 148L154.427 153.916L148.5 166.511L142.573 153.916L129.956 148L142.573 142.084L148.5 129.49Z" fill="white"/>
<path d="M242 168.362L219.746 146.149L167.82 201.681V235L242 168.362Z" fill="white"/>
<path fill-rule="evenodd" clip-rule="evenodd" d="M212.328 131.34C209.361 143.187 181.42 170.83 167.82 183.17V164.66L186.365 138.745H175.238C169.057 132.574 160.402 120.234 175.238 120.234C181.741 120.234 188.481 115.493 194.521 109.128C202.263 100.97 208.856 90.1445 212.328 83.2128C213.564 94.3191 215.295 119.494 212.328 131.34Z" fill="white"/>
<path d="M175.238 61C193.041 61 207.383 75.8085 212.328 83.2128C208.856 90.1445 202.263 100.97 194.521 109.128C195.112 100.243 181.912 95.5532 175.238 94.3191V61Z" fill="white" fill-opacity="0.5"/>
<defs>
<linearGradient id="paint0_linear_119_117" x1="198.378" y1="-14.1698" x2="36.2748" y2="285.664" gradientUnits="userSpaceOnUse">
<stop stop-color="#012559"/>
<stop offset="1" stop-color="#056BFF"/>
</linearGradient>
</defs>
</svg>
