<svg width="297" height="297" viewBox="0 0 297 297" fill="none" xmlns="http://www.w3.org/2000/svg">
<path d="M0 148.5C0 66.4857 66.4857 0 148.5 0C230.514 0 297 66.4857 297 148.5C297 230.514 230.514 297 148.5 297C66.4857 297 0 230.514 0 148.5Z" fill="url(#paint0_linear_65_839)"/>
<rect x="175.189" y="83.3522" width="25.352" height="25.3417" transform="rotate(-90 175.189 83.3522)" fill="white"/>
<rect x="96.8608" y="83.3418" width="25.3417" height="78.329" transform="rotate(-90 96.8608 83.3418)" fill="white"/>
<path d="M96.8608 136.329H122.203L96.8608 159.367V136.329Z" fill="white"/>
<rect x="60" y="97.1648" width="25.3417" height="25.352" fill="white"/>
<rect x="60" y="122.506" width="25.3417" height="78.329" fill="white"/>
<path d="M200.531 136.329V161.681H175.189L200.531 136.329Z" fill="white"/>
<path d="M161.367 97.1648H136.025L161.367 122.517V97.1648Z" fill="white"/>
<rect x="130.773" y="149.001" width="25.3417" height="25.352" transform="rotate(-45 130.773 149.001)" fill="white"/>
<path d="M136.025 175.494L161.367 200.846H136.025V175.494Z" fill="white"/>
<rect x="212.05" y="175.494" width="25.3417" height="25.352" fill="white"/>
<rect x="122.202" y="240" width="25.3417" height="78.329" transform="rotate(-90 122.202 240)" fill="white"/>
<rect x="212.05" y="97.1648" width="25.3417" height="78.329" fill="white"/>
<rect x="96.8608" y="240" width="25.352" height="25.3417" transform="rotate(-90 96.8608 240)" fill="white"/>
<defs>
<linearGradient id="paint0_linear_65_839" x1="198.378" y1="-14.1698" x2="36.2748" y2="285.664" gradientUnits="userSpaceOnUse">
<stop stop-color="#012559"/>
<stop offset="1" stop-color="#056BFF"/>
</linearGradient>
</defs>
</svg>
