<svg width="200" height="200" viewBox="0 0 200 200" fill="none" xmlns="http://www.w3.org/2000/svg">
<circle cx="100" cy="100" r="100" fill="#0601FA"/>
<path d="M112.017 100.962C112.002 118.227 103.036 135.015 87.0083 144.268C70.9808 153.522 51.9595 152.893 37 144.273C37.0145 127.008 45.9807 110.22 62.0083 100.967C78.0359 91.7133 97.0572 92.3419 112.017 100.962Z" fill="white" fill-opacity="0.6"/>
<path fill-rule="evenodd" clip-rule="evenodd" d="M99.5 122.622C114.445 113.977 124.5 97.8179 124.5 79.3109C124.5 60.8038 114.445 44.6452 99.5 36C84.555 44.6452 74.5 60.8038 74.5 79.3109C74.5 97.8179 84.555 113.977 99.5 122.622Z" fill="white" fill-opacity="0.55"/>
<path d="M87 100.962C87.0145 118.227 95.9807 135.015 112.008 144.268C128.036 153.522 147.057 152.893 162.017 144.273C162.002 127.008 153.036 110.22 137.008 100.967C120.981 91.7133 101.96 92.3419 87 100.962Z" fill="white" fill-opacity="0.36"/>
</svg>
