<svg width="297" height="297" viewBox="0 0 297 297" fill="none" xmlns="http://www.w3.org/2000/svg">
<path d="M0 148.5C0 66.4857 66.4857 0 148.5 0C230.514 0 297 66.4857 297 148.5C297 230.514 230.514 297 148.5 297C66.4857 297 0 230.514 0 148.5Z" fill="url(#paint0_linear_119_115)"/>
<path d="M167.456 175.571C169.534 168.064 170.605 160.279 170.612 152.437C163.819 148.516 156.541 145.55 149 143.599C141.459 145.55 134.181 148.516 127.388 152.437C127.395 160.293 128.47 168.092 130.555 175.612C136.009 181.172 142.206 185.997 148.986 189.926C155.782 185.988 161.993 181.148 167.456 175.571Z" fill="white"/>
<path d="M130.555 175.612C128.47 168.092 127.395 160.293 127.388 152.437C134.181 148.516 141.459 145.55 149 143.599C136.479 140.36 123.232 139.918 110.272 142.546C114.484 155.102 121.492 166.372 130.555 175.612Z" fill="white" fill-opacity="0.6"/>
<path d="M170.612 152.437C170.605 160.279 169.534 168.064 167.456 175.571C176.501 166.337 183.496 155.08 187.701 142.54C174.75 139.918 161.512 140.362 149 143.599C156.541 145.55 163.819 148.516 170.612 152.437Z" fill="white" fill-opacity="0.6"/>
<path d="M167.456 175.571C161.993 181.148 155.782 185.988 148.986 189.926C142.206 185.997 136.009 181.172 130.555 175.612C134.015 188.088 140.254 199.796 149 209.722C157.756 199.785 163.999 188.063 167.456 175.571Z" fill="white" fill-opacity="0.6"/>
<path d="M41 227.4C66.8467 242.32 99.7111 243.407 127.403 227.391C135.737 222.572 142.965 216.571 149 209.722C140.254 199.796 134.015 188.088 130.555 175.612C121.492 166.372 114.484 155.102 110.272 142.546C101.337 144.357 92.539 147.627 84.2088 152.445C56.5167 168.461 41.025 197.517 41 227.4Z" fill="white" fill-opacity="0.4"/>
<path d="M148.986 40C123.164 54.9632 105.791 82.9307 105.791 114.963C105.791 124.607 107.366 133.882 110.272 142.546C123.232 139.918 136.479 140.36 149 143.599C161.512 140.362 174.75 139.918 187.701 142.54C190.606 133.879 192.18 124.605 192.18 114.963C192.18 82.9307 174.807 54.9632 148.986 40Z" fill="white" fill-opacity="0.4"/>
<path d="M170.597 227.391C198.289 243.407 231.153 242.32 257 227.4C256.975 197.517 241.483 168.461 213.791 152.445C205.453 147.622 196.645 144.35 187.701 142.54C183.496 155.08 176.501 166.337 167.456 175.571C163.999 188.063 157.756 199.785 149 209.722C155.035 216.571 162.263 222.572 170.597 227.391Z" fill="white" fill-opacity="0.4"/>
<defs>
<linearGradient id="paint0_linear_119_115" x1="198.378" y1="-14.1698" x2="36.2748" y2="285.664" gradientUnits="userSpaceOnUse">
<stop stop-color="#012559"/>
<stop offset="1" stop-color="#056BFF"/>
</linearGradient>
</defs>
</svg>
