<svg width="297" height="297" viewBox="0 0 297 297" fill="none" xmlns="http://www.w3.org/2000/svg">
<path d="M0 148.5C0 66.4857 66.4857 0 148.5 0C230.514 0 297 66.4857 297 148.5C297 230.514 230.514 297 148.5 297C66.4857 297 0 230.514 0 148.5Z" fill="url(#paint0_linear_62_557)"/>
<rect x="173.493" y="88.8358" width="22.8354" height="57.5065" transform="rotate(-90 173.493 88.8358)" fill="white"/>
<rect x="67" y="88.8358" width="22.8354" height="57.5065" transform="rotate(-90 67 88.8358)" fill="white"/>
<rect x="101.078" y="136.582" width="23.4286" height="58.1265" fill="white"/>
<rect x="67" y="66" width="23.4286" height="58.1265" fill="white"/>
<rect x="67" y="171.874" width="23.4286" height="35.2911" fill="white"/>
<rect x="173.493" y="136.582" width="23.4286" height="58.1265" fill="white"/>
<rect width="23.1339" height="23.1433" transform="matrix(0.716114 -0.697984 0.716114 0.697984 132.43 112.709)" fill="white"/>
<rect x="137.286" y="136.582" width="23.4286" height="22.8447" fill="white"/>
<rect x="101.078" y="171.874" width="95.8442" height="22.8354" fill="white"/>
<rect x="207.571" y="171.874" width="23.4286" height="35.2911" fill="white"/>
<rect x="173.493" y="230" width="22.8447" height="23.4286" transform="rotate(-90 173.493 230)" fill="white"/>
<rect x="207.571" y="66" width="23.4286" height="58.1265" fill="white"/>
<rect x="101.078" y="230" width="22.8354" height="95.8442" transform="rotate(-90 101.078 230)" fill="white"/>
<defs>
<linearGradient id="paint0_linear_62_557" x1="198.378" y1="-14.1698" x2="36.2748" y2="285.664" gradientUnits="userSpaceOnUse">
<stop stop-color="#012559"/>
<stop offset="1" stop-color="#056BFF"/>
</linearGradient>
</defs>
</svg>
