<svg width="297" height="297" viewBox="0 0 297 297" fill="none" xmlns="http://www.w3.org/2000/svg">
<path d="M0 148.5C0 66.4857 66.4857 0 148.5 0C230.514 0 297 66.4857 297 148.5C297 230.514 230.514 297 148.5 297C66.4857 297 0 230.514 0 148.5Z" fill="url(#paint0_linear_119_93)"/>
<path d="M141.335 254.678C157.691 259.257 191.775 252.098 201.057 230.772L165.224 192.523L213.001 151.883L201.057 142.321L234.501 108.853C251.701 105.028 256.001 84.9476 256 75.3853L229.722 96.9004L219.486 89.7287C237.914 80.1665 231.795 57.734 231.795 41C233.707 62.037 217.78 65.8231 208.224 75.3853C201.057 87.3382 182.424 110.766 165.224 108.853C174.779 120.806 167.613 156.665 138.946 159.055C133.213 147.58 119.039 127.181 112.668 118.416C115.057 133.556 116.49 165.749 103.113 173.399C99.2904 181.048 101.52 182.961 103.113 182.961H115.056C115.056 187.742 116.011 197.304 119.833 197.304C121.662 197.304 123.199 196.94 124.392 196.472C125.523 195.281 126.506 194.914 127 194.914C126.585 195.329 125.693 195.962 124.392 196.472C123.698 197.202 122.949 198.241 122.222 199.695C119.833 204.476 131.778 202.085 131.778 206.867C131.778 211.648 127 214.038 129.389 216.429C131.3 218.341 141.333 214.038 146.111 211.648L141.335 254.678Z" fill="white"/>
<path d="M215.389 139.931L239.278 118.416L253.611 139.931L234.501 149.493L215.389 139.931Z" fill="white"/>
<path d="M189.111 197.304H217.778C215.39 202.085 208.703 211.648 201.057 211.648C193.411 211.648 181.944 200.492 177.167 194.914L215.389 161.446H251.222C238.481 170.211 209.656 187.742 196.278 187.742C194.367 191.567 190.704 195.711 189.111 197.304Z" fill="white"/>
<path d="M186.722 77.7759C169.205 72.9948 127.958 67.7355 103.113 84.9476C78.267 102.16 67.2778 119.212 64.8889 125.587L88.7778 130.368L67.2778 132.759L84 156.665L41 123.197L55.3333 120.806C56.9259 117.619 61.5444 109.809 67.2778 104.072C61.5444 98.3348 56.9259 88.9319 55.3333 84.9476L74.4444 92.1193C81.6111 85.7445 98.8111 72.5167 110.278 70.6042C108.367 71.0318 109.481 56.439 110.278 49.0891L127 61.0419C143.722 59.4482 179.078 60.5638 186.722 77.7759Z" fill="white"/>
<defs>
<linearGradient id="paint0_linear_119_93" x1="198.378" y1="-14.1698" x2="36.2748" y2="285.664" gradientUnits="userSpaceOnUse">
<stop stop-color="#012559"/>
<stop offset="1" stop-color="#056BFF"/>
</linearGradient>
</defs>
</svg>
