<svg width="200" height="200" viewBox="0 0 200 200" fill="none" xmlns="http://www.w3.org/2000/svg">
<circle cx="100" cy="100" r="100" fill="#0601FA"/>
<path d="M89.8676 168.145C100.442 171.106 122.478 166.477 128.479 152.69L105.312 127.961L136.201 101.687L128.479 95.5053L150.101 73.8679C161.221 71.3951 164 58.4126 164 52.2305L147.011 66.1403L140.393 61.5037C152.307 55.3216 148.351 40.8187 148.351 30C149.587 43.6007 139.29 46.0484 133.112 52.2305C128.479 59.9582 116.432 75.1044 105.312 73.8679C111.49 81.5956 106.857 104.779 88.3232 106.324C84.6165 98.9055 75.4528 85.717 71.3343 80.05C72.8787 89.8384 73.8054 110.652 65.1565 115.597C62.6854 120.543 64.1269 121.779 65.1565 121.779H72.8778C72.8778 124.87 73.4956 131.053 75.9667 131.053C77.1487 131.053 78.1423 130.817 78.9136 130.514C79.6451 129.745 80.2808 129.507 80.6 129.507C80.3315 129.776 79.7547 130.185 78.9136 130.514C78.4651 130.986 77.9807 131.658 77.5111 132.598C75.9667 135.689 83.6889 134.144 83.6889 137.235C83.6889 140.326 80.6 141.871 82.1444 143.417C83.38 144.653 89.8667 141.871 92.9556 140.326L89.8676 168.145Z" fill="white"/>
<path d="M137.744 93.9598L153.189 80.05L162.456 93.9598L150.101 100.142L137.744 93.9598Z" fill="white"/>
<path d="M120.756 131.053H139.289C137.745 134.144 133.422 140.326 128.479 140.326C123.536 140.326 116.122 133.113 113.033 129.507L137.744 107.87H160.911C152.674 113.537 134.038 124.87 125.389 124.87C124.153 127.343 121.785 130.022 120.756 131.053Z" fill="white"/>
<path d="M119.211 53.776C107.886 50.685 81.2195 47.2848 65.1565 58.4126C49.0935 69.5404 41.9889 80.5652 40.4444 84.6866L55.8889 87.7777L41.9889 89.3232L52.8 104.779L25 83.1411L34.2667 81.5956C35.2963 79.5349 38.2822 74.4861 41.9889 70.7769C38.2822 67.0676 35.2963 60.9885 34.2667 58.4126L46.6222 63.0492C51.2556 58.9278 62.3756 50.3759 69.7889 49.1395C68.5533 49.4159 69.2741 39.9815 69.7889 35.2297L80.6 42.9573C91.4111 41.927 114.269 42.6482 119.211 53.776Z" fill="white"/>
</svg>
