<svg width="297" height="297" viewBox="0 0 297 297" fill="none" xmlns="http://www.w3.org/2000/svg">
<path d="M0 148.5C0 66.4857 66.4857 0 148.5 0C230.514 0 297 66.4857 297 148.5C297 230.514 230.514 297 148.5 297C66.4857 297 0 230.514 0 148.5Z" fill="url(#paint0_linear_65_845)"/>
<path d="M160.524 111.707L160.524 135.958H185.406C182.138 135.958 178.903 135.331 175.884 134.112C172.865 132.894 170.122 131.107 167.812 128.855C165.502 126.604 163.669 123.93 162.418 120.988C161.168 118.046 160.524 114.892 160.524 111.707Z" fill="white"/>
<path d="M135.644 111.707L135.644 135.958H110.762C114.03 135.958 117.265 135.331 120.284 134.112C123.303 132.894 126.046 131.107 128.356 128.855C130.666 126.604 132.499 123.93 133.75 120.988C135 118.046 135.644 114.892 135.644 111.707Z" fill="white"/>
<path d="M135.644 184.461L135.644 160.21H110.762C114.03 160.21 117.265 160.837 120.284 162.056C123.303 163.274 126.046 165.061 128.356 167.313C130.666 169.565 132.499 172.238 133.75 175.18C135 178.123 135.644 181.276 135.644 184.461Z" fill="white"/>
<path d="M160.524 184.461L160.524 160.21H185.406C182.138 160.21 178.903 160.837 175.884 162.056C172.865 163.274 170.122 165.061 167.812 167.313C165.502 169.565 163.669 172.238 162.418 175.18C161.168 178.123 160.524 181.276 160.524 184.461Z" fill="white"/>
<path d="M205.763 182.256L205.763 206.508H180.882C184.149 206.508 187.384 205.88 190.403 204.662C193.422 203.443 196.165 201.657 198.475 199.405C200.786 197.153 202.618 194.479 203.869 191.537C205.119 188.595 205.763 185.441 205.763 182.256Z" fill="white"/>
<path d="M92.6667 180.052L92.6667 204.303H117.548C114.28 204.303 111.045 203.676 108.026 202.457C105.008 201.238 102.265 199.452 99.9543 197.2C97.6438 194.948 95.8111 192.275 94.5607 189.332C93.3103 186.39 92.6667 183.237 92.6667 180.052Z" fill="white"/>
<path d="M208.025 63.2051L208.025 87.4563H232.906C229.639 87.4563 226.403 86.829 223.384 85.6103C220.366 84.3915 217.623 82.6052 215.312 80.3533C213.002 78.1013 211.169 75.4279 209.919 72.4856C208.668 69.5433 208.025 66.3898 208.025 63.2051Z" fill="white"/>
<path d="M92.6667 65.4097L92.6667 89.6609H67.7856C71.053 89.6609 74.2885 89.0336 77.3072 87.8149C80.3259 86.5961 83.0688 84.8098 85.3792 82.5579C87.6897 80.3059 89.5224 77.6325 90.7728 74.6902C92.0232 71.7479 92.6667 68.5944 92.6667 65.4097Z" fill="white"/>
<path d="M205.763 230.76L205.763 206.508H230.644C227.376 206.508 224.141 207.136 221.122 208.354C218.104 209.573 215.361 211.36 213.05 213.611C210.74 215.863 208.907 218.537 207.657 221.479C206.406 224.421 205.763 227.575 205.763 230.76Z" fill="white"/>
<path d="M92.6667 228.554L92.6667 204.303H67.7856C71.053 204.303 74.2885 204.93 77.3072 206.149C80.3259 207.368 83.0688 209.154 85.3792 211.406C87.6897 213.658 89.5224 216.331 90.7728 219.274C92.0232 222.216 92.6667 225.369 92.6667 228.554Z" fill="white"/>
<path d="M208.025 111.707L208.025 87.4561H183.144C186.411 87.4561 189.647 88.0833 192.665 89.3021C195.684 90.5208 198.427 92.3071 200.737 94.5591C203.048 96.811 204.881 99.4844 206.131 102.427C207.381 105.369 208.025 108.523 208.025 111.707Z" fill="white"/>
<path d="M92.6667 113.913L92.6667 89.6616H117.548C114.28 89.6616 111.045 90.2889 108.026 91.5076C105.008 92.7264 102.265 94.5127 99.9543 96.7646C97.6438 99.0166 95.8111 101.69 94.5607 104.632C93.3103 107.575 92.6667 110.728 92.6667 113.913Z" fill="white"/>
<rect x="174.096" y="85.2609" width="24.2611" height="24.8811" transform="rotate(-90 174.096 85.2609)" fill="white"/>
<rect x="97.1909" y="85.2609" width="24.2611" height="24.8811" transform="rotate(-90 97.1909 85.2609)" fill="white"/>
<rect x="61" y="135.959" width="61.0719" height="24.2512" fill="white"/>
<rect x="61" y="98.4801" width="24.8811" height="24.2611" fill="white"/>
<rect x="61" y="173.438" width="24.8811" height="24.2611" fill="white"/>
<rect x="174.096" y="135.959" width="61.0719" height="24.2512" fill="white"/>
<rect x="135.644" y="61.0007" width="24.8811" height="61.7304" fill="white"/>
<rect x="135.644" y="135.959" width="24.8811" height="24.2611" fill="white"/>
<rect x="135.644" y="173.438" width="24.8811" height="61.7304" fill="white"/>
<rect x="210.287" y="173.438" width="24.8811" height="24.2611" fill="white"/>
<rect x="174.096" y="235.169" width="24.2611" height="24.8811" transform="rotate(-90 174.096 235.169)" fill="white"/>
<rect x="210.287" y="98.4801" width="24.8811" height="24.2611" fill="white"/>
<rect x="97.1909" y="235.169" width="24.2611" height="24.8811" transform="rotate(-90 97.1909 235.169)" fill="white"/>
<defs>
<linearGradient id="paint0_linear_65_845" x1="198.378" y1="-14.1698" x2="36.2748" y2="285.664" gradientUnits="userSpaceOnUse">
<stop stop-color="#012559"/>
<stop offset="1" stop-color="#056BFF"/>
</linearGradient>
</defs>
</svg>
