<svg width="297" height="297" viewBox="0 0 297 297" fill="none" xmlns="http://www.w3.org/2000/svg">
<path d="M0 148.5C0 66.4857 66.4857 0 148.5 0C230.514 0 297 66.4857 297 148.5C297 230.514 230.514 297 148.5 297C66.4857 297 0 230.514 0 148.5Z" fill="url(#paint0_linear_60_474)"/>
<path d="M65 63C72.6758 63 80.2764 64.5678 87.3678 67.614C94.4593 70.6602 100.903 75.1251 106.33 80.7537C111.758 86.3823 116.063 93.0644 119.001 100.418C121.938 107.773 123.45 115.655 123.45 123.615H89.1567C89.1567 120.325 88.5318 117.067 87.3178 114.028C86.1039 110.989 84.3245 108.227 82.0813 105.901C79.8382 103.575 77.1752 101.729 74.2444 100.47C71.3135 99.2114 68.1723 98.5634 65 98.5634L65 63Z" fill="white"/>
<path d="M231.691 63C224.015 63 216.414 64.5678 209.323 67.614C202.231 70.6602 195.788 75.1251 190.36 80.7537C184.933 86.3823 180.627 93.0644 177.69 100.418C174.753 107.773 173.241 115.655 173.241 123.615H207.534C207.534 120.325 208.159 117.067 209.373 114.028C210.587 110.989 212.366 108.227 214.609 105.901C216.853 103.575 219.516 101.729 222.446 100.47C225.377 99.2114 228.518 98.5634 231.691 98.5634V63Z" fill="white"/>
<path d="M65 234.02C72.6758 234.02 80.2764 232.452 87.3678 229.406C94.4593 226.36 100.903 221.895 106.33 216.266C111.758 210.637 116.063 203.955 119.001 196.601C121.938 189.247 123.45 181.365 123.45 173.405H89.1567C89.1567 176.695 88.5318 179.952 87.3178 182.992C86.1039 186.031 84.3245 188.793 82.0813 191.119C79.8382 193.445 77.1752 195.29 74.2444 196.549C71.3135 197.808 68.1723 198.456 65 198.456L65 234.02Z" fill="white"/>
<path d="M231.691 234.02C224.015 234.02 216.414 232.452 209.323 229.406C202.231 226.36 195.788 221.895 190.36 216.266C184.933 210.637 180.627 203.955 177.69 196.601C174.753 189.247 173.241 181.365 173.241 173.405H207.534C207.534 176.695 208.159 179.952 209.373 182.992C210.587 186.031 212.366 188.793 214.609 191.119C216.853 193.445 219.516 195.29 222.446 196.549C225.377 197.808 228.518 198.456 231.691 198.456V234.02Z" fill="white"/>
<path d="M99.6372 136.604H123.449V160.425H99.6372V136.604Z" fill="white"/>
<path d="M173.24 136.604H197.052V160.425H173.24V136.604Z" fill="white"/>
<path d="M136.439 99.8023H160.25V123.624H136.439V99.8023Z" fill="white"/>
<path d="M131.503 148.513L148.34 131.675L165.184 148.519L148.347 165.357L131.503 148.513Z" fill="white"/>
<path d="M136.439 173.405H160.25V197.227H136.439V173.405Z" fill="white"/>
<path d="M65.0015 190.723C66.4229 190.723 67.8303 190.415 69.1435 189.816C70.4566 189.218 71.6498 188.341 72.6549 187.235C73.6599 186.13 74.4572 184.817 75.0011 183.373C75.545 181.928 75.825 180.38 75.825 178.817C75.825 177.253 75.545 175.705 75.0011 174.261C74.4572 172.816 73.6599 171.504 72.6549 170.398C71.6498 169.293 70.4566 168.416 69.1435 167.817C67.8303 167.219 66.4229 166.911 65.0015 166.911L65.0015 190.723Z" fill="white"/>
<path d="M231.69 190.723C230.269 190.723 228.862 190.415 227.549 189.816C226.235 189.218 225.042 188.341 224.037 187.235C223.032 186.13 222.235 184.817 221.691 183.373C221.147 181.928 220.867 180.38 220.867 178.817C220.867 177.253 221.147 175.705 221.691 174.261C222.235 172.816 223.032 171.504 224.037 170.398C225.042 169.293 226.235 168.416 227.549 167.817C228.862 167.219 230.269 166.911 231.69 166.911V190.723Z" fill="white"/>
<path d="M231.69 132.272C230.269 132.272 228.862 131.964 227.549 131.366C226.235 130.767 225.042 129.89 224.037 128.785C223.032 127.679 222.235 126.367 221.691 124.922C221.147 123.478 220.867 121.93 220.867 120.366C220.867 118.803 221.147 117.255 221.691 115.81C222.235 114.366 223.032 113.053 224.037 111.948C225.042 110.842 226.235 109.965 227.549 109.367C228.862 108.768 230.269 108.46 231.69 108.46V132.272Z" fill="white"/>
<path d="M65.0015 132.272C66.4229 132.272 67.8303 131.964 69.1435 131.366C70.4566 130.767 71.6498 129.89 72.6549 128.785C73.6599 127.679 74.4572 126.367 75.0011 124.922C75.545 123.478 75.825 121.93 75.825 120.366C75.825 118.803 75.545 117.255 75.0011 115.81C74.4572 114.366 73.6599 113.053 72.6549 111.948C71.6498 110.842 70.4566 109.965 69.1435 109.367C67.8303 108.768 66.4229 108.46 65.0015 108.46L65.0015 132.272Z" fill="white"/>
<defs>
<linearGradient id="paint0_linear_60_474" x1="198.378" y1="-14.1698" x2="36.2748" y2="285.664" gradientUnits="userSpaceOnUse">
<stop stop-color="#012559"/>
<stop offset="1" stop-color="#056BFF"/>
</linearGradient>
</defs>
</svg>
