<?xml version="1.0" standalone="no"?>
<!DOCTYPE svg PUBLIC "-//W3C//DTD SVG 20010904//EN"
 "http://www.w3.org/TR/2001/REC-SVG-20010904/DTD/svg10.dtd">
<svg version="1.0" xmlns="http://www.w3.org/2000/svg"
 width="1090.000000pt" height="1090.000000pt" viewBox="0 0 1090.000000 1090.000000"
 preserveAspectRatio="xMidYMid meet">
<metadata>
Created by potrace 1.14, written by Peter Selinger 2001-2017
</metadata>
<g transform="translate(0.000000,1090.000000) scale(0.100000,-0.100000)"
fill="#000000" stroke="none">
<path d="M462 5450 l3 -5435 1133 0 c751 0 1132 3 1132 10 0 6 3 6 8 0 9 -14
2172 -14 2172 -1 0 5 6 4 13 -1 14 -10 207 -10 224 0 5 4 13 3 17 0 3 -4 390
-6 859 -5 468 2 859 3 867 3 8 0 65 0 125 0 61 0 117 0 125 0 8 0 155 0 325 0
171 0 317 0 325 0 8 -1 35 0 60 0 25 0 52 1 60 0 66 -2 174 0 181 5 5 3 9 0 9
-6 0 -6 4 -9 8 -6 7 4 66 7 142 6 8 -1 65 0 125 0 61 1 115 1 120 0 6 -1 15
-1 20 0 23 5 145 1 155 -5 5 -3 10 -3 10 2 0 6 143 9 160 2 3 -1 9 0 15 1 27
5 102 3 113 -4 7 -4 12 -4 12 1 0 4 35 7 77 6 88 -3 137 -3 203 0 25 1 55 -1
68 -5 12 -4 22 -4 22 0 0 4 30 6 67 5 94 -3 113 -3 243 0 63 1 121 -2 128 -7
6 -4 12 -5 12 0 0 11 192 10 208 0 7 -4 12 -4 12 1 0 4 47 8 105 8 58 0 105
-4 105 -8 0 -5 5 -5 12 -1 7 4 48 8 93 9 44 1 83 3 87 4 4 0 8 920 8 2044 1
1123 3 3564 4 5425 2 1860 1 3383 -3 3383 -3 1 -2248 2 -4989 3 l-4982 1 2
-5435z m15 1058 c-3 -8 -6 -5 -6 6 -1 11 2 17 5 13 3 -3 4 -12 1 -19z m0 -450
c-3 -8 -6 -5 -6 6 -1 11 2 17 5 13 3 -3 4 -12 1 -19z m0 -80 c-3 -8 -6 -5 -6
6 -1 11 2 17 5 13 3 -3 4 -12 1 -19z m0 -360 c-3 -7 -5 -2 -5 12 0 14 2 19 5
13 2 -7 2 -19 0 -25z m0 -40 c-3 -8 -6 -5 -6 6 -1 11 2 17 5 13 3 -3 4 -12 1
-19z m0 -40 c-3 -8 -6 -5 -6 6 -1 11 2 17 5 13 3 -3 4 -12 1 -19z m0 -40 c-3
-8 -6 -5 -6 6 -1 11 2 17 5 13 3 -3 4 -12 1 -19z m0 -50 c-3 -7 -5 -2 -5 12 0
14 2 19 5 13 2 -7 2 -19 0 -25z m0 -100 c-3 -8 -6 -5 -6 6 -1 11 2 17 5 13 3
-3 4 -12 1 -19z m0 -70 c-3 -8 -6 -5 -6 6 -1 11 2 17 5 13 3 -3 4 -12 1 -19z
m0 -145 c-3 -10 -5 -4 -5 12 0 17 2 24 5 18 2 -7 2 -21 0 -30z m0 -325 c-3 -7
-5 -2 -5 12 0 14 2 19 5 13 2 -7 2 -19 0 -25z m0 -340 c-3 -8 -6 -5 -6 6 -1
11 2 17 5 13 3 -3 4 -12 1 -19z m0 -60 c-3 -8 -6 -5 -6 6 -1 11 2 17 5 13 3
-3 4 -12 1 -19z m0 -230 c-3 -7 -5 -2 -5 12 0 14 2 19 5 13 2 -7 2 -19 0 -25z"/>
</g>
</svg>
